<svg version="1.1" xmlns="http://www.w3.org/2000/svg" viewBox="0 0 680 460" width="1360" height="920">
  <!-- svg-source:excalidraw -->
  
  <defs>
    <style class="style-fonts">
      @font-face {
        font-family: "Virgil";
        src: url("https://excalidraw.com/Virgil.woff2");
      }
      @font-face {
        font-family: "Cascadia";
        src: url("https://excalidraw.com/Cascadia.woff2");
      }
    </style>
    
  </defs>
  <g stroke-linecap="round" transform="translate(10 10) rotate(0 330 220)"><path d="M1.33 -0.61 L659.2 0.56 L658.29 441.64 L-0.64 438.32" stroke="none" stroke-width="0" fill="#1e1e1e"></path><path d="M0.27 -0.36 C155.95 0.48, 310.23 0.09, 660.31 0.51 M-0.19 0.3 C211.95 1.38, 424.36 0.76, 660.04 0.23 M659.2 0.97 C661.19 170.83, 660.81 340.02, 660.94 440.18 M660.45 -0.09 C658.86 160.35, 659.09 321.87, 660.3 440.07 M660.45 440.09 C490.34 439.86, 320.16 439.75, -0.27 440.27 M659.9 440.26 C464.05 442.92, 267.82 442.61, 0.27 440.26 M-0.88 439.96 C0.9 349.03, 1.4 258.52, 0.85 0.22 M-0.17 439.5 C-1.28 283.61, -1.61 127.59, -0.43 0.08" stroke="transparent" stroke-width="1" fill="none"></path></g><g stroke-linecap="round" transform="translate(530 379) rotate(0 55.5 10.090909090909065)"><path d="M5.05 0 M5.05 0 C32.35 1.12, 58.24 2.74, 105.95 0 M5.05 0 C37.5 0.08, 68.79 1.13, 105.95 0 M105.95 0 C109.87 0.28, 111.11 1.88, 111 5.05 M105.95 0 C108.59 0.47, 109.06 3.27, 111 5.05 M111 5.05 C111.83 8.46, 110.98 11.24, 111 15.14 M111 5.05 C111.41 7.75, 111.13 10.37, 111 15.14 M111 15.14 C112.36 17.98, 109.77 21.95, 105.95 20.18 M111 15.14 C111.89 19.18, 107.54 22.13, 105.95 20.18 M105.95 20.18 C66.86 18.15, 31.07 19.11, 5.05 20.18 M105.95 20.18 C85.47 18.52, 63.88 19.07, 5.05 20.18 M5.05 20.18 C2.07 20.97, -0.3 19.06, 0 15.14 M5.05 20.18 C1.78 19.35, 0.39 16.65, 0 15.14 M0 15.14 C0.45 11.57, 0.18 8.31, 0 5.05 M0 15.14 C-0.28 13.15, -0.2 11.02, 0 5.05 M0 5.05 C-1.75 1.82, 0.35 0.47, 5.05 0 M0 5.05 C0.52 3.01, 3.62 -0.26, 5.05 0" stroke="#ffffff" stroke-width="1" fill="none"></path></g><g stroke-linecap="round" transform="translate(551.921052631579 360.48803827751203) rotate(0 36.81578947368416 9.880382775119585)"><path d="M4.94 0 M4.94 0 C27.74 -1.25, 55.5 1.71, 68.69 0 M4.94 0 C18.97 0.34, 31.86 -0.44, 68.69 0 M68.69 0 C72.5 0.69, 72.28 -0.27, 73.63 4.94 M68.69 0 C71.61 1.74, 71.33 0.81, 73.63 4.94 M73.63 4.94 C74.5 7, 74.25 9.41, 73.63 14.82 M73.63 4.94 C73.92 7.36, 73.08 10.53, 73.63 14.82 M73.63 14.82 C71.64 19.89, 70.64 21.66, 68.69 19.76 M73.63 14.82 C75.53 15.97, 71 17.67, 68.69 19.76 M68.69 19.76 C53.86 21.17, 40.44 20.13, 4.94 19.76 M68.69 19.76 C52.53 20.06, 36.71 19.3, 4.94 19.76 M4.94 19.76 C0.25 17.97, -1.41 17.74, 0 14.82 M4.94 19.76 C1.48 21.44, 0.44 17.83, 0 14.82 M0 14.82 C-0.48 11.57, 0.14 9.27, 0 4.94 M0 14.82 C0.06 10.83, -0.11 6.94, 0 4.94 M0 4.94 C1.9 0.78, 3.59 -1.57, 4.94 0 M0 4.94 C0.46 2.75, 0.63 -2.23, 4.94 0" stroke="#ffffff" stroke-width="1" fill="none"></path></g><g stroke-linecap="round" transform="translate(564.4210526315792 341.9617224880383) rotate(0 22.86842105263156 9.090909090909008)"><path d="M4.55 0 M4.55 0 C17.88 0.29, 31.63 0.99, 41.19 0 M4.55 0 C14.55 -0.77, 22.9 -0.26, 41.19 0 M41.19 0 C45.74 -2, 45.01 0.55, 45.74 4.55 M41.19 0 C44.36 -0.31, 47.76 0.52, 45.74 4.55 M45.74 4.55 C44.86 7.57, 46.39 10.65, 45.74 13.64 M45.74 4.55 C46.18 6.12, 46.21 8.68, 45.74 13.64 M45.74 13.64 C43.87 15.81, 42.4 16.66, 41.19 18.18 M45.74 13.64 C46.92 17.47, 43.56 19.54, 41.19 18.18 M41.19 18.18 C28.93 18.42, 18.25 18.35, 4.55 18.18 M41.19 18.18 C27.97 17.22, 16.35 17.85, 4.55 18.18 M4.55 18.18 C2.98 18.56, -0.24 16.15, 0 13.64 M4.55 18.18 C-0.02 16.37, -1.27 15.42, 0 13.64 M0 13.64 C-0.32 10.86, 0.05 7.56, 0 4.55 M0 13.64 C-0.12 11.61, -0.28 8.79, 0 4.55 M0 4.55 C0.96 0.63, -0.42 1.47, 4.55 0 M0 4.55 C0.01 0.32, -0.32 -0.3, 4.55 0" stroke="#ffffff" stroke-width="1" fill="none"></path></g><g transform="translate(566.2807023901689 347.2547129186602) rotate(0 20.08333396911621 5.9031818181817926)"><text x="0" y="0" font-family="Virgil, Segoe UI Emoji" font-size="9.445090909090906px" fill="#ffffff" text-anchor="start" style="white-space: pre;" direction="ltr" dominant-baseline="text-before-edge">top level</text></g></svg>