<svg version="1.1" xmlns="http://www.w3.org/2000/svg" viewBox="0 0 680 460" width="1360" height="920">
  <!-- svg-source:excalidraw -->
  
  <defs>
    <style class="style-fonts">
      @font-face {
        font-family: "Virgil";
        src: url("https://excalidraw.com/Virgil.woff2");
      }
      @font-face {
        font-family: "Cascadia";
        src: url("https://excalidraw.com/Cascadia.woff2");
      }
    </style>
    
  </defs>
  <g stroke-linecap="round" transform="translate(10 10) rotate(0 330 220)"><path d="M1.33 -0.61 L659.2 0.56 L658.29 441.64 L-0.64 438.32" stroke="none" stroke-width="0" fill="#1e1e1e"></path><path d="M0.27 -0.36 C155.95 0.48, 310.23 0.09, 660.31 0.51 M-0.19 0.3 C211.95 1.38, 424.36 0.76, 660.04 0.23 M659.2 0.97 C661.19 170.83, 660.81 340.02, 660.94 440.18 M660.45 -0.09 C658.86 160.35, 659.09 321.87, 660.3 440.07 M660.45 440.09 C490.34 439.86, 320.16 439.75, -0.27 440.27 M659.9 440.26 C464.05 442.92, 267.82 442.61, 0.27 440.26 M-0.88 439.96 C0.9 349.03, 1.4 258.52, 0.85 0.22 M-0.17 439.5 C-1.28 283.61, -1.61 127.59, -0.43 0.08" stroke="transparent" stroke-width="1" fill="none"></path></g><g stroke-linecap="round" transform="translate(530 379) rotate(0 55.5 10.090909090909065)"><path d="M5.05 0 M5.05 0 C32.35 1.12, 58.24 2.74, 105.95 0 M5.05 0 C37.5 0.08, 68.79 1.13, 105.95 0 M105.95 0 C109.87 0.28, 111.11 1.88, 111 5.05 M105.95 0 C108.59 0.47, 109.06 3.27, 111 5.05 M111 5.05 C111.83 8.46, 110.98 11.24, 111 15.14 M111 5.05 C111.41 7.75, 111.13 10.37, 111 15.14 M111 15.14 C112.36 17.98, 109.77 21.95, 105.95 20.18 M111 15.14 C111.89 19.18, 107.54 22.13, 105.95 20.18 M105.95 20.18 C66.86 18.15, 31.07 19.11, 5.05 20.18 M105.95 20.18 C85.47 18.52, 63.88 19.07, 5.05 20.18 M5.05 20.18 C2.07 20.97, -0.3 19.06, 0 15.14 M5.05 20.18 C1.78 19.35, 0.39 16.65, 0 15.14 M0 15.14 C0.45 11.57, 0.18 8.31, 0 5.05 M0 15.14 C-0.28 13.15, -0.2 11.02, 0 5.05 M0 5.05 C-1.75 1.82, 0.35 0.47, 5.05 0 M0 5.05 C0.52 3.01, 3.62 -0.26, 5.05 0" stroke="#ffffff" stroke-width="1" fill="none"></path></g><g transform="translate(556.2 383.53181818181815) rotate(0 34.28333282470703 5.9031818181817926)"><text x="0" y="0" font-family="Virgil, Segoe UI Emoji" font-size="9.445090909090906px" fill="#ffffff" text-anchor="start" style="white-space: pre;" direction="ltr" dominant-baseline="text-before-edge">Low-level fixes</text></g></svg>
