<svg version="1.1" xmlns="http://www.w3.org/2000/svg" viewBox="0 0 426.5350877192983 423" width="853.0701754385966" height="846" filter="invert(93%) hue-rotate(180deg)">
  <!-- svg-source:excalidraw -->
  
  <defs>
    <style class="style-fonts">
      @font-face {
        font-family: "Virgil";
        src: url("https://excalidraw.com/Virgil.woff2");
      }
      @font-face {
        font-family: "Cascadia";
        src: url("https://excalidraw.com/Cascadia.woff2");
      }
    </style>
    
  </defs>
  <g stroke-linecap="round" transform="translate(10.000000000000057 148.37343358395992) rotate(0 35.8558897243108 31.310776942355886)"><path d="M30.91 -0.33 C37.5 -1.69, 47.59 0.31, 53.69 3.44 C59.79 6.57, 64.61 12.8, 67.51 18.45 C70.42 24.1, 72.43 31.38, 71.13 37.31 C69.84 43.24, 64.7 49.86, 59.75 54.04 C54.8 58.22, 48.3 61.58, 41.45 62.38 C34.59 63.17, 25.02 61.65, 18.62 58.81 C12.21 55.97, 5.86 50.89, 3.02 45.34 C0.18 39.79, 0.39 31.75, 1.56 25.5 C2.73 19.26, 4.35 12.21, 10.05 7.88 C15.75 3.55, 30.94 0.6, 35.74 -0.47 C40.54 -1.53, 39.02 0.83, 38.85 1.51 M49.67 2.96 C56.1 4.51, 62.43 8.91, 66.17 13.91 C69.91 18.92, 72.52 26.83, 72.1 32.98 C71.69 39.14, 68.19 46.01, 63.69 50.86 C59.18 55.71, 52.29 60.54, 45.09 62.06 C37.89 63.57, 27.33 62.43, 20.48 59.96 C13.64 57.5, 7.28 52.57, 4.02 47.26 C0.76 41.94, 0.13 33.93, 0.95 28.09 C1.77 22.25, 4.32 16.62, 8.95 12.22 C13.58 7.81, 21.71 3.18, 28.73 1.66 C35.75 0.14, 47.38 2.75, 51.07 3.09 C54.76 3.43, 51.54 3.15, 50.9 3.69" stroke="#1e1e1e" stroke-width="2" fill="none"></path></g><g stroke-linecap="round"><g transform="translate(76.66165413533838 162.5137844611529) rotate(0 67.30941642212372 -23.95152037228297)"><path d="M-0.35 -1.04 C9.52 -8.99, 36.45 -41.14, 59.01 -47.33 C81.56 -53.52, 122.25 -39.88, 134.97 -38.18 M1.67 1.03 C11.43 -6.82, 36.14 -39.86, 58.28 -46.25 C80.43 -52.64, 121.57 -39.01, 134.54 -37.29" stroke="#1e1e1e" stroke-width="2" fill="none"></path></g></g><mask></mask><g stroke-linecap="round" transform="translate(209.47994987468678 95.85213032581453) rotate(0 35.85588972431077 31.310776942355886)"><path d="M47.22 2.06 C53.86 3.78, 62.1 9.91, 66.02 14.81 C69.93 19.71, 70.89 25.66, 70.7 31.49 C70.5 37.31, 68.97 44.69, 64.84 49.76 C60.71 54.84, 52.77 60.13, 45.89 61.94 C39.02 63.74, 30.28 62.89, 23.6 60.57 C16.92 58.25, 9.61 53.23, 5.83 48.01 C2.05 42.8, 0.63 35.24, 0.92 29.29 C1.21 23.34, 3.47 16.84, 7.6 12.32 C11.73 7.79, 18.55 3.66, 25.69 2.16 C32.83 0.67, 45.95 2.86, 50.45 3.35 C54.94 3.85, 52.79 4.56, 52.66 5.11 M22.4 2.92 C28.15 0.35, 37.13 0.61, 43.92 1.9 C50.71 3.19, 58.46 6.42, 63.16 10.66 C67.85 14.9, 71.75 21.12, 72.09 27.34 C72.42 33.56, 68.67 42.39, 65.18 47.99 C61.69 53.6, 57.31 58.8, 51.13 60.96 C44.94 63.11, 34.98 62.48, 28.05 60.91 C21.12 59.34, 14.15 56.17, 9.55 51.53 C4.95 46.89, 1.3 38.87, 0.45 33.06 C-0.4 27.24, 0.72 21.64, 4.43 16.64 C8.15 11.63, 19.72 5.14, 22.75 3.03 C25.78 0.92, 22.43 3.7, 22.59 3.98" stroke="#1e1e1e" stroke-width="2" fill="none"></path></g><g stroke-linecap="round" transform="translate(214.53007518796994 336.2380952380952) rotate(0 35.85588972431077 38.38095238095241)"><path d="M42.53 1.33 C49.41 2.23, 57.54 6.43, 62.24 11.79 C66.94 17.15, 69.9 26.01, 70.74 33.48 C71.57 40.95, 70.55 50.1, 67.23 56.6 C63.91 63.1, 56.95 69.09, 50.83 72.47 C44.71 75.85, 37.26 78.05, 30.52 76.88 C23.78 75.71, 15.32 70.91, 10.38 65.44 C5.45 59.98, 2.03 51.61, 0.93 44.1 C-0.18 36.6, 0.45 27.03, 3.74 20.42 C7.02 13.82, 13.51 7.6, 20.62 4.47 C27.73 1.33, 41.25 1.6, 46.41 1.62 C51.57 1.64, 51.69 3.99, 51.56 4.6 M34.93 0.08 C41.55 -0.45, 50.31 3.6, 56.25 7.64 C62.18 11.68, 68.38 17.26, 70.54 24.33 C72.71 31.4, 71.28 42.89, 69.24 50.06 C67.2 57.24, 63.62 62.86, 58.31 67.38 C53 71.89, 44.21 76.83, 37.39 77.16 C30.57 77.49, 23.22 73.81, 17.4 69.35 C11.59 64.9, 5.35 57.27, 2.53 50.42 C-0.29 43.57, -1.52 35.2, 0.49 28.24 C2.49 21.28, 8.66 13.56, 14.54 8.66 C20.43 3.77, 32.28 0.12, 35.78 -1.13 C39.29 -2.38, 35.6 0.21, 35.58 1.14" stroke="#1e1e1e" stroke-width="2" fill="none"></path></g><g stroke-linecap="round"><g transform="translate(46.95006196876477 265.838345790943) rotate(220.90095542835968 46.96306274050801 -31.25294759342441)"><path d="M0.43 0.04 C5.91 -9.83, 17.72 -52.33, 33.44 -59.61 C49.16 -66.9, 84.81 -46.6, 94.74 -43.68 M-0.81 -0.98 C4.51 -11.15, 16.84 -54.28, 32.71 -61.23 C48.58 -68.17, 84.41 -45.52, 94.42 -42.66" stroke="#1e1e1e" stroke-width="2" fill="none"></path></g></g><mask></mask><g stroke-linecap="round" transform="translate(142.8182957393484 182.71428571428572) rotate(0 35.85588972431077 31.310776942355886)"><path d="M45.49 1.3 C52.02 2.61, 59.39 8.47, 63.79 13.23 C68.2 18, 71.83 23.83, 71.92 29.87 C72 35.92, 68.48 44.38, 64.32 49.52 C60.15 54.67, 53.52 58.82, 46.91 60.76 C40.3 62.69, 31.39 62.94, 24.66 61.11 C17.94 59.27, 10.53 54.68, 6.57 49.74 C2.62 44.8, 1 37.41, 0.94 31.47 C0.89 25.53, 2.31 19.06, 6.26 14.12 C10.22 9.18, 17.67 3.88, 24.69 1.84 C31.71 -0.2, 44.08 1.71, 48.38 1.89 C52.67 2.06, 50.59 2.57, 50.45 2.9 M21.67 2.27 C27.6 -0.23, 36.25 0.78, 43.17 2.36 C50.09 3.94, 58.53 7.34, 63.19 11.74 C67.84 16.13, 70.35 22.77, 71.1 28.74 C71.85 34.72, 71.48 42.34, 67.69 47.61 C63.9 52.87, 55.01 58.22, 48.34 60.33 C41.67 62.43, 34.56 61.61, 27.67 60.24 C20.79 58.86, 11.69 56.79, 7.02 52.09 C2.36 47.4, 0.17 38.16, -0.31 32.07 C-0.79 25.99, 0.38 20.52, 4.13 15.58 C7.88 10.64, 19.04 4.64, 22.19 2.41 C25.35 0.19, 22.96 1.65, 23.06 2.24" stroke="#1e1e1e" stroke-width="2" fill="none"></path></g><g stroke-linecap="round" transform="translate(344.82330827067676 193.82456140350877) rotate(0 35.85588972431077 38.38095238095238)"><path d="M33.66 -0.34 C40.36 -1.29, 48.19 2.2, 54.16 6.16 C60.13 10.13, 66.66 16.67, 69.47 23.48 C72.29 30.28, 72.61 39.73, 71.06 47.01 C69.51 54.29, 65.41 62.38, 60.17 67.15 C54.92 71.93, 46.86 75.09, 39.6 75.67 C32.34 76.26, 22.64 74.47, 16.63 70.67 C10.61 66.86, 6.14 59.83, 3.52 52.86 C0.9 45.89, -0.71 36.08, 0.92 28.83 C2.55 21.57, 7.64 14.17, 13.28 9.31 C18.92 4.46, 31.01 0.94, 34.77 -0.32 C38.54 -1.59, 35.91 1.14, 35.84 1.73 M34.22 0.68 C40.74 0.11, 50.58 1.35, 56.3 5.75 C62.02 10.16, 66.28 19.72, 68.52 27.11 C70.77 34.5, 71.62 43.17, 69.78 50.09 C67.95 57.01, 63.28 64.06, 57.51 68.64 C51.73 73.22, 42.02 77.57, 35.14 77.58 C28.26 77.6, 21.79 73.19, 16.23 68.71 C10.68 64.23, 4.31 57.76, 1.81 50.69 C-0.68 43.62, -0.75 33.34, 1.25 26.31 C3.26 19.28, 8.27 12.69, 13.82 8.5 C19.38 4.31, 30.78 2.62, 34.58 1.18 C38.39 -0.27, 36.32 -0.85, 36.63 -0.19" stroke="#1e1e1e" stroke-width="2" fill="none"></path></g><g stroke-linecap="round" transform="translate(340.7832080200502 91.81203007518798) rotate(0 35.85588972431077 31.310776942355886)"><path d="M46.05 2.12 C52.63 3.61, 60.05 7.73, 64.18 12.71 C68.3 17.69, 70.66 25.82, 70.78 32.02 C70.91 38.21, 68.91 45.08, 64.92 49.87 C60.93 54.66, 53.33 58.89, 46.85 60.74 C40.36 62.58, 32.75 62.76, 26.01 60.95 C19.27 59.14, 10.68 54.96, 6.4 49.9 C2.13 44.84, 0.45 36.65, 0.35 30.59 C0.25 24.53, 1.81 18.54, 5.79 13.56 C9.77 8.57, 16.82 2.34, 24.25 0.68 C31.68 -0.97, 45.24 2.78, 50.36 3.63 C55.48 4.47, 55.05 5.46, 54.98 5.77 M23.14 1.71 C29.17 -0.88, 39.56 -0.73, 46.35 0.92 C53.15 2.58, 59.51 6.85, 63.9 11.64 C68.29 16.43, 72.26 23.23, 72.69 29.66 C73.12 36.09, 70.82 44.89, 66.48 50.23 C62.15 55.58, 53.31 59.81, 46.71 61.73 C40.11 63.66, 33.53 63.75, 26.86 61.79 C20.19 59.83, 10.95 54.89, 6.69 49.96 C2.43 45.04, 1.38 38.34, 1.32 32.25 C1.26 26.16, 2.71 18.49, 6.32 13.42 C9.94 8.35, 20.2 3.79, 23.01 1.83 C25.82 -0.14, 22.95 0.96, 23.2 1.63" stroke="#1e1e1e" stroke-width="2" fill="none"></path></g><g stroke-linecap="round"><g transform="translate(282.7067669172933 132.2130325814536) rotate(0 26.241618566336513 -2.2799337450290693)"><path d="M-0.17 -0.97 C8.76 -1.82, 45.24 -4.87, 54.21 -5.7 M-1.72 1.14 C7.05 0.49, 44.51 -3.46, 53.61 -4.51" stroke="#1e1e1e" stroke-width="2" fill="none"></path></g></g><mask></mask><g stroke-linecap="round"><g transform="translate(258.82269002648775 292.0559612004698) rotate(80.32407159145593 21.505100149006182 -60.93330579107723)"><path d="M0.59 -0.41 C4.54 -10.9, 17.11 -41.92, 24.28 -62.09 C31.44 -82.26, 40.24 -111.73, 43.57 -121.45 M-0.56 -1.67 C3.7 -12.57, 19.25 -43.93, 26.48 -63.77 C33.71 -83.61, 39.76 -111.45, 42.83 -120.72" stroke="#1e1e1e" stroke-width="2" fill="none"></path></g></g><mask></mask><g stroke-linecap="round"><g transform="translate(293.8902291488463 250.41558707815028) rotate(80.32407159145593 -9.436864915949002 -75.2548459686829)"><path d="M0.44 -0.01 C0.47 -16.91, 4.28 -76.3, 0.69 -101.38 C-2.9 -126.46, -17.56 -142.33, -21.1 -150.5 M-0.79 -1.06 C-0.98 -17.8, 2.59 -75.43, -0.41 -100.1 C-3.41 -124.78, -15.43 -140.94, -18.81 -149.11" stroke="#1e1e1e" stroke-width="2" fill="none"></path></g></g><mask></mask><g stroke-linecap="round"><g transform="translate(341.58427773529854 151.13419407748404) rotate(80.32407159145593 -35.32505965492976 33.96915462416237)"><path d="M0.47 -0.3 C-5.7 2.36, -26.07 4.73, -37.83 16.35 C-49.59 27.98, -64.71 60.77, -70.09 69.43 M-0.75 -1.5 C-7.04 1.32, -27.22 6.27, -38.95 17.79 C-50.68 29.32, -65.91 59.04, -71.12 67.65" stroke="#1e1e1e" stroke-width="2" fill="none"></path></g></g><mask></mask><g stroke-linecap="round"><g transform="translate(379.6934595849824 153.680985084261) rotate(0 8.651799927102502 21.173990997992888)"><path d="M-0.07 0.13 C2.76 3.95, 18.28 14.87, 18.01 21.8 C17.74 28.73, 1.49 38.5, -1.69 41.72 M-1.57 -0.85 C1.53 2.73, 20.32 12.78, 20.11 20.12 C19.9 27.47, 0.68 39.54, -2.81 43.2" stroke="#1e1e1e" stroke-width="2" fill="none"></path></g></g><mask></mask><g stroke-linecap="round"><g transform="translate(177.6641604010025 243.31578947368422) rotate(0 22.259856285340845 46.66617183611251)"><path d="M0.09 -0.47 C1.28 8.71, 0.55 38.91, 8.17 54.69 C15.8 70.46, 39.45 87.37, 45.84 94.18 M-1.32 -1.76 C0.16 7.14, 2.64 37.03, 10.4 53.17 C18.17 69.31, 39.74 88.41, 45.28 95.09" stroke="#1e1e1e" stroke-width="2" fill="none"></path></g></g><mask></mask><g stroke-linecap="round"><g transform="translate(374.7509763514587 268.2874779021221) rotate(0 -43.55035335956069 36.09812098919116)"><path d="M-0.94 -0.25 C-0.09 1.31, 19.93 -2.17, 4.06 9.97 C-11.82 22.11, -79.58 62.19, -96.2 72.56 M0.77 -1.43 C1.53 -0.26, 19.3 -4.23, 2.96 8.28 C-13.37 20.79, -80.86 62.87, -97.26 73.63" stroke="#1e1e1e" stroke-width="2" fill="none"></path></g></g><mask></mask><g stroke-linecap="round" transform="translate(237.72180451127804 365.83959899749357) rotate(0 5.050125313283218 4.545112781954913)"><path d="M1.18 -0.35 L11.49 2.54 L9.16 9.42 L-0.35 6.98 L0.33 1.43 L0.38 -0.99" stroke="none" stroke-width="0" fill="#868e96"></path><path d="M2.27 0 M2.27 0 C3.99 -0.02, 6.92 -0.5, 7.83 0 M2.27 0 C4.48 -0.23, 6.64 0.08, 7.83 0 M7.83 0 C9.33 0.61, 11.47 1, 10.1 2.27 M7.83 0 C7.47 1.32, 9.98 1.09, 10.1 2.27 M10.1 2.27 C10.44 3.86, 10.39 5.33, 10.1 6.82 M10.1 2.27 C9.89 3.52, 10.17 4.52, 10.1 6.82 M10.1 6.82 C11.87 9.85, 11.23 10.3, 7.83 9.09 M10.1 6.82 C9.24 10.08, 8.61 10.18, 7.83 9.09 M7.83 9.09 C6.42 8.6, 4.65 8.93, 2.27 9.09 M7.83 9.09 C6.85 9.03, 5.49 9.27, 2.27 9.09 M2.27 9.09 C1.73 11.01, -1.52 6.46, 0 6.82 M2.27 9.09 C0.16 8.8, -1.73 9.86, 0 6.82 M0 6.82 C0.46 5.66, 0.15 4.07, 0 2.27 M0 6.82 C0.21 5.71, 0.18 4.86, 0 2.27 M0 2.27 C0.63 0.64, -0.27 -0.37, 2.27 0 M0 2.27 C-1.75 2.12, 2.05 -0.32, 2.27 0" stroke="#1e1e1e" stroke-width="1" fill="none"></path></g><g stroke-linecap="round" transform="translate(254.89223057644097 365.3345864661653) rotate(0 5.050125313283218 4.545112781954913)"><path d="M2.24 -0.58 L10.42 -1.18 L10.93 8.99 L0.55 9.13 L1.37 2.52 L0.65 1.15" stroke="none" stroke-width="0" fill="#868e96"></path><path d="M2.27 0 M2.27 0 C3.61 -0.57, 6 0.02, 7.83 0 M2.27 0 C4.22 -0.16, 6.15 0.25, 7.83 0 M7.83 0 C10.15 0.87, 11.87 2.27, 10.1 2.27 M7.83 0 C11.51 1.39, 9.24 2.51, 10.1 2.27 M10.1 2.27 C10.56 3.54, 10.11 4.31, 10.1 6.82 M10.1 2.27 C10.22 3.39, 10.31 4.28, 10.1 6.82 M10.1 6.82 C11.25 9.49, 10.31 11.01, 7.83 9.09 M10.1 6.82 C8.35 6.18, 8.75 8.8, 7.83 9.09 M7.83 9.09 C6.32 9.55, 5.87 9.54, 2.27 9.09 M7.83 9.09 C5.92 9.24, 4.41 8.96, 2.27 9.09 M2.27 9.09 C2.26 10.11, 0.63 8.21, 0 6.82 M2.27 9.09 C-0.43 8.67, -1.75 9.69, 0 6.82 M0 6.82 C-0.05 5.49, 0.07 3.61, 0 2.27 M0 6.82 C-0.19 5.11, 0.13 3.48, 0 2.27 M0 2.27 C-0.68 -0.74, 1.88 -0.13, 2.27 0 M0 2.27 C1.69 -0.61, 1.78 -0.31, 2.27 0" stroke="#1e1e1e" stroke-width="1" fill="none"></path></g><g stroke-linecap="round" transform="translate(96.35714285714289 10) rotate(0 35.85588972431077 31.310776942355886)"><path d="M29.86 0.81 C36.37 -0.46, 44.9 1.05, 51.21 3.66 C57.51 6.27, 64.34 11.26, 67.67 16.48 C71 21.69, 72.32 29.01, 71.19 34.97 C70.06 40.94, 65.82 47.9, 60.89 52.27 C55.96 56.65, 48.52 60.02, 41.61 61.21 C34.71 62.41, 25.57 61.93, 19.47 59.42 C13.37 56.91, 8.1 51.64, 5.02 46.17 C1.93 40.69, 0.16 32.74, 0.97 26.57 C1.78 20.4, 4.38 13.73, 9.86 9.15 C15.33 4.57, 28.84 0.36, 33.81 -0.92 C38.78 -2.2, 39.57 0.76, 39.67 1.48 M24.01 1.34 C30.18 -0.92, 39.19 0.32, 45.91 2 C52.63 3.68, 59.85 6.48, 64.32 11.42 C68.8 16.37, 72.48 25.44, 72.76 31.65 C73.03 37.86, 70.38 43.86, 65.97 48.69 C61.56 53.51, 53.39 58.35, 46.28 60.61 C39.18 62.88, 29.75 64.31, 23.34 62.26 C16.94 60.21, 11.73 53.47, 7.86 48.29 C3.98 43.11, 0.14 36.9, 0.1 31.18 C0.07 25.46, 3.65 18.74, 7.65 13.98 C11.66 9.23, 21.14 4.58, 24.14 2.63 C27.14 0.68, 25.2 2.02, 25.63 2.29" stroke="#1e1e1e" stroke-width="2" fill="none"></path></g><g stroke-linecap="round" transform="translate(296.3421052631579 23.13032581453635) rotate(0 35.85588972431077 31.3107769423559)"><path d="M29.66 -0.27 C36.17 -1.61, 44.8 -0.05, 51.03 2.81 C57.26 5.67, 63.75 11.31, 67.06 16.88 C70.36 22.45, 71.72 30.31, 70.87 36.21 C70.03 42.12, 66.74 48.07, 62 52.31 C57.26 56.54, 49.47 60.33, 42.42 61.63 C35.38 62.93, 26.18 62.81, 19.72 60.12 C13.27 57.43, 7.03 51.04, 3.7 45.47 C0.37 39.9, -1.32 32.75, -0.27 26.69 C0.78 20.63, 4.84 13.66, 9.99 9.1 C15.15 4.55, 26.77 0.83, 30.66 -0.64 C34.55 -2.12, 33.18 -0.29, 33.33 0.26 M48.57 0.18 C55.06 1.46, 62.68 7.62, 66.35 12.9 C70.02 18.18, 70.75 25.81, 70.57 31.86 C70.39 37.92, 69.11 44.57, 65.29 49.2 C61.46 53.83, 54.63 57.67, 47.63 59.63 C40.63 61.6, 30.09 62.75, 23.28 61 C16.47 59.26, 10.87 54.21, 6.77 49.19 C2.68 44.17, -1.35 37.04, -1.28 30.89 C-1.22 24.73, 2.94 17.41, 7.16 12.27 C11.39 7.13, 17.38 1.91, 24.05 0.06 C30.72 -1.79, 43.15 0.85, 47.17 1.17 C51.19 1.49, 48.29 1.5, 48.18 1.98" stroke="#1e1e1e" stroke-width="2" fill="none"></path></g><g stroke-linecap="round"><g transform="translate(165.54385964912285 54.441102756892235) rotate(0 62.64431300152529 -3.547222501239645)"><path d="M-0.5 0.85 C10.18 -0.8, 42.61 -9.38, 63.66 -8.96 C84.71 -8.53, 115.44 1.36, 125.79 3.39 M1.43 0.26 C12.52 -1.78, 45.22 -10.64, 65.86 -10.48 C86.51 -10.32, 115.24 -1.25, 125.31 1.23" stroke="#1e1e1e" stroke-width="2" fill="none"></path></g></g><mask></mask><g stroke-linecap="round"><g transform="translate(129.5437890941123 74.35170549463925) rotate(0 14.013358903711094 53.81950057935043)"><path d="M0.69 0.51 C-0.07 11.35, -10.91 46.8, -5.12 64.7 C0.67 82.6, 29.01 100.82, 35.44 107.91 M-0.4 -0.27 C-1.2 10.73, -11.52 48.03, -5.58 65.74 C0.36 83.45, 28.77 98.89, 35.25 106.01" stroke="#1e1e1e" stroke-width="2" fill="none"></path></g></g><mask></mask><g stroke-linecap="round"><g transform="translate(154.4105966815141 65.05856548100675) rotate(0 44.42313806097542 17.034866673513463)"><path d="M1 -0.69 C10.62 2.35, 42.57 12.35, 57.2 18.09 C71.83 23.83, 83.6 31, 88.77 33.75 M0.07 1.56 C9.64 4.82, 41.86 14.04, 56.59 19.57 C71.33 25.11, 83.13 32.04, 88.48 34.76" stroke="#1e1e1e" stroke-width="2" fill="none"></path></g></g><mask></mask><g stroke-linecap="round"><g transform="translate(359.49295833184965 196.10203771583997) rotate(0 -19.703221802012365 -54.85791281975318)"><path d="M0.22 0.92 C-6.04 -7.2, -31.35 -29.51, -36.83 -48.1 C-42.31 -66.69, -33.19 -100.21, -32.66 -110.63 M-1.12 0.35 C-7.64 -8.17, -32.69 -31.56, -38.02 -49.88 C-43.34 -68.21, -33.82 -99.61, -33.07 -109.6" stroke="#1e1e1e" stroke-width="2" fill="none"></path></g></g><mask></mask><g stroke-linecap="round"><g transform="translate(247.82205513784447 366.8496240601503) rotate(0 4.43929278886128 0.25646029933284353)"><path d="M-0.69 -0.83 C1.06 -0.86, 7.8 -0.86, 9.57 -0.84 M1.15 1.35 C2.86 1.51, 7.47 0.45, 8.87 0.25" stroke="#1e1e1e" stroke-width="1" fill="none"></path></g></g><mask></mask><g stroke-linecap="round"><g transform="translate(243.39348370927303 381.76691729323306) rotate(0 8.546365914786918 3.3797952776332068)"><path d="M0 0 C1.42 1.17, 5.68 7.03, 8.53 6.99 C11.37 6.95, 15.66 0.97, 17.09 -0.23 M0 0 C1.42 1.17, 5.68 7.03, 8.53 6.99 C11.37 6.95, 15.66 0.97, 17.09 -0.23" stroke="#1e1e1e" stroke-width="2" fill="none"></path></g></g><mask></mask><g stroke-linecap="round"><g transform="translate(243.76150903574728 380.6015037593985) rotate(0 7.963659147869691 0.1942355889723899)"><path d="M0 0 C2.65 0.06, 13.27 0.32, 15.93 0.39 M0 0 C2.65 0.06, 13.27 0.32, 15.93 0.39" stroke="#1e1e1e" stroke-width="2" fill="none"></path></g></g><mask></mask><g stroke-linecap="round"><g transform="translate(237.54597018862955 366.22807017543846) rotate(0 -1.942355889724297 -1.5538847117794035)"><path d="M0 0 C-0.65 -0.52, -3.24 -2.59, -3.88 -3.11 M0 0 C-0.65 -0.52, -3.24 -2.59, -3.88 -3.11" stroke="#1e1e1e" stroke-width="1" fill="none"></path></g></g><mask></mask><g stroke-linecap="round"><g transform="translate(265.9043661786044 365.83959899749357) rotate(0 4.273182957393487 -3.1077694235589206)"><path d="M0 0 C1.42 -1.04, 7.12 -5.18, 8.55 -6.22 M0 0 C1.42 -1.04, 7.12 -5.18, 8.55 -6.22" stroke="#1e1e1e" stroke-width="1" fill="none"></path></g></g><mask></mask><g stroke-linecap="round" transform="translate(163.71804511278197 204.81819970983554) rotate(0 5.050125313283218 4.545112781954884)"><path d="M1.82 0.3 L10.2 1.1 L8.28 8.53 L1.87 9.33 L1.92 0.47 L0.44 1.76" stroke="none" stroke-width="0" fill="#868e96"></path><path d="M2.27 0 M2.27 0 C4.21 0.33, 5.81 -0.09, 7.83 0 M2.27 0 C4.18 -0.14, 5.49 0.01, 7.83 0 M7.83 0 C9.84 1.42, 8.29 -0.41, 10.1 2.27 M7.83 0 C9.01 -0.97, 8.43 -0.22, 10.1 2.27 M10.1 2.27 C9.93 3.55, 9.75 4.57, 10.1 6.82 M10.1 2.27 C10.12 3.32, 9.98 4.92, 10.1 6.82 M10.1 6.82 C8.77 9.45, 9.28 7.93, 7.83 9.09 M10.1 6.82 C12.26 8.08, 9.69 9.59, 7.83 9.09 M7.83 9.09 C6.74 8.69, 4.47 9.48, 2.27 9.09 M7.83 9.09 C6.93 9.07, 5.81 8.98, 2.27 9.09 M2.27 9.09 C0.9 10.73, -0.95 6.46, 0 6.82 M2.27 9.09 C-0.02 9.42, -0.53 7.13, 0 6.82 M0 6.82 C-0.42 6.21, 0.17 4.91, 0 2.27 M0 6.82 C0.17 5.64, -0.06 4, 0 2.27 M0 2.27 C0.08 0.79, -0.02 0.54, 2.27 0 M0 2.27 C-1.04 2.52, 0.16 0.84, 2.27 0" stroke="#1e1e1e" stroke-width="1" fill="none"></path></g><g stroke-linecap="round" transform="translate(180.88847117794478 204.31318717850718) rotate(0 5.050125313283218 4.545112781954884)"><path d="M2.94 0.53 L8.28 0.58 L10.84 9.33 L2.48 6.72 L-1.83 4.03 L1.86 -1.61" stroke="none" stroke-width="0" fill="#868e96"></path><path d="M2.27 0 M2.27 0 C4.81 -0.08, 6.53 0.45, 7.83 0 M2.27 0 C3.77 0.04, 5.76 0.22, 7.83 0 M7.83 0 C7.53 -1.17, 9.81 -0.09, 10.1 2.27 M7.83 0 C7.68 -0.98, 9.46 -0.85, 10.1 2.27 M10.1 2.27 C9.77 3.07, 9.95 4.34, 10.1 6.82 M10.1 2.27 C9.97 3.92, 9.95 5.3, 10.1 6.82 M10.1 6.82 C10.04 7.18, 11.22 8.87, 7.83 9.09 M10.1 6.82 C10.45 8.83, 8.87 9.15, 7.83 9.09 M7.83 9.09 C6.29 9.48, 4.74 9.37, 2.27 9.09 M7.83 9.09 C6.58 8.99, 4.8 9.32, 2.27 9.09 M2.27 9.09 C-0.19 7.22, -0.68 8.62, 0 6.82 M2.27 9.09 C0.23 7.89, -2.11 9.92, 0 6.82 M0 6.82 C0.24 5.11, 0.05 3.01, 0 2.27 M0 6.82 C-0.13 5.55, -0.02 4.45, 0 2.27 M0 2.27 C-0.78 1.3, -0.15 1.53, 2.27 0 M0 2.27 C-0.59 1.6, 2.34 -0.03, 2.27 0" stroke="#1e1e1e" stroke-width="1" fill="none"></path></g><g stroke-linecap="round"><g transform="translate(173.8182957393484 205.82822477249215) rotate(0 4.986558469405338 -0.30125026084996875)"><path d="M0.78 0.48 C2.61 0.3, 9.04 -1.18, 10.24 -1.08 M-0.27 -0.31 C1.57 -0.38, 8.13 -0.04, 9.9 -0.11" stroke="#1e1e1e" stroke-width="1" fill="none"></path></g></g><mask></mask><g stroke-linecap="round"><g transform="translate(169.38972431077684 220.74551800557504) rotate(0 8.546365914786918 3.3797952776332068)"><path d="M0 0 C1.42 1.17, 5.68 7.03, 8.53 6.99 C11.37 6.95, 15.66 0.97, 17.09 -0.23 M0 0 C1.42 1.17, 5.68 7.03, 8.53 6.99 C11.37 6.95, 15.66 0.97, 17.09 -0.23" stroke="#1e1e1e" stroke-width="2" fill="none"></path></g></g><mask></mask><g stroke-linecap="round"><g transform="translate(169.7577496372511 219.58010447174047) rotate(0 7.963659147869691 0.19423558897241833)"><path d="M0 0 C2.65 0.06, 13.27 0.32, 15.93 0.39 M0 0 C2.65 0.06, 13.27 0.32, 15.93 0.39" stroke="#1e1e1e" stroke-width="2" fill="none"></path></g></g><mask></mask><g stroke-linecap="round"><g transform="translate(163.54221079013348 205.2066708877805) rotate(0 -1.942355889724297 -1.5538847117794035)"><path d="M0 0 C-0.65 -0.52, -3.24 -2.59, -3.88 -3.11 M0 0 C-0.65 -0.52, -3.24 -2.59, -3.88 -3.11" stroke="#1e1e1e" stroke-width="1" fill="none"></path></g></g><mask></mask><g stroke-linecap="round"><g transform="translate(191.9006067801082 204.81819970983554) rotate(0 3.1077694235588638 -2.3308270676691905)"><path d="M0 0 C1.04 -0.78, 5.18 -3.88, 6.22 -4.66 M0 0 C1.04 -0.78, 5.18 -3.88, 6.22 -4.66" stroke="#1e1e1e" stroke-width="1" fill="none"></path></g></g><mask></mask><g stroke-linecap="round" transform="translate(368.053884711779 221.52246036146448) rotate(0 5.050125313283218 4.545112781954884)"><path d="M0.67 -1.35 L10.79 -1.28 L10.72 10.16 L1.67 9.59 L-1.8 2.61 L1.27 1.22" stroke="none" stroke-width="0" fill="#868e96"></path><path d="M2.27 0 M2.27 0 C4.6 0.36, 5.89 0.06, 7.83 0 M2.27 0 C3.57 0.1, 5.05 -0.12, 7.83 0 M7.83 0 C8.08 1.39, 8.19 0.23, 10.1 2.27 M7.83 0 C9.34 0.45, 9.96 -1, 10.1 2.27 M10.1 2.27 C10.31 3.75, 10.37 4.87, 10.1 6.82 M10.1 2.27 C10.21 3.91, 10.08 5.03, 10.1 6.82 M10.1 6.82 C11.04 7.38, 9.37 9.22, 7.83 9.09 M10.1 6.82 C11.95 9.49, 9.95 7.85, 7.83 9.09 M7.83 9.09 C6.6 8.83, 5.28 9.51, 2.27 9.09 M7.83 9.09 C6.76 8.81, 5.58 9.01, 2.27 9.09 M2.27 9.09 C2.72 7.7, 0.03 8.63, 0 6.82 M2.27 9.09 C2.19 10.76, 0.55 6.85, 0 6.82 M0 6.82 C0.23 5.3, 0.39 4.21, 0 2.27 M0 6.82 C0.16 5.7, 0.03 4.31, 0 2.27 M0 2.27 C-1.48 1.03, 0.56 0.32, 2.27 0 M0 2.27 C2.08 1.96, 3.04 1.07, 2.27 0" stroke="#1e1e1e" stroke-width="1" fill="none"></path></g><g stroke-linecap="round" transform="translate(385.22431077694193 221.01744783013612) rotate(0 5.050125313283218 4.545112781954884)"><path d="M3.53 -1.85 L10.72 2.21 L10.64 9.59 L-1.23 8.86 L-1 3.49 L2.71 -0.69" stroke="none" stroke-width="0" fill="#868e96"></path><path d="M2.27 0 M2.27 0 C4.24 0.05, 5.73 -0.33, 7.83 0 M2.27 0 C4.02 -0.15, 5.17 0.18, 7.83 0 M7.83 0 C7.43 -0.53, 10.1 1.15, 10.1 2.27 M7.83 0 C9.2 -1.76, 9.23 2.04, 10.1 2.27 M10.1 2.27 C10.36 3.57, 10.19 4.05, 10.1 6.82 M10.1 2.27 C10.15 3.94, 10.24 5.73, 10.1 6.82 M10.1 6.82 C10.13 8.46, 10.95 10.1, 7.83 9.09 M10.1 6.82 C10.71 7.09, 8.7 10.9, 7.83 9.09 M7.83 9.09 C6.68 9.49, 4.09 8.95, 2.27 9.09 M7.83 9.09 C6.42 8.97, 5.13 8.85, 2.27 9.09 M2.27 9.09 C0.79 9.39, 1.24 9.78, 0 6.82 M2.27 9.09 C1.3 7.61, 0.07 6.59, 0 6.82 M0 6.82 C0.34 5.86, -0.04 4.96, 0 2.27 M0 6.82 C0.03 5.49, -0.21 3.84, 0 2.27 M0 2.27 C-0.2 1.08, 2.56 1.05, 2.27 0 M0 2.27 C2.28 1.83, -0.48 1.77, 2.27 0" stroke="#1e1e1e" stroke-width="1" fill="none"></path></g><g stroke-linecap="round"><g transform="translate(378.15413533834544 222.5324854241211) rotate(0 4.852778644563614 -0.5866348649282145)"><path d="M0.66 0.64 C1.88 0.51, 6.7 0.19, 8.01 0.2 M-0.45 -0.07 C1.06 -0.67, 8.84 -1.62, 10.15 -1.81" stroke="#1e1e1e" stroke-width="1" fill="none"></path></g></g><mask></mask><g stroke-linecap="round"><g transform="translate(373.725563909774 237.44977865720398) rotate(0 8.546365914786918 3.3797952776332068)"><path d="M0 0 C1.42 1.17, 5.68 7.03, 8.53 6.99 C11.37 6.95, 15.66 0.97, 17.09 -0.23 M0 0 C1.42 1.17, 5.68 7.03, 8.53 6.99 C11.37 6.95, 15.66 0.97, 17.09 -0.23" stroke="#1e1e1e" stroke-width="2" fill="none"></path></g></g><mask></mask><g stroke-linecap="round"><g transform="translate(374.09358923624814 236.28436512336935) rotate(0 7.963659147869691 0.19423558897241833)"><path d="M0 0 C2.65 0.06, 13.27 0.32, 15.93 0.39 M0 0 C2.65 0.06, 13.27 0.32, 15.93 0.39" stroke="#1e1e1e" stroke-width="2" fill="none"></path></g></g><mask></mask><g stroke-linecap="round"><g transform="translate(367.87805038913064 221.91093153940938) rotate(0 -1.942355889724297 -1.5538847117794035)"><path d="M0 0 C-0.65 -0.52, -3.24 -2.59, -3.88 -3.11 M0 0 C-0.65 -0.52, -3.24 -2.59, -3.88 -3.11" stroke="#1e1e1e" stroke-width="1" fill="none"></path></g></g><mask></mask><g stroke-linecap="round"><g transform="translate(396.23644637910536 221.52246036146448) rotate(0 3.1077694235588638 -2.3308270676691905)"><path d="M0 0 C1.04 -0.78, 5.18 -3.88, 6.22 -4.66 M0 0 C1.04 -0.78, 5.18 -3.88, 6.22 -4.66" stroke="#1e1e1e" stroke-width="1" fill="none"></path></g></g><mask></mask></svg>