<svg version="1.1" xmlns="http://www.w3.org/2000/svg" viewBox="0 0 422.5 419" width="845" height="838" filter="invert(93%) hue-rotate(180deg)">
  <!-- svg-source:excalidraw -->
  
  <defs>
    <style class="style-fonts">
      @font-face {
        font-family: "Virgil";
        src: url("https://excalidraw.com/Virgil.woff2");
      }
      @font-face {
        font-family: "Cascadia";
        src: url("https://excalidraw.com/Cascadia.woff2");
      }
    </style>
    
  </defs>
  <g stroke-linecap="round" transform="translate(10 147) rotate(0 35.5 31)"><path d="M30.6 -0.34 C37.13 -1.69, 47.13 0.3, 53.17 3.4 C59.21 6.5, 63.96 12.68, 66.84 18.27 C69.71 23.87, 71.71 31.08, 70.42 36.95 C69.14 42.82, 64.04 49.37, 59.15 53.51 C54.25 57.64, 47.83 60.97, 41.05 61.76 C34.26 62.55, 24.78 61.04, 18.43 58.23 C12.09 55.42, 5.8 50.39, 2.98 44.89 C0.17 39.4, 0.4 31.43, 1.56 25.25 C2.72 19.07, 4.3 12.08, 9.94 7.8 C15.58 3.51, 30.64 0.58, 35.39 -0.47 C40.15 -1.52, 38.63 0.83, 38.47 1.5 M49.18 2.94 C55.54 4.47, 61.81 8.81, 65.51 13.76 C69.21 18.71, 71.8 26.55, 71.39 32.65 C70.98 38.74, 67.52 45.55, 63.06 50.35 C58.61 55.14, 51.79 59.94, 44.66 61.44 C37.53 62.95, 27.05 61.81, 20.27 59.37 C13.49 56.92, 7.19 52.05, 3.97 46.79 C0.75 41.53, 0.13 33.59, 0.95 27.81 C1.76 22.03, 4.28 16.47, 8.86 12.11 C13.45 7.75, 21.51 3.16, 28.46 1.65 C35.41 0.14, 46.92 2.73, 50.57 3.07 C54.23 3.4, 51.05 3.13, 50.4 3.66" stroke="#1e1e1e" stroke-width="2" fill="none"></path></g><g stroke-linecap="round"><g transform="translate(76 161.00000000000006) rotate(0 66.64274975545709 -23.712978889233426)"><path d="M-0.35 -1.04 C9.42 -8.91, 36.09 -40.74, 58.43 -46.87 C80.76 -53, 121.04 -39.49, 133.63 -37.81 M1.67 1.03 C11.33 -6.75, 35.78 -39.46, 57.7 -45.79 C79.62 -52.12, 120.37 -38.62, 133.2 -36.92" stroke="#1e1e1e" stroke-width="2" fill="none"></path></g></g><mask></mask><g stroke-linecap="round" transform="translate(207.5 95) rotate(0 35.5 31)"><path d="M46.74 2.05 C53.32 3.74, 61.49 9.82, 65.36 14.67 C69.24 19.53, 70.18 25.4, 69.98 31.16 C69.79 36.93, 68.29 44.23, 64.2 49.26 C60.11 54.29, 52.25 59.54, 45.44 61.33 C38.63 63.11, 29.98 62.27, 23.37 59.97 C16.75 57.67, 9.52 52.69, 5.77 47.53 C2.03 42.36, 0.63 34.88, 0.92 28.99 C1.21 23.1, 3.44 16.67, 7.53 12.2 C11.61 7.72, 18.37 3.63, 25.44 2.15 C32.51 0.67, 45.49 2.84, 49.94 3.33 C54.39 3.81, 52.26 4.52, 52.14 5.07 M22.18 2.89 C27.87 0.35, 36.76 0.61, 43.49 1.89 C50.21 3.17, 57.88 6.36, 62.53 10.55 C67.18 14.75, 71.04 20.9, 71.37 27.06 C71.71 33.22, 67.98 41.97, 64.52 47.52 C61.06 53.07, 56.75 58.23, 50.63 60.36 C44.5 62.49, 34.63 61.85, 27.77 60.29 C20.91 58.74, 14.02 55.61, 9.46 51.01 C4.91 46.42, 1.29 38.47, 0.45 32.72 C-0.4 26.96, 0.7 21.44, 4.38 16.49 C8.06 11.53, 19.54 5.09, 22.53 3 C25.53 0.91, 22.22 3.67, 22.37 3.95" stroke="#1e1e1e" stroke-width="2" fill="none"></path></g><g stroke-linecap="round" transform="translate(212.5 333) rotate(0 35.5 38)"><path d="M42.12 1.32 C48.93 2.22, 56.97 6.37, 61.62 11.67 C66.28 16.98, 69.2 25.75, 70.03 33.15 C70.85 40.54, 69.85 49.61, 66.56 56.04 C63.27 62.47, 56.37 68.4, 50.31 71.75 C44.26 75.1, 36.9 77.28, 30.22 76.12 C23.55 74.96, 15.17 70.21, 10.28 64.8 C5.4 59.39, 2.02 51.1, 0.92 43.67 C-0.18 36.24, 0.44 26.76, 3.69 20.22 C6.94 13.68, 13.38 7.53, 20.42 4.43 C27.46 1.33, 40.84 1.58, 45.94 1.6 C51.05 1.62, 51.18 3.95, 51.06 4.56 M34.59 0.08 C41.15 -0.44, 49.82 3.58, 55.69 7.58 C61.57 11.58, 67.71 17.08, 69.86 24.08 C72 31.08, 70.56 42.48, 68.54 49.58 C66.52 56.68, 62.99 62.23, 57.74 66.7 C52.48 71.17, 43.77 76.07, 37.02 76.4 C30.27 76.73, 23 73.07, 17.25 68.65 C11.49 64.24, 5.3 56.69, 2.5 49.91 C-0.29 43.12, -1.51 34.85, 0.47 27.96 C2.46 21.07, 8.58 13.43, 14.41 8.58 C20.24 3.73, 31.97 0.11, 35.44 -1.13 C38.92 -2.37, 35.26 0.21, 35.24 1.13" stroke="#1e1e1e" stroke-width="2" fill="none"></path></g><g stroke-linecap="round"><g transform="translate(46.58331197403754 263.29900737118174) rotate(220.90095542835968 46.497142853435946 -30.945169888608604)"><path d="M0.43 0.04 C5.86 -9.73, 17.55 -51.8, 33.11 -59.01 C48.68 -66.23, 83.98 -46.15, 93.8 -43.25 M-0.81 -0.98 C4.45 -11.05, 16.67 -53.75, 32.38 -60.63 C48.1 -67.5, 83.58 -45.07, 93.49 -42.23" stroke="#1e1e1e" stroke-width="2" fill="none"></path></g></g><mask></mask><g stroke-linecap="round" transform="translate(141.5 181) rotate(0 35.5 31)"><path d="M45.03 1.29 C51.5 2.58, 58.79 8.4, 63.15 13.11 C67.51 17.83, 71.12 23.58, 71.2 29.57 C71.29 35.56, 67.8 43.94, 63.67 49.03 C59.54 54.13, 52.98 58.24, 46.44 60.15 C39.89 62.06, 31.07 62.32, 24.41 60.5 C17.76 58.68, 10.41 54.13, 6.5 49.24 C2.59 44.35, 0.99 37.03, 0.94 31.15 C0.89 25.28, 2.28 18.88, 6.2 13.99 C10.12 9.1, 17.5 3.84, 24.45 1.82 C31.4 -0.2, 43.65 1.69, 47.9 1.87 C52.15 2.04, 50.1 2.55, 49.96 2.87 M21.45 2.25 C27.32 -0.22, 35.88 0.79, 42.73 2.35 C49.58 3.92, 57.95 7.27, 62.56 11.63 C67.17 15.98, 69.64 22.54, 70.39 28.46 C71.13 34.37, 70.79 41.92, 67.03 47.13 C63.28 52.34, 54.46 57.65, 47.85 59.73 C41.25 61.81, 34.22 60.98, 27.4 59.63 C20.58 58.27, 11.56 56.23, 6.94 51.58 C2.32 46.93, 0.17 37.76, -0.31 31.74 C-0.79 25.72, 0.36 20.32, 4.07 15.43 C7.79 10.54, 18.84 4.59, 21.97 2.39 C25.1 0.19, 22.74 1.62, 22.84 2.22" stroke="#1e1e1e" stroke-width="2" fill="none"></path></g><g stroke-linecap="round" transform="translate(341.5 192) rotate(0 35.5 31)"><path d="M33.34 -0.37 C39.97 -1.09, 47.71 1.89, 53.62 5.11 C59.53 8.34, 66 13.5, 68.79 18.98 C71.58 24.46, 71.9 32.1, 70.36 37.97 C68.82 43.84, 64.77 50.37, 59.58 54.2 C54.39 58.03, 46.4 60.48, 39.21 60.94 C32.03 61.4, 22.41 60.02, 16.46 56.96 C10.5 53.9, 6.08 48.24, 3.49 42.6 C0.9 36.95, -0.7 28.95, 0.91 23.1 C2.52 17.25, 7.57 11.41, 13.16 7.5 C18.74 3.6, 30.71 0.66, 34.43 -0.33 C38.15 -1.32, 35.55 1.11, 35.48 1.58 M33.87 0.68 C40.32 0.22, 50.08 0.82, 55.74 4.38 C61.4 7.94, 65.61 16.05, 67.83 22.07 C70.06 28.08, 70.9 34.94, 69.09 40.48 C67.27 46.03, 62.66 51.6, 56.94 55.32 C51.22 59.05, 41.59 62.82, 34.78 62.82 C27.97 62.82, 21.58 58.97, 16.09 55.33 C10.59 51.68, 4.27 46.67, 1.79 40.97 C-0.68 35.28, -0.74 26.81, 1.24 21.15 C3.22 15.5, 8.18 10.39, 13.68 7.06 C19.18 3.73, 30.46 2.41, 34.23 1.18 C38 -0.06, 35.97 -0.88, 36.28 -0.33" stroke="#1e1e1e" stroke-width="2" fill="none"></path></g><g stroke-linecap="round" transform="translate(337.5 91) rotate(0 35.5 31)"><path d="M45.59 2.11 C52.1 3.58, 59.45 7.65, 63.53 12.59 C67.61 17.52, 69.95 25.58, 70.07 31.71 C70.2 37.84, 68.23 44.64, 64.28 49.38 C60.33 54.11, 52.8 58.3, 46.38 60.13 C39.96 61.96, 32.43 62.13, 25.76 60.34 C19.08 58.55, 10.57 54.41, 6.33 49.4 C2.1 44.39, 0.45 36.27, 0.35 30.28 C0.25 24.28, 1.78 18.36, 5.72 13.43 C9.67 8.49, 16.65 2.3, 24 0.66 C31.36 -0.97, 44.78 2.75, 49.85 3.6 C54.92 4.44, 54.5 5.41, 54.43 5.71 M22.91 1.7 C28.88 -0.87, 39.17 -0.73, 45.9 0.91 C52.62 2.54, 58.91 6.78, 63.26 11.52 C67.61 16.26, 71.55 22.99, 71.98 29.36 C72.41 35.73, 70.13 44.45, 65.84 49.74 C61.55 55.04, 52.78 59.22, 46.24 61.13 C39.7 63.03, 33.21 63.12, 26.6 61.18 C20 59.24, 10.83 54.34, 6.62 49.47 C2.4 44.59, 1.38 37.96, 1.32 31.93 C1.26 25.9, 2.68 18.31, 6.26 13.29 C9.84 8.27, 19.99 3.76, 22.77 1.81 C25.56 -0.14, 22.71 0.94, 22.96 1.61" stroke="#1e1e1e" stroke-width="2" fill="none"></path></g><g stroke-linecap="round"><g transform="translate(280 131) rotate(0 25.97595440593551 -2.2548710883874605)"><path d="M-0.17 -0.97 C8.67 -1.81, 44.8 -4.83, 53.67 -5.65 M-1.72 1.14 C6.96 0.5, 44.07 -3.42, 53.08 -4.46" stroke="#1e1e1e" stroke-width="2" fill="none"></path></g></g><mask></mask><g stroke-linecap="round"><g transform="translate(256.35298590711807 289.2563983101426) rotate(80.32407159145593 21.289089822056326 -60.33610036288175)"><path d="M0.59 -0.41 C4.5 -10.8, 16.93 -41.49, 24.03 -61.47 C31.12 -81.44, 39.83 -110.63, 43.14 -120.26 M-0.56 -1.67 C3.66 -12.47, 19.07 -43.51, 26.23 -63.15 C33.39 -82.79, 39.35 -110.35, 42.4 -119.53" stroke="#1e1e1e" stroke-width="2" fill="none"></path></g></g><mask></mask><g stroke-linecap="round"><g transform="translate(291.0724601250363 248.0293281493349) rotate(80.32407159145593 -9.348959989503271 -74.50731096420643)"><path d="M0.44 -0.01 C0.47 -16.74, 4.23 -75.55, 0.68 -100.38 C-2.88 -125.21, -17.39 -140.92, -20.9 -149 M-0.79 -1.06 C-0.98 -17.63, 2.55 -74.68, -0.42 -99.1 C-3.39 -123.53, -15.27 -139.53, -18.61 -147.62" stroke="#1e1e1e" stroke-width="2" fill="none"></path></g></g><mask></mask><g stroke-linecap="round"><g transform="translate(338.2931186510772 149.73335840425835) rotate(80.32407159145593 -34.97968936226221 33.629847710485905)"><path d="M0.47 -0.3 C-5.64 2.34, -25.81 4.68, -37.46 16.19 C-49.1 27.7, -64.07 60.18, -69.4 68.76 M-0.75 -1.5 C-6.97 1.29, -26.97 6.22, -38.58 17.63 C-50.19 29.04, -65.28 58.45, -70.43 66.97" stroke="#1e1e1e" stroke-width="2" fill="none"></path></g></g><mask></mask><g stroke-linecap="round"><g transform="translate(376.02404559406443 152.25487108838746) rotate(0 8.561688426223327 20.96847721353174)"><path d="M-0.07 0.13 C2.73 3.91, 18.08 14.73, 17.82 21.59 C17.55 28.46, 1.47 38.12, -1.68 41.31 M-1.57 -0.85 C1.49 2.7, 20.13 12.64, 19.92 19.92 C19.71 27.19, 0.66 39.16, -2.8 42.79" stroke="#1e1e1e" stroke-width="2" fill="none"></path></g></g><mask></mask><g stroke-linecap="round"><g transform="translate(176 241) rotate(0 0.9949738060124105 13.6983278036397)"><path d="M0.09 -0.47 C0.1 4.45, 0.7 24.54, 1.08 29.16 M-1.32 -1.76 C-1.03 2.89, 2.79 22.66, 3.31 27.64" stroke="#1e1e1e" stroke-width="2" fill="none"></path></g></g><mask></mask><g transform="translate(175 301) rotate(0 7.5 -14)" stroke="none"><path fill="#e03131" d="M -1.61,-1.13 Q -1.61,-1.13 0.46,-3.95 2.55,-6.78 4.30,-9.37 6.06,-11.97 7.36,-14.44 8.67,-16.91 9.83,-19.13 10.99,-21.36 11.72,-23.13 12.46,-24.90 12.89,-26.71 13.33,-28.51 13.46,-28.76 13.58,-29.01 13.78,-29.21 13.98,-29.41 14.23,-29.54 14.49,-29.66 14.76,-29.70 15.04,-29.74 15.32,-29.68 15.60,-29.63 15.84,-29.49 16.09,-29.35 16.28,-29.14 16.46,-28.93 16.57,-28.67 16.69,-28.41 16.71,-28.13 16.73,-27.85 16.66,-27.58 16.59,-27.31 16.44,-27.07 16.29,-26.83 16.07,-26.65 15.85,-26.48 15.59,-26.38 15.32,-26.28 15.04,-26.28 14.76,-26.27 14.49,-26.35 14.22,-26.44 13.99,-26.60 13.76,-26.76 13.60,-26.99 13.43,-27.22 13.35,-27.49 13.27,-27.76 13.28,-28.04 13.28,-28.33 13.38,-28.59 13.48,-28.85 13.66,-29.07 13.83,-29.29 14.07,-29.44 14.31,-29.60 14.58,-29.66 14.86,-29.73 15.14,-29.71 15.42,-29.68 15.68,-29.57 15.93,-29.46 16.14,-29.27 16.35,-29.08 16.49,-28.84 16.63,-28.59 16.68,-28.32 16.74,-28.04 16.70,-27.76 16.66,-27.48 16.66,-27.48 16.66,-27.48 15.96,-25.60 15.26,-23.72 14.46,-21.86 13.67,-20.01 12.57,-17.75 11.47,-15.49 10.16,-12.82 8.86,-10.16 7.17,-7.44 5.49,-4.71 3.55,-1.79 1.61,1.13 1.45,1.30 1.29,1.48 1.10,1.62 0.90,1.75 0.68,1.83 0.45,1.92 0.22,1.94 -0.01,1.97 -0.24,1.94 -0.48,1.91 -0.70,1.82 -0.92,1.74 -1.12,1.60 -1.31,1.46 -1.47,1.29 -1.63,1.11 -1.74,0.89 -1.85,0.68 -1.90,0.45 -1.96,0.22 -1.96,-0.01 -1.95,-0.25 -1.89,-0.48 -1.84,-0.71 -1.72,-0.92 -1.61,-1.13 -1.61,-1.13 L -1.61,-1.13 Z"></path></g><g transform="translate(175 279) rotate(0 11.5 8)" stroke="none"><path fill="#e03131" d="M 1.41,-1.76 Q 1.41,-1.76 2.81,-0.57 4.22,0.61 5.69,2.07 7.17,3.52 8.39,4.68 9.62,5.83 10.62,6.47 11.63,7.11 13.28,8.13 14.92,9.16 16.66,10.36 18.40,11.57 19.55,12.33 20.70,13.08 22.10,13.41 23.51,13.74 23.85,13.88 24.20,14.02 24.48,14.27 24.77,14.51 24.96,14.83 25.15,15.15 25.23,15.52 25.30,15.88 25.26,16.26 25.22,16.63 25.06,16.97 24.90,17.30 24.64,17.57 24.38,17.84 24.05,18.02 23.72,18.19 23.35,18.25 22.98,18.31 22.61,18.24 22.24,18.18 21.91,18.00 21.59,17.83 21.33,17.55 21.07,17.28 20.92,16.94 20.76,16.60 20.73,16.23 20.69,15.86 20.77,15.49 20.85,15.13 21.05,14.81 21.24,14.49 21.53,14.25 21.82,14.01 22.16,13.87 22.51,13.73 22.89,13.72 23.26,13.70 23.62,13.80 23.98,13.90 24.29,14.12 24.59,14.33 24.82,14.63 25.04,14.92 25.16,15.28 25.28,15.64 25.28,16.01 25.27,16.38 25.15,16.74 25.03,17.09 24.80,17.39 24.57,17.68 24.26,17.89 23.95,18.10 23.59,18.20 23.23,18.29 22.86,18.27 22.48,18.25 22.48,18.25 22.48,18.25 20.32,17.47 18.16,16.68 17.19,15.93 16.22,15.18 14.32,14.19 12.43,13.21 10.79,11.90 9.15,10.58 7.99,9.67 6.82,8.76 5.64,7.62 4.46,6.47 2.99,5.23 1.52,3.98 0.05,2.87 -1.41,1.76 -1.60,1.57 -1.79,1.37 -1.93,1.14 -2.07,0.90 -2.14,0.64 -2.22,0.38 -2.24,0.11 -2.25,-0.15 -2.20,-0.42 -2.15,-0.69 -2.03,-0.94 -1.92,-1.18 -1.75,-1.40 -1.58,-1.61 -1.36,-1.78 -1.14,-1.94 -0.90,-2.05 -0.65,-2.16 -0.38,-2.21 -0.11,-2.25 0.15,-2.23 0.43,-2.21 0.68,-2.13 0.94,-2.05 1.18,-1.90 1.41,-1.76 1.41,-1.76 L 1.41,-1.76 Z"></path></g><g transform="translate(315.5 284) rotate(0 11.5 8)" stroke="none"><path fill="#e03131" d="M 1.41,-1.76 Q 1.41,-1.76 2.81,-0.57 4.22,0.61 5.69,2.07 7.17,3.52 8.39,4.68 9.62,5.83 10.62,6.47 11.63,7.11 13.28,8.13 14.92,9.16 16.66,10.36 18.40,11.57 19.55,12.33 20.70,13.08 21.91,13.39 23.12,13.69 23.46,13.83 23.80,13.97 24.08,14.21 24.36,14.45 24.55,14.76 24.74,15.08 24.81,15.44 24.89,15.80 24.85,16.17 24.81,16.53 24.65,16.86 24.49,17.20 24.24,17.46 23.98,17.73 23.66,17.90 23.33,18.07 22.97,18.13 22.60,18.19 22.24,18.12 21.88,18.06 21.55,17.89 21.23,17.71 20.98,17.44 20.73,17.18 20.57,16.84 20.42,16.51 20.38,16.14 20.35,15.77 20.43,15.41 20.51,15.05 20.70,14.74 20.89,14.43 21.17,14.19 21.46,13.95 21.80,13.82 22.14,13.68 22.51,13.67 22.88,13.65 23.23,13.75 23.59,13.85 23.89,14.06 24.19,14.27 24.41,14.56 24.63,14.86 24.75,15.21 24.87,15.56 24.86,15.92 24.86,16.29 24.74,16.64 24.62,16.99 24.40,17.28 24.17,17.57 23.87,17.78 23.56,17.98 23.20,18.08 22.85,18.17 22.48,18.15 22.11,18.13 22.11,18.13 22.11,18.13 20.14,17.41 18.16,16.68 17.19,15.93 16.22,15.18 14.32,14.19 12.43,13.21 10.79,11.90 9.15,10.58 7.99,9.67 6.82,8.76 5.64,7.62 4.46,6.47 2.99,5.23 1.52,3.98 0.05,2.87 -1.41,1.76 -1.60,1.57 -1.79,1.37 -1.93,1.14 -2.07,0.90 -2.14,0.64 -2.22,0.38 -2.24,0.11 -2.25,-0.15 -2.20,-0.42 -2.15,-0.69 -2.03,-0.94 -1.92,-1.18 -1.75,-1.40 -1.58,-1.61 -1.36,-1.78 -1.14,-1.94 -0.90,-2.05 -0.65,-2.16 -0.38,-2.21 -0.11,-2.25 0.15,-2.23 0.43,-2.21 0.68,-2.13 0.94,-2.05 1.18,-1.90 1.41,-1.76 1.41,-1.76 L 1.41,-1.76 Z"></path></g><g transform="translate(313.5 286) rotate(276.34019174590986 11.5 8)" stroke="none"><path fill="#e03131" d="M 1.41,-1.76 Q 1.41,-1.76 2.81,-0.57 4.22,0.61 5.69,2.07 7.17,3.52 8.39,4.68 9.62,5.83 10.62,6.47 11.63,7.11 13.28,8.13 14.92,9.16 16.66,10.36 18.40,11.57 19.55,12.33 20.70,13.08 21.91,13.39 23.12,13.69 23.46,13.83 23.80,13.97 24.08,14.21 24.36,14.45 24.55,14.76 24.74,15.08 24.81,15.44 24.89,15.80 24.85,16.17 24.81,16.53 24.65,16.86 24.49,17.20 24.24,17.46 23.98,17.73 23.66,17.90 23.33,18.07 22.97,18.13 22.60,18.19 22.24,18.12 21.88,18.06 21.55,17.89 21.23,17.71 20.98,17.44 20.73,17.18 20.57,16.84 20.42,16.51 20.38,16.14 20.35,15.77 20.43,15.41 20.51,15.05 20.70,14.74 20.89,14.43 21.17,14.19 21.46,13.95 21.80,13.82 22.14,13.68 22.51,13.67 22.88,13.65 23.23,13.75 23.59,13.85 23.89,14.06 24.19,14.27 24.41,14.56 24.63,14.86 24.75,15.21 24.87,15.56 24.86,15.92 24.86,16.29 24.74,16.64 24.62,16.99 24.40,17.28 24.17,17.57 23.87,17.78 23.56,17.98 23.20,18.08 22.85,18.17 22.48,18.15 22.11,18.13 22.11,18.13 22.11,18.13 20.14,17.41 18.16,16.68 17.19,15.93 16.22,15.18 14.32,14.19 12.43,13.21 10.79,11.90 9.15,10.58 7.99,9.67 6.82,8.76 5.64,7.62 4.46,6.47 2.99,5.23 1.52,3.98 0.05,2.87 -1.41,1.76 -1.60,1.57 -1.79,1.37 -1.93,1.14 -2.07,0.90 -2.14,0.64 -2.22,0.38 -2.24,0.11 -2.25,-0.15 -2.20,-0.42 -2.15,-0.69 -2.03,-0.94 -1.92,-1.18 -1.75,-1.40 -1.58,-1.61 -1.36,-1.78 -1.14,-1.94 -0.90,-2.05 -0.65,-2.16 -0.38,-2.21 -0.11,-2.25 0.15,-2.23 0.43,-2.21 0.68,-2.13 0.94,-2.05 1.18,-1.90 1.41,-1.76 1.41,-1.76 L 1.41,-1.76 Z"></path></g><g stroke-linecap="round"><g transform="translate(363.43831157377656 253.03152278646832) rotate(0 -2.3041880350907604 18.581830262374126)"><path d="M-0.94 -0.25 C1.18 3.41, 14.14 16.27, 11.7 22.57 C9.27 28.87, -11.1 35.1, -15.56 37.53 M0.77 -1.43 C2.8 1.84, 13.51 14.21, 10.61 20.88 C7.72 27.56, -12.38 35.78, -16.62 38.6" stroke="#1e1e1e" stroke-width="2" fill="none"></path></g></g><mask></mask><g transform="translate(183 290) rotate(326.395653598054 31.649999618530273 21.600000000000023)"><text x="0" y="0" font-family="Cascadia, Segoe UI Emoji" font-size="36px" fill="#e03131" text-anchor="start" style="white-space: pre;" direction="ltr" dominant-baseline="text-before-edge">404</text></g><g transform="translate(272.3500003814697 292.4) rotate(39.47245984834382 31.649999618530273 21.600000000000023)"><text x="0" y="0" font-family="Cascadia, Segoe UI Emoji" font-size="36px" fill="#e03131" text-anchor="start" style="white-space: pre;" direction="ltr" dominant-baseline="text-before-edge">404</text></g><g stroke-linecap="round" transform="translate(163 200) rotate(0 5 4.5)"><path d="M1.15 -0.35 L11.4 2.53 L9.07 9.33 L-0.35 6.9 L0.33 1.41 L0.36 -0.99" stroke="none" stroke-width="0" fill="#868e96"></path><path d="M2.25 0 M2.25 0 C3.95 -0.02, 6.85 -0.5, 7.75 0 M2.25 0 C4.44 -0.23, 6.57 0.08, 7.75 0 M7.75 0 C9.24 0.61, 11.37 1, 10 2.25 M7.75 0 C7.38 1.32, 9.88 1.08, 10 2.25 M10 2.25 C10.34 3.82, 10.29 5.28, 10 6.75 M10 2.25 C9.79 3.49, 10.07 4.47, 10 6.75 M10 6.75 C11.77 9.76, 11.13 10.2, 7.75 9 M10 6.75 C9.14 10, 8.52 10.09, 7.75 9 M7.75 9 C6.36 8.52, 4.61 8.84, 2.25 9 M7.75 9 C6.78 8.94, 5.43 9.18, 2.25 9 M2.25 9 C1.72 10.92, -1.52 6.38, 0 6.75 M2.25 9 C0.16 8.71, -1.73 9.78, 0 6.75 M0 6.75 C0.45 5.61, 0.15 4.03, 0 2.25 M0 6.75 C0.2 5.65, 0.18 4.81, 0 2.25 M0 2.25 C0.63 0.63, -0.28 -0.37, 2.25 0 M0 2.25 C-1.75 2.11, 2.04 -0.32, 2.25 0" stroke="#1e1e1e" stroke-width="1" fill="none"></path></g><g stroke-linecap="round" transform="translate(180 199.5) rotate(0 5 4.5)"><path d="M2.21 -0.58 L10.33 -1.19 L10.83 8.91 L0.55 9.04 L1.37 2.5 L0.63 1.15" stroke="none" stroke-width="0" fill="#868e96"></path><path d="M2.25 0 M2.25 0 C3.57 -0.57, 5.94 0.02, 7.75 0 M2.25 0 C4.17 -0.16, 6.09 0.25, 7.75 0 M7.75 0 C10.05 0.87, 11.77 2.26, 10 2.25 M7.75 0 C11.42 1.39, 9.14 2.5, 10 2.25 M10 2.25 C10.46 3.5, 10.01 4.26, 10 6.75 M10 2.25 C10.12 3.36, 10.21 4.24, 10 6.75 M10 6.75 C11.15 9.41, 10.22 10.92, 7.75 9 M10 6.75 C8.25 6.1, 8.66 8.71, 7.75 9 M7.75 9 C6.26 9.45, 5.81 9.45, 2.25 9 M7.75 9 C5.87 9.15, 4.37 8.87, 2.25 9 M2.25 9 C2.25 10.02, 0.63 8.13, 0 6.75 M2.25 9 C-0.43 8.58, -1.75 9.61, 0 6.75 M0 6.75 C-0.04 5.43, 0.07 3.57, 0 2.25 M0 6.75 C-0.19 5.06, 0.13 3.44, 0 2.25 M0 2.25 C-0.68 -0.74, 1.88 -0.13, 2.25 0 M0 2.25 C1.69 -0.62, 1.77 -0.31, 2.25 0" stroke="#1e1e1e" stroke-width="1" fill="none"></path></g><g stroke-linecap="round" transform="translate(168 217) rotate(0 8.5 5.5)"><path d="M2.65 0.29 L17.14 -0.4 L14.33 11.93 L0.85 11.71 L-0.21 1.47 L1.95 -1.43" stroke="none" stroke-width="0" fill="#868e96"></path><path d="M2.75 0 M2.75 0 C5.74 0.97, 8.6 1.04, 14.25 0 M2.75 0 C6.71 0.18, 10.75 0.47, 14.25 0 M14.25 0 C16.29 -0.06, 15.22 -0.52, 17 2.75 M14.25 0 C15.39 -1.72, 18.35 1.74, 17 2.75 M17 2.75 C17.3 5.21, 17.51 6.71, 17 8.25 M17 2.75 C16.78 4.07, 17.07 4.9, 17 8.25 M17 8.25 C18.59 12.01, 17.64 11.58, 14.25 11 M17 8.25 C18.35 8.44, 15.45 12.56, 14.25 11 M14.25 11 C10.41 11.45, 5.33 10.49, 2.75 11 M14.25 11 C11.33 10.99, 8 11, 2.75 11 M2.75 11 C2.18 11.28, 0.13 11.73, 0 8.25 M2.75 11 C-0.55 9.61, -2.19 10.37, 0 8.25 M0 8.25 C-0.44 6.67, -0.07 4.87, 0 2.75 M0 8.25 C0.15 7.07, -0.08 5.62, 0 2.75 M0 2.75 C0.35 1.38, 1.76 0.78, 2.75 0 M0 2.75 C-0.49 3.14, -1.34 0.09, 2.75 0" stroke="#1e1e1e" stroke-width="1" fill="none"></path></g><g stroke-linecap="round" transform="translate(233.5 357.25) rotate(0 5 4.5)"><path d="M0.83 0.85 L8.86 0.59 L9.43 7.7 L2.13 8.45 L-0.76 3.4 L2.1 0.13" stroke="none" stroke-width="0" fill="#fa5252"></path><path d="M2.25 0 M2.25 0 C3.97 0.14, 6.22 0.04, 7.75 0 M2.25 0 C3.8 -0.12, 5.01 -0.2, 7.75 0 M7.75 0 C9.38 1.73, 9.2 -0.41, 10 2.25 M7.75 0 C9.5 -1.2, 9.08 2.42, 10 2.25 M10 2.25 C9.7 3.03, 9.7 4.58, 10 6.75 M10 2.25 C10.01 3.41, 10.07 5.08, 10 6.75 M10 6.75 C11.59 9.69, 9.54 10.06, 7.75 9 M10 6.75 C9.57 6.54, 8.28 8.64, 7.75 9 M7.75 9 C6.61 9.29, 5.48 9.13, 2.25 9 M7.75 9 C6.29 8.72, 4.71 9.15, 2.25 9 M2.25 9 C-1.1 8.44, -0.51 7.43, 0 6.75 M2.25 9 C2.75 9.02, 0.55 9.28, 0 6.75 M0 6.75 C0.18 5.56, -0.13 4.51, 0 2.25 M0 6.75 C0.16 5.25, 0.12 3.27, 0 2.25 M0 2.25 C-0.37 0.22, -0.85 0.53, 2.25 0 M0 2.25 C-1.42 1.36, -0.63 0.08, 2.25 0" stroke="#1e1e1e" stroke-width="1" fill="none"></path></g><g stroke-linecap="round" transform="translate(250.5 356.75) rotate(0 5 4.5)"><path d="M1.67 0.03 L9.43 -0.17 L11 8.45 L-0.2 9.59 L-0.15 2.38 L4.17 -0.05" stroke="none" stroke-width="0" fill="#fa5252"></path><path d="M2.25 0 M2.25 0 C3.96 0.07, 6.17 0.31, 7.75 0 M2.25 0 C3.77 -0.19, 5.28 0.26, 7.75 0 M7.75 0 C8.45 -1.16, 10.22 -0.29, 10 2.25 M7.75 0 C8.33 1.67, 8.98 1.88, 10 2.25 M10 2.25 C9.64 4.06, 9.94 6.16, 10 6.75 M10 2.25 C10.03 3.99, 10.17 5.51, 10 6.75 M10 6.75 C10.29 9.31, 8.87 7.52, 7.75 9 M10 6.75 C9.03 7.89, 7.83 10.65, 7.75 9 M7.75 9 C6.28 9.14, 3.97 8.85, 2.25 9 M7.75 9 C6.46 9.14, 4.97 8.87, 2.25 9 M2.25 9 C0.24 8.18, 1.74 8.27, 0 6.75 M2.25 9 C1.3 10.03, -1.21 9.89, 0 6.75 M0 6.75 C-0.12 5.41, 0.26 4.5, 0 2.25 M0 6.75 C0.12 5.44, -0.08 4.52, 0 2.25 M0 2.25 C-1.6 1.28, -0.48 0.53, 2.25 0 M0 2.25 C-1.38 0.83, 2.45 0.09, 2.25 0" stroke="#1e1e1e" stroke-width="1" fill="none"></path></g><g stroke-linecap="round" transform="translate(238.5 374.25) rotate(0 8.5 5.5)"><path d="M2.74 -0.73 L17.88 0.7 L15.55 11.46 L0.53 10.44 L1.92 2.7 L4.38 -1.69" stroke="none" stroke-width="0" fill="#fa5252"></path><path d="M2.75 0 M2.75 0 C6.01 0.66, 10.14 0.75, 14.25 0 M2.75 0 C5.67 0.59, 8.27 -0.24, 14.25 0 M14.25 0 C16.3 -1.04, 16.2 2.37, 17 2.75 M14.25 0 C15.06 1.13, 19.19 -0.75, 17 2.75 M17 2.75 C16.92 4.38, 17.2 5.08, 17 8.25 M17 2.75 C17.23 4.22, 17.05 5.43, 17 8.25 M17 8.25 C16.62 8.6, 15.24 10.69, 14.25 11 M17 8.25 C15.58 11.73, 16.79 11.74, 14.25 11 M14.25 11 C9.92 10.65, 5.39 11.21, 2.75 11 M14.25 11 C11.28 10.92, 9.22 10.85, 2.75 11 M2.75 11 C2.66 11.02, 0.48 10.98, 0 8.25 M2.75 11 C-0.3 12.64, -0.1 11.17, 0 8.25 M0 8.25 C0.35 7.2, -0.31 5.62, 0 2.75 M0 8.25 C-0.09 6.21, -0.26 4.39, 0 2.75 M0 2.75 C-1.23 1.45, -0.29 0.07, 2.75 0 M0 2.75 C1.7 1.01, 1.69 -1.26, 2.75 0" stroke="#1e1e1e" stroke-width="1" fill="none"></path></g><g stroke-linecap="round" transform="translate(363.5 205.25) rotate(0 5 4.5)"><path d="M0.62 1.79 L10.8 -0.49 L8.57 8.2 L-0.48 8.02 L-1.12 3.46 L1.05 0.79" stroke="none" stroke-width="0" fill="#868e96"></path><path d="M2.25 0 M2.25 0 C4.04 0.37, 5.91 0.04, 7.75 0 M2.25 0 C3.53 -0.16, 4.64 -0.09, 7.75 0 M7.75 0 C11.13 0.92, 8.59 2.65, 10 2.25 M7.75 0 C8.38 -1.75, 7.82 2.88, 10 2.25 M10 2.25 C10.18 4.05, 9.91 5.01, 10 6.75 M10 2.25 C10.13 3.79, 9.86 5.62, 10 6.75 M10 6.75 C9.71 10.13, 8.35 9.64, 7.75 9 M10 6.75 C11.51 6.22, 11.04 8.22, 7.75 9 M7.75 9 C5.77 8.85, 4.99 8.89, 2.25 9 M7.75 9 C5.47 8.95, 3.56 8.75, 2.25 9 M2.25 9 C-0.64 7.07, -1.1 7.22, 0 6.75 M2.25 9 C-1.41 9.21, 1.16 8.52, 0 6.75 M0 6.75 C0.31 5.08, -0.13 3.7, 0 2.25 M0 6.75 C0.19 5.41, 0.2 4.04, 0 2.25 M0 2.25 C-0.37 1.35, 2.29 -1.34, 2.25 0 M0 2.25 C-0.1 0.23, 0.23 -2.16, 2.25 0" stroke="#1e1e1e" stroke-width="1" fill="none"></path></g><g stroke-linecap="round" transform="translate(380.5 204.75) rotate(0 5 4.5)"><path d="M3.61 -1.05 L8.57 0.33 L8.39 8.02 L-0.56 9.64 L-1.2 3.04 L3.75 -0.18" stroke="none" stroke-width="0" fill="#868e96"></path><path d="M2.25 0 M2.25 0 C3.37 0, 5.07 0.29, 7.75 0 M2.25 0 C3.25 -0.09, 4.97 0.17, 7.75 0 M7.75 0 C7.84 1.9, 9.24 -0.77, 10 2.25 M7.75 0 C7.07 2.13, 10.05 0.56, 10 2.25 M10 2.25 C9.94 3.99, 10.39 5.23, 10 6.75 M10 2.25 C9.94 3.65, 10 5.41, 10 6.75 M10 6.75 C9.1 8.89, 10.56 7.24, 7.75 9 M10 6.75 C11.79 7.47, 8.5 7.24, 7.75 9 M7.75 9 C5.86 8.83, 4.16 9.31, 2.25 9 M7.75 9 C6.34 8.75, 4.34 8.73, 2.25 9 M2.25 9 C-0.35 7.97, -1.88 8.43, 0 6.75 M2.25 9 C1.91 9.27, 0.29 7.02, 0 6.75 M0 6.75 C-0.18 4.81, 0.04 3.59, 0 2.25 M0 6.75 C0.18 5.44, -0.08 3.96, 0 2.25 M0 2.25 C1.54 -0.59, 0.66 -0.46, 2.25 0 M0 2.25 C-0.52 -1.41, -0.49 -0.18, 2.25 0" stroke="#1e1e1e" stroke-width="1" fill="none"></path></g><g stroke-linecap="round" transform="translate(368.5 222.25) rotate(0 8.5 5.5)"><path d="M1.88 -0.24 L15.27 0.27 L15.19 11.52 L-0.52 11.1 L1.5 2.57 L2.5 -0.98" stroke="none" stroke-width="0" fill="#868e96"></path><path d="M2.75 0 M2.75 0 C6.25 0.68, 10.3 -0.15, 14.25 0 M2.75 0 C5.91 0.32, 7.57 0.6, 14.25 0 M14.25 0 C15.33 -1.52, 15.1 2.77, 17 2.75 M14.25 0 C16.13 -0.19, 18.81 1.84, 17 2.75 M17 2.75 C17.44 4.42, 17.14 7.54, 17 8.25 M17 2.75 C16.94 4.21, 16.85 5.23, 17 8.25 M17 8.25 C18.31 8.32, 17.64 10.32, 14.25 11 M17 8.25 C16.25 8.32, 17.83 8.87, 14.25 11 M14.25 11 C12.33 11.66, 8.05 10.6, 2.75 11 M14.25 11 C10.61 10.34, 7.44 10.6, 2.75 11 M2.75 11 C-0.96 11.18, 1.01 10.32, 0 8.25 M2.75 11 C1.21 9.77, 1.82 11.53, 0 8.25 M0 8.25 C0.1 7.24, 0.12 6.11, 0 2.75 M0 8.25 C-0.11 6.51, 0.16 4.42, 0 2.75 M0 2.75 C-0.09 0.46, 0.47 -1.87, 2.75 0 M0 2.75 C-1.24 0.74, 2.28 -1.55, 2.75 0" stroke="#1e1e1e" stroke-width="1" fill="none"></path></g><g stroke-linecap="round" transform="translate(95.5 10) rotate(0 35.5 31)"><path d="M29.57 0.81 C36.02 -0.45, 44.46 1.05, 50.7 3.63 C56.94 6.22, 63.7 11.15, 67 16.31 C70.3 21.48, 71.6 28.71, 70.48 34.62 C69.36 40.53, 65.16 47.42, 60.28 51.75 C55.4 56.08, 48.03 59.42, 41.19 60.6 C34.36 61.78, 25.31 61.31, 19.27 58.83 C13.23 56.34, 8.02 51.13, 4.97 45.71 C1.92 40.29, 0.17 32.41, 0.97 26.3 C1.76 20.2, 4.34 13.59, 9.76 9.06 C15.18 4.52, 28.55 0.34, 33.47 -0.92 C38.39 -2.18, 39.17 0.76, 39.28 1.47 M23.76 1.32 C29.88 -0.92, 38.79 0.32, 45.44 1.99 C52.1 3.65, 59.25 6.4, 63.68 11.3 C68.11 16.19, 71.77 25.19, 72.04 31.34 C72.32 37.49, 69.7 43.42, 65.33 48.19 C60.96 52.97, 52.85 57.76, 45.81 60.01 C38.78 62.25, 29.44 63.69, 23.1 61.65 C16.76 59.62, 11.62 52.93, 7.79 47.8 C3.95 42.67, 0.14 36.53, 0.1 30.87 C0.07 25.21, 3.62 18.56, 7.59 13.86 C11.55 9.15, 20.93 4.55, 23.9 2.62 C26.86 0.69, 24.95 2, 25.39 2.27" stroke="#1e1e1e" stroke-width="2" fill="none"></path></g><g stroke-linecap="round" transform="translate(293.5 23) rotate(0 35.5 31)"><path d="M29.36 -0.28 C35.81 -1.6, 44.34 -0.05, 50.51 2.78 C56.68 5.61, 63.11 11.2, 66.39 16.71 C69.66 22.23, 71 30.01, 70.16 35.86 C69.33 41.7, 66.08 47.59, 61.39 51.78 C56.69 55.97, 48.99 59.72, 42.01 61.01 C35.03 62.3, 25.92 62.2, 19.53 59.53 C13.13 56.86, 6.96 50.53, 3.66 45.01 C0.36 39.5, -1.31 32.42, -0.27 26.42 C0.77 20.42, 4.79 13.52, 9.89 9.01 C15 4.5, 26.5 0.82, 30.35 -0.64 C34.21 -2.1, 32.86 -0.3, 33.01 0.25 M48.1 0.16 C54.52 1.43, 62.08 7.54, 65.7 12.77 C69.33 18, 70.04 25.56, 69.86 31.55 C69.68 37.54, 68.42 44.13, 64.64 48.7 C60.86 53.28, 54.1 57.08, 47.17 59.03 C40.23 60.98, 29.78 62.12, 23.04 60.4 C16.29 58.68, 10.76 53.66, 6.71 48.69 C2.65 43.72, -1.35 36.67, -1.28 30.58 C-1.22 24.48, 2.92 17.23, 7.1 12.14 C11.28 7.05, 17.2 1.88, 23.8 0.04 C30.4 -1.79, 42.72 0.83, 46.7 1.15 C50.69 1.47, 47.83 1.49, 47.71 1.95" stroke="#1e1e1e" stroke-width="2" fill="none"></path></g><g stroke-linecap="round"><g transform="translate(164 54) rotate(0 62.02275911681352 -3.512078478713889)"><path d="M-0.5 0.85 C10.07 -0.78, 42.18 -9.27, 63.02 -8.86 C83.86 -8.44, 114.3 1.35, 124.55 3.36 M1.43 0.26 C12.42 -1.77, 44.78 -10.54, 65.22 -10.38 C85.66 -10.22, 114.1 -1.25, 124.07 1.2" stroke="#1e1e1e" stroke-width="2" fill="none"></path></g></g><mask></mask><g stroke-linecap="round"><g transform="translate(128.3572502445429 73.7129788892334) rotate(0 13.881247756193261 53.28817225854843)"><path d="M0.69 0.51 C-0.06 11.25, -10.8 46.33, -5.06 64.05 C0.67 81.77, 28.73 99.82, 35.1 106.84 M-0.4 -0.27 C-1.19 10.62, -11.4 47.55, -5.52 65.09 C0.37 82.62, 28.5 97.9, 34.91 104.95" stroke="#1e1e1e" stroke-width="2" fill="none"></path></g></g><mask></mask><g stroke-linecap="round"><g transform="translate(152.97724088318637 64.51207847871387) rotate(0 43.98704783541149 16.86444060835055)"><path d="M1 -0.69 C10.53 2.32, 42.16 12.22, 56.64 17.91 C71.12 23.59, 82.78 30.68, 87.9 33.41 M0.07 1.56 C9.54 4.79, 41.44 13.92, 56.03 19.39 C70.62 24.87, 82.31 31.73, 87.61 34.42" stroke="#1e1e1e" stroke-width="2" fill="none"></path></g></g><mask></mask><g stroke-linecap="round"><g transform="translate(356.02404559406443 194.25487108838746) rotate(0 -19.513204041439906 -54.311546904966235)"><path d="M0.22 0.92 C-5.98 -7.12, -31.05 -29.21, -36.47 -47.61 C-41.9 -66.02, -32.86 -99.22, -32.33 -109.54 M-1.12 0.35 C-7.58 -8.09, -32.39 -31.26, -37.66 -49.4 C-42.93 -67.54, -33.48 -98.62, -32.74 -108.5" stroke="#1e1e1e" stroke-width="2" fill="none"></path></g></g><mask></mask></svg>