<svg version="1.1" xmlns="http://www.w3.org/2000/svg" viewBox="0 0 393.1052755587301 292.90270383871433" width="786.2105511174602" height="585.8054076774287" filter="invert(93%) hue-rotate(180deg)">
  <!-- svg-source:excalidraw -->
  
  <defs>
    <style class="style-fonts">
      @font-face {
        font-family: "Virgil";
        src: url("https://excalidraw.com/Virgil.woff2");
      }
      @font-face {
        font-family: "Cascadia";
        src: url("https://excalidraw.com/Cascadia.woff2");
      }
    </style>
    
  </defs>
  <g stroke-linecap="round"><g transform="translate(33.53219487040246 120.98759989667968) rotate(0 37.97568609301635 11.426185138824557)"><path d="M0 0 C1.09 2.69, 3.23 11.25, 6.56 16.12 C9.88 20.99, 14.3 26.91, 19.94 29.23 C25.59 31.56, 33.74 32.1, 40.43 30.05 C47.13 28, 54.19 23.36, 60.11 16.94 C66.02 10.52, 73.31 -4.23, 75.95 -8.47 M0 0 C1.09 2.69, 3.23 11.25, 6.56 16.12 C9.88 20.99, 14.3 26.91, 19.94 29.23 C25.59 31.56, 33.74 32.1, 40.43 30.05 C47.13 28, 54.19 23.36, 60.11 16.94 C66.02 10.52, 73.31 -4.23, 75.95 -8.47" stroke="#343a40" stroke-width="2" fill="none"></path></g></g><mask></mask><g stroke-linecap="round"><g transform="translate(101.01416943857078 150.22068199705916) rotate(0 9.698826304331476 -16.392382486194137)"><path d="M0 0 C2.28 -2, 10.43 -6.56, 13.66 -12.02 C16.89 -17.49, 18.44 -29.32, 19.4 -32.78 M0 0 C2.28 -2, 10.43 -6.56, 13.66 -12.02 C16.89 -17.49, 18.44 -29.32, 19.4 -32.78" stroke="#343a40" stroke-width="2" fill="none"></path></g></g><mask></mask><g stroke-linecap="round"><g transform="translate(88.71988257392513 113.33782140312252) rotate(0 -30.44658331009464 59.21260085929247)"><path d="M0 0 C1.32 3.92, 5.24 14.48, 7.92 23.5 C10.61 32.51, 14.53 42.3, 16.12 54.09 C17.71 65.89, 17.49 85.15, 17.49 94.26 C17.49 103.36, 18.85 105.32, 16.12 108.74 C13.39 112.15, 6.97 113.15, 1.09 114.75 C-4.78 116.34, -10.79 117.93, -19.12 118.3 C-27.46 118.66, -40.53 118.25, -48.9 116.93 C-57.28 115.61, -64.7 112.61, -69.39 110.38 C-74.08 108.14, -75.5 108.19, -77.04 103.55 C-78.59 98.9, -78.64 89.79, -78.68 82.51 C-78.73 75.22, -78.96 69.21, -77.32 59.83 C-75.68 50.45, -72.54 36.06, -68.85 26.23 C-65.16 16.39, -57.46 5.05, -55.19 0.82 M0 0 C1.32 3.92, 5.24 14.48, 7.92 23.5 C10.61 32.51, 14.53 42.3, 16.12 54.09 C17.71 65.89, 17.49 85.15, 17.49 94.26 C17.49 103.36, 18.85 105.32, 16.12 108.74 C13.39 112.15, 6.97 113.15, 1.09 114.75 C-4.78 116.34, -10.79 117.93, -19.12 118.3 C-27.46 118.66, -40.53 118.25, -48.9 116.93 C-57.28 115.61, -64.7 112.61, -69.39 110.38 C-74.08 108.14, -75.5 108.19, -77.04 103.55 C-78.59 98.9, -78.64 89.79, -78.68 82.51 C-78.73 75.22, -78.96 69.21, -77.32 59.83 C-75.68 50.45, -72.54 36.06, -68.85 26.23 C-65.16 16.39, -57.46 5.05, -55.19 0.82" stroke="#343a40" stroke-width="2" fill="none"></path></g></g><mask></mask><g stroke-linecap="round"><g transform="translate(78.56820999647368 276.2439353619777) rotate(13.495733280795625 6.119276116829269 -0.8782458594453324)"><path d="M0 0 C1.62 -0.62, 7.61 -3.65, 9.7 -3.72 C11.79 -3.8, 12.77 -1.33, 12.55 -0.43 C12.32 0.47, 10.5 1.27, 8.35 1.67 C6.2 2.07, 1.11 1.92, -0.34 1.97 M0 0 C1.62 -0.62, 7.61 -3.65, 9.7 -3.72 C11.79 -3.8, 12.77 -1.33, 12.55 -0.43 C12.32 0.47, 10.5 1.27, 8.35 1.67 C6.2 2.07, 1.11 1.92, -0.34 1.97" stroke="#343a40" stroke-width="2" fill="none"></path></g></g><mask></mask><g stroke-linecap="round"><g transform="translate(37.72101386724489 276.6506593953784) rotate(25.709953780805996 5.612793624282006 -1.009704553590499)"><path d="M0 0 C1.53 -0.64, 7.19 -3.76, 9.19 -3.86 C11.2 -3.95, 12.27 -1.46, 12.04 -0.56 C11.82 0.34, 9.99 1.14, 7.85 1.54 C5.7 1.94, 0.6 1.79, -0.84 1.84 M0 0 C1.53 -0.64, 7.19 -3.76, 9.19 -3.86 C11.2 -3.95, 12.27 -1.46, 12.04 -0.56 C11.82 0.34, 9.99 1.14, 7.85 1.54 C5.7 1.94, 0.6 1.79, -0.84 1.84" stroke="#343a40" stroke-width="2" fill="none"></path></g></g><mask></mask><g stroke-linecap="round"><g transform="translate(339.0848688360603 280.21042551208427) rotate(340.86635679409864 -5.685644595008512 -1.0755390744048121)"><path d="M0 0 C-1.54 -0.65, -7.25 -3.82, -9.27 -3.92 C-11.29 -4.02, -12.34 -1.52, -12.11 -0.62 C-11.89 0.27, -10.07 1.07, -7.92 1.47 C-5.77 1.87, -0.68 1.72, 0.77 1.77 M0 0 C-1.54 -0.65, -7.25 -3.82, -9.27 -3.92 C-11.29 -4.02, -12.34 -1.52, -12.11 -0.62 C-11.89 0.27, -10.07 1.07, -7.92 1.47 C-5.77 1.87, -0.68 1.72, 0.77 1.77" stroke="#343a40" stroke-width="2" fill="none"></path></g></g><mask></mask><g stroke-linecap="round"><g transform="translate(297.258890070014 280.3186727821867) rotate(340.86635679409864 -5.277331773982382 -0.5982350743371292)"><path d="M0 0 C-1.42 -0.57, -6.64 -3.42, -8.54 -3.45 C-10.44 -3.47, -11.61 -1.05, -11.39 -0.15 C-11.16 0.75, -9.23 1.55, -7.19 1.95 C-5.15 2.35, -0.48 2.2, 0.86 2.25 M0 0 C-1.42 -0.57, -6.64 -3.42, -8.54 -3.45 C-10.44 -3.47, -11.61 -1.05, -11.39 -0.15 C-11.16 0.75, -9.23 1.55, -7.19 1.95 C-5.15 2.35, -0.48 2.2, 0.86 2.25" stroke="#343a40" stroke-width="2" fill="none"></path></g></g><mask></mask><g stroke-linecap="round"><g transform="translate(39.12495243435376 230.91175888237993) rotate(0 -1.3837997768399077 21.956289792527727)"><path d="M0 0 C-0.09 3.78, -0.09 15.38, -0.55 22.69 C-1.01 30.01, -2.4 40.38, -2.77 43.91 M0 0 C-0.09 3.78, -0.09 15.38, -0.55 22.69 C-1.01 30.01, -2.4 40.38, -2.77 43.91" stroke="#343a40" stroke-width="2" fill="none"></path></g></g><mask></mask><g stroke-linecap="round"><g transform="translate(81.00795901337858 232.203305340764) rotate(0 -1.6410986278985433 22.140796429439696)"><path d="M0 0 C0.06 3.41, 1.01 13.1, 0.37 20.48 C-0.28 27.86, -3.17 40.31, -3.87 44.28 M0 0 C0.06 3.41, 1.01 13.1, 0.37 20.48 C-0.28 27.86, -3.17 40.31, -3.87 44.28" stroke="#343a40" stroke-width="2" fill="none"></path></g></g><mask></mask><g stroke-linecap="round"><g transform="translate(296.14269765276924 235.89343807900391) rotate(0 0.6048555295772076 22.23304974789568)"><path d="M0 0 C-0.28 2.95, -2.15 10.3, -1.66 17.71 C-1.17 25.12, 2.18 40.01, 2.95 44.47 M0 0 C-0.28 2.95, -2.15 10.3, -1.66 17.71 C-1.17 25.12, 2.18 40.01, 2.95 44.47" stroke="#343a40" stroke-width="2" fill="none"></path></g></g><mask></mask><g stroke-linecap="round"><g transform="translate(337.28767768414457 236.2624513528278) rotate(0 1.6605597322079575 21.587276518703792)"><path d="M0 0 C0.12 3.66, 0.18 14.76, 0.74 21.96 C1.29 29.15, 2.89 39.64, 3.32 43.17 M0 0 C0.12 3.66, 0.18 14.76, 0.74 21.96 C1.29 29.15, 2.89 39.64, 3.32 43.17" stroke="#343a40" stroke-width="2" fill="none"></path></g></g><mask></mask><g stroke-linecap="round"><g transform="translate(130.4726299295845 97.47494726950066) rotate(0 -4.604720414092412 9.628051774920543)"><path d="M0 0 C-0.35 1.88, -0.56 8.09, -2.09 11.3 C-3.63 14.51, -8.02 17.93, -9.21 19.26 M0 0 C-0.35 1.88, -0.56 8.09, -2.09 11.3 C-3.63 14.51, -8.02 17.93, -9.21 19.26" stroke="#343a40" stroke-width="2" fill="none"></path></g></g><mask></mask><g stroke-linecap="round"><g transform="translate(243.70689102158497 94.12605969561514) rotate(0 9.000135354816848 -1.4651383135747693)"><path d="M0 0 C3 -0.49, 15 -2.44, 18 -2.93 M0 0 C3 -0.49, 15 -2.44, 18 -2.93" stroke="#343a40" stroke-width="2" fill="none"></path></g></g><mask></mask><g stroke-linecap="round"><g transform="translate(238.6835596607567 74.2420397256706) rotate(0 9.732704511604311 -2.0930547336783434)"><path d="M0 0 C3.24 -0.7, 16.22 -3.49, 19.47 -4.19 M0 0 C3.24 -0.7, 16.22 -3.49, 19.47 -4.19" stroke="#343a40" stroke-width="2" fill="none"></path></g></g><mask></mask><g stroke-linecap="round"><g transform="translate(238.47425418738896 75.28856709250977) rotate(0 1.8803946796542732 9.942009984972273)"><path d="M0 0 C-0.21 1.22, -1.36 4.99, -1.26 7.33 C-1.15 9.66, -0.42 11.93, 0.63 14.02 C1.67 16.12, 4.29 18.91, 5.02 19.88 M0 0 C-0.21 1.22, -1.36 4.99, -1.26 7.33 C-1.15 9.66, -0.42 11.93, 0.63 14.02 C1.67 16.12, 4.29 18.91, 5.02 19.88" stroke="#343a40" stroke-width="2" fill="none"></path></g></g><mask></mask><g stroke-linecap="round" transform="translate(102.9792591759657 88.55995472689168) rotate(24.443954780416895 3.2139358429495246 10.484783592867991)"><path d="M6.43 10.48 C6.43 11.09, 6.41 11.71, 6.38 12.31 C6.35 12.9, 6.3 13.5, 6.23 14.07 C6.17 14.64, 6.09 15.2, 6 15.73 C5.9 16.25, 5.8 16.76, 5.68 17.22 C5.56 17.69, 5.42 18.13, 5.28 18.52 C5.14 18.91, 4.98 19.26, 4.82 19.56 C4.66 19.87, 4.49 20.13, 4.31 20.34 C4.14 20.54, 3.96 20.7, 3.77 20.81 C3.59 20.92, 3.4 20.97, 3.21 20.97 C3.03 20.97, 2.84 20.92, 2.66 20.81 C2.47 20.7, 2.29 20.54, 2.11 20.34 C1.94 20.13, 1.77 19.87, 1.61 19.56 C1.45 19.26, 1.29 18.91, 1.15 18.52 C1.01 18.13, 0.87 17.69, 0.75 17.22 C0.63 16.76, 0.52 16.25, 0.43 15.73 C0.34 15.2, 0.26 14.64, 0.19 14.07 C0.13 13.5, 0.08 12.9, 0.05 12.31 C0.02 11.71, 0 11.09, 0 10.48 C0 9.88, 0.02 9.26, 0.05 8.66 C0.08 8.07, 0.13 7.47, 0.19 6.9 C0.26 6.33, 0.34 5.77, 0.43 5.24 C0.52 4.72, 0.63 4.21, 0.75 3.75 C0.87 3.28, 1.01 2.84, 1.15 2.45 C1.29 2.06, 1.45 1.71, 1.61 1.4 C1.77 1.1, 1.94 0.84, 2.11 0.63 C2.29 0.42, 2.47 0.26, 2.66 0.16 C2.84 0.05, 3.03 0, 3.21 0 C3.4 0, 3.59 0.05, 3.77 0.16 C3.96 0.26, 4.14 0.42, 4.31 0.63 C4.49 0.84, 4.66 1.1, 4.82 1.4 C4.98 1.71, 5.14 2.06, 5.28 2.45 C5.42 2.84, 5.56 3.28, 5.68 3.75 C5.8 4.21, 5.9 4.72, 6 5.24 C6.09 5.77, 6.17 6.33, 6.23 6.9 C6.3 7.47, 6.35 8.07, 6.38 8.66 C6.41 9.26, 6.42 10.18, 6.43 10.48 C6.44 10.79, 6.44 10.18, 6.43 10.48" stroke="#343a40" stroke-width="2" fill="none"></path></g><g stroke-linecap="round" transform="translate(259.3304477817411 69.9317675971543) rotate(350.46676720997175 3.2139358429495815 10.484783592867998)"><path d="M6.43 10.48 C6.43 11.09, 6.41 11.71, 6.38 12.31 C6.35 12.9, 6.3 13.5, 6.23 14.07 C6.17 14.64, 6.09 15.2, 6 15.73 C5.9 16.25, 5.8 16.76, 5.68 17.22 C5.56 17.69, 5.42 18.13, 5.28 18.52 C5.14 18.91, 4.98 19.26, 4.82 19.56 C4.66 19.87, 4.49 20.13, 4.31 20.34 C4.14 20.54, 3.96 20.7, 3.77 20.81 C3.59 20.92, 3.4 20.97, 3.21 20.97 C3.03 20.97, 2.84 20.92, 2.66 20.81 C2.47 20.7, 2.29 20.54, 2.11 20.34 C1.94 20.13, 1.77 19.87, 1.61 19.56 C1.45 19.26, 1.29 18.91, 1.15 18.52 C1.01 18.13, 0.87 17.69, 0.75 17.22 C0.63 16.76, 0.52 16.25, 0.43 15.73 C0.34 15.2, 0.26 14.64, 0.19 14.07 C0.13 13.5, 0.08 12.9, 0.05 12.31 C0.02 11.71, 0 11.09, 0 10.48 C0 9.88, 0.02 9.26, 0.05 8.66 C0.08 8.07, 0.13 7.47, 0.19 6.9 C0.26 6.33, 0.34 5.77, 0.43 5.24 C0.52 4.72, 0.63 4.21, 0.75 3.75 C0.87 3.28, 1.01 2.84, 1.15 2.45 C1.29 2.06, 1.45 1.71, 1.61 1.4 C1.77 1.1, 1.94 0.84, 2.11 0.63 C2.29 0.42, 2.47 0.26, 2.66 0.16 C2.84 0.05, 3.03 0, 3.21 0 C3.4 0, 3.59 0.05, 3.77 0.16 C3.96 0.26, 4.14 0.42, 4.31 0.63 C4.49 0.84, 4.66 1.1, 4.82 1.4 C4.98 1.71, 5.14 2.06, 5.28 2.45 C5.42 2.84, 5.56 3.28, 5.68 3.75 C5.8 4.21, 5.9 4.72, 6 5.24 C6.09 5.77, 6.17 6.33, 6.23 6.9 C6.3 7.47, 6.35 8.07, 6.38 8.66 C6.41 9.26, 6.42 10.18, 6.43 10.48 C6.44 10.79, 6.44 10.18, 6.43 10.48" stroke="#343a40" stroke-width="2" fill="none"></path></g><g stroke-linecap="round"><g transform="translate(103.68152933850217 109.19605377809981) rotate(0 8.68617714476511 3.348887573885378)"><path d="M0 0 C2.9 1.12, 14.48 5.58, 17.37 6.7 M0 0 C2.9 1.12, 14.48 5.58, 17.37 6.7" stroke="#343a40" stroke-width="2" fill="none"></path></g></g><mask></mask><g stroke-linecap="round"><g transform="translate(129.84471350948172 107.73091546452491) rotate(0 52.23269549225381 26.3467706481849)"><path d="M0 0 C2.16 1.57, 8.27 4.67, 12.98 9.42 C17.69 14.16, 25.08 22.19, 28.26 28.47 C31.43 34.74, 32.09 41.16, 32.02 47.09 C31.95 53.02, 30.07 59.72, 27.84 64.05 C25.61 68.37, 22.29 71.3, 18.63 73.05 C14.97 74.79, 9.38 75.32, 5.86 74.51 C2.34 73.71, -1.01 71.37, -2.51 68.23 C-4.01 65.09, -4.05 60, -3.14 55.68 C-2.23 51.35, -0.35 46.36, 2.93 42.28 C6.21 38.2, 11.23 33.7, 16.54 31.19 C21.84 28.67, 29.16 27.38, 34.74 27.21 C40.33 27.04, 45.07 28.01, 50.02 30.14 C54.98 32.27, 59.48 37.01, 64.47 39.98 C69.45 42.94, 74.93 46.81, 79.95 47.93 C84.98 49.05, 90.56 48.91, 94.61 46.68 C98.65 44.44, 102.91 39.31, 104.23 34.54 C105.56 29.76, 104.13 22.85, 102.56 18 C100.99 13.15, 98.37 9.1, 94.82 5.44 C91.26 1.78, 86.55 -2.09, 81.21 -3.98 C75.87 -5.86, 67.4 -6.98, 62.79 -5.86 C58.19 -4.74, 55.01 -0.91, 53.58 2.72 C52.15 6.35, 52.36 12.63, 54.21 15.91 C56.06 19.19, 60.45 21.56, 64.68 22.4 C68.9 23.23, 75.77 22.99, 79.54 20.93 C83.3 18.87, 84.94 14.37, 87.28 10.05 C89.62 5.72, 91.29 -0.17, 93.56 -5.02 C95.83 -9.87, 98.44 -16.19, 100.89 -19.05 C103.33 -21.91, 106.99 -21.66, 108.21 -22.19 M0 0 C2.16 1.57, 8.27 4.67, 12.98 9.42 C17.69 14.16, 25.08 22.19, 28.26 28.47 C31.43 34.74, 32.09 41.16, 32.02 47.09 C31.95 53.02, 30.07 59.72, 27.84 64.05 C25.61 68.37, 22.29 71.3, 18.63 73.05 C14.97 74.79, 9.38 75.32, 5.86 74.51 C2.34 73.71, -1.01 71.37, -2.51 68.23 C-4.01 65.09, -4.05 60, -3.14 55.68 C-2.23 51.35, -0.35 46.36, 2.93 42.28 C6.21 38.2, 11.23 33.7, 16.54 31.19 C21.84 28.67, 29.16 27.38, 34.74 27.21 C40.33 27.04, 45.07 28.01, 50.02 30.14 C54.98 32.27, 59.48 37.01, 64.47 39.98 C69.45 42.94, 74.93 46.81, 79.95 47.93 C84.98 49.05, 90.56 48.91, 94.61 46.68 C98.65 44.44, 102.91 39.31, 104.23 34.54 C105.56 29.76, 104.13 22.85, 102.56 18 C100.99 13.15, 98.37 9.1, 94.82 5.44 C91.26 1.78, 86.55 -2.09, 81.21 -3.98 C75.87 -5.86, 67.4 -6.98, 62.79 -5.86 C58.19 -4.74, 55.01 -0.91, 53.58 2.72 C52.15 6.35, 52.36 12.63, 54.21 15.91 C56.06 19.19, 60.45 21.56, 64.68 22.4 C68.9 23.23, 75.77 22.99, 79.54 20.93 C83.3 18.87, 84.94 14.37, 87.28 10.05 C89.62 5.72, 91.29 -0.17, 93.56 -5.02 C95.83 -9.87, 98.44 -16.19, 100.89 -19.05 C103.33 -21.91, 106.99 -21.66, 108.21 -22.19" stroke="#343a40" stroke-width="2" fill="none"></path></g></g><mask></mask><g stroke-linecap="round"><g transform="translate(253.29951778233374 93.51015690707419) rotate(0 13.959366375898071 20.86400625163604)"><path d="M0 0 C0.05 2.68, -1.04 10.66, 0.27 16.05 C1.59 21.45, 4.9 28.16, 7.89 32.38 C10.88 36.6, 14.83 40.09, 18.23 41.36 C21.63 42.63, 26.62 40.23, 28.3 40 M0 0 C0.05 2.68, -1.04 10.66, 0.27 16.05 C1.59 21.45, 4.9 28.16, 7.89 32.38 C10.88 36.6, 14.83 40.09, 18.23 41.36 C21.63 42.63, 26.62 40.23, 28.3 40" stroke="#343a40" stroke-width="2" fill="none"></path></g></g><mask></mask><g stroke-linecap="round"><g transform="translate(289.2172131244721 116.63897587739052) rotate(0 30.209481454328056 59.59072181763866)"><path d="M0 0 C-1.45 3.58, -6.17 13.74, -8.71 21.5 C-11.25 29.25, -13.56 38.05, -15.24 46.53 C-16.92 55.01, -18.19 64.35, -18.78 72.38 C-19.36 80.41, -19.09 88.57, -18.78 94.69 C-18.46 100.81, -20 105.53, -16.87 109.11 C-13.74 112.7, -6.98 114.51, 0 116.19 C6.98 117.87, 16.96 119.18, 25.03 119.18 C33.11 119.18, 41.04 117.68, 48.43 116.19 C55.83 114.69, 64.53 112.51, 69.39 110.2 C74.24 107.89, 75.92 108.71, 77.55 102.31 C79.18 95.92, 80.09 82.27, 79.18 71.84 C78.28 61.4, 74.69 48.75, 72.11 39.73 C69.52 30.7, 66.53 24.22, 63.67 17.69 C60.82 11.16, 56.42 3.4, 54.96 0.54 M0 0 C-1.45 3.58, -6.17 13.74, -8.71 21.5 C-11.25 29.25, -13.56 38.05, -15.24 46.53 C-16.92 55.01, -18.19 64.35, -18.78 72.38 C-19.36 80.41, -19.09 88.57, -18.78 94.69 C-18.46 100.81, -20 105.53, -16.87 109.11 C-13.74 112.7, -6.98 114.51, 0 116.19 C6.98 117.87, 16.96 119.18, 25.03 119.18 C33.11 119.18, 41.04 117.68, 48.43 116.19 C55.83 114.69, 64.53 112.51, 69.39 110.2 C74.24 107.89, 75.92 108.71, 77.55 102.31 C79.18 95.92, 80.09 82.27, 79.18 71.84 C78.28 61.4, 74.69 48.75, 72.11 39.73 C69.52 30.7, 66.53 24.22, 63.67 17.69 C60.82 11.16, 56.42 3.4, 54.96 0.54" stroke="#343a40" stroke-width="2" fill="none"></path></g></g><mask></mask><g stroke-linecap="round"><g transform="translate(347.44741617915145 123.16946593959742) rotate(0 17.828929689789334 28.16273839326761)"><path d="M0 0 C3.17 1.68, 13.51 6.21, 19.05 10.07 C24.58 13.92, 30.48 18.78, 33.2 23.13 C35.92 27.48, 35.92 32.02, 35.37 36.19 C34.83 40.36, 32.29 44.81, 29.93 48.16 C27.57 51.52, 22.68 54.96, 21.22 56.33 M0 0 C3.17 1.68, 13.51 6.21, 19.05 10.07 C24.58 13.92, 30.48 18.78, 33.2 23.13 C35.92 27.48, 35.92 32.02, 35.37 36.19 C34.83 40.36, 32.29 44.81, 29.93 48.16 C27.57 51.52, 22.68 54.96, 21.22 56.33" stroke="#343a40" stroke-width="2" fill="none"></path></g></g><mask></mask><g stroke-linecap="round"><g transform="translate(369.90418685863926 180.97069679200533) rotate(0 1.835227377602564 6.6516604383169025)"><path d="M0 0 C0.66 1.53, 4.03 6.96, 3.98 9.17 C3.92 11.39, 0.41 12.62, -0.31 13.3 M0 0 C0.66 1.53, 4.03 6.96, 3.98 9.17 C3.92 11.39, 0.41 12.62, -0.31 13.3" stroke="#343a40" stroke-width="2" fill="none"></path></g></g><mask></mask><g stroke-linecap="round"><g transform="translate(243.60493038785683 71.70227499012515) rotate(0 6.544486808257943 -2.247576519271874)"><path d="M0 0 C0.89 -0.74, 3.17 -4.02, 5.35 -4.44 C7.53 -4.86, 11.8 -2.83, 13.09 -2.5 M0 0 C0.89 -0.74, 3.17 -4.02, 5.35 -4.44 C7.53 -4.86, 11.8 -2.83, 13.09 -2.5" stroke="#343a40" stroke-width="2" fill="none"></path></g></g><mask></mask><g stroke-linecap="round" transform="translate(110.2263698075318 98.45921598966635) rotate(29.13429219722619 2.629626059749512 6.671961373230445)"><path d="M5.26 6.67 C5.26 7.06, 5.25 7.45, 5.22 7.83 C5.19 8.21, 5.15 8.59, 5.1 8.95 C5.05 9.32, 4.98 9.67, 4.91 10.01 C4.83 10.34, 4.74 10.66, 4.64 10.96 C4.55 11.26, 4.44 11.53, 4.32 11.78 C4.2 12.03, 4.08 12.26, 3.94 12.45 C3.81 12.64, 3.67 12.81, 3.53 12.94 C3.39 13.07, 3.24 13.18, 3.09 13.24 C2.94 13.31, 2.78 13.34, 2.63 13.34 C2.48 13.34, 2.32 13.31, 2.17 13.24 C2.02 13.18, 1.87 13.07, 1.73 12.94 C1.59 12.81, 1.45 12.64, 1.31 12.45 C1.18 12.26, 1.06 12.03, 0.94 11.78 C0.82 11.53, 0.71 11.26, 0.62 10.96 C0.52 10.66, 0.43 10.34, 0.35 10.01 C0.28 9.67, 0.21 9.32, 0.16 8.95 C0.11 8.59, 0.07 8.21, 0.04 7.83 C0.01 7.45, 0 7.06, 0 6.67 C0 6.29, 0.01 5.89, 0.04 5.51 C0.07 5.13, 0.11 4.75, 0.16 4.39 C0.21 4.03, 0.28 3.67, 0.35 3.34 C0.43 3, 0.52 2.68, 0.62 2.38 C0.71 2.09, 0.82 1.81, 0.94 1.56 C1.06 1.31, 1.18 1.09, 1.31 0.89 C1.45 0.7, 1.59 0.53, 1.73 0.4 C1.87 0.27, 2.02 0.17, 2.17 0.1 C2.32 0.03, 2.48 0, 2.63 0 C2.78 0, 2.94 0.03, 3.09 0.1 C3.24 0.17, 3.39 0.27, 3.53 0.4 C3.67 0.53, 3.81 0.7, 3.94 0.89 C4.08 1.09, 4.2 1.31, 4.32 1.56 C4.44 1.81, 4.55 2.09, 4.64 2.38 C4.74 2.68, 4.83 3, 4.91 3.34 C4.98 3.67, 5.05 4.03, 5.1 4.39 C5.15 4.75, 5.19 5.13, 5.22 5.51 C5.25 5.89, 5.25 6.48, 5.26 6.67 C5.27 6.87, 5.27 6.48, 5.26 6.67" stroke="#343a40" stroke-width="2" fill="none"></path></g><g stroke-linecap="round"><g transform="translate(352.87857566523724 68.97742149809164) rotate(0 -33.891334684490175 7.782953954129582)"><path d="M0 0 C0.05 -2.88, 0.09 -5.75, 0.19 -11.64 M0 0 C0.07 -4.53, 0.15 -9.06, 0.19 -11.64 M0.19 -11.64 C-7.13 -18.87, -14.45 -26.1, -20.98 -32.55 M0.19 -11.64 C-4.59 -16.36, -9.38 -21.09, -20.98 -32.55 M-20.98 -32.55 C-32.97 -32.55, -44.97 -32.55, -68.13 -32.56 M-20.98 -32.55 C-35.88 -32.55, -50.77 -32.55, -68.13 -32.56 M-68.13 -32.56 C-68.22 -10.26, -68.32 12.04, -68.46 47.11 M-68.13 -32.56 C-68.22 -11.94, -68.3 8.68, -68.46 47.11 M-68.46 47.11 C-48.13 47.41, -27.81 47.71, 0.68 48.12 M-68.46 47.11 C-48.86 47.4, -29.25 47.69, 0.68 48.12 M0.68 48.12 C0.62 40.41, 0.57 32.69, 0.46 16.67 M0.68 48.12 C0.6 37.56, 0.53 27, 0.46 16.67" stroke="#000" stroke-width="2" fill="none"></path></g></g><mask></mask><g stroke-linecap="round"><g transform="translate(331.4203377815271 37.29787104817089) rotate(0 10.798761029575985 10.272281683367751)"><path d="M0 0 C0.06 5.3, 0.13 10.59, 0.25 20.54 M0 0 C0.09 7, 0.17 14.01, 0.25 20.54 M0.25 20.54 C7.61 20.48, 14.97 20.41, 21.6 20.35 M0.25 20.54 C8.46 20.47, 16.66 20.4, 21.6 20.35" stroke="#000" stroke-width="2" fill="none"></path></g></g><mask></mask><g stroke-linecap="round" transform="translate(37.248361214664556 28.837477110009445) rotate(0 26.88921762175812 13.444608810879046)"><path d="M0 0 L53.78 0 L53.78 26.89 L0 26.89" stroke="none" stroke-width="0" fill="#e9ecef"></path><path d="M0 0 C10.83 0, 21.65 0, 53.78 0 M0 0 C14.66 0, 29.33 0, 53.78 0 M53.78 0 C53.78 6.58, 53.78 13.17, 53.78 26.89 M53.78 0 C53.78 9.55, 53.78 19.09, 53.78 26.89 M53.78 26.89 C34.29 26.89, 14.8 26.89, 0 26.89 M53.78 26.89 C37.27 26.89, 20.77 26.89, 0 26.89 M0 26.89 C0 17.97, 0 9.04, 0 0 M0 26.89 C0 16.89, 0 6.89, 0 0" stroke="#1e1e1e" stroke-width="2" fill="none"></path></g><g transform="translate(42.99744482776043 33.525347644248484) rotate(0 22.11815449225213 9.05691255038191)"><text x="0" y="0" font-family="Cascadia, Segoe UI Emoji" font-size="15.09485425063652px" fill="#e03131" text-anchor="start" style="white-space: pre;" direction="ltr" dominant-baseline="text-before-edge">TL;DR</text></g><g stroke-linecap="round"><g transform="translate(11.376135130122861 49.326772936946014) rotate(0 40.93644564449539 9.400823970577974)"><path d="M0 0 C-0.09 -5.62, -0.18 -11.24, -0.23 -14.06 M0 0 C-0.08 -4.98, -0.16 -9.96, -0.23 -14.06 M-0.23 -14.06 C7.01 -21.2, 14.24 -28.35, 25.34 -39.31 M-0.23 -14.06 C5.92 -20.13, 12.06 -26.2, 25.34 -39.31 M25.34 -39.31 C39.72 -39.32, 54.1 -39.32, 82.3 -39.33 M25.34 -39.31 C46.51 -39.32, 67.68 -39.32, 82.3 -39.33 M82.3 -39.33 C82.38 -19.2, 82.46 0.92, 82.69 56.91 M82.3 -39.33 C82.43 -6.9, 82.56 25.53, 82.69 56.91 M82.69 56.91 C53.72 57.33, 24.75 57.75, -0.82 58.13 M82.69 56.91 C51.44 57.36, 20.18 57.82, -0.82 58.13 M-0.82 58.13 C-0.74 46.98, -0.66 35.84, -0.56 20.14 M-0.82 58.13 C-0.72 43.69, -0.62 29.24, -0.56 20.14" stroke="#000" stroke-width="2" fill="none"></path></g></g><mask></mask><g stroke-linecap="round"><g transform="translate(37.29497240610533 11.061882896226763) rotate(0 -13.043537471465697 12.407617011571077)"><path d="M0 0 C-0.1 8.18, -0.2 16.36, -0.3 24.82 M0 0 C-0.11 9, -0.22 18, -0.3 24.82 M-0.3 24.82 C-8.06 24.75, -15.81 24.68, -26.09 24.59 M-0.3 24.82 C-9.9 24.73, -19.51 24.64, -26.09 24.59" stroke="#000" stroke-width="2" fill="none"></path></g></g><mask></mask><g stroke-linecap="round" transform="translate(293.99703071329 63.731681063397815) rotate(0 8.812294544835026 8.923076923076948)"><path d="M0 0 L17.62 0 L17.62 17.85 L0 17.85" stroke="none" stroke-width="0" fill="#e9ecef"></path><path d="M0 0 C3.95 0, 7.91 0, 17.62 0 M0 0 C3.79 0, 7.57 0, 17.62 0 M17.62 0 C17.62 6.11, 17.62 12.22, 17.62 17.85 M17.62 0 C17.62 4.34, 17.62 8.67, 17.62 17.85 M17.62 17.85 C12.88 17.85, 8.13 17.85, 0 17.85 M17.62 17.85 C11.23 17.85, 4.84 17.85, 0 17.85 M0 17.85 C0 10.73, 0 3.61, 0 0 M0 17.85 C0 13.06, 0 8.28, 0 0" stroke="#1e1e1e" stroke-width="2" fill="none"></path></g><g transform="translate(293.5098505901225 63.14482632291157) rotate(0 8.833333015441895 9.05691255038191)"><text x="0" y="0" font-family="Cascadia, Segoe UI Emoji" font-size="15.09485425063652px" fill="#e03131" text-anchor="start" style="white-space: pre;" direction="ltr" dominant-baseline="text-before-edge">TL</text></g><g stroke-linecap="round" transform="translate(320.17362164061444 62.94408042400738) rotate(0 9.966140698680988 9.307692307692335)"><path d="M0 0 L19.93 0 L19.93 18.62 L0 18.62" stroke="none" stroke-width="0" fill="#e9ecef"></path><path d="M0 0 C5.07 0, 10.14 0, 19.93 0 M0 0 C5.49 0, 10.97 0, 19.93 0 M19.93 0 C19.93 7.36, 19.93 14.71, 19.93 18.62 M19.93 0 C19.93 4.18, 19.93 8.36, 19.93 18.62 M19.93 18.62 C14.63 18.62, 9.33 18.62, 0 18.62 M19.93 18.62 C12.1 18.62, 4.26 18.62, 0 18.62 M0 18.62 C0 13.5, 0 8.38, 0 0 M0 18.62 C0 14.17, 0 9.72, 0 0" stroke="#1e1e1e" stroke-width="2" fill="none"></path></g><g transform="translate(321.44468327568813 62.30228062857617) rotate(0 8.833333015441895 9.05691255038191)"><text x="0" y="0" font-family="Cascadia, Segoe UI Emoji" font-size="15.09485425063652px" fill="#e03131" text-anchor="start" style="white-space: pre;" direction="ltr" dominant-baseline="text-before-edge">DR</text></g><g transform="translate(310.8987250523554 56.18473976466689) rotate(0 3.9000000953674316 16.099999999999994)"><text x="0" y="0" font-family="Helvetica, Segoe UI Emoji" font-size="28px" fill="#e03131" text-anchor="start" style="white-space: pre;" direction="ltr" dominant-baseline="text-before-edge">;</text></g><g transform="translate(67.51960417323448 63.52842108334809) rotate(90.37972685867732 10.550000190734863 21.599999999999994)"><text x="0" y="0" font-family="Cascadia, Segoe UI Emoji" font-size="36px" fill="#e03131" text-anchor="start" style="white-space: pre;" direction="ltr" dominant-baseline="text-before-edge">O</text></g><g transform="translate(270.37674703037703 61.742706797633815) rotate(0 7.2166666984558105 11.5)"><text x="0" y="0" font-family="Helvetica, Segoe UI Emoji" font-size="20px" fill="#1e1e1e" text-anchor="start" style="white-space: pre;" direction="ltr" dominant-baseline="text-before-edge">C</text></g><g transform="translate(307.6838896967855 76.57127822620527) rotate(90.37972685867732 10.550000190734863 21.599999999999994)"><text x="0" y="0" font-family="Cascadia, Segoe UI Emoji" font-size="36px" fill="#e03131" text-anchor="start" style="white-space: pre;" direction="ltr" dominant-baseline="text-before-edge">D</text></g></svg>