<svg version="1.1" xmlns="http://www.w3.org/2000/svg" viewBox="0 0 182 156" width="364" height="312">
  <!-- svg-source:excalidraw -->
  
  <defs>
    <style class="style-fonts">
      @font-face {
        font-family: "Virgil";
        src: url("https://excalidraw.com/Virgil.woff2");
      }
      @font-face {
        font-family: "Cascadia";
        src: url("https://excalidraw.com/Cascadia.woff2");
      }
    </style>
    
  </defs>
  <rect x="0" y="0" width="182" height="156" fill="#ffffff"></rect><g stroke-opacity="0.8" fill-opacity="0.8" stroke-linecap="round" transform="translate(10 10) rotate(0 81 68)"><path d="M102.5 17.25 M102.5 17.25 C114.92 28.24, 127.34 39.22, 141.5 51.75 M102.5 17.25 C112.28 25.9, 122.06 34.56, 141.5 51.75 M141.5 51.75 C162 69, 162 69, 141.5 86.25 M141.5 51.75 C162 69, 162 69, 141.5 86.25 M141.5 86.25 C127.92 97.56, 114.35 108.88, 102.5 118.75 M141.5 86.25 C127.74 97.72, 113.97 109.19, 102.5 118.75 M102.5 118.75 C82 136, 82 136, 61.5 118.75 M102.5 118.75 C82 136, 82 136, 61.5 118.75 M61.5 118.75 C46.71 107.03, 31.92 95.31, 20.5 86.25 M61.5 118.75 C48.23 108.23, 34.96 97.71, 20.5 86.25 M20.5 86.25 C0 69, 0 69, 20.5 51.75 M20.5 86.25 C0 69, 0 69, 20.5 51.75 M20.5 51.75 C31.44 42.54, 42.38 33.34, 61.5 17.25 M20.5 51.75 C32.47 41.68, 44.43 31.61, 61.5 17.25 M61.5 17.25 C82 0, 82 0, 102.5 17.25 M61.5 17.25 C82 0, 82 0, 102.5 17.25" stroke="#1e1e1e" stroke-width="4" fill="none"></path></g><g stroke-opacity="0.8" fill-opacity="0.8" transform="translate(56.88333511352539 68.80000000000001) rotate(0 34.11666488647461 9.199999999999989)"><text x="34.11666488647461" y="0" font-family="Helvetica, Segoe UI Emoji" font-size="16px" fill="#1e1e1e" text-anchor="middle" style="white-space: pre;" direction="ltr" dominant-baseline="text-before-edge">Fieldwork</text></g></svg>