<svg version="1.1" xmlns="http://www.w3.org/2000/svg" viewBox="0 0 392.5974025974026 318.0519480519479" width="392.5974025974026" height="318.0519480519479" filter="invert(93%) hue-rotate(180deg)">
  <!-- svg-source:excalidraw -->
  
  <defs>
    <style class="style-fonts">
      @font-face {
        font-family: "Virgil";
        src: url("https://excalidraw.com/Virgil.woff2");
      }
      @font-face {
        font-family: "Cascadia";
        src: url("https://excalidraw.com/Cascadia.woff2");
      }
    </style>
    
  </defs>
  <g transform="translate(10 38.57142857142844) rotate(0 44.285714285714334 28.57142857142867)" stroke="none"><path fill="#1e1e1e" d="M -3.33,-6.66 Q -3.33,-6.66 2.35,-9.66 8.03,-12.66 12.82,-16.15 17.61,-19.65 24.33,-23.40 31.04,-27.15 39.01,-29.71 46.98,-32.27 53.31,-33.59 59.64,-34.92 68.05,-31.93 76.47,-28.93 82.38,-18.76 88.29,-8.59 89.14,3.41 89.98,15.43 86.72,28.68 83.45,41.93 78.11,52.66 72.77,63.40 67.90,69.69 63.03,75.97 55.24,80.67 47.45,85.37 39.07,86.74 30.69,88.11 24.01,85.78 17.33,83.44 13.99,78.69 10.64,73.95 11.68,65.60 12.71,57.26 15.09,51.58 17.46,45.90 21.95,40.69 26.43,35.47 35.30,30.20 44.17,24.94 52.73,21.61 61.28,18.28 68.32,16.19 75.37,14.10 80.17,12.46 84.98,10.81 86.28,10.67 87.57,10.53 88.84,10.81 90.11,11.09 91.23,11.76 92.35,12.43 93.19,13.42 94.03,14.41 94.52,15.62 95.00,16.83 95.07,18.13 95.14,19.43 94.79,20.69 94.44,21.94 93.71,23.02 92.98,24.10 91.95,24.89 90.91,25.68 89.68,26.09 88.44,26.51 87.14,26.51 85.84,26.51 84.60,26.09 83.37,25.68 82.33,24.89 81.30,24.10 80.56,23.03 79.83,21.95 79.48,20.69 79.14,19.44 79.21,18.14 79.28,16.84 79.76,15.63 80.24,14.42 81.08,13.43 81.93,12.43 83.04,11.76 84.16,11.09 85.43,10.81 86.70,10.53 88.00,10.67 89.29,10.81 90.47,11.36 91.65,11.90 92.60,12.80 93.55,13.69 94.16,14.85 94.77,16.00 94.98,17.28 95.19,18.57 94.98,19.85 94.77,21.14 94.16,22.29 93.55,23.44 92.60,24.33 91.66,25.23 90.47,25.78 89.29,26.32 89.29,26.32 89.29,26.32 84.33,27.39 79.36,28.46 73.18,30.05 67.00,31.64 59.90,35.03 52.80,38.42 46.09,43.16 39.39,47.90 34.13,54.45 28.88,61.00 29.48,68.00 30.08,75.00 35.75,74.61 41.43,74.22 47.38,70.92 53.33,67.62 57.61,62.81 61.89,58.00 66.47,48.43 71.05,38.86 73.73,27.52 76.41,16.18 75.79,7.06 75.17,-2.05 68.15,-10.65 61.13,-19.25 56.39,-18.57 51.66,-17.89 45.17,-15.73 38.69,-13.57 32.67,-10.08 26.66,-6.59 20.81,-2.71 14.96,1.16 9.14,3.91 3.33,6.66 2.48,6.96 1.63,7.26 0.74,7.35 -0.14,7.44 -1.03,7.32 -1.92,7.19 -2.75,6.85 -3.59,6.52 -4.31,6.00 -5.04,5.47 -5.62,4.79 -6.21,4.10 -6.61,3.30 -7.01,2.50 -7.21,1.62 -7.40,0.75 -7.39,-0.14 -7.37,-1.04 -7.14,-1.91 -6.90,-2.77 -6.47,-3.56 -6.04,-4.35 -5.43,-5.01 -4.82,-5.67 -4.07,-6.16 -3.32,-6.66 -3.33,-6.66 L -3.33,-6.66 Z"></path></g><g transform="translate(101.16883116883128 56.623376623376316) rotate(0 108.57142857142844 88.57142857142856)" stroke="none"><path fill="#1e1e1e" d="M 0.76,-7.28 Q 0.76,-7.28 8.56,-6.34 16.36,-5.40 24.31,-3.26 32.26,-1.12 37.73,0.29 43.19,1.71 50.19,4.60 57.20,7.49 66.56,11.85 75.93,16.21 84.87,20.64 93.82,25.08 100.80,28.02 107.79,30.96 114.73,33.36 121.68,35.75 128.92,37.56 136.16,39.37 142.50,40.33 148.83,41.30 154.16,41.49 159.50,41.67 166.79,41.59 174.09,41.51 179.32,40.41 184.56,39.32 190.24,37.70 195.91,36.07 201.21,32.66 206.50,29.25 212.79,24.96 219.08,20.67 223.49,16.73 227.91,12.79 230.90,8.65 233.89,4.51 235.90,-1.47 237.91,-7.46 236.00,-11.47 234.09,-15.48 230.24,-19.13 226.39,-22.79 221.19,-24.32 215.99,-25.86 211.78,-26.73 207.57,-27.61 202.62,-28.05 197.67,-28.49 190.96,-28.00 184.24,-27.51 176.14,-25.73 168.03,-23.95 160.51,-21.36 152.98,-18.77 146.28,-15.35 139.59,-11.93 131.72,-7.39 123.85,-2.86 117.82,1.51 111.79,5.89 106.13,11.43 100.47,16.97 96.08,21.75 91.69,26.52 88.68,32.29 85.66,38.06 81.55,45.91 77.43,53.76 73.58,61.95 69.72,70.14 65.23,82.46 60.74,94.78 56.29,107.09 51.85,119.39 48.70,128.28 45.56,137.18 42.60,147.01 39.64,156.84 34.95,167.54 30.26,178.24 25.33,187.76 20.41,197.28 13.28,204.41 6.16,211.53 -1.47,215.00 -9.10,218.48 -16.65,220.78 -24.20,223.08 -30.18,218.58 -36.15,214.09 -36.16,209.26 -36.18,204.43 -35.73,203.02 -35.29,201.61 -34.42,200.41 -33.56,199.22 -32.35,198.36 -31.15,197.51 -29.73,197.08 -28.32,196.66 -26.84,196.71 -25.37,196.75 -23.98,197.27 -22.60,197.79 -21.45,198.72 -20.31,199.65 -19.52,200.90 -18.73,202.15 -18.38,203.59 -18.04,205.02 -18.16,206.49 -18.29,207.96 -18.88,209.32 -19.47,210.67 -20.47,211.76 -21.46,212.86 -22.75,213.58 -24.04,214.30 -25.49,214.57 -26.94,214.84 -28.41,214.63 -29.87,214.42 -31.19,213.76 -32.51,213.09 -33.54,212.04 -34.58,210.99 -35.23,209.66 -35.88,208.34 -36.07,206.87 -36.26,205.41 -35.97,203.96 -35.69,202.51 -34.95,201.23 -34.22,199.95 -33.11,198.97 -32.01,197.99 -30.65,197.41 -29.29,196.84 -27.82,196.73 -26.34,196.62 -24.91,196.98 -23.48,197.35 -22.24,198.15 -21.00,198.95 -20.08,200.11 -19.17,201.26 -18.66,202.65 -18.16,204.04 -18.13,205.52 -18.10,206.99 -18.10,206.99 -18.10,206.99 -21.34,207.54 -24.57,208.10 -18.97,207.90 -13.36,207.71 -7.21,205.71 -1.05,203.72 4.94,197.97 10.93,192.22 15.62,183.05 20.30,173.88 24.69,163.79 29.09,153.70 32.03,143.61 34.98,133.53 38.01,124.55 41.04,115.57 45.32,103.20 49.60,90.83 54.05,77.97 58.49,65.11 62.14,56.56 65.78,48.02 69.64,39.68 73.50,31.33 77.67,24.14 81.83,16.95 86.59,12.49 91.36,8.02 97.57,1.48 103.78,-5.04 110.22,-9.75 116.65,-14.47 124.59,-19.72 132.53,-24.97 139.85,-29.13 147.16,-33.28 155.19,-36.93 163.22,-40.57 172.40,-43.79 181.58,-47.00 190.41,-48.61 199.23,-50.21 205.73,-49.77 212.23,-49.34 217.55,-48.16 222.87,-46.98 228.22,-45.11 233.57,-43.23 237.41,-40.76 241.25,-38.28 244.34,-34.95 247.43,-31.62 250.10,-27.42 252.77,-23.22 254.28,-18.37 255.80,-13.53 255.67,-7.74 255.53,-1.96 253.73,2.34 251.92,6.64 249.30,10.68 246.68,14.71 242.34,19.72 237.99,24.72 232.88,28.77 227.77,32.81 221.31,37.65 214.84,42.48 207.53,47.02 200.21,51.55 193.60,53.16 187.00,54.77 180.73,55.48 174.47,56.19 166.30,56.49 158.12,56.79 152.19,55.95 146.25,55.10 139.61,53.64 132.96,52.18 125.11,50.21 117.27,48.25 109.98,45.61 102.68,42.98 95.50,39.90 88.32,36.82 79.39,32.89 70.46,28.96 60.96,25.21 51.46,21.47 45.00,18.84 38.54,16.20 33.59,14.29 28.64,12.38 21.74,10.53 14.85,8.69 7.04,7.98 -0.76,7.28 -1.62,7.08 -2.48,6.88 -3.27,6.48 -4.06,6.09 -4.73,5.51 -5.40,4.94 -5.91,4.22 -6.42,3.50 -6.75,2.68 -7.08,1.86 -7.20,0.99 -7.32,0.11 -7.22,-0.76 -7.13,-1.63 -6.83,-2.46 -6.53,-3.29 -6.04,-4.03 -5.55,-4.76 -4.90,-5.36 -4.25,-5.95 -3.47,-6.38 -2.70,-6.80 -1.85,-7.02 -0.99,-7.25 -0.11,-7.26 0.76,-7.28 0.76,-7.28 L 0.76,-7.28 Z"></path></g><g transform="translate(112.5974025974026 169.4805194805192) rotate(0 0 2.1428571428571104)" stroke="none"><path fill="#1e1e1e" d="M 8.48,-2.64 Q 8.48,-2.64 8.60,-0.52 8.73,1.60 7.86,3.53 6.99,5.47 5.31,6.78 3.64,8.10 1.55,8.48 -0.53,8.86 -2.56,8.23 -4.59,7.60 -6.09,6.09 -7.60,4.59 -8.23,2.56 -8.86,0.53 -8.48,-1.55 -8.09,-3.64 -6.78,-5.31 -5.47,-6.99 -3.53,-7.86 -1.59,-8.73 0.52,-8.60 2.64,-8.47 4.46,-7.37 6.28,-6.27 7.38,-4.46 L 8.48,-2.64 Z"></path></g><g transform="translate(115.4545454545455 170.90909090909076) rotate(0 37.14285714285711 4.285714285714107)" stroke="none"><path fill="#1e1e1e" d="M -3.50,-9.81 Q -3.50,-9.81 2.30,-11.77 8.11,-13.73 13.03,-14.58 17.95,-15.44 26.24,-12.11 34.54,-8.79 41.68,-4.06 48.81,0.66 55.15,0.58 61.48,0.50 63.45,-1.87 65.42,-4.26 67.02,-5.45 68.62,-6.64 70.51,-7.26 72.40,-7.88 74.39,-7.86 76.39,-7.84 78.27,-7.19 80.15,-6.53 81.72,-5.31 83.30,-4.09 84.40,-2.43 85.50,-0.77 86.02,1.14 86.53,3.06 86.41,5.05 86.28,7.04 85.52,8.88 84.77,10.73 83.47,12.23 82.16,13.74 80.45,14.75 78.73,15.76 76.78,16.17 74.83,16.58 72.85,16.35 70.87,16.11 69.08,15.26 67.28,14.41 65.84,13.02 64.41,11.64 63.49,9.87 62.58,8.10 62.27,6.13 61.97,4.16 62.31,2.20 62.65,0.24 63.60,-1.50 64.55,-3.25 66.01,-4.61 67.47,-5.97 69.28,-6.78 71.10,-7.60 73.08,-7.80 75.06,-8.00 77.01,-7.55 78.95,-7.10 80.64,-6.06 82.34,-5.02 83.62,-3.49 84.89,-1.96 85.61,-0.10 86.33,1.75 86.42,3.74 86.51,5.73 85.96,7.64 85.40,9.56 84.27,11.20 83.14,12.83 83.14,12.83 83.14,12.83 81.89,14.00 80.63,15.17 76.92,18.09 73.22,21.00 64.70,22.84 56.19,24.69 50.74,24.24 45.29,23.79 41.43,21.88 37.56,19.96 32.27,16.89 26.98,13.82 20.93,9.67 14.88,5.51 9.19,7.66 3.50,9.81 2.27,10.08 1.05,10.36 -0.20,10.34 -1.45,10.31 -2.67,9.99 -3.88,9.66 -4.98,9.06 -6.08,8.45 -7.00,7.60 -7.93,6.75 -8.62,5.70 -9.31,4.66 -9.74,3.47 -10.16,2.29 -10.29,1.04 -10.41,-0.20 -10.24,-1.44 -10.06,-2.69 -9.59,-3.85 -9.12,-5.02 -8.39,-6.04 -7.66,-7.06 -6.70,-7.87 -5.74,-8.68 -4.62,-9.25 -3.50,-9.81 -3.50,-9.81 L -3.50,-9.81 Z"></path></g><g transform="translate(169.74025974025972 260.90909090909054) rotate(0 105.00000000000011 -12.857142857142662)" stroke="none"><path fill="#1e1e1e" d="M 8.54,-1.06 Q 8.54,-1.06 8.71,1.27 8.87,3.61 11.31,0.08 13.75,-3.43 19.23,-7.30 24.71,-11.17 30.74,-16.35 36.76,-21.53 41.81,-26.42 46.86,-31.32 51.26,-36.42 55.65,-41.52 58.93,-46.43 62.21,-51.35 63.49,-54.13 64.78,-56.90 65.48,-57.70 66.19,-58.49 67.07,-59.09 67.95,-59.69 68.95,-60.07 69.94,-60.44 71.00,-60.56 72.06,-60.69 73.11,-60.55 74.17,-60.42 75.16,-60.04 76.16,-59.66 77.03,-59.05 77.90,-58.44 78.61,-57.64 79.31,-56.84 79.80,-55.90 80.29,-54.95 80.54,-53.92 80.79,-52.88 80.78,-51.82 80.78,-50.75 80.52,-49.72 80.26,-48.69 79.76,-47.75 79.26,-46.81 73.21,-38.13 67.15,-29.46 65.13,-24.98 63.10,-20.50 62.87,-15.65 62.63,-10.80 66.92,-13.46 71.21,-16.11 77.44,-20.41 83.67,-24.71 90.26,-31.16 96.84,-37.61 104.65,-44.70 112.46,-51.78 120.06,-58.06 127.65,-64.33 135.11,-68.64 142.56,-72.94 146.76,-73.68 150.97,-74.42 151.80,-74.78 152.63,-75.13 153.52,-75.28 154.42,-75.43 155.32,-75.36 156.23,-75.29 157.09,-75.00 157.95,-74.72 158.71,-74.23 159.48,-73.75 160.11,-73.10 160.74,-72.45 161.19,-71.66 161.65,-70.88 161.90,-70.01 162.16,-69.14 162.19,-68.23 162.23,-67.33 162.05,-66.44 161.87,-65.55 161.49,-64.73 161.10,-63.91 160.53,-63.21 159.96,-62.51 159.23,-61.96 158.51,-61.42 159.08,-56.97 159.64,-52.52 153.44,-38.78 147.24,-25.04 141.27,-14.09 135.30,-3.14 132.17,2.31 129.04,7.78 128.62,8.31 128.20,8.85 127.65,9.51 127.11,10.16 126.42,10.67 125.73,11.17 124.94,11.50 124.15,11.82 123.30,11.95 122.45,12.08 121.60,12.00 120.75,11.92 119.94,11.64 119.14,11.36 118.42,10.89 117.70,10.43 117.12,9.80 116.53,9.18 116.11,8.43 115.70,7.69 115.47,6.87 115.24,6.04 115.22,5.19 115.19,4.33 115.37,3.50 115.55,2.66 115.93,1.89 116.31,1.12 119.03,-2.48 121.75,-6.10 127.39,-13.89 133.04,-21.67 141.26,-30.36 149.48,-39.04 158.93,-46.90 168.37,-54.75 177.42,-59.54 186.47,-64.32 192.62,-64.91 198.76,-65.50 202.77,-61.44 206.78,-57.39 206.14,-50.83 205.50,-44.27 200.03,-36.21 194.56,-28.15 186.99,-17.00 179.41,-5.84 172.56,6.40 165.71,18.65 163.47,24.31 161.22,29.97 171.14,31.06 181.05,32.15 189.54,29.95 198.03,27.74 204.57,25.71 211.12,23.68 212.17,23.57 213.23,23.45 214.26,23.68 215.30,23.92 216.20,24.47 217.11,25.01 217.79,25.82 218.48,26.63 218.87,27.62 219.26,28.61 219.31,29.66 219.36,30.72 219.08,31.74 218.79,32.76 218.19,33.64 217.59,34.52 216.75,35.15 215.90,35.79 214.90,36.13 213.89,36.46 212.83,36.46 211.77,36.46 210.77,36.12 209.76,35.77 208.92,35.13 208.08,34.49 207.49,33.61 206.90,32.73 206.62,31.71 206.34,30.68 206.40,29.62 206.46,28.57 206.85,27.58 207.25,26.60 207.94,25.79 208.63,24.99 209.54,24.44 210.45,23.90 211.48,23.68 212.52,23.45 213.57,23.57 214.63,23.69 215.59,24.14 216.55,24.58 217.31,25.32 218.08,26.05 218.57,26.99 219.07,27.92 219.24,28.97 219.40,30.02 219.23,31.06 219.05,32.11 218.55,33.04 218.06,33.98 217.28,34.70 216.51,35.43 215.55,35.87 214.58,36.31 214.58,36.31 214.59,36.31 207.92,37.91 201.25,39.50 191.87,42.20 182.48,44.90 172.30,45.43 162.11,45.96 156.36,39.29 150.61,32.61 152.51,22.63 154.42,12.64 161.18,-0.31 167.95,-13.27 175.03,-24.72 182.11,-36.17 186.88,-44.97 191.66,-53.78 183.99,-49.56 176.32,-45.33 167.70,-37.79 159.07,-30.25 151.82,-22.03 144.56,-13.81 136.38,-2.47 128.20,8.85 127.66,9.51 127.11,10.16 126.42,10.67 125.73,11.17 124.94,11.50 124.15,11.82 123.30,11.95 122.46,12.08 121.60,12.00 120.75,11.92 119.95,11.64 119.14,11.36 118.42,10.89 117.70,10.43 117.12,9.80 116.53,9.18 116.11,8.44 115.70,7.69 115.47,6.87 115.24,6.04 115.22,5.19 115.19,4.33 115.37,3.50 115.55,2.66 115.93,1.89 116.31,1.13 117.01,0.69 117.72,0.25 121.10,-4.31 124.48,-8.87 129.96,-19.58 135.45,-30.29 140.74,-42.39 146.02,-54.49 148.49,-64.45 150.96,-74.42 151.80,-74.78 152.63,-75.13 153.52,-75.28 154.42,-75.43 155.32,-75.36 156.23,-75.29 157.09,-75.00 157.95,-74.72 158.71,-74.23 159.48,-73.75 160.11,-73.10 160.74,-72.45 161.19,-71.66 161.65,-70.88 161.90,-70.01 162.16,-69.14 162.19,-68.23 162.23,-67.33 162.05,-66.44 161.87,-65.55 161.49,-64.73 161.10,-63.91 160.53,-63.21 159.96,-62.51 159.23,-61.96 158.51,-61.42 153.67,-61.28 148.82,-61.14 142.72,-57.58 136.63,-54.02 129.73,-47.59 122.83,-41.17 115.87,-33.82 108.90,-26.48 101.99,-18.31 95.08,-10.14 86.93,-3.23 78.79,3.67 72.45,5.51 66.11,7.35 61.85,6.70 57.59,6.04 52.84,2.62 48.08,-0.80 46.00,-7.84 43.91,-14.88 45.42,-21.59 46.92,-28.30 49.75,-33.65 52.58,-39.00 58.68,-47.95 64.77,-56.90 65.48,-57.70 66.19,-58.49 67.07,-59.09 67.95,-59.69 68.95,-60.06 69.94,-60.44 71.00,-60.56 72.06,-60.69 73.11,-60.55 74.17,-60.42 75.16,-60.04 76.16,-59.66 77.03,-59.05 77.90,-58.44 78.61,-57.64 79.31,-56.84 79.80,-55.90 80.29,-54.95 80.54,-53.92 80.79,-52.88 80.78,-51.82 80.78,-50.75 80.52,-49.72 80.26,-48.69 79.76,-47.75 79.26,-46.81 77.49,-44.37 75.71,-41.94 71.79,-36.52 67.87,-31.10 63.06,-25.42 58.26,-19.74 53.24,-14.73 48.22,-9.71 42.16,-3.18 36.10,3.34 28.61,9.63 21.12,15.93 16.06,17.42 11.00,18.91 5.65,18.20 0.30,17.50 -3.46,13.51 -7.23,9.53 -7.89,5.29 -8.54,1.06 -8.55,0.03 -8.55,-1.00 -8.30,-2.01 -8.06,-3.02 -7.58,-3.94 -7.10,-4.86 -6.42,-5.64 -5.73,-6.42 -4.88,-7.02 -4.02,-7.61 -3.06,-7.98 -2.09,-8.35 -1.06,-8.48 -0.02,-8.61 1.00,-8.49 2.03,-8.37 3.00,-8.00 3.97,-7.64 4.83,-7.05 5.68,-6.46 6.38,-5.69 7.07,-4.91 7.55,-3.99 8.04,-3.08 8.29,-2.07 8.54,-1.06 8.54,-1.06 L 8.54,-1.06 Z"></path></g><g transform="translate(256.88311688311705 166.62337662337632) rotate(0 5.714285714285666 -0.7142857142855519)" stroke="none"><path fill="#1e1e1e" d="M -4.45,-8.90 Q -4.45,-8.90 -1.24,-10.71 1.95,-12.51 3.12,-12.93 4.29,-13.35 5.53,-13.48 6.77,-13.60 8.00,-13.43 9.23,-13.25 10.39,-12.79 11.54,-12.32 12.55,-11.60 13.56,-10.87 14.37,-9.92 15.18,-8.98 15.73,-7.86 16.29,-6.75 16.56,-5.54 16.84,-4.32 16.81,-3.08 16.79,-1.83 16.47,-0.63 16.14,0.56 15.54,1.65 14.94,2.74 14.10,3.65 13.26,4.57 12.22,5.26 11.18,5.94 12.59,5.96 14.00,5.97 13.49,7.14 12.97,8.30 12.20,9.32 11.42,10.33 10.42,11.12 9.42,11.92 8.27,12.45 7.11,12.98 5.86,13.22 4.60,13.47 3.33,13.40 2.06,13.33 0.84,12.97 -0.37,12.60 -1.47,11.95 -2.57,11.30 -3.48,10.40 -4.39,9.51 -5.06,8.42 -5.73,7.34 -6.12,6.13 -6.51,4.91 -6.59,3.64 -6.68,2.37 -6.46,1.11 -6.24,-0.13 -0.02,-3.77 6.19,-7.40 7.89,-8.54 9.60,-9.68 10.91,-9.53 12.22,-9.38 13.45,-8.93 14.68,-8.48 15.77,-7.74 16.86,-7.00 17.74,-6.03 18.62,-5.05 19.25,-3.90 19.87,-2.74 20.20,-1.46 20.52,-0.19 20.54,1.11 20.55,2.43 20.25,3.71 19.95,4.99 19.35,6.16 18.75,7.33 17.88,8.32 17.02,9.31 15.95,10.07 14.87,10.83 13.65,11.31 12.42,11.78 11.12,11.95 9.82,12.13 4.24,11.38 -1.34,10.64 -3.00,10.15 -4.67,9.65 -6.09,8.65 -7.50,7.66 -8.53,6.26 -9.56,4.86 -10.08,3.20 -10.61,1.55 -10.58,-0.18 -10.55,-1.91 -9.97,-3.55 -9.39,-5.18 -8.31,-6.55 -7.24,-7.91 -5.78,-8.86 -4.33,-9.81 -2.65,-10.24 -0.97,-10.68 0.75,-10.55 2.48,-10.43 4.08,-9.76 5.68,-9.09 6.99,-7.94 8.29,-6.80 9.16,-5.30 10.03,-3.79 10.37,-2.09 10.72,-0.39 10.50,1.32 10.28,3.04 9.52,4.61 8.77,6.17 7.55,7.41 6.34,8.65 4.79,9.43 3.24,10.22 1.53,10.47 -0.18,10.72 -1.89,10.41 -3.60,10.10 -5.12,9.26 -6.63,8.42 -7.81,7.14 -8.98,5.86 -9.68,4.27 -10.38,2.69 -10.54,0.96 -10.70,-0.76 -10.29,-2.45 -9.89,-4.14 -8.97,-5.61 -8.05,-7.08 -6.71,-8.18 -5.36,-9.28 -3.74,-9.90 -2.12,-10.51 -0.38,-10.57 1.34,-10.64 1.34,-10.64 1.34,-10.64 5.47,-10.16 9.60,-9.68 10.91,-9.53 12.21,-9.38 13.45,-8.93 14.68,-8.48 15.77,-7.74 16.86,-7.01 17.74,-6.03 18.62,-5.05 19.25,-3.90 19.87,-2.74 20.20,-1.47 20.52,-0.19 20.54,1.11 20.55,2.43 20.25,3.71 19.95,4.99 19.35,6.16 18.75,7.33 17.89,8.32 17.02,9.31 15.95,10.07 14.87,10.83 13.65,11.30 12.43,11.78 11.12,11.95 9.82,12.13 9.21,12.65 8.60,13.17 11.30,9.57 14.00,5.97 13.49,7.14 12.97,8.30 12.20,9.31 11.42,10.33 10.42,11.12 9.43,11.92 8.27,12.45 7.11,12.98 5.86,13.22 4.61,13.47 3.33,13.40 2.06,13.33 0.84,12.97 -0.37,12.60 -1.47,11.95 -2.57,11.30 -3.48,10.40 -4.39,9.51 -5.06,8.43 -5.72,7.34 -6.11,6.13 -6.51,4.91 -6.59,3.64 -6.68,2.37 -6.46,1.11 -6.24,-0.13 -5.39,-1.12 -4.54,-2.11 -1.29,-7.31 1.95,-12.51 3.12,-12.93 4.29,-13.35 5.53,-13.48 6.77,-13.60 8.00,-13.43 9.23,-13.25 10.39,-12.79 11.54,-12.33 12.55,-11.60 13.56,-10.87 14.37,-9.92 15.18,-8.98 15.73,-7.86 16.29,-6.75 16.56,-5.54 16.84,-4.32 16.81,-3.08 16.79,-1.84 16.47,-0.63 16.14,0.56 15.54,1.65 14.94,2.74 14.10,3.65 13.26,4.57 12.22,5.26 11.18,5.94 7.82,7.42 4.45,8.90 3.32,9.31 2.19,9.71 0.99,9.83 -0.19,9.95 -1.38,9.79 -2.57,9.62 -3.68,9.17 -4.80,8.72 -5.77,8.02 -6.75,7.32 -7.52,6.40 -8.30,5.49 -8.84,4.42 -9.38,3.34 -9.64,2.17 -9.90,1.00 -9.88,-0.19 -9.86,-1.39 -9.55,-2.55 -9.24,-3.71 -8.66,-4.76 -8.08,-5.81 -7.27,-6.70 -6.45,-7.58 -5.45,-8.24 -4.45,-8.90 -4.45,-8.90 L -4.45,-8.90 Z"></path></g></svg>