<svg version="1.1" xmlns="http://www.w3.org/2000/svg" viewBox="0 0 430.1519739202381 319.9999999999999" width="860.3039478404762" height="639.9999999999998" filter="invert(93%) hue-rotate(180deg)">
  <!-- svg-source:excalidraw -->
  
  <defs>
    <style class="style-fonts">
      @font-face {
        font-family: "Virgil";
        src: url("https://excalidraw.com/Virgil.woff2");
      }
      @font-face {
        font-family: "Cascadia";
        src: url("https://excalidraw.com/Cascadia.woff2");
      }
    </style>
    
  </defs>
  <g stroke-linecap="round"><g transform="translate(394.2831995848496 132.00787863458476) rotate(0 -41.74640143777401 12.560723999543924)"><path d="M0 0 C-1.2 2.95, -3.55 12.36, -7.21 17.72 C-10.86 23.08, -15.72 29.58, -21.92 32.14 C-28.13 34.69, -37.09 35.29, -44.45 33.04 C-51.81 30.78, -59.57 25.68, -66.07 18.62 C-72.58 11.56, -80.59 -4.66, -83.49 -9.31 M0 0 C-1.2 2.95, -3.55 12.36, -7.21 17.72 C-10.86 23.08, -15.72 29.58, -21.92 32.14 C-28.13 34.69, -37.09 35.29, -44.45 33.04 C-51.81 30.78, -59.57 25.68, -66.07 18.62 C-72.58 11.56, -80.59 -4.66, -83.49 -9.31" stroke="#343a40" stroke-width="4" fill="none"></path></g></g><mask></mask><g stroke-linecap="round"><g transform="translate(320.1007452313929 164.14359772697193) rotate(0 -10.661850726913372 -18.020029397600297)"><path d="M0 0 C-2.5 -2.2, -11.46 -7.21, -15.02 -13.21 C-18.57 -19.22, -20.27 -32.24, -21.32 -36.04 M0 0 C-2.5 -2.2, -11.46 -7.21, -15.02 -13.21 C-18.57 -19.22, -20.27 -32.24, -21.32 -36.04" stroke="#343a40" stroke-width="4" fill="none"></path></g></g><mask></mask><g stroke-linecap="round"><g transform="translate(333.61576727959346 123.59853158237144) rotate(0 33.469712335376926 65.09199069088793)"><path d="M0 0 C-1.45 4.3, -5.76 15.92, -8.71 25.83 C-11.66 35.74, -15.97 46.5, -17.72 59.47 C-19.47 72.43, -19.22 93.6, -19.22 103.62 C-19.22 113.63, -20.72 115.78, -17.72 119.53 C-14.72 123.29, -7.66 124.39, -1.2 126.14 C5.26 127.89, 11.86 129.64, 21.02 130.04 C30.18 130.44, 44.55 129.99, 53.76 128.54 C62.97 127.09, 71.13 123.79, 76.28 121.33 C81.44 118.88, 82.99 118.93, 84.69 113.83 C86.4 108.72, 86.45 98.71, 86.5 90.7 C86.55 82.69, 86.8 76.08, 84.99 65.77 C83.19 55.46, 79.74 39.64, 75.68 28.83 C71.63 18.02, 63.17 5.56, 60.67 0.9 M0 0 C-1.45 4.3, -5.76 15.92, -8.71 25.83 C-11.66 35.74, -15.97 46.5, -17.72 59.47 C-19.47 72.43, -19.22 93.6, -19.22 103.62 C-19.22 113.63, -20.72 115.78, -17.72 119.53 C-14.72 123.29, -7.66 124.39, -1.2 126.14 C5.26 127.89, 11.86 129.64, 21.02 130.04 C30.18 130.44, 44.55 129.99, 53.76 128.54 C62.97 127.09, 71.13 123.79, 76.28 121.33 C81.44 118.88, 82.99 118.93, 84.69 113.83 C86.4 108.72, 86.45 98.71, 86.5 90.7 C86.55 82.69, 86.8 76.08, 84.99 65.77 C83.19 55.46, 79.74 39.64, 75.68 28.83 C71.63 18.02, 63.17 5.56, 60.67 0.9" stroke="#343a40" stroke-width="4" fill="none"></path></g></g><mask></mask><g stroke-linecap="round"><g transform="translate(344.775428691506 302.6800632059637) rotate(346.5042667192044 -6.726876682517968 -0.9654494225506558)"><path d="M0 0 C-1.78 -0.68, -8.36 -4.02, -10.66 -4.09 C-12.96 -4.17, -14.04 -1.46, -13.79 -0.47 C-13.55 0.52, -11.54 1.4, -9.18 1.84 C-6.82 2.27, -1.22 2.11, 0.37 2.16 M0 0 C-1.78 -0.68, -8.36 -4.02, -10.66 -4.09 C-12.96 -4.17, -14.04 -1.46, -13.79 -0.47 C-13.55 0.52, -11.54 1.4, -9.18 1.84 C-6.82 2.27, -1.22 2.11, 0.37 2.16" stroke="#343a40" stroke-width="4" fill="none"></path></g></g><mask></mask><g stroke-linecap="round"><g transform="translate(389.67846067469463 303.12717204110487) rotate(334.29004621919404 -6.170104083247907 -1.109961029393724)"><path d="M0 0 C-1.68 -0.71, -7.9 -4.14, -10.11 -4.24 C-12.31 -4.34, -13.48 -1.6, -13.24 -0.61 C-12.99 0.37, -10.99 1.25, -8.62 1.69 C-6.26 2.13, -0.66 1.97, 0.93 2.02 M0 0 C-1.68 -0.71, -7.9 -4.14, -10.11 -4.24 C-12.31 -4.34, -13.48 -1.6, -13.24 -0.61 C-12.99 0.37, -10.99 1.25, -8.62 1.69 C-6.26 2.13, -0.66 1.97, 0.93 2.02" stroke="#343a40" stroke-width="4" fill="none"></path></g></g><mask></mask><g stroke-linecap="round"><g transform="translate(58.39131980387356 307.04039759728295) rotate(19.133643205901333 6.250188636865232 -1.1823324495609842)"><path d="M0 0 C1.7 -0.72, 7.97 -4.2, 10.19 -4.31 C12.41 -4.42, 13.56 -1.67, 13.32 -0.69 C13.07 0.3, 11.07 1.18, 8.7 1.62 C6.34 2.06, 0.74 1.89, -0.85 1.95 M0 0 C1.7 -0.72, 7.97 -4.2, 10.19 -4.31 C12.41 -4.42, 13.56 -1.67, 13.32 -0.69 C13.07 0.3, 11.07 1.18, 8.7 1.62 C6.34 2.06, 0.74 1.89, -0.85 1.95" stroke="#343a40" stroke-width="4" fill="none"></path></g></g><mask></mask><g stroke-linecap="round"><g transform="translate(104.37032057342867 307.15939305087835) rotate(19.133643205901333 5.8013332587954665 -0.6576355594014407)"><path d="M0 0 C1.56 -0.63, 7.3 -3.76, 9.39 -3.79 C11.48 -3.82, 12.77 -1.15, 12.52 -0.16 C12.27 0.82, 10.15 1.7, 7.91 2.14 C5.66 2.58, 0.53 2.42, -0.95 2.47 M0 0 C1.56 -0.63, 7.3 -3.76, 9.39 -3.79 C11.48 -3.82, 12.77 -1.15, 12.52 -0.16 C12.27 0.82, 10.15 1.7, 7.91 2.14 C5.66 2.58, 0.53 2.42, -0.95 2.47" stroke="#343a40" stroke-width="4" fill="none"></path></g></g><mask></mask><g stroke-linecap="round"><g transform="translate(388.13512100012167 252.84672424455584) rotate(0 1.521201245764587 24.13639309946584)"><path d="M0 0 C0.1 4.16, 0.1 16.9, 0.61 24.95 C1.12 32.99, 2.64 44.39, 3.04 48.27 M0 0 C0.1 4.16, 0.1 16.9, 0.61 24.95 C1.12 32.99, 2.64 44.39, 3.04 48.27" stroke="#343a40" stroke-width="4" fill="none"></path></g></g><mask></mask><g stroke-linecap="round"><g transform="translate(342.0934299616438 254.26651207393627) rotate(0 1.8040480414608737 24.339219932234432)"><path d="M0 0 C-0.07 3.75, -1.12 14.4, -0.41 22.51 C0.3 30.63, 3.48 44.32, 4.26 48.68 M0 0 C-0.07 3.75, -1.12 14.4, -0.41 22.51 C0.3 30.63, 3.48 44.32, 4.26 48.68" stroke="#343a40" stroke-width="4" fill="none"></path></g></g><mask></mask><g stroke-linecap="round"><g transform="translate(105.59734295343151 258.32304872930865) rotate(0 -0.6649133787270785 24.440633348618725)"><path d="M0 0 C0.3 3.25, 2.37 11.32, 1.83 19.47 C1.28 27.62, -2.4 43.98, -3.25 48.88 M0 0 C0.3 3.25, 2.37 11.32, 1.83 19.47 C1.28 27.62, -2.4 43.98, -3.25 48.88" stroke="#343a40" stroke-width="4" fill="none"></path></g></g><mask></mask><g stroke-linecap="round"><g transform="translate(60.36695924602873 258.72870239484575) rotate(0 -1.8254414949176407 23.73073943392867)"><path d="M0 0 C-0.14 4.02, -0.2 16.23, -0.81 24.14 C-1.42 32.05, -3.18 43.57, -3.65 47.46 M0 0 C-0.14 4.02, -0.2 16.23, -0.81 24.14 C-1.42 32.05, -3.18 43.57, -3.65 47.46" stroke="#343a40" stroke-width="4" fill="none"></path></g></g><mask></mask><g stroke-linecap="round"><g transform="translate(287.7172692782674 106.16058694808504) rotate(0 5.061936378043811 10.58404879045544)"><path d="M0 0 C0.38 2.07, 0.61 8.9, 2.3 12.42 C3.99 15.95, 8.82 19.71, 10.12 21.17 M0 0 C0.38 2.07, 0.61 8.9, 2.3 12.42 C3.99 15.95, 8.82 19.71, 10.12 21.17" stroke="#343a40" stroke-width="4" fill="none"></path></g></g><mask></mask><g stroke-linecap="round"><g transform="translate(163.23965198182395 102.47917867314388) rotate(0 -9.893784738903832 -1.6106161202865792)"><path d="M0 0 C-3.3 -0.54, -16.49 -2.68, -19.79 -3.22 M0 0 C-3.3 -0.54, -16.49 -2.68, -19.79 -3.22" stroke="#343a40" stroke-width="4" fill="none"></path></g></g><mask></mask><g stroke-linecap="round"><g transform="translate(168.7617643942358 80.62081704068169) rotate(0 -10.699092799047094 -2.3008801718381022)"><path d="M0 0 C-3.57 -0.77, -17.83 -3.83, -21.4 -4.6 M0 0 C-3.57 -0.77, -17.83 -3.83, -21.4 -4.6" stroke="#343a40" stroke-width="4" fill="none"></path></g></g><mask></mask><g stroke-linecap="round"><g transform="translate(168.99185241141913 81.77125712660069) rotate(0 -2.0671044880143654 10.929180816231124)"><path d="M0 0 C0.23 1.34, 1.5 5.48, 1.38 8.05 C1.27 10.62, 0.46 13.12, -0.69 15.42 C-1.84 17.72, -4.72 20.78, -5.52 21.86 M0 0 C0.23 1.34, 1.5 5.48, 1.38 8.05 C1.27 10.62, 0.46 13.12, -0.69 15.42 C-1.84 17.72, -4.72 20.78, -5.52 21.86" stroke="#343a40" stroke-width="4" fill="none"></path></g></g><mask></mask><g stroke-linecap="round" transform="translate(310.8744224739744 96.36039909665459) rotate(335.5560452195831 3.533056797615018 11.525847980309308)"><path d="M7.07 11.53 C7.07 12.19, 7.05 12.87, 7.01 13.53 C6.98 14.18, 6.92 14.84, 6.85 15.47 C6.78 16.09, 6.7 16.71, 6.59 17.29 C6.49 17.87, 6.37 18.42, 6.24 18.93 C6.11 19.45, 5.96 19.93, 5.8 20.36 C5.65 20.78, 5.48 21.17, 5.3 21.51 C5.12 21.84, 4.93 22.13, 4.74 22.36 C4.55 22.58, 4.35 22.76, 4.15 22.88 C3.95 22.99, 3.74 23.05, 3.53 23.05 C3.33 23.05, 3.12 22.99, 2.92 22.88 C2.72 22.76, 2.52 22.58, 2.32 22.36 C2.13 22.13, 1.94 21.84, 1.77 21.51 C1.59 21.17, 1.42 20.78, 1.26 20.36 C1.11 19.93, 0.96 19.45, 0.83 18.93 C0.7 18.42, 0.58 17.87, 0.47 17.29 C0.37 16.71, 0.28 16.09, 0.21 15.47 C0.14 14.84, 0.09 14.18, 0.05 13.53 C0.02 12.87, 0 12.19, 0 11.53 C0 10.86, 0.02 10.18, 0.05 9.52 C0.09 8.87, 0.14 8.21, 0.21 7.58 C0.28 6.96, 0.37 6.34, 0.47 5.76 C0.58 5.19, 0.7 4.63, 0.83 4.12 C0.96 3.61, 1.11 3.13, 1.26 2.7 C1.42 2.27, 1.59 1.88, 1.77 1.54 C1.94 1.21, 2.13 0.92, 2.32 0.7 C2.52 0.47, 2.72 0.29, 2.92 0.18 C3.12 0.06, 3.33 0, 3.53 0 C3.74 0, 3.95 0.06, 4.15 0.18 C4.35 0.29, 4.55 0.47, 4.74 0.7 C4.93 0.92, 5.12 1.21, 5.3 1.54 C5.48 1.88, 5.65 2.27, 5.8 2.7 C5.96 3.13, 6.11 3.61, 6.24 4.12 C6.37 4.63, 6.49 5.19, 6.59 5.76 C6.7 6.34, 6.78 6.96, 6.85 7.58 C6.92 8.21, 6.98 8.87, 7.01 9.52 C7.05 10.18, 7.06 11.19, 7.07 11.53 C7.08 11.86, 7.08 11.19, 7.07 11.53" stroke="#343a40" stroke-width="4" fill="none"></path></g><g stroke-linecap="round" transform="translate(138.99867363766543 75.88256556729536) rotate(9.533232790028281 3.533056797615018 11.525847980309308)"><path d="M7.07 11.53 C7.07 12.19, 7.05 12.87, 7.01 13.53 C6.98 14.18, 6.92 14.84, 6.85 15.47 C6.78 16.09, 6.7 16.71, 6.59 17.29 C6.49 17.87, 6.37 18.42, 6.24 18.93 C6.11 19.45, 5.96 19.93, 5.8 20.36 C5.65 20.78, 5.48 21.17, 5.3 21.51 C5.12 21.84, 4.93 22.13, 4.74 22.36 C4.55 22.58, 4.35 22.76, 4.15 22.88 C3.95 22.99, 3.74 23.05, 3.53 23.05 C3.33 23.05, 3.12 22.99, 2.92 22.88 C2.72 22.76, 2.52 22.58, 2.32 22.36 C2.13 22.13, 1.94 21.84, 1.77 21.51 C1.59 21.17, 1.42 20.78, 1.26 20.36 C1.11 19.93, 0.96 19.45, 0.83 18.93 C0.7 18.42, 0.58 17.87, 0.47 17.29 C0.37 16.71, 0.28 16.09, 0.21 15.47 C0.14 14.84, 0.09 14.18, 0.05 13.53 C0.02 12.87, 0 12.19, 0 11.53 C0 10.86, 0.02 10.18, 0.05 9.52 C0.09 8.87, 0.14 8.21, 0.21 7.58 C0.28 6.96, 0.37 6.34, 0.47 5.76 C0.58 5.19, 0.7 4.63, 0.83 4.12 C0.96 3.61, 1.11 3.13, 1.26 2.7 C1.42 2.27, 1.59 1.88, 1.77 1.54 C1.94 1.21, 2.13 0.92, 2.32 0.7 C2.52 0.47, 2.72 0.29, 2.92 0.18 C3.12 0.06, 3.33 0, 3.53 0 C3.74 0, 3.95 0.06, 4.15 0.18 C4.35 0.29, 4.55 0.47, 4.74 0.7 C4.93 0.92, 5.12 1.21, 5.3 1.54 C5.48 1.88, 5.65 2.27, 5.8 2.7 C5.96 3.13, 6.11 3.61, 6.24 4.12 C6.37 4.63, 6.49 5.19, 6.59 5.76 C6.7 6.34, 6.78 6.96, 6.85 7.58 C6.92 8.21, 6.98 8.87, 7.01 9.52 C7.05 10.18, 7.06 11.19, 7.07 11.53 C7.08 11.86, 7.08 11.19, 7.07 11.53" stroke="#343a40" stroke-width="4" fill="none"></path></g><g stroke-linecap="round"><g transform="translate(317.16853547779374 119.04551591037887) rotate(0 -9.54865271312815 3.681408274940992)"><path d="M0 0 C-3.18 1.23, -15.91 6.14, -19.1 7.36 M0 0 C-3.18 1.23, -15.91 6.14, -19.1 7.36" stroke="#343a40" stroke-width="4" fill="none"></path></g></g><mask></mask><g stroke-linecap="round"><g transform="translate(288.4075333298174 117.43489979009212) rotate(0 -57.41903039896965 28.96281745572867)"><path d="M0 0 C-2.38 1.73, -9.09 5.14, -14.27 10.35 C-19.44 15.57, -27.57 24.39, -31.06 31.29 C-34.55 38.19, -35.28 45.25, -35.2 51.77 C-35.13 58.29, -33.06 65.65, -30.6 70.41 C-28.15 75.16, -24.5 78.38, -20.48 80.3 C-16.45 82.22, -10.32 82.79, -6.44 81.91 C-2.57 81.03, 1.11 78.46, 2.76 75.01 C4.41 71.56, 4.45 65.96, 3.45 61.2 C2.45 56.45, 0.38 50.96, -3.22 46.48 C-6.83 41.99, -12.35 37.04, -18.18 34.28 C-24.01 31.52, -32.06 30.1, -38.19 29.91 C-44.33 29.72, -49.55 30.79, -54.99 33.13 C-60.44 35.47, -65.38 40.69, -70.87 43.95 C-76.35 47.21, -82.37 51.46, -87.89 52.69 C-93.42 53.92, -99.55 53.76, -104 51.31 C-108.45 48.86, -113.13 43.22, -114.58 37.96 C-116.04 32.71, -114.47 25.12, -112.74 19.79 C-111.02 14.46, -108.14 10.01, -104.23 5.98 C-100.32 1.96, -95.14 -2.3, -89.27 -4.37 C-83.41 -6.44, -74.09 -7.67, -69.03 -6.44 C-63.96 -5.22, -60.47 -1, -58.9 2.99 C-57.33 6.98, -57.56 13.88, -59.59 17.49 C-61.63 21.09, -66.46 23.7, -71.1 24.62 C-75.74 25.54, -83.29 25.27, -87.43 23.01 C-91.58 20.75, -93.38 15.8, -95.95 11.04 C-98.52 6.29, -100.36 -0.19, -102.85 -5.52 C-105.34 -10.85, -108.22 -17.79, -110.9 -20.94 C-113.59 -24.08, -117.61 -23.81, -118.96 -24.39 M0 0 C-2.38 1.73, -9.09 5.14, -14.27 10.35 C-19.44 15.57, -27.57 24.39, -31.06 31.29 C-34.55 38.19, -35.28 45.25, -35.2 51.77 C-35.13 58.29, -33.06 65.65, -30.6 70.41 C-28.15 75.16, -24.5 78.38, -20.48 80.3 C-16.45 82.22, -10.32 82.79, -6.44 81.91 C-2.57 81.03, 1.11 78.46, 2.76 75.01 C4.41 71.56, 4.45 65.96, 3.45 61.2 C2.45 56.45, 0.38 50.96, -3.22 46.48 C-6.83 41.99, -12.35 37.04, -18.18 34.28 C-24.01 31.52, -32.06 30.1, -38.19 29.91 C-44.33 29.72, -49.55 30.79, -54.99 33.13 C-60.44 35.47, -65.38 40.69, -70.87 43.95 C-76.35 47.21, -82.37 51.46, -87.89 52.69 C-93.42 53.92, -99.55 53.76, -104 51.31 C-108.45 48.86, -113.13 43.22, -114.58 37.96 C-116.04 32.71, -114.47 25.12, -112.74 19.79 C-111.02 14.46, -108.14 10.01, -104.23 5.98 C-100.32 1.96, -95.14 -2.3, -89.27 -4.37 C-83.41 -6.44, -74.09 -7.67, -69.03 -6.44 C-63.96 -5.22, -60.47 -1, -58.9 2.99 C-57.33 6.98, -57.56 13.88, -59.59 17.49 C-61.63 21.09, -66.46 23.7, -71.1 24.62 C-75.74 25.54, -83.29 25.27, -87.43 23.01 C-91.58 20.75, -93.38 15.8, -95.95 11.04 C-98.52 6.29, -100.36 -0.19, -102.85 -5.52 C-105.34 -10.85, -108.22 -17.79, -110.9 -20.94 C-113.59 -24.08, -117.61 -23.81, -118.96 -24.39" stroke="#343a40" stroke-width="4" fill="none"></path></g></g><mask></mask><g stroke-linecap="round"><g transform="translate(152.69454565731758 101.80212112126458) rotate(0 -15.345432104052634 22.935653577071193)"><path d="M0 0 C-0.05 2.94, 1.15 11.72, -0.3 17.65 C-1.74 23.58, -5.38 30.96, -8.67 35.6 C-11.96 40.23, -16.3 44.07, -20.04 45.47 C-23.78 46.86, -29.26 44.22, -31.11 43.97 M0 0 C-0.05 2.94, 1.15 11.72, -0.3 17.65 C-1.74 23.58, -5.38 30.96, -8.67 35.6 C-11.96 40.23, -16.3 44.07, -20.04 45.47 C-23.78 46.86, -29.26 44.22, -31.11 43.97" stroke="#343a40" stroke-width="4" fill="none"></path></g></g><mask></mask><g stroke-linecap="round"><g transform="translate(113.21047880464994 127.22746720063373) rotate(0 -33.209067952857595 65.50765636919829)"><path d="M0 0 C1.6 3.94, 6.78 15.11, 9.57 23.63 C12.36 32.16, 14.91 41.83, 16.75 51.15 C18.6 60.47, 19.99 70.74, 20.64 79.57 C21.29 88.39, 20.99 97.36, 20.64 104.09 C20.29 110.82, 21.99 116.01, 18.55 119.95 C15.11 123.89, 7.68 125.88, 0 127.72 C-7.68 129.57, -18.65 131.02, -27.52 131.02 C-36.39 131.02, -45.12 129.37, -53.24 127.72 C-61.37 126.08, -70.94 123.69, -76.28 121.14 C-81.61 118.6, -83.45 119.5, -85.25 112.47 C-87.04 105.44, -88.04 90.43, -87.04 78.97 C-86.05 67.5, -82.11 53.59, -79.27 43.67 C-76.43 33.75, -73.14 26.62, -69.99 19.44 C-66.85 12.26, -62.02 3.74, -60.42 0.6 M0 0 C1.6 3.94, 6.78 15.11, 9.57 23.63 C12.36 32.16, 14.91 41.83, 16.75 51.15 C18.6 60.47, 19.99 70.74, 20.64 79.57 C21.29 88.39, 20.99 97.36, 20.64 104.09 C20.29 110.82, 21.99 116.01, 18.55 119.95 C15.11 123.89, 7.68 125.88, 0 127.72 C-7.68 129.57, -18.65 131.02, -27.52 131.02 C-36.39 131.02, -45.12 129.37, -53.24 127.72 C-61.37 126.08, -70.94 123.69, -76.28 121.14 C-81.61 118.6, -83.45 119.5, -85.25 112.47 C-87.04 105.44, -88.04 90.43, -87.04 78.97 C-86.05 67.5, -82.11 53.59, -79.27 43.67 C-76.43 33.75, -73.14 26.62, -69.99 19.44 C-66.85 12.26, -62.02 3.74, -60.42 0.6" stroke="#343a40" stroke-width="4" fill="none"></path></g></g><mask></mask><g stroke-linecap="round"><g transform="translate(49.19843102835557 134.40638844657317) rotate(0 -19.599215514177786 30.95909787311429)"><path d="M0 0 C-3.49 1.84, -14.86 6.83, -20.94 11.07 C-27.02 15.31, -33.5 20.64, -36.49 25.43 C-39.48 30.21, -39.48 35.2, -38.89 39.78 C-38.29 44.37, -35.5 49.26, -32.9 52.94 C-30.31 56.63, -24.93 60.42, -23.33 61.92 M0 0 C-3.49 1.84, -14.86 6.83, -20.94 11.07 C-27.02 15.31, -33.5 20.64, -36.49 25.43 C-39.48 30.21, -39.48 35.2, -38.89 39.78 C-38.29 44.37, -35.5 49.26, -32.9 52.94 C-30.31 56.63, -24.93 60.42, -23.33 61.92" stroke="#343a40" stroke-width="4" fill="none"></path></g></g><mask></mask><g stroke-linecap="round"><g transform="translate(24.511862851926253 197.94687013403396) rotate(0 -2.017452394338079 7.312122977991493)"><path d="M0 0 C-0.73 1.68, -4.43 7.65, -4.37 10.09 C-4.31 12.52, -0.45 13.87, 0.34 14.62 M0 0 C-0.73 1.68, -4.43 7.65, -4.37 10.09 C-4.31 12.52, -0.45 13.87, 0.34 14.62" stroke="#343a40" stroke-width="4" fill="none"></path></g></g><mask></mask><g stroke-linecap="round"><g transform="translate(163.35173658079748 77.82887174315928) rotate(0 -7.194307769254465 -2.4707448709634576)"><path d="M0 0 C-0.98 -0.81, -3.48 -4.42, -5.88 -4.88 C-8.28 -5.34, -12.97 -3.11, -14.39 -2.75 M0 0 C-0.98 -0.81, -3.48 -4.42, -5.88 -4.88 C-8.28 -5.34, -12.97 -3.11, -14.39 -2.75" stroke="#343a40" stroke-width="4" fill="none"></path></g></g><mask></mask><g stroke-linecap="round" transform="translate(304.19238050847025 107.24258654682927) rotate(330.86570780277384 2.8907292116500685 7.334439651254144)"><path d="M5.78 7.33 C5.78 7.76, 5.77 8.19, 5.74 8.61 C5.71 9.03, 5.66 9.44, 5.61 9.84 C5.55 10.24, 5.48 10.63, 5.39 11 C5.31 11.37, 5.21 11.72, 5.11 12.05 C5 12.37, 4.88 12.68, 4.75 12.95 C4.62 13.23, 4.48 13.47, 4.34 13.69 C4.19 13.9, 4.04 14.08, 3.88 14.23 C3.72 14.37, 3.56 14.48, 3.39 14.56 C3.23 14.63, 3.06 14.67, 2.89 14.67 C2.72 14.67, 2.55 14.63, 2.39 14.56 C2.22 14.48, 2.06 14.37, 1.9 14.23 C1.74 14.08, 1.59 13.9, 1.45 13.69 C1.3 13.47, 1.16 13.23, 1.03 12.95 C0.9 12.68, 0.78 12.37, 0.68 12.05 C0.57 11.72, 0.47 11.37, 0.39 11 C0.3 10.63, 0.23 10.24, 0.17 9.84 C0.12 9.44, 0.07 9.03, 0.04 8.61 C0.01 8.19, 0 7.76, 0 7.33 C0 6.91, 0.01 6.48, 0.04 6.06 C0.07 5.64, 0.12 5.22, 0.17 4.83 C0.23 4.43, 0.3 4.03, 0.39 3.67 C0.47 3.3, 0.57 2.95, 0.68 2.62 C0.78 2.29, 0.9 1.99, 1.03 1.72 C1.16 1.44, 1.3 1.19, 1.45 0.98 C1.59 0.77, 1.74 0.59, 1.9 0.44 C2.06 0.3, 2.22 0.19, 2.39 0.11 C2.55 0.04, 2.72 0, 2.89 0 C3.06 0, 3.23 0.04, 3.39 0.11 C3.56 0.19, 3.72 0.3, 3.88 0.44 C4.04 0.59, 4.19 0.77, 4.34 0.98 C4.48 1.19, 4.62 1.44, 4.75 1.72 C4.88 1.99, 5 2.29, 5.11 2.62 C5.21 2.95, 5.31 3.3, 5.39 3.67 C5.48 4.03, 5.55 4.43, 5.61 4.83 C5.66 5.22, 5.71 5.64, 5.74 6.06 C5.77 6.48, 5.77 7.12, 5.78 7.33 C5.79 7.55, 5.79 7.12, 5.78 7.33" stroke="#343a40" stroke-width="4" fill="none"></path></g><g stroke-linecap="round"><g transform="translate(35.90656748905303 74.8334596929615) rotate(0 37.25650300392783 8.55574588817116)"><path d="M0 0 C-0.05 -3.16, -0.1 -6.32, -0.21 -12.8 M0 0 C-0.08 -4.98, -0.16 -9.96, -0.21 -12.8 M-0.21 -12.8 C7.84 -20.74, 15.89 -28.69, 23.06 -35.78 M-0.21 -12.8 C5.05 -17.99, 10.31 -23.18, 23.06 -35.78 M23.06 -35.78 C36.25 -35.78, 49.44 -35.78, 74.9 -35.79 M23.06 -35.78 C39.44 -35.78, 55.81 -35.79, 74.9 -35.79 M74.9 -35.79 C75 -11.28, 75.1 13.23, 75.26 51.79 M74.9 -35.79 C74.99 -13.12, 75.08 9.54, 75.26 51.79 M75.26 51.79 C52.91 52.12, 30.57 52.44, -0.74 52.9 M75.26 51.79 C53.71 52.11, 32.16 52.42, -0.74 52.9 M-0.74 52.9 C-0.68 44.42, -0.63 35.93, -0.51 18.33 M-0.74 52.9 C-0.66 41.29, -0.58 29.68, -0.51 18.33" stroke="#000" stroke-width="2" fill="none"></path></g></g><mask></mask><g stroke-linecap="round"><g transform="translate(59.49545566993993 40.008355356168295) rotate(0 -11.871001141811462 11.29224614363514)"><path d="M0 0 C-0.07 5.82, -0.14 11.65, -0.27 22.58 M0 0 C-0.09 7.7, -0.19 15.4, -0.27 22.58 M-0.27 22.58 C-8.36 22.51, -16.46 22.44, -23.74 22.38 M-0.27 22.58 C-9.29 22.5, -18.31 22.42, -23.74 22.38" stroke="#000" stroke-width="2" fill="none"></path></g></g><mask></mask><g stroke-linecap="round" transform="translate(329.45478390559083 39.321383969827195) rotate(0 44.5 26.5)"><path d="M0 0 L89 0 L89 53 L0 53" stroke="none" stroke-width="0" fill="#e9ecef"></path><path d="M0 0 C17.92 0, 35.84 0, 89 0 M0 0 C24.27 0, 48.54 0, 89 0 M89 0 C89 12.97, 89 25.95, 89 53 M89 0 C89 18.81, 89 37.63, 89 53 M89 53 C56.75 53, 24.49 53, 0 53 M89 53 C61.69 53, 34.37 53, 0 53 M0 53 C0 35.41, 0 17.82, 0 0 M0 53 C0 33.29, 0 13.58, 0 0" stroke="#1e1e1e" stroke-width="2" fill="none"></path></g><g transform="translate(342.6547846685303 44.442614429397224) rotate(0 31.299999237060547 21.37876954043)"><text x="31.299999237060547" y="0" font-family="Cascadia, Segoe UI Emoji" font-size="17.815641283691665px" fill="#1e1e1e" text-anchor="middle" style="white-space: pre;" direction="ltr" dominant-baseline="text-before-edge">Future</text><text x="31.299999237060547" y="21.378769540429996" font-family="Cascadia, Segoe UI Emoji" font-size="17.815641283691665px" fill="#1e1e1e" text-anchor="middle" style="white-space: pre;" direction="ltr" dominant-baseline="text-before-edge">self</text></g><g stroke-linecap="round"><g transform="translate(418.6391983660551 53.231641589217986) rotate(0 -45.00114334010664 10.334258882389662)"><path d="M0 0 C0.1 -6.18, 0.2 -12.36, 0.25 -15.46 M0 0 C0.09 -5.47, 0.18 -10.94, 0.25 -15.46 M0.25 -15.46 C-7.7 -23.31, -15.65 -31.16, -27.86 -43.21 M0.25 -15.46 C-6.5 -22.13, -13.26 -28.8, -27.86 -43.21 M-27.86 -43.21 C-43.66 -43.22, -59.47 -43.22, -90.47 -43.23 M-27.86 -43.21 C-51.13 -43.22, -74.4 -43.23, -90.47 -43.23 M-90.47 -43.23 C-90.56 -21.11, -90.65 1.02, -90.9 62.56 M-90.47 -43.23 C-90.61 -7.58, -90.76 28.06, -90.9 62.56 M-90.9 62.56 C-59.05 63.02, -27.21 63.49, 0.9 63.9 M-90.9 62.56 C-56.54 63.06, -22.19 63.56, 0.9 63.9 M0.9 63.9 C0.81 51.65, 0.73 39.4, 0.61 22.14 M0.9 63.9 C0.79 48.02, 0.68 32.15, 0.61 22.14" stroke="#000" stroke-width="2" fill="none"></path></g></g><mask></mask><g stroke-linecap="round"><g transform="translate(390.14680502066176 11.167320310085188) rotate(0 14.338667907637728 13.639605072110953)"><path d="M0 0 C0.11 8.99, 0.22 17.99, 0.33 27.28 M0 0 C0.12 9.89, 0.24 19.79, 0.33 27.28 M0.33 27.28 C8.86 27.2, 17.38 27.13, 28.68 27.03 M0.33 27.28 C10.89 27.19, 21.45 27.09, 28.68 27.03" stroke="#000" stroke-width="2" fill="none"></path></g></g><mask></mask><g transform="translate(38.559578432161516 64.33763010722853) rotate(0 14.868015964206393 7.60422582167773)"><text x="0" y="0" font-family="Cascadia, Segoe UI Emoji" font-size="12.673709702796213px" fill="#e03131" text-anchor="start" style="white-space: pre;" direction="ltr" dominant-baseline="text-before-edge">Past</text></g><g transform="translate(68.55894937671155 84.54887332997717) rotate(0.19429199138778314 11.597540122178316 23.744726266360786)"><text x="0" y="0" font-family="Cascadia, Segoe UI Emoji" font-size="39.57454377726797px" fill="#e03131" text-anchor="start" style="white-space: pre;" direction="ltr" dominant-baseline="text-before-edge">O</text></g><g transform="translate(111.87873782355155 66.88038931436947) rotate(179.92025768629733 7.933230338444218 12.641868151071705)"><text x="0" y="0" font-family="Helvetica, Segoe UI Emoji" font-size="21.98585765403776px" fill="#1e1e1e" text-anchor="start" style="white-space: pre;" direction="ltr" dominant-baseline="text-before-edge">C</text></g><g transform="translate(334.5226282646795 79.46916424639622) rotate(91.36835815728575 11.597540122178316 23.744726266360786)"><text x="0" y="0" font-family="Cascadia, Segoe UI Emoji" font-size="39.57454377726797px" fill="#1e1e1e" text-anchor="start" style="white-space: pre;" direction="ltr" dominant-baseline="text-before-edge">D</text></g><g transform="translate(75.39835981687702 64.07403232368554) rotate(0 14.866666793823242 7.60422582167773)"><text x="0" y="0" font-family="Cascadia, Segoe UI Emoji" font-size="12.673709702796213px" fill="#e03131" text-anchor="start" style="white-space: pre;" direction="ltr" dominant-baseline="text-before-edge">self</text></g></svg>