<svg version="1.1" xmlns="http://www.w3.org/2000/svg" viewBox="0 0 977.1712466453513 484.4" width="1954.3424932907026" height="968.8">
  <!-- svg-source:excalidraw -->
  
  <defs>
    <style class="style-fonts">
      @font-face {
        font-family: "Virgil";
        src: url("https://excalidraw.com/Virgil.woff2");
      }
      @font-face {
        font-family: "Cascadia";
        src: url("https://excalidraw.com/Cascadia.woff2");
      }
    </style>
    
  </defs>
  <rect x="0" y="0" width="977.1712466453513" height="484.4" fill="#ffffff"></rect><g stroke-opacity="0.8" fill-opacity="0.8" transform="translate(174.27272727272737 438.7727272727272) rotate(0 0.00004999999998744897 0.00005000000000165983)" stroke="none"><path fill="#e03131" d="M 6.28,-6.28 Q 6.28,-6.28 7.11,-5.11 7.95,-3.94 8.37,-2.57 8.80,-1.19 8.76,0.23 8.72,1.67 8.22,3.02 7.73,4.37 6.83,5.49 5.93,6.61 4.72,7.38 3.50,8.15 2.11,8.50 0.72,8.85 -0.71,8.73 -2.14,8.61 -3.46,8.05 -4.78,7.48 -5.85,6.52 -6.92,5.56 -7.63,4.31 -8.33,3.06 -8.60,1.65 -8.87,0.23 -8.68,-1.18 -8.49,-2.60 -7.85,-3.89 -7.21,-5.18 -6.19,-6.19 -5.18,-7.21 -3.89,-7.85 -2.60,-8.49 -1.18,-8.68 0.24,-8.87 1.65,-8.60 3.06,-8.33 4.31,-7.62 5.56,-6.92 6.52,-5.85 7.48,-4.78 8.05,-3.46 8.62,-2.14 8.73,-0.70 8.85,0.72 8.50,2.11 8.15,3.51 7.38,4.72 6.61,5.93 5.49,6.83 4.36,7.73 3.02,8.22 1.67,8.72 0.23,8.76 -1.20,8.80 -2.57,8.37 -3.94,7.95 -5.11,7.11 -6.28,6.27 -6.28,6.28 -6.28,6.28 -6.94,5.43 -7.60,4.59 -8.04,3.61 -8.48,2.64 -8.67,1.58 -8.86,0.53 -8.80,-0.53 -8.73,-1.60 -8.41,-2.62 -8.09,-3.64 -7.54,-4.56 -6.99,-5.47 -6.23,-6.23 -5.47,-6.99 -4.56,-7.54 -3.64,-8.10 -2.62,-8.41 -1.60,-8.73 -0.53,-8.80 0.53,-8.86 1.59,-8.67 2.64,-8.48 3.61,-8.04 4.59,-7.60 5.43,-6.94 6.28,-6.28 6.28,-6.28 L 6.28,-6.28 Z"></path></g><g stroke-opacity="0.8" fill-opacity="0.8" transform="translate(613.3636363636363 438.31818181818176) rotate(0 0.00004999999998744897 0.00005000000000165983)" stroke="none"><path fill="#e03131" d="M 6.28,-6.28 Q 6.28,-6.28 7.11,-5.11 7.95,-3.94 8.37,-2.57 8.80,-1.19 8.76,0.23 8.72,1.67 8.22,3.02 7.73,4.37 6.83,5.49 5.93,6.61 4.72,7.38 3.50,8.15 2.11,8.50 0.72,8.85 -0.71,8.73 -2.14,8.61 -3.46,8.05 -4.78,7.48 -5.85,6.52 -6.92,5.56 -7.63,4.31 -8.33,3.06 -8.60,1.65 -8.87,0.23 -8.68,-1.18 -8.49,-2.60 -7.85,-3.89 -7.21,-5.18 -6.19,-6.19 -5.18,-7.21 -3.89,-7.85 -2.60,-8.49 -1.18,-8.68 0.24,-8.87 1.65,-8.60 3.06,-8.33 4.31,-7.62 5.56,-6.92 6.52,-5.85 7.48,-4.78 8.05,-3.46 8.62,-2.14 8.73,-0.70 8.85,0.72 8.50,2.11 8.15,3.51 7.38,4.72 6.61,5.93 5.49,6.83 4.36,7.73 3.02,8.22 1.67,8.72 0.23,8.76 -1.20,8.80 -2.57,8.37 -3.94,7.95 -5.11,7.11 -6.28,6.27 -6.28,6.28 -6.28,6.28 -6.94,5.43 -7.60,4.59 -8.04,3.61 -8.48,2.64 -8.67,1.58 -8.86,0.53 -8.80,-0.53 -8.73,-1.60 -8.41,-2.62 -8.09,-3.64 -7.54,-4.56 -6.99,-5.47 -6.23,-6.23 -5.47,-6.99 -4.56,-7.54 -3.64,-8.10 -2.62,-8.41 -1.60,-8.73 -0.53,-8.80 0.53,-8.86 1.59,-8.67 2.64,-8.48 3.61,-8.04 4.59,-7.60 5.43,-6.94 6.28,-6.28 6.28,-6.28 L 6.28,-6.28 Z"></path></g><g stroke-opacity="0.8" fill-opacity="0.8" transform="translate(171.54545454545462 436.9545454545454) rotate(0 0.00004999999998744897 0.00005000000000165983)" stroke="none"><path fill="#1e1e1e" d="M 6.28,-6.28 Q 6.28,-6.28 7.11,-5.11 7.95,-3.94 8.37,-2.57 8.80,-1.19 8.76,0.23 8.72,1.67 8.22,3.02 7.73,4.37 6.83,5.49 5.93,6.61 4.72,7.38 3.50,8.15 2.11,8.50 0.72,8.85 -0.71,8.73 -2.14,8.61 -3.46,8.05 -4.78,7.48 -5.85,6.52 -6.92,5.56 -7.63,4.31 -8.33,3.06 -8.60,1.65 -8.87,0.23 -8.68,-1.18 -8.49,-2.60 -7.85,-3.89 -7.21,-5.18 -6.19,-6.19 -5.18,-7.21 -3.89,-7.85 -2.60,-8.49 -1.18,-8.68 0.24,-8.87 1.65,-8.60 3.06,-8.33 4.31,-7.62 5.56,-6.92 6.52,-5.85 7.48,-4.78 8.05,-3.46 8.62,-2.14 8.73,-0.70 8.85,0.72 8.50,2.11 8.15,3.51 7.38,4.72 6.61,5.93 5.49,6.83 4.36,7.73 3.02,8.22 1.67,8.72 0.23,8.76 -1.20,8.80 -2.57,8.37 -3.94,7.95 -5.11,7.11 -6.28,6.27 -6.28,6.28 -6.28,6.28 -6.94,5.43 -7.60,4.59 -8.04,3.61 -8.48,2.64 -8.67,1.58 -8.86,0.53 -8.80,-0.53 -8.73,-1.60 -8.41,-2.62 -8.09,-3.64 -7.54,-4.56 -6.99,-5.47 -6.23,-6.23 -5.47,-6.99 -4.56,-7.54 -3.64,-8.10 -2.62,-8.41 -1.60,-8.73 -0.53,-8.80 0.53,-8.86 1.59,-8.67 2.64,-8.48 3.61,-8.04 4.59,-7.60 5.43,-6.94 6.28,-6.28 6.28,-6.28 L 6.28,-6.28 Z"></path></g><g stroke-opacity="0.8" fill-opacity="0.8" transform="translate(616.090909090909 436.9545454545454) rotate(0 0.00004999999998744897 0.00005000000000165983)" stroke="none"><path fill="#1e1e1e" d="M 6.28,-6.28 Q 6.28,-6.28 7.11,-5.11 7.95,-3.94 8.37,-2.57 8.80,-1.19 8.76,0.23 8.72,1.67 8.22,3.02 7.73,4.37 6.83,5.49 5.93,6.61 4.72,7.38 3.50,8.15 2.11,8.50 0.72,8.85 -0.71,8.73 -2.14,8.61 -3.46,8.05 -4.78,7.48 -5.85,6.52 -6.92,5.56 -7.63,4.31 -8.33,3.06 -8.60,1.65 -8.87,0.23 -8.68,-1.18 -8.49,-2.60 -7.85,-3.89 -7.21,-5.18 -6.19,-6.19 -5.18,-7.21 -3.89,-7.85 -2.60,-8.49 -1.18,-8.68 0.24,-8.87 1.65,-8.60 3.06,-8.33 4.31,-7.62 5.56,-6.92 6.52,-5.85 7.48,-4.78 8.05,-3.46 8.62,-2.14 8.73,-0.70 8.85,0.72 8.50,2.11 8.15,3.51 7.38,4.72 6.61,5.93 5.49,6.83 4.36,7.73 3.02,8.22 1.67,8.72 0.23,8.76 -1.20,8.80 -2.57,8.37 -3.94,7.95 -5.11,7.11 -6.28,6.27 -6.28,6.28 -6.28,6.28 -6.94,5.43 -7.60,4.59 -8.04,3.61 -8.48,2.64 -8.67,1.58 -8.86,0.53 -8.80,-0.53 -8.73,-1.60 -8.41,-2.62 -8.09,-3.64 -7.54,-4.56 -6.99,-5.47 -6.23,-6.23 -5.47,-6.99 -4.56,-7.54 -3.64,-8.10 -2.62,-8.41 -1.60,-8.73 -0.53,-8.80 0.53,-8.86 1.59,-8.67 2.64,-8.48 3.61,-8.04 4.59,-7.60 5.43,-6.94 6.28,-6.28 6.28,-6.28 L 6.28,-6.28 Z"></path></g><g stroke-opacity="0.8" fill-opacity="0.8" transform="translate(78 415) rotate(0 16 9.200000000000003)"><text x="0" y="0" font-family="Helvetica, Segoe UI Emoji" font-size="16px" fill="#1e1e1e" text-anchor="start" style="white-space: pre;" direction="ltr" dominant-baseline="text-before-edge">links</text></g><g stroke-opacity="0.8" fill-opacity="0.8" transform="translate(655 423) rotate(0 22.66666603088379 9.200000000000003)"><text x="0" y="0" font-family="Helvetica, Segoe UI Emoji" font-size="16px" fill="#1e1e1e" text-anchor="start" style="white-space: pre;" direction="ltr" dominant-baseline="text-before-edge">issues</text></g><g stroke-opacity="0.8" fill-opacity="0.8" transform="translate(392 434) rotate(0 0.00004999999998744897 0.00005000000000165983)" stroke="none"><path fill="#1e1e1e" d="M 6.28,-6.28 Q 6.28,-6.28 7.11,-5.11 7.95,-3.94 8.37,-2.57 8.80,-1.19 8.76,0.23 8.72,1.67 8.22,3.02 7.73,4.37 6.83,5.49 5.93,6.61 4.72,7.38 3.50,8.15 2.11,8.50 0.72,8.85 -0.71,8.73 -2.14,8.61 -3.46,8.05 -4.78,7.48 -5.85,6.52 -6.92,5.56 -7.63,4.31 -8.33,3.06 -8.60,1.65 -8.87,0.23 -8.68,-1.18 -8.49,-2.60 -7.85,-3.89 -7.21,-5.18 -6.19,-6.19 -5.18,-7.21 -3.89,-7.85 -2.60,-8.49 -1.18,-8.68 0.24,-8.87 1.65,-8.60 3.06,-8.33 4.31,-7.62 5.56,-6.92 6.52,-5.85 7.48,-4.78 8.05,-3.46 8.62,-2.14 8.73,-0.70 8.85,0.72 8.50,2.11 8.15,3.51 7.38,4.72 6.61,5.93 5.49,6.83 4.36,7.73 3.02,8.22 1.67,8.72 0.23,8.76 -1.20,8.80 -2.57,8.37 -3.94,7.95 -5.11,7.11 -6.28,6.27 -6.28,6.28 -6.28,6.28 -6.94,5.43 -7.60,4.59 -8.04,3.61 -8.48,2.64 -8.67,1.58 -8.86,0.53 -8.80,-0.53 -8.73,-1.60 -8.41,-2.62 -8.09,-3.64 -7.54,-4.56 -6.99,-5.47 -6.23,-6.23 -5.47,-6.99 -4.56,-7.54 -3.64,-8.10 -2.62,-8.41 -1.60,-8.73 -0.53,-8.80 0.53,-8.86 1.59,-8.67 2.64,-8.48 3.61,-8.04 4.59,-7.60 5.43,-6.94 6.28,-6.28 6.28,-6.28 L 6.28,-6.28 Z"></path></g><g stroke-opacity="0.8" fill-opacity="0.8" transform="translate(396 456) rotate(0 23.100000381469727 9.200000000000003)"><text x="0" y="0" font-family="Helvetica, Segoe UI Emoji" font-size="16px" fill="#1e1e1e" text-anchor="start" style="white-space: pre;" direction="ltr" dominant-baseline="text-before-edge">ask qs</text></g><g stroke-opacity="0.8" fill-opacity="0.8" transform="translate(174 432) rotate(0 -1 -24)" stroke="none"><path fill="#1e1e1e" d="M -10.07,0 Q -10.07,0 -10.18,-4.6 -10.30,-9.2 -10.70,-14.24 -11.11,-19.29 -11.72,-26.60 -12.32,-33.92 -13.26,-40.43 -14.20,-46.95 -14.05,-48.93 -13.90,-50.91 -13.12,-52.73 -12.35,-54.55 -11.03,-56.04 -9.71,-57.52 -7.99,-58.50 -6.26,-59.48 -4.32,-59.86 -2.37,-60.24 -0.41,-59.98 1.55,-59.72 3.33,-58.85 5.11,-57.97 6.51,-56.58 7.92,-55.18 8.81,-53.41 9.70,-51.64 9.97,-49.67 10.25,-47.71 9.88,-45.76 9.51,-43.81 8.54,-42.08 7.57,-40.35 6.10,-39.02 4.63,-37.69 2.81,-36.90 1.00,-36.11 -0.97,-35.95 -2.94,-35.78 -4.87,-36.25 -6.80,-36.72 -8.47,-37.78 -10.14,-38.84 -11.39,-40.38 -12.64,-41.92 -13.33,-43.78 -14.02,-45.64 -14.08,-47.62 -14.14,-49.60 -13.57,-51.50 -12.99,-53.40 -11.84,-55.01 -10.69,-56.63 -9.09,-57.79 -7.48,-58.95 -5.59,-59.54 -3.69,-60.13 -1.71,-60.08 0.26,-60.04 2.12,-59.36 3.99,-58.68 5.54,-57.45 7.09,-56.21 8.16,-54.54 9.23,-52.88 9.72,-50.96 10.20,-49.03 10.20,-49.04 10.20,-49.04 10.32,-47.44 10.44,-45.84 10.80,-40.67 11.17,-35.51 11.14,-27.40 11.11,-19.29 10.70,-14.24 10.30,-9.2 10.18,-4.6 10.07,0 9.92,1.20 9.78,2.41 9.35,3.54 8.92,4.68 8.23,5.68 7.54,6.68 6.63,7.48 5.72,8.29 4.64,8.85 3.57,9.41 2.39,9.71 1.21,10.00 -0.00,10.00 -1.21,10.00 -2.39,9.70 -3.57,9.41 -4.64,8.85 -5.72,8.29 -6.63,7.48 -7.54,6.67 -8.23,5.68 -8.92,4.68 -9.35,3.54 -9.78,2.40 -9.92,1.20 -10.07,-0.00 -10.07,-0.00 L -10.07,0 Z"></path></g><g stroke-opacity="0.8" fill-opacity="0.8" transform="translate(172 384) rotate(0 38.5 1)" stroke="none"><path fill="#1e1e1e" d="M 0,-10.30 Q 0,-10.30 4.6,-10.39 9.2,-10.49 14.36,-10.81 19.52,-11.13 23.85,-11.45 28.18,-11.77 33.07,-12.10 37.95,-12.43 43.40,-12.64 48.85,-12.84 53.55,-13.09 58.25,-13.34 63.15,-12.45 68.04,-11.56 72.53,-11.74 77.02,-11.92 79.24,-11.55 81.47,-11.18 83.45,-10.13 85.44,-9.07 86.99,-7.43 88.54,-5.79 89.48,-3.74 90.42,-1.70 90.66,0.53 90.90,2.77 90.41,4.97 89.92,7.17 88.76,9.10 87.59,11.03 85.87,12.49 84.15,13.94 82.06,14.77 79.96,15.60 77.71,15.72 75.46,15.84 73.29,15.23 71.12,14.62 69.26,13.36 67.40,12.09 66.04,10.29 64.68,8.49 63.96,6.36 63.25,4.22 63.25,1.97 63.26,-0.27 63.98,-2.41 64.70,-4.54 66.07,-6.33 67.44,-8.12 69.30,-9.39 71.17,-10.65 73.34,-11.24 75.52,-11.84 77.77,-11.72 80.02,-11.59 82.11,-10.75 84.20,-9.91 85.91,-8.45 87.63,-6.99 88.79,-5.06 89.94,-3.12 90.42,-0.92 90.90,1.27 90.65,3.51 90.41,5.75 89.46,7.79 88.51,9.83 86.95,11.47 85.40,13.10 83.41,14.15 81.41,15.20 79.19,15.56 76.97,15.92 76.97,15.92 76.97,15.92 71.76,15.72 66.55,15.53 62.40,14.43 58.25,13.34 53.55,13.09 48.85,12.84 43.40,12.64 37.95,12.43 33.07,12.10 28.18,11.77 23.85,11.45 19.52,11.13 14.36,10.81 9.2,10.49 4.6,10.39 0,10.30 -1.23,10.15 -2.46,10.00 -3.62,9.56 -4.78,9.12 -5.81,8.41 -6.83,7.71 -7.65,6.78 -8.48,5.85 -9.05,4.75 -9.63,3.65 -9.93,2.44 -10.22,1.24 -10.22,-0.00 -10.22,-1.24 -9.93,-2.44 -9.63,-3.65 -9.05,-4.75 -8.47,-5.85 -7.65,-6.78 -6.83,-7.71 -5.81,-8.41 -4.78,-9.12 -3.62,-9.56 -2.46,-10.00 -1.23,-10.15 0.00,-10.30 0.00,-10.30 L 0,-10.30 Z"></path></g><g stroke-opacity="0.8" fill-opacity="0.8" transform="translate(249 386) rotate(0 0.00004999999998744897 0.00005000000000165983)" stroke="none"><path fill="#1e1e1e" d="M 6.28,-6.28 Q 6.28,-6.28 7.11,-5.11 7.95,-3.94 8.37,-2.57 8.80,-1.19 8.76,0.23 8.72,1.67 8.22,3.02 7.73,4.37 6.83,5.49 5.93,6.61 4.72,7.38 3.50,8.15 2.11,8.50 0.72,8.85 -0.71,8.73 -2.14,8.61 -3.46,8.05 -4.78,7.48 -5.85,6.52 -6.92,5.56 -7.63,4.31 -8.33,3.06 -8.60,1.65 -8.87,0.23 -8.68,-1.18 -8.49,-2.60 -7.85,-3.89 -7.21,-5.18 -6.19,-6.19 -5.18,-7.21 -3.89,-7.85 -2.60,-8.49 -1.18,-8.68 0.24,-8.87 1.65,-8.60 3.06,-8.33 4.31,-7.62 5.56,-6.92 6.52,-5.85 7.48,-4.78 8.05,-3.46 8.62,-2.14 8.73,-0.70 8.85,0.72 8.50,2.11 8.15,3.51 7.38,4.72 6.61,5.93 5.49,6.83 4.36,7.73 3.02,8.22 1.67,8.72 0.23,8.76 -1.20,8.80 -2.57,8.37 -3.94,7.95 -5.11,7.11 -6.28,6.27 -6.28,6.28 -6.28,6.28 -6.94,5.43 -7.60,4.59 -8.04,3.61 -8.48,2.64 -8.67,1.58 -8.86,0.53 -8.80,-0.53 -8.73,-1.60 -8.41,-2.62 -8.09,-3.64 -7.54,-4.56 -6.99,-5.47 -6.23,-6.23 -5.47,-6.99 -4.56,-7.54 -3.64,-8.10 -2.62,-8.41 -1.60,-8.73 -0.53,-8.80 0.53,-8.86 1.59,-8.67 2.64,-8.48 3.61,-8.04 4.59,-7.60 5.43,-6.94 6.28,-6.28 6.28,-6.28 L 6.28,-6.28 Z"></path></g><g stroke-opacity="0.8" fill-opacity="0.8" transform="translate(249 386) rotate(0 32.5 -37.5)" stroke="none"><path fill="#1e1e1e" d="M -10.19,-1.56 Q -10.19,-1.56 -9.77,-5.32 -9.34,-9.08 -9.41,-13.86 -9.49,-18.64 -9.79,-23.09 -10.09,-27.54 -9.92,-32.83 -9.75,-38.13 -9.95,-42.60 -10.16,-47.08 -10.55,-52.01 -10.94,-56.93 -11.28,-62.15 -11.63,-67.38 -8.97,-74.43 -6.31,-81.48 0.21,-85.02 6.74,-88.57 11.47,-88.76 16.19,-88.95 20.80,-89.03 25.42,-89.11 31.32,-88.08 37.22,-87.04 44.26,-86.77 51.29,-86.49 55.77,-86.65 60.26,-86.82 61.63,-86.84 63.00,-86.87 64.77,-86.65 66.55,-86.44 68.23,-85.80 69.91,-85.16 71.38,-84.15 72.86,-83.13 74.05,-81.78 75.24,-80.44 76.07,-78.86 76.90,-77.27 77.33,-75.53 77.76,-73.79 77.76,-71.99 77.76,-70.20 77.33,-68.46 76.90,-66.72 76.07,-65.13 75.23,-63.55 74.05,-62.20 72.86,-60.86 71.38,-59.84 69.91,-58.83 68.23,-58.19 66.55,-57.55 64.77,-57.34 62.99,-57.12 60.62,-57.51 58.25,-57.90 56.12,-59.03 53.99,-60.16 52.34,-61.90 50.68,-63.65 49.67,-65.83 48.66,-68.02 48.40,-70.41 48.14,-72.80 48.66,-75.15 49.18,-77.50 50.42,-79.56 51.66,-81.62 53.49,-83.18 55.33,-84.74 57.56,-85.63 59.80,-86.52 62.20,-86.65 64.60,-86.78 66.92,-86.14 69.24,-85.49 71.23,-84.14 73.22,-82.79 74.68,-80.88 76.14,-78.96 76.90,-76.68 77.67,-74.40 77.67,-71.99 77.67,-69.59 76.90,-67.31 76.13,-65.03 74.68,-63.11 73.22,-61.20 71.23,-59.85 69.24,-58.50 66.92,-57.85 64.60,-57.21 62.20,-57.34 59.79,-57.47 57.56,-58.36 55.32,-59.25 53.49,-60.81 51.66,-62.37 50.42,-64.43 49.18,-66.49 48.66,-68.84 48.14,-71.19 48.40,-73.59 48.67,-75.98 49.68,-78.16 50.69,-80.34 52.34,-82.09 54.00,-83.84 56.12,-84.96 58.25,-86.09 60.62,-86.48 63.00,-86.87 63.00,-86.87 62.99,-86.87 64.77,-86.65 66.55,-86.44 68.23,-85.80 69.91,-85.16 71.38,-84.15 72.86,-83.13 74.05,-81.79 75.23,-80.44 76.07,-78.86 76.90,-77.27 77.33,-75.53 77.76,-73.79 77.76,-72.00 77.76,-70.20 77.33,-68.46 76.90,-66.72 76.07,-65.13 75.23,-63.55 74.05,-62.20 72.86,-60.86 71.38,-59.84 69.91,-58.83 68.23,-58.19 66.55,-57.55 64.77,-57.34 62.99,-57.12 61.12,-57.16 59.25,-57.19 55.00,-57.32 50.75,-57.45 45.63,-57.99 40.51,-58.53 35.14,-59.18 29.77,-59.83 24.75,-60.37 19.74,-60.91 14.52,-61.15 9.31,-61.39 12.53,-66.35 15.75,-71.30 15.77,-65.80 15.79,-60.29 15.97,-53.68 16.15,-47.07 15.92,-42.39 15.68,-37.72 14.89,-32.61 14.09,-27.51 13.72,-22.79 13.36,-18.07 12.50,-11.96 11.64,-5.86 10.92,-2.14 10.19,1.56 9.85,2.76 9.52,3.96 8.91,5.04 8.29,6.12 7.44,7.03 6.59,7.93 5.54,8.60 4.50,9.28 3.32,9.68 2.14,10.08 0.90,10.19 -0.32,10.31 -1.55,10.12 -2.78,9.93 -3.93,9.45 -5.08,8.97 -6.08,8.23 -7.08,7.49 -7.87,6.54 -8.67,5.58 -9.21,4.46 -9.75,3.34 -10.01,2.13 -10.27,0.91 -10.23,-0.32 -10.19,-1.56 -10.19,-1.56 L -10.19,-1.56 Z"></path></g><g stroke-opacity="0.8" fill-opacity="0.8" transform="translate(610 435) rotate(0 -34.5 -28)" stroke="none"><path fill="#1e1e1e" d="M -10.29,0 Q -10.29,0 -10.36,-4.88 -10.43,-9.77 -10.48,-14.72 -10.53,-19.67 -11.20,-25.82 -11.87,-31.98 -12.69,-36.46 -13.51,-40.95 -13.80,-45.32 -14.09,-49.68 -18.35,-45.51 -22.61,-41.34 -28.82,-40.47 -35.04,-39.60 -39.72,-39.22 -44.40,-38.83 -49.49,-38.61 -54.58,-38.40 -59.25,-37.77 -63.93,-37.15 -66.41,-37.08 -68.89,-37.00 -71.12,-37.35 -73.36,-37.70 -75.37,-38.75 -77.38,-39.79 -78.95,-41.42 -80.51,-43.05 -81.48,-45.10 -82.45,-47.15 -82.71,-49.40 -82.97,-51.64 -82.50,-53.86 -82.03,-56.07 -80.88,-58.02 -79.73,-59.97 -78.01,-61.45 -76.30,-62.93 -74.20,-63.78 -72.11,-64.64 -69.85,-64.78 -67.59,-64.92 -65.40,-64.33 -63.22,-63.74 -61.33,-62.48 -59.45,-61.23 -58.07,-59.43 -56.68,-57.64 -55.94,-55.50 -55.21,-53.36 -55.19,-51.10 -55.17,-48.84 -55.88,-46.69 -56.58,-44.54 -57.94,-42.72 -59.30,-40.91 -61.16,-39.63 -63.02,-38.34 -65.20,-37.72 -67.38,-37.10 -69.64,-37.20 -71.90,-37.31 -74.01,-38.13 -76.12,-38.95 -77.85,-40.40 -79.59,-41.86 -80.77,-43.79 -81.95,-45.72 -82.46,-47.93 -82.96,-50.13 -82.73,-52.38 -82.50,-54.64 -81.57,-56.70 -80.63,-58.76 -79.09,-60.42 -77.55,-62.07 -75.55,-63.15 -73.56,-64.22 -71.33,-64.60 -69.10,-64.99 -69.10,-64.99 -69.10,-64.99 -67.54,-64.79 -65.97,-64.59 -59.33,-65.06 -52.68,-65.52 -48.06,-65.35 -43.43,-65.17 -38.53,-65.35 -33.62,-65.54 -28.79,-66.29 -23.96,-67.04 -18.02,-67.39 -12.09,-67.75 -7.45,-67.48 -2.82,-67.22 1.63,-64.35 6.09,-61.49 8.13,-55.68 10.16,-49.88 10.36,-44.56 10.56,-39.24 10.36,-33.95 10.16,-28.66 10.34,-24.17 10.53,-19.68 10.48,-14.72 10.43,-9.77 10.36,-4.88 10.29,0 10.14,1.23 9.99,2.46 9.55,3.62 9.11,4.78 8.41,5.80 7.70,6.82 6.77,7.65 5.84,8.47 4.75,9.05 3.65,9.62 2.44,9.92 1.24,10.22 -0.00,10.22 -1.24,10.22 -2.44,9.92 -3.65,9.62 -4.75,9.05 -5.85,8.47 -6.77,7.65 -7.70,6.82 -8.41,5.80 -9.11,4.78 -9.55,3.62 -9.99,2.46 -10.14,1.23 -10.29,-0.00 -10.29,-0.00 L -10.29,0 Z"></path></g><g stroke-opacity="0.8" fill-opacity="0.8" transform="translate(541 384) rotate(0 -39.5 -41)" stroke="none"><path fill="#1e1e1e" d="M -10.16,2.54 Q -10.16,2.54 -11.17,-0.87 -12.18,-4.28 -13.13,-9.30 -14.07,-14.31 -14.42,-19.25 -14.76,-24.20 -15.93,-30.05 -17.10,-35.90 -17.95,-40.43 -18.80,-44.96 -19.06,-49.40 -19.31,-53.84 -19.49,-58.41 -19.67,-62.97 -19.06,-67.21 -18.44,-71.44 -14.38,-66.29 -10.33,-61.14 -15.69,-62.69 -21.05,-64.25 -25.58,-64.81 -30.10,-65.38 -35.14,-66.07 -40.17,-66.77 -44.71,-67.00 -49.25,-67.24 -53.75,-67.16 -58.25,-67.08 -62.90,-67.05 -67.56,-67.01 -72.25,-65.93 -76.95,-64.86 -78.76,-65.08 -80.57,-65.29 -82.28,-65.93 -83.99,-66.57 -85.49,-67.60 -87.00,-68.64 -88.21,-70.00 -89.42,-71.36 -90.28,-72.97 -91.13,-74.59 -91.57,-76.36 -92.01,-78.13 -92.02,-79.95 -92.02,-81.77 -91.59,-83.55 -91.16,-85.32 -90.32,-86.94 -89.48,-88.55 -88.27,-89.92 -87.06,-91.29 -85.57,-92.33 -84.07,-93.37 -82.36,-94.03 -80.66,-94.68 -78.85,-94.90 -77.04,-95.13 -74.14,-94.56 -71.24,-93.99 -69.16,-92.71 -67.07,-91.42 -65.51,-89.54 -63.94,-87.66 -63.06,-85.37 -62.18,-83.09 -62.07,-80.64 -61.97,-78.19 -62.65,-75.84 -63.33,-73.49 -64.73,-71.48 -66.12,-69.47 -68.09,-68.01 -70.05,-66.55 -72.38,-65.79 -74.71,-65.03 -77.16,-65.06 -79.61,-65.09 -81.92,-65.90 -84.23,-66.70 -86.16,-68.21 -88.10,-69.71 -89.45,-71.75 -90.80,-73.79 -91.43,-76.16 -92.06,-78.52 -91.90,-80.97 -91.74,-83.41 -90.81,-85.68 -89.88,-87.94 -88.27,-89.79 -86.66,-91.64 -84.55,-92.88 -82.44,-94.12 -80.04,-94.62 -77.65,-95.12 -75.22,-94.82 -72.78,-94.53 -70.57,-93.48 -68.36,-92.43 -66.60,-90.72 -64.85,-89.02 -63.72,-86.84 -62.60,-84.67 -62.23,-82.25 -61.86,-79.83 -62.28,-77.41 -62.71,-75.00 -63.88,-72.85 -65.05,-70.70 -66.85,-69.04 -68.64,-67.37 -70.88,-66.37 -73.11,-65.37 -75.55,-65.13 -77.98,-64.89 -77.47,-64.88 -76.95,-64.86 -78.76,-65.08 -80.57,-65.29 -82.28,-65.93 -83.99,-66.57 -85.49,-67.60 -87.00,-68.64 -88.21,-70.00 -89.42,-71.36 -90.28,-72.97 -91.13,-74.58 -91.57,-76.35 -92.01,-78.12 -92.02,-79.95 -92.02,-81.77 -91.59,-83.55 -91.16,-85.32 -90.32,-86.94 -89.48,-88.55 -88.27,-89.92 -87.07,-91.29 -85.57,-92.33 -84.07,-93.37 -82.37,-94.03 -80.66,-94.68 -78.85,-94.90 -77.04,-95.13 -75.54,-95.46 -74.03,-95.79 -68.63,-96.37 -63.23,-96.96 -58.14,-96.88 -53.06,-96.81 -48.41,-96.68 -43.76,-96.55 -38.47,-95.47 -33.18,-94.39 -28.86,-93.97 -24.55,-93.55 -19.50,-92.58 -14.45,-91.60 -8.99,-89.96 -3.54,-88.32 0.16,-86.17 3.88,-84.03 6.22,-80.09 8.56,-76.15 8.08,-68.87 7.61,-61.59 7.43,-56.96 7.24,-52.34 7.20,-47.39 7.16,-42.45 8.22,-36.93 9.27,-31.41 8.98,-26.27 8.68,-21.13 8.71,-15.32 8.73,-9.51 9.45,-6.02 10.16,-2.54 10.32,-1.28 10.47,-0.03 10.33,1.21 10.18,2.47 9.73,3.65 9.29,4.83 8.58,5.88 7.86,6.92 6.92,7.76 5.98,8.60 4.86,9.19 3.74,9.78 2.52,10.09 1.29,10.39 0.03,10.40 -1.22,10.40 -2.45,10.10 -3.68,9.81 -4.80,9.22 -5.92,8.64 -6.87,7.80 -7.82,6.97 -8.54,5.93 -9.26,4.89 -9.71,3.72 -10.16,2.54 -10.16,2.54 L -10.16,2.54 Z"></path></g><g stroke-opacity="0.8" fill-opacity="0.8" transform="translate(134 286) rotate(0 47.483333587646484 18.400000000000006)"><text x="0" y="0" font-family="Helvetica, Segoe UI Emoji" font-size="16px" fill="#1e1e1e" text-anchor="start" style="white-space: pre;" direction="ltr" dominant-baseline="text-before-edge">Page fixes</text><text x="0" y="18.4" font-family="Helvetica, Segoe UI Emoji" font-size="16px" fill="#1e1e1e" text-anchor="start" style="white-space: pre;" direction="ltr" dominant-baseline="text-before-edge">vocab control</text></g><g stroke-opacity="0.8" fill-opacity="0.8" transform="translate(556.5166664123535 273.6) rotate(0 55.86666488647461 18.400000000000006)"><text x="0" y="0" font-family="Helvetica, Segoe UI Emoji" font-size="16px" fill="#1e1e1e" text-anchor="start" style="white-space: pre;" direction="ltr" dominant-baseline="text-before-edge">industry articles</text><text x="0" y="18.4" font-family="Helvetica, Segoe UI Emoji" font-size="16px" fill="#1e1e1e" text-anchor="start" style="white-space: pre;" direction="ltr" dominant-baseline="text-before-edge">books</text></g><g stroke-opacity="0.8" fill-opacity="0.8" transform="translate(311 308) rotate(0 32 -41)" stroke="none"><path fill="#1e1e1e" d="M -10.43,0.74 Q -10.43,0.74 -10.84,-3.27 -11.26,-7.28 -11.73,-11.73 -12.20,-16.18 -12.54,-21.79 -12.89,-27.41 -12.78,-33.29 -12.67,-39.18 -12.71,-45.04 -12.74,-50.91 -12.38,-57.43 -12.02,-63.95 -11.59,-68.65 -11.15,-73.34 -6.07,-82.43 -1.00,-91.52 4.42,-92.07 9.84,-92.62 14.43,-91.17 19.02,-89.71 24.26,-89.20 29.51,-88.70 34.58,-88.86 39.66,-89.03 45.92,-88.33 52.19,-87.64 56.61,-88.09 61.03,-88.53 63.01,-88.54 65.00,-88.55 67.32,-88.17 69.64,-87.79 71.72,-86.69 73.81,-85.58 75.43,-83.87 77.04,-82.16 78.03,-80.03 79.02,-77.89 79.28,-75.55 79.53,-73.21 79.02,-70.91 78.52,-68.61 77.30,-66.59 76.09,-64.57 74.29,-63.04 72.50,-61.52 70.31,-60.65 68.12,-59.78 65.77,-59.65 63.42,-59.52 61.15,-60.15 58.88,-60.78 56.93,-62.11 54.98,-63.43 53.56,-65.30 52.13,-67.18 51.38,-69.41 50.63,-71.64 50.63,-74.00 50.63,-76.35 51.38,-78.58 52.13,-80.82 53.56,-82.69 54.99,-84.57 56.94,-85.89 58.89,-87.21 61.16,-87.84 63.42,-88.47 65.78,-88.34 68.13,-88.21 70.32,-87.34 72.50,-86.47 74.30,-84.94 76.09,-83.42 77.31,-81.40 78.52,-79.38 79.03,-77.08 79.53,-74.78 79.28,-72.44 79.02,-70.10 78.03,-67.96 77.04,-65.82 75.42,-64.11 73.80,-62.40 71.72,-61.30 69.64,-60.20 67.31,-59.82 64.99,-59.44 64.99,-59.44 64.99,-59.44 60.78,-59.50 56.56,-59.56 51.65,-59.80 46.73,-60.04 42.24,-60.53 37.74,-61.02 32.69,-61.27 27.65,-61.52 21.34,-62.34 15.03,-63.17 8.43,-65.64 1.84,-68.11 7.99,-69.76 14.14,-71.41 13.90,-67.16 13.65,-62.90 13.16,-56.80 12.68,-50.71 12.25,-43.88 11.82,-37.05 11.36,-32.25 10.90,-27.46 10.69,-23.12 10.48,-18.78 10.29,-13.79 10.11,-8.81 10.27,-4.77 10.43,-0.74 10.37,0.51 10.31,1.77 9.94,2.98 9.58,4.18 8.94,5.27 8.30,6.36 7.42,7.26 6.54,8.16 5.46,8.82 4.39,9.49 3.19,9.88 1.99,10.26 0.73,10.35 -0.51,10.44 -1.76,10.23 -3.00,10.02 -4.15,9.51 -5.31,9.01 -6.31,8.24 -7.31,7.47 -8.10,6.49 -8.89,5.50 -9.42,4.36 -9.95,3.22 -10.19,1.98 -10.43,0.74 -10.43,0.74 L -10.43,0.74 Z"></path></g><g stroke-opacity="0.8" fill-opacity="0.8" transform="translate(463 294) rotate(0 -20.5 -48)" stroke="none"><path fill="#1e1e1e" d="M -9.74,0 Q -9.74,0 -9.20,-8.33 -8.67,-16.67 -8.63,-23.38 -8.59,-30.08 -8.77,-38.55 -8.94,-47.03 -9.25,-51.85 -9.55,-56.67 -9.45,-60.96 -9.35,-65.24 -9.87,-70.89 -10.40,-76.54 -11.10,-82.98 -11.81,-89.42 -8.28,-86.39 -4.75,-83.35 -10.01,-80.80 -15.28,-78.24 -20.04,-77.92 -24.81,-77.60 -29.53,-77.39 -34.25,-77.18 -38.62,-77.07 -42.99,-76.96 -45.24,-77.33 -47.48,-77.69 -49.48,-78.76 -51.49,-79.82 -53.05,-81.47 -54.61,-83.12 -55.57,-85.18 -56.52,-87.24 -56.77,-89.50 -57.01,-91.76 -56.52,-93.97 -56.03,-96.19 -54.86,-98.14 -53.69,-100.08 -51.96,-101.55 -50.23,-103.02 -48.12,-103.86 -46.01,-104.70 -43.74,-104.83 -41.48,-104.95 -39.29,-104.34 -37.10,-103.73 -35.22,-102.46 -33.34,-101.18 -31.97,-99.38 -30.59,-97.57 -29.87,-95.42 -29.14,-93.26 -29.14,-90.99 -29.14,-88.72 -29.87,-86.57 -30.59,-84.42 -31.97,-82.61 -33.34,-80.80 -35.22,-79.53 -37.10,-78.25 -39.29,-77.65 -41.48,-77.04 -43.75,-77.16 -46.02,-77.29 -48.12,-78.13 -50.23,-78.97 -51.96,-80.44 -53.70,-81.91 -54.87,-83.86 -56.04,-85.80 -56.52,-88.02 -57.01,-90.24 -56.76,-92.50 -56.52,-94.75 -55.56,-96.81 -54.61,-98.88 -53.05,-100.52 -51.49,-102.17 -49.48,-103.23 -47.47,-104.30 -45.23,-104.66 -42.99,-105.03 -42.99,-105.03 -43.00,-105.03 -39.41,-104.95 -35.83,-104.86 -30.99,-104.66 -26.16,-104.46 -21.91,-104.34 -17.65,-104.21 -12.91,-104.84 -8.16,-105.47 -3.62,-105.38 0.90,-105.30 6.61,-97.90 12.33,-90.50 12.78,-84.43 13.24,-78.36 13.33,-72.33 13.42,-66.29 12.45,-61.26 11.48,-56.22 10.79,-51.01 10.09,-45.80 9.34,-37.94 8.59,-30.08 8.63,-23.38 8.67,-16.67 9.20,-8.33 9.74,0 9.59,1.16 9.45,2.33 9.04,3.42 8.62,4.52 7.95,5.49 7.29,6.45 6.41,7.23 5.53,8.01 4.49,8.56 3.45,9.10 2.31,9.38 1.17,9.67 -0.00,9.67 -1.17,9.67 -2.31,9.38 -3.45,9.10 -4.49,8.56 -5.53,8.01 -6.41,7.23 -7.29,6.45 -7.95,5.49 -8.62,4.52 -9.04,3.42 -9.45,2.33 -9.59,1.16 -9.74,-0.00 -9.74,-0.00 L -9.74,0 Z"></path></g><g stroke-opacity="0.8" fill-opacity="0.8" transform="translate(484 176) rotate(0 67.03333282470703 27.599999999999994)"><text x="0" y="0" font-family="Helvetica, Segoe UI Emoji" font-size="16px" fill="#1e1e1e" text-anchor="start" style="white-space: pre;" direction="ltr" dominant-baseline="text-before-edge">study real-world</text><text x="0" y="18.4" font-family="Helvetica, Segoe UI Emoji" font-size="16px" fill="#1e1e1e" text-anchor="start" style="white-space: pre;" direction="ltr" dominant-baseline="text-before-edge">implementations,</text><text x="0" y="36.8" font-family="Helvetica, Segoe UI Emoji" font-size="16px" fill="#1e1e1e" text-anchor="start" style="white-space: pre;" direction="ltr" dominant-baseline="text-before-edge">wider problem sets</text></g><g stroke-opacity="0.8" fill-opacity="0.8" transform="translate(309 236) rotate(0 52.5 -17.5)" stroke="none"><path fill="#1e1e1e" d="M -10.29,-0.79 Q -10.29,-0.79 -10.15,-4.54 -10.02,-8.30 -8.86,-14.05 -7.69,-19.80 -5.53,-25.05 -3.37,-30.30 -1.45,-34.32 0.45,-38.35 5.05,-41.29 9.66,-44.22 14.94,-45.22 20.22,-46.22 26.28,-47.02 32.33,-47.82 36.59,-48.06 40.86,-48.30 45.71,-48.45 50.56,-48.59 56.88,-48.35 63.20,-48.11 67.76,-47.10 72.33,-46.08 77.17,-45.07 82.02,-44.05 86.62,-44.29 91.22,-44.53 96.07,-44.61 100.91,-44.70 103.45,-44.71 106.00,-44.72 108.35,-44.34 110.70,-43.95 112.80,-42.83 114.91,-41.72 116.55,-39.99 118.18,-38.26 119.18,-36.10 120.19,-33.93 120.44,-31.57 120.70,-29.20 120.19,-26.87 119.68,-24.54 118.45,-22.50 117.22,-20.46 115.40,-18.92 113.59,-17.38 111.37,-16.49 109.16,-15.61 106.78,-15.48 104.40,-15.35 102.11,-15.99 99.81,-16.63 97.84,-17.97 95.87,-19.30 94.42,-21.20 92.98,-23.10 92.22,-25.36 91.46,-27.61 91.46,-30.00 91.46,-32.38 92.22,-34.64 92.98,-36.90 94.43,-38.79 95.87,-40.69 97.84,-42.03 99.81,-43.36 102.11,-44.00 104.41,-44.64 106.78,-44.51 109.16,-44.38 111.38,-43.49 113.59,-42.61 115.41,-41.07 117.22,-39.53 118.45,-37.48 119.68,-35.44 120.19,-33.12 120.70,-30.79 120.44,-28.42 120.18,-26.05 119.18,-23.89 118.18,-21.73 116.54,-20.00 114.90,-18.27 112.80,-17.15 110.69,-16.04 108.34,-15.65 105.99,-15.27 105.99,-15.27 105.99,-15.27 100.53,-15.32 95.07,-15.38 90.25,-15.50 85.43,-15.63 80.28,-16.22 75.13,-16.82 70.95,-17.65 66.76,-18.49 61.18,-19.85 55.60,-21.21 50.67,-21.37 45.73,-21.53 40.08,-21.56 34.44,-21.58 29.52,-21.07 24.60,-20.55 19.76,-20.01 14.93,-19.47 18.37,-23.27 21.81,-27.08 19.53,-22.75 17.25,-18.43 14.21,-12.53 11.17,-6.64 10.73,-2.92 10.29,0.79 10.05,2.01 9.80,3.23 9.27,4.35 8.74,5.48 7.96,6.45 7.18,7.42 6.18,8.17 5.19,8.92 4.05,9.41 2.91,9.90 1.68,10.11 0.45,10.31 -0.78,10.22 -2.02,10.12 -3.21,9.73 -4.39,9.34 -5.44,8.68 -6.50,8.02 -7.36,7.12 -8.23,6.23 -8.85,5.15 -9.48,4.08 -9.83,2.88 -10.18,1.69 -10.24,0.45 -10.29,-0.79 -10.29,-0.79 L -10.29,-0.79 Z"></path></g><g stroke-opacity="0.8" fill-opacity="0.8" transform="translate(202 202) rotate(0 37.599998474121094 27.599999999999994)"><text x="0" y="0" font-family="Helvetica, Segoe UI Emoji" font-size="16px" fill="#1e1e1e" text-anchor="start" style="white-space: pre;" direction="ltr" dominant-baseline="text-before-edge">Rearrange</text><text x="0" y="18.4" font-family="Helvetica, Segoe UI Emoji" font-size="16px" fill="#1e1e1e" text-anchor="start" style="white-space: pre;" direction="ltr" dominant-baseline="text-before-edge">topics</text><text x="0" y="36.8" font-family="Helvetica, Segoe UI Emoji" font-size="16px" fill="#1e1e1e" text-anchor="start" style="white-space: pre;" direction="ltr" dominant-baseline="text-before-edge">write</text></g><g stroke-linecap="round"><g stroke-opacity="0.8" fill-opacity="0.8" transform="translate(13 402) rotate(0 129.5 -152.5)"><path d="M0 0 C43.17 -50.83, 215.83 -254.17, 259 -305 M0 0 C43.17 -50.83, 215.83 -254.17, 259 -305" stroke="#1e1e1e" stroke-width="4" fill="none"></path></g><g stroke-opacity="0.8" fill-opacity="0.8" transform="translate(13 402) rotate(0 129.5 -152.5)"><path d="M248.57 -276.87 C252.2 -286.66, 255.83 -296.45, 259 -305 M248.57 -276.87 C250.72 -282.65, 252.86 -288.43, 259 -305" stroke="#1e1e1e" stroke-width="4" fill="none"></path></g><g stroke-opacity="0.8" fill-opacity="0.8" transform="translate(13 402) rotate(0 129.5 -152.5)"><path d="M232.93 -290.15 C242 -295.32, 251.07 -300.49, 259 -305 M232.93 -290.15 C238.29 -293.2, 243.65 -296.26, 259 -305" stroke="#1e1e1e" stroke-width="4" fill="none"></path></g></g><mask></mask><g stroke-opacity="0.8" fill-opacity="0.8" transform="translate(10 264) rotate(0 35.25 9.199999999999989)"><text x="0" y="0" font-family="Helvetica, Segoe UI Emoji" font-size="16px" fill="#1e1e1e" text-anchor="start" style="white-space: pre;" direction="ltr" dominant-baseline="text-before-edge">Ambiguity</text></g><g stroke-linecap="round"><g stroke-opacity="0.8" fill-opacity="0.8" transform="translate(857.4785908781483 416.52212389380543) rotate(0 -135.73929543907423 -158.26106194690271)"><path d="M0 0 C-45.25 -52.75, -226.23 -263.77, -271.48 -316.52 M0 0 C-45.25 -52.75, -226.23 -263.77, -271.48 -316.52" stroke="#1e1e1e" stroke-width="4" fill="none"></path></g><g stroke-opacity="0.8" fill-opacity="0.8" transform="translate(857.4785908781483 416.52212389380543) rotate(0 -135.73929543907423 -158.26106194690271)"><path d="M-245.34 -301.8 C-255.42 -307.48, -265.5 -313.16, -271.48 -316.52 M-245.34 -301.8 C-254.54 -306.98, -263.74 -312.16, -271.48 -316.52" stroke="#1e1e1e" stroke-width="4" fill="none"></path></g><g stroke-opacity="0.8" fill-opacity="0.8" transform="translate(857.4785908781483 416.52212389380543) rotate(0 -135.73929543907423 -158.26106194690271)"><path d="M-260.91 -288.44 C-264.99 -299.27, -269.06 -310.11, -271.48 -316.52 M-260.91 -288.44 C-264.63 -298.33, -268.35 -308.21, -271.48 -316.52" stroke="#1e1e1e" stroke-width="4" fill="none"></path></g></g><mask></mask><g stroke-opacity="0.8" fill-opacity="0.8" transform="translate(757.3045779441794 168.52191967324717) rotate(0 104.93333435058594 11.200013614703892)"><text x="0" y="0" font-family="Helvetica, Segoe UI Emoji" font-size="19.478284547311105px" fill="#1e1e1e" text-anchor="start" style="white-space: pre;" direction="ltr" dominant-baseline="text-before-edge">Subject matter expertise</text></g><g stroke-opacity="0.8" fill-opacity="0.8" stroke-linecap="round" transform="translate(357 10) rotate(0 68.5 40)"><path d="M137 40 C137 41.74, 136.8 43.5, 136.41 45.22 C136.02 46.95, 135.44 48.67, 134.67 50.35 C133.89 52.03, 132.93 53.7, 131.79 55.31 C130.65 56.92, 129.31 58.49, 127.82 60 C126.33 61.51, 124.66 62.97, 122.84 64.35 C121.03 65.73, 119.04 67.05, 116.94 68.28 C114.83 69.51, 112.56 70.67, 110.2 71.73 C107.84 72.79, 105.33 73.77, 102.75 74.64 C100.17 75.51, 97.47 76.29, 94.71 76.96 C91.96 77.62, 89.11 78.19, 86.23 78.64 C83.35 79.09, 80.4 79.43, 77.44 79.66 C74.49 79.88, 71.48 80, 68.5 80 C65.52 80, 62.51 79.88, 59.56 79.66 C56.6 79.43, 53.65 79.09, 50.77 78.64 C47.89 78.19, 45.04 77.62, 42.29 76.96 C39.53 76.29, 36.83 75.51, 34.25 74.64 C31.67 73.77, 29.16 72.79, 26.8 71.73 C24.44 70.67, 22.17 69.51, 20.06 68.28 C17.96 67.05, 15.97 65.73, 14.16 64.35 C12.34 62.97, 10.67 61.51, 9.18 60 C7.69 58.49, 6.35 56.92, 5.21 55.31 C4.07 53.7, 3.11 52.03, 2.33 50.35 C1.56 48.67, 0.98 46.95, 0.59 45.22 C0.2 43.5, 0 41.74, 0 40 C0 38.26, 0.2 36.5, 0.59 34.78 C0.98 33.05, 1.56 31.33, 2.33 29.65 C3.11 27.97, 4.07 26.3, 5.21 24.69 C6.35 23.08, 7.69 21.51, 9.18 20 C10.67 18.49, 12.34 17.03, 14.16 15.65 C15.97 14.27, 17.96 12.95, 20.06 11.72 C22.17 10.49, 24.44 9.33, 26.8 8.27 C29.16 7.21, 31.67 6.23, 34.25 5.36 C36.83 4.49, 39.53 3.71, 42.29 3.04 C45.04 2.38, 47.89 1.81, 50.77 1.36 C53.65 0.91, 56.6 0.57, 59.56 0.34 C62.51 0.12, 65.52 0, 68.5 0 C71.48 0, 74.49 0.12, 77.44 0.34 C80.4 0.57, 83.35 0.91, 86.23 1.36 C89.11 1.81, 91.96 2.38, 94.71 3.04 C97.47 3.71, 100.17 4.49, 102.75 5.36 C105.33 6.23, 107.84 7.21, 110.2 8.27 C112.56 9.33, 114.83 10.49, 116.94 11.72 C119.04 12.95, 121.03 14.27, 122.84 15.65 C124.66 17.03, 126.33 18.49, 127.82 20 C129.31 21.51, 130.65 23.08, 131.79 24.69 C132.93 26.3, 133.89 27.97, 134.67 29.65 C135.44 31.33, 136.02 33.05, 136.41 34.78 C136.8 36.5, 136.9 39.13, 137 40 C137.1 40.87, 137.1 39.13, 137 40" stroke="#1e1e1e" stroke-width="4" fill="none"></path></g><g stroke-opacity="0.8" fill-opacity="0.8" stroke-linecap="round" transform="translate(386 10) rotate(0 36 38)"><path d="M46.25 9.75 M46.25 9.75 C50.98 15.33, 55.7 20.92, 62.75 29.25 M46.25 9.75 C51.11 15.5, 55.98 21.25, 62.75 29.25 M62.75 29.25 C72 39, 72 39, 62.75 48.75 M62.75 29.25 C72 39, 72 39, 62.75 48.75 M62.75 48.75 C58.9 52.84, 55.04 56.92, 46.25 66.25 M62.75 48.75 C58.3 53.47, 53.84 58.2, 46.25 66.25 M46.25 66.25 C37 76, 37 76, 27.75 66.25 M46.25 66.25 C37 76, 37 76, 27.75 66.25 M27.75 66.25 C21.11 59.97, 14.47 53.69, 9.25 48.75 M27.75 66.25 C20.4 59.3, 13.05 52.34, 9.25 48.75 M9.25 48.75 C0 39, 0 39, 9.25 29.25 M9.25 48.75 C0 39, 0 39, 9.25 29.25 M9.25 29.25 C13.62 24.64, 18 20.03, 27.75 9.75 M9.25 29.25 C13.16 25.13, 17.07 21.01, 27.75 9.75 M27.75 9.75 C37 0, 37 0, 46.25 9.75 M27.75 9.75 C37 0, 37 0, 46.25 9.75" stroke="#1e1e1e" stroke-width="4" fill="none"></path></g></svg>