<svg version="1.1" xmlns="http://www.w3.org/2000/svg" viewBox="0 0 873.0024236993102 554.7676512495603" width="1746.0048473986203" height="1109.5353024991207">
  <!-- svg-source:excalidraw -->
  
  <defs>
    <style class="style-fonts">
      @font-face {
        font-family: "Virgil";
        src: url("https://excalidraw.com/Virgil.woff2");
      }
      @font-face {
        font-family: "Cascadia";
        src: url("https://excalidraw.com/Cascadia.woff2");
      }
    </style>
    
  </defs>
  <rect x="0" y="0" width="873.0024236993102" height="554.7676512495603" fill="#ffffff"></rect><g stroke-linecap="round"><g transform="translate(237.7574826478066 401.81890493701485) rotate(0 -112.75505894849637 21.948746312545495)"><path d="M0 0 C0.21 -10.74, 0.41 -21.48, 0.63 -32.83 M0 0 C0.21 -10.97, 0.42 -21.95, 0.63 -32.83 M0.63 -32.83 C-13.7 -44.82, -28.02 -56.82, -69.79 -91.78 M0.63 -32.83 C-26.48 -55.53, -53.6 -78.23, -69.79 -91.78 M-69.79 -91.78 C-107.89 -91.79, -145.98 -91.8, -226.68 -91.82 M-69.79 -91.78 C-105.83 -91.79, -141.87 -91.8, -226.68 -91.82 M-226.68 -91.82 C-227.03 -18.32, -227.38 55.17, -227.76 132.86 M-226.68 -91.82 C-227.05 -13.8, -227.43 64.22, -227.76 132.86 M-227.76 132.86 C-148.96 133.84, -70.16 134.82, 2.25 135.72 M-227.76 132.86 C-136.21 134, -44.66 135.13, 2.25 135.72 M2.25 135.72 C2.01 106.18, 1.77 76.65, 1.53 47.01 M2.25 135.72 C2.09 116.12, 1.93 96.52, 1.53 47.01" stroke="#000" stroke-width="4" fill="none"></path></g></g><mask></mask><g stroke-linecap="round"><g transform="translate(860.7550589484963 409.0512536874545) rotate(0 -112.75505894849636 21.948746312545495)"><path d="M0 0 C0.15 -7.58, 0.29 -15.16, 0.63 -32.83 M0 0 C0.15 -8.03, 0.31 -16.06, 0.63 -32.83 M0.63 -32.83 C-22.32 -52.04, -45.27 -71.25, -69.79 -91.78 M0.63 -32.83 C-18.29 -48.66, -37.21 -64.5, -69.79 -91.78 M-69.79 -91.78 C-113.71 -91.79, -157.62 -91.8, -226.68 -91.82 M-69.79 -91.78 C-131.63 -91.8, -193.46 -91.81, -226.68 -91.82 M-226.68 -91.82 C-226.91 -42.59, -227.15 6.64, -227.76 132.86 M-226.68 -91.82 C-226.92 -40.4, -227.17 11.02, -227.76 132.86 M-227.76 132.86 C-178.6 133.47, -129.45 134.08, 2.25 135.72 M-227.76 132.86 C-141.38 133.93, -55.01 135.01, 2.25 135.72 M2.25 135.72 C2.05 111.34, 1.85 86.96, 1.53 47.01 M2.25 135.72 C2.04 110.44, 1.84 85.16, 1.53 47.01" stroke="#000" stroke-width="4" fill="none"></path></g></g><mask></mask><g transform="translate(690 370) rotate(0 14.666666984558105 70)"><text x="0" y="0" font-family="Cascadia, Segoe UI Emoji" font-size="16.66666666666667px" fill="#1e1e1e" text-anchor="start" style="white-space: pre;" direction="ltr" dominant-baseline="text-before-edge">1. </text><text x="0" y="20.000000000000004" font-family="Cascadia, Segoe UI Emoji" font-size="16.66666666666667px" fill="#1e1e1e" text-anchor="start" style="white-space: pre;" direction="ltr" dominant-baseline="text-before-edge"></text><text x="0" y="40.00000000000001" font-family="Cascadia, Segoe UI Emoji" font-size="16.66666666666667px" fill="#1e1e1e" text-anchor="start" style="white-space: pre;" direction="ltr" dominant-baseline="text-before-edge">2. </text><text x="0" y="60.000000000000014" font-family="Cascadia, Segoe UI Emoji" font-size="16.66666666666667px" fill="#1e1e1e" text-anchor="start" style="white-space: pre;" direction="ltr" dominant-baseline="text-before-edge"></text><text x="0" y="80.00000000000001" font-family="Cascadia, Segoe UI Emoji" font-size="16.66666666666667px" fill="#1e1e1e" text-anchor="start" style="white-space: pre;" direction="ltr" dominant-baseline="text-before-edge">3.</text><text x="0" y="100.00000000000001" font-family="Cascadia, Segoe UI Emoji" font-size="16.66666666666667px" fill="#1e1e1e" text-anchor="start" style="white-space: pre;" direction="ltr" dominant-baseline="text-before-edge"></text><text x="0" y="120.00000000000003" font-family="Cascadia, Segoe UI Emoji" font-size="16.66666666666667px" fill="#1e1e1e" text-anchor="start" style="white-space: pre;" direction="ltr" dominant-baseline="text-before-edge">4.</text></g><g stroke-linecap="round"><g transform="translate(50.00000000000003 370) rotate(0 0.3416668295831755 70.70364402722566)"><path d="M-0.45 0.69 C-0.27 24.18, 0.05 116.51, 0.08 139.91 M1.51 0.01 C1.63 23.78, -0.37 118.18, -0.83 141.4" stroke="#1e1e1e" stroke-width="1" fill="none"></path></g></g><mask></mask><g stroke-linecap="round"><g transform="translate(110.64107736609881 370.76955658031625) rotate(0 0.5466170934867023 70.50171088354665)"><path d="M0.89 0.18 C0.87 23.63, -0.36 116.8, -0.64 140.15 M-0.11 -0.77 C0.32 22.94, 1.44 118.01, 1.73 141.77" stroke="#1e1e1e" stroke-width="1" fill="none"></path></g></g><mask></mask><g stroke-linecap="round"><g transform="translate(170.3291785043381 371.1964362170547) rotate(0 0.26852255293877647 69.41623094523322)"><path d="M0.86 -1.2 C0.91 21.8, 0.44 115.28, 0.43 139.01 M-0.14 0.79 C-0.23 24.42, -0.4 116.92, -0.3 140.03" stroke="#1e1e1e" stroke-width="1" fill="none"></path></g></g><mask></mask><g stroke-linecap="round"><g transform="translate(170.00000000000003 430) rotate(0 -60.07987715179101 0.1869153890758639)"><path d="M0.4 1.04 C-19.65 0.96, -99.57 -0.62, -119.75 -0.67 M-0.85 0.54 C-21.08 0.63, -100.41 0.8, -120.56 0.52" stroke="#1e1e1e" stroke-width="1" fill="none"></path></g></g><mask></mask><g stroke-linecap="round"><g transform="translate(170.81166577445347 470.7821476176106) rotate(0 -60.26137977425941 0.4716468524444508)"><path d="M0.29 -0.61 C-19.79 -0.55, -100.04 -0.87, -119.91 -0.76 M-1.02 1.69 C-21.3 1.98, -101.12 0.43, -120.81 0.38" stroke="#1e1e1e" stroke-width="1" fill="none"></path></g></g><mask></mask><g stroke-linecap="round"><g transform="translate(171.1016289260239 391.22480595035483) rotate(0 -60.58002576492727 0.20976997660471852)"><path d="M-0.06 -0.12 C-20.28 -0.01, -101.17 0.24, -121.1 0.07 M-1.55 -1.22 C-21.44 -0.86, -99.19 1.51, -118.97 1.64" stroke="#1e1e1e" stroke-width="1" fill="none"></path></g></g><mask></mask><g transform="translate(63.00000000000003 370) rotate(0 17.600000381469727 12)"><text x="0" y="0" font-family="Cascadia, Segoe UI Emoji" font-size="20px" fill="#1e1e1e" text-anchor="start" style="white-space: pre;" direction="ltr" dominant-baseline="text-before-edge">Key</text></g><g transform="translate(130.00000000000003 370) rotate(0 17.600000381469727 12)"><text x="0" y="0" font-family="Cascadia, Segoe UI Emoji" font-size="20px" fill="#1e1e1e" text-anchor="start" style="white-space: pre;" direction="ltr" dominant-baseline="text-before-edge">val</text></g><g transform="translate(29.00000000000003 330) rotate(0 73.80000305175781 16.80000000000001)"><text x="0" y="0" font-family="Cascadia, Segoe UI Emoji" font-size="28px" fill="#1e1e1e" text-anchor="start" style="white-space: pre;" direction="ltr" dominant-baseline="text-before-edge">Reference</text></g><g transform="translate(685 339) rotate(0 65.5999984741211 16.80000000000001)"><text x="0" y="0" font-family="Cascadia, Segoe UI Emoji" font-size="28px" fill="#1e1e1e" text-anchor="start" style="white-space: pre;" direction="ltr" dominant-baseline="text-before-edge">Tutorial</text></g><g stroke-linecap="round"><g transform="translate(237.7574826478066 101.81890493701482) rotate(0 -112.75505894849637 21.94874631254551)"><path d="M0 0 C0.15 -7.64, 0.29 -15.28, 0.63 -32.83 M0 0 C0.2 -10.53, 0.4 -21.05, 0.63 -32.83 M0.63 -32.83 C-19.79 -49.92, -40.21 -67.01, -69.79 -91.78 M0.63 -32.83 C-14.8 -45.75, -30.24 -58.67, -69.79 -91.78 M-69.79 -91.78 C-124.8 -91.8, -179.8 -91.81, -226.68 -91.82 M-69.79 -91.78 C-120.39 -91.79, -170.98 -91.81, -226.68 -91.82 M-226.68 -91.82 C-227.06 -13.1, -227.43 65.62, -227.76 132.86 M-226.68 -91.82 C-226.94 -37.18, -227.2 17.47, -227.76 132.86 M-227.76 132.86 C-169.25 133.59, -110.74 134.31, 2.25 135.72 M-227.76 132.86 C-147.19 133.86, -66.63 134.86, 2.25 135.72 M2.25 135.72 C2.1 117.07, 1.95 98.42, 1.53 47.01 M2.25 135.72 C1.99 103.24, 1.72 70.76, 1.53 47.01" stroke="#000" stroke-width="4" fill="none"></path></g></g><mask></mask><g stroke-linecap="round"><g transform="translate(860.7550589484963 109.05125368745436) rotate(0 -112.75505894849636 21.94874631254551)"><path d="M0 0 C0.23 -11.79, 0.45 -23.58, 0.63 -32.83 M0 0 C0.18 -9.11, 0.35 -18.23, 0.63 -32.83 M0.63 -32.83 C-26.66 -55.67, -53.94 -78.51, -69.79 -91.78 M0.63 -32.83 C-23.66 -53.16, -47.94 -73.49, -69.79 -91.78 M-69.79 -91.78 C-111.87 -91.79, -153.94 -91.8, -226.68 -91.82 M-69.79 -91.78 C-119.82 -91.79, -169.84 -91.81, -226.68 -91.82 M-226.68 -91.82 C-227.01 -21.57, -227.35 48.69, -227.76 132.86 M-226.68 -91.82 C-227.1 -3.25, -227.53 85.31, -227.76 132.86 M-227.76 132.86 C-153.9 133.78, -80.05 134.69, 2.25 135.72 M-227.76 132.86 C-155.85 133.75, -83.95 134.65, 2.25 135.72 M2.25 135.72 C2.08 114.82, 1.91 93.93, 1.53 47.01 M2.25 135.72 C2.06 112.65, 1.88 89.59, 1.53 47.01" stroke="#000" stroke-width="4" fill="none"></path></g></g><mask></mask><g transform="translate(690 69.99999999999986) rotate(0 14.666666984558105 70)"><text x="0" y="0" font-family="Cascadia, Segoe UI Emoji" font-size="16.66666666666667px" fill="#1e1e1e" text-anchor="start" style="white-space: pre;" direction="ltr" dominant-baseline="text-before-edge">1. </text><text x="0" y="20.000000000000004" font-family="Cascadia, Segoe UI Emoji" font-size="16.66666666666667px" fill="#1e1e1e" text-anchor="start" style="white-space: pre;" direction="ltr" dominant-baseline="text-before-edge"></text><text x="0" y="40.00000000000001" font-family="Cascadia, Segoe UI Emoji" font-size="16.66666666666667px" fill="#1e1e1e" text-anchor="start" style="white-space: pre;" direction="ltr" dominant-baseline="text-before-edge">2. </text><text x="0" y="60.000000000000014" font-family="Cascadia, Segoe UI Emoji" font-size="16.66666666666667px" fill="#1e1e1e" text-anchor="start" style="white-space: pre;" direction="ltr" dominant-baseline="text-before-edge"></text><text x="0" y="80.00000000000001" font-family="Cascadia, Segoe UI Emoji" font-size="16.66666666666667px" fill="#1e1e1e" text-anchor="start" style="white-space: pre;" direction="ltr" dominant-baseline="text-before-edge">3.</text><text x="0" y="100.00000000000001" font-family="Cascadia, Segoe UI Emoji" font-size="16.66666666666667px" fill="#1e1e1e" text-anchor="start" style="white-space: pre;" direction="ltr" dominant-baseline="text-before-edge"></text><text x="0" y="120.00000000000003" font-family="Cascadia, Segoe UI Emoji" font-size="16.66666666666667px" fill="#1e1e1e" text-anchor="start" style="white-space: pre;" direction="ltr" dominant-baseline="text-before-edge">4.</text></g><g stroke-linecap="round"><g transform="translate(50.0000000000004 69.99999999999986) rotate(0 -0.3832476811657415 69.36640900129453)"><path d="M-0.12 -0.31 C-0.04 23.17, 0.97 116.91, 0.87 140.25 M-1.65 -1.52 C-1.67 21.63, 0.41 114.52, 0.39 138.26" stroke="#1e1e1e" stroke-width="1" fill="none"></path></g></g><mask></mask><g stroke-linecap="round"><g transform="translate(110.64107736609859 70.7695565803161) rotate(0 0.48754129845661964 70.23051211040467)"><path d="M0.87 0.25 C0.78 23.59, -0.59 116.47, -0.69 139.73 M-0.13 -0.67 C0.18 22.88, 1.7 117.52, 1.66 141.13" stroke="#1e1e1e" stroke-width="1" fill="none"></path></g></g><mask></mask><g stroke-linecap="round"><g transform="translate(170.32917850433788 71.19643621705458) rotate(0 0.22775463616474667 69.88500297080728)"><path d="M-0.69 -0.27 C-0.79 22.99, 0.14 116.29, 0.26 139.79 M1.15 -1.45 C0.84 21.97, -0.23 117.85, -0.54 141.22" stroke="#1e1e1e" stroke-width="1" fill="none"></path></g></g><mask></mask><g stroke-linecap="round"><g transform="translate(169.99999999999991 129.99999999999997) rotate(0 -60.31817889193074 -0.31206959998402795)"><path d="M0.26 -0.21 C-19.62 -0.03, -100.03 0.57, -119.97 0.76 M-1.06 -1.36 C-21.03 -1.5, -101.11 -1.03, -120.9 -0.96" stroke="#1e1e1e" stroke-width="1" fill="none"></path></g></g><mask></mask><g stroke-linecap="round"><g transform="translate(170.81166577445347 170.78214761761043) rotate(0 -59.96804568076507 0.14457197810088473)"><path d="M0.03 0.76 C-19.91 0.95, -99.21 1.14, -119.36 0.91 M-1.41 0.12 C-21.47 -0.01, -100.48 -0.77, -119.97 -0.73" stroke="#1e1e1e" stroke-width="1" fill="none"></path></g></g><mask></mask><g stroke-linecap="round"><g transform="translate(171.10162892602366 91.22480595035492) rotate(0 -60.088273486867564 0.15051541663706303)"><path d="M0.64 0.91 C-19.5 0.69, -100.69 -0.5, -120.82 -0.61 M-0.48 0.35 C-20.24 0.2, -98.46 0.38, -118.54 0.6" stroke="#1e1e1e" stroke-width="1" fill="none"></path></g></g><mask></mask><g transform="translate(63.0000000000004 69.99999999999986) rotate(0 17.600000381469712 12)"><text x="0" y="0" font-family="Cascadia, Segoe UI Emoji" font-size="20px" fill="#1e1e1e" text-anchor="start" style="white-space: pre;" direction="ltr" dominant-baseline="text-before-edge">Key</text></g><g transform="translate(129.99999999999991 69.99999999999986) rotate(0 17.600000381469727 12)"><text x="0" y="0" font-family="Cascadia, Segoe UI Emoji" font-size="20px" fill="#1e1e1e" text-anchor="start" style="white-space: pre;" direction="ltr" dominant-baseline="text-before-edge">val</text></g><g transform="translate(29.000000000000483 29.999999999999744) rotate(0 73.80000305175781 16.80000000000001)"><text x="0" y="0" font-family="Cascadia, Segoe UI Emoji" font-size="28px" fill="#1e1e1e" text-anchor="start" style="white-space: pre;" direction="ltr" dominant-baseline="text-before-edge">Reference</text></g><g transform="translate(685 38.999999999999744) rotate(0 65.5999984741211 16.80000000000001)"><text x="0" y="0" font-family="Cascadia, Segoe UI Emoji" font-size="28px" fill="#1e1e1e" text-anchor="start" style="white-space: pre;" direction="ltr" dominant-baseline="text-before-edge">Tutorial</text></g></svg>