<svg version="1.1" xmlns="http://www.w3.org/2000/svg" viewBox="0 0 860 340.21209702966905" width="1720" height="680.4241940593381">
  <!-- svg-source:excalidraw -->
  
  <defs>
    <style class="style-fonts">
      @font-face {
        font-family: "Inter, sans serif";
      }
      @font-face {
        font-family: "Roboto Mono, monospace";
      }
    </style>
    
  </defs>
  <rect x="0" y="0" width="860" height="340.21209702966905" fill="#ffffff"></rect><g stroke-linecap="round"><g transform="translate(70.03951488968914 310.7426168727409) rotate(0 139.8922076389473 -147.02612708018398)"><path d="M0.93 0.32 C14.02 0.25, 59.52 13.81, 79.52 0.28 C99.51 -13.24, 110.82 -30.66, 120.9 -80.83 C130.98 -131, 133.45 -300.8, 140.01 -300.74 C146.58 -300.68, 150.25 -130.71, 160.31 -80.47 C170.36 -30.24, 180.46 -12.83, 200.32 0.67 C220.18 14.17, 266.35 0.79, 279.46 0.52 M-0.04 -0.56 C12.77 -1.06, 58.21 11.54, 78.31 -1.69 C98.42 -14.92, 110.28 -30.23, 120.61 -79.95 C130.93 -129.67, 133.87 -299.97, 140.27 -300.03 C146.67 -300.09, 149.33 -130.33, 158.99 -80.33 C168.66 -30.33, 178.1 -13.32, 198.24 -0.02 C218.37 13.28, 266.01 -0.26, 279.82 -0.55" stroke="#e03131" stroke-width="4" fill="none"></path></g></g><mask></mask><g stroke-linecap="round" transform="translate(30 170.00000000000003) rotate(0 190 80)"><path d="M7.86 8.16 C7.86 8.16, 7.86 8.16, 7.86 8.16 M7.86 8.16 C7.86 8.16, 7.86 8.16, 7.86 8.16 M8.78 31.49 C15.76 23.7, 21.19 18.87, 34.37 2.05 M8.78 31.49 C13.08 25.99, 18.71 19.08, 34.37 2.05 M8.39 56.32 C21.08 39.98, 34.13 27.05, 55.63 1.98 M8.39 56.32 C21.03 43.13, 32.01 29.92, 55.63 1.98 M8.66 80.4 C23.35 63.27, 41.1 44.46, 76.89 1.91 M8.66 80.4 C29.72 54.23, 52.02 28.31, 76.89 1.91 M8.93 104.49 C33.63 74.66, 63.28 43.9, 98.15 1.85 M8.93 104.49 C31.49 80.88, 51.28 56.84, 98.15 1.85 M1.98 136.87 C36.58 96.37, 69.29 58.16, 119.41 1.78 M1.98 136.87 C47.51 83.91, 93.7 29.95, 119.41 1.78 M10.12 151.89 C52.71 106.14, 94.1 57.02, 140.67 1.71 M10.12 151.89 C50.75 103.72, 90.9 58.77, 140.67 1.71 M22.85 161.64 C71.01 103.54, 122.25 45.86, 161.28 2.39 M22.85 161.64 C72.75 104.99, 122.89 46.49, 161.28 2.39 M39.51 166.85 C92.1 105.47, 143.33 48.79, 182.54 2.32 M39.51 166.85 C86.63 112.41, 134.97 58.48, 182.54 2.32 M60.77 166.78 C94.92 125.28, 131.12 87.24, 203.8 2.26 M60.77 166.78 C102.84 121.34, 142.59 74.52, 203.8 2.26 M82.04 166.71 C123.25 117.92, 165.42 69.9, 225.06 2.19 M82.04 166.71 C133.85 107.82, 186.03 49.21, 225.06 2.19 M103.3 166.64 C141.76 122, 179.03 76.5, 246.32 2.12 M103.3 166.64 C142.55 120.65, 182.85 74.04, 246.32 2.12 M124.56 166.57 C161.22 124.01, 197.94 83.25, 267.58 2.05 M124.56 166.57 C163.35 122.86, 199.56 79.35, 267.58 2.05 M145.82 166.51 C193.12 109.64, 242.1 52.25, 288.84 1.98 M145.82 166.51 C200.51 103.44, 254.26 42.21, 288.84 1.98 M167.08 166.44 C204.56 124.19, 239.45 83.65, 310.1 1.91 M167.08 166.44 C204.19 122.35, 242.1 77.34, 310.1 1.91 M188.34 166.37 C233.5 116.94, 272.78 69.35, 331.36 1.84 M188.34 166.37 C228.44 119.68, 268.94 72.35, 331.36 1.84 M209.6 166.3 C256.76 114.19, 303.28 57.1, 351.3 3.28 M209.6 166.3 C238.64 130.14, 270.18 95.69, 351.3 3.28 M230.2 166.98 C278.66 109.72, 327.18 53.71, 368.63 7.74 M230.2 166.98 C260.86 133.67, 290.13 98.65, 368.63 7.74 M251.46 166.92 C279.94 133.56, 309.89 99.5, 381.36 17.48 M251.46 166.92 C295.72 115.66, 338.83 65.92, 381.36 17.48 M272.72 166.85 C304.85 129.99, 338.72 89.67, 388.84 33.26 M272.72 166.85 C300.73 134.08, 331.94 98.27, 388.84 33.26 M293.98 166.78 C321.21 135.24, 352.11 101.91, 389.11 57.34 M293.98 166.78 C316.14 142.46, 338.58 116.17, 389.11 57.34 M315.24 166.71 C331.42 147.06, 349.4 129.91, 389.38 81.43 M315.24 166.71 C346.3 133.3, 375.65 98.03, 389.38 81.43 M336.5 166.64 C355.73 143.53, 377.34 121, 389.64 105.51 M336.5 166.64 C353.63 146.8, 370.24 127.57, 389.64 105.51 M363.67 159.78 C368.4 157.03, 369.5 150.99, 378.76 142.42 M363.67 159.78 C368.12 154.39, 373.38 148.05, 378.76 142.42 M12.16 155.2 C12.16 155.2, 12.16 155.2, 12.16 155.2 M12.16 155.2 C12.16 155.2, 12.16 155.2, 12.16 155.2 M36.24 154.94 C27.98 146.74, 22.26 144.72, 6.05 128.7 M36.24 154.94 C25.16 144.29, 13.99 135.15, 6.05 128.7 M61.08 155.33 C48.15 143.72, 32.83 130.28, 5.98 107.44 M61.08 155.33 C48.42 144.4, 35.74 133.95, 5.98 107.44 M85.16 155.06 C58.12 129.08, 26.32 105.07, 5.91 86.18 M85.16 155.06 C67.75 140.97, 49.75 124.2, 5.91 86.18 M109.24 154.79 C87.04 134.98, 66.59 119.64, 6.6 65.57 M109.24 154.79 C85.42 135.8, 62.98 115.31, 6.6 65.57 M134.08 155.18 C108.11 132.89, 78.12 110.05, 6.53 44.31 M134.08 155.18 C104.19 131, 75.92 106.18, 6.53 44.31 M158.16 154.92 C111.11 113.14, 63.61 69.97, 3.44 20.43 M158.16 154.92 C106.66 110.37, 57.35 66.91, 3.44 20.43 M183 155.31 C128.95 108.46, 75.93 62.79, 10.17 5.07 M183 155.31 C147.72 123.42, 110.89 92.24, 10.17 5.07 M207.08 155.04 C150 107.84, 95.26 59.76, 23.68 -4.38 M207.08 155.04 C149.35 104.66, 92.5 55.35, 23.68 -4.38 M231.16 154.78 C161.71 96.11, 97.13 37.82, 40.97 -10.55 M231.16 154.78 C170.26 104.53, 110.96 52.14, 40.97 -10.55 M256 155.17 C187.31 95.33, 117.68 34.62, 65.81 -10.16 M256 155.17 C196.89 102.51, 137.04 49.78, 65.81 -10.16 M280.08 154.9 C205.99 92.85, 135.82 29.02, 89.89 -10.43 M280.08 154.9 C213.36 99.46, 148.36 41.15, 89.89 -10.43 M304.91 155.29 C236.08 93.31, 165.7 31.82, 113.97 -10.69 M304.91 155.29 C250.44 108.32, 196.34 60.65, 113.97 -10.69 M329 155.02 C254.53 87.49, 179.2 22.83, 138.81 -10.3 M329 155.02 C286.52 116.44, 244.84 79.62, 138.81 -10.3 M353.08 154.76 C313.18 121.51, 275.5 89.04, 162.89 -10.57 M353.08 154.76 C285.04 96.47, 218.4 36.35, 162.89 -10.57 M371.88 149.9 C306.33 90.3, 237.77 32.41, 187.73 -10.18 M371.88 149.9 C306.42 93.04, 242.52 37.11, 187.73 -10.18 M381.62 137.17 C338.01 101.15, 295.96 62.87, 211.81 -10.45 M381.62 137.17 C341.66 102.27, 299.85 67.89, 211.81 -10.45 M386.83 120.5 C353.22 92.23, 320.79 62.84, 235.89 -10.71 M386.83 120.5 C356.58 93.82, 325.59 67.78, 235.89 -10.71 M386.76 99.24 C341.97 61.22, 301.65 24.13, 260.73 -10.32 M386.76 99.24 C354.55 70.46, 323.64 41.75, 260.73 -10.32 M386.69 77.98 C361.69 58.48, 338.54 35.37, 284.81 -10.59 M386.69 77.98 C346.08 45.65, 306.27 10.47, 284.81 -10.59 M386.63 56.72 C357.44 31.95, 330.55 8.89, 309.64 -10.2 M386.63 56.72 C363.06 37.56, 340.07 16.56, 309.64 -10.2 M386.56 35.46 C374.04 22.86, 360.94 11.57, 333.73 -10.47 M386.56 35.46 C368.28 18.63, 349.75 1.76, 333.73 -10.47" stroke="#868e96" stroke-width="2" fill="none"></path><path d="M32 0 M32 0 C113.05 0.78, 197.91 -0.52, 348 0 M32 0 C119.03 1.61, 205 1.15, 348 0 M348 0 C369.22 -1.36, 378.24 10.56, 380 32 M348 0 C369.68 -0.78, 378.23 10.31, 380 32 M380 32 C377.83 64.6, 378.76 94.75, 380 128 M380 32 C381.39 57.6, 380.61 81.42, 380 128 M380 128 C378.89 149, 370.32 159.36, 348 160 M380 128 C379.64 150.44, 369.41 157.85, 348 160 M348 160 C242.01 159.91, 137.22 159.31, 32 160 M348 160 C240.77 159.03, 133.45 158.95, 32 160 M32 160 C11.67 160.51, 0.06 147.71, 0 128 M32 160 C9.91 160.42, 1.43 149.75, 0 128 M0 128 C-0.62 99.85, 0.35 76.67, 0 32 M0 128 C-0.15 98.6, -0.62 69.65, 0 32 M0 32 C0.92 11.01, 9.25 -1.21, 32 0 M0 32 C1.94 11.97, 9.03 -1.27, 32 0" stroke="transparent" stroke-width="4" fill="none"></path></g><g transform="translate(-40.97728382563275 222.66254782649898) rotate(269.02870374817644 76.26667022705078 24)"><text x="0" y="0" font-family="monospace" font-size="20px" fill="#1e1e1e" text-anchor="start" style="white-space: pre;" direction="ltr" dominant-baseline="text-before-edge">Allows you to</text><text x="0" y="24" font-family="Cascadia, Segoe UI Emoji" font-size="20px" fill="#1e1e1e" text-anchor="start" style="white-space: pre;" direction="ltr" dominant-baseline="text-before-edge"></text></g><g stroke-linecap="round"><g transform="translate(510.03951488968903 310.95471390240994) rotate(0 140.15197594919704 -147.00887541849383)"><path d="M-1.16 0.47 C12.12 0.74, 60.83 14.51, 80.86 1.02 C100.89 -12.46, 109.13 -30.12, 119.03 -80.45 C128.94 -130.78, 133.66 -301.04, 140.29 -300.95 C146.92 -300.87, 148.69 -130.25, 158.83 -79.96 C168.97 -29.67, 180.85 -12.52, 201.14 0.8 C221.42 14.12, 267.43 0.24, 280.54 -0.04 M0.43 -0.33 C13.52 -0.32, 60.2 12.61, 80.36 -0.56 C100.53 -13.73, 111.37 -29.41, 121.42 -79.37 C131.48 -129.34, 134.19 -300.32, 140.68 -300.35 C147.18 -300.38, 150.6 -129.64, 160.4 -79.55 C170.2 -29.46, 179.31 -12.84, 199.48 0.18 C219.66 13.2, 268.27 -1.1, 281.46 -1.4" stroke="#e03131" stroke-width="4" fill="none"></path></g></g><mask></mask><g stroke-linecap="round" transform="translate(470 230.72945569555455) rotate(0 190 49.741320667057266)"><path d="M5.96 6.51 C5.96 6.51, 5.96 6.51, 5.96 6.51 M5.96 6.51 C5.96 6.51, 5.96 6.51, 5.96 6.51 M9.51 26.82 C15.24 21.07, 18.93 16.83, 29.19 4.18 M9.51 26.82 C15.37 19.78, 22.13 12.44, 29.19 4.18 M9.12 51.65 C23.83 32.5, 40.42 15.04, 50.45 4.11 M9.12 51.65 C24.91 32.32, 41.05 14.04, 50.45 4.11 M3.48 82.53 C30.07 53.88, 53.87 23.16, 71.71 4.04 M3.48 82.53 C30.36 52.59, 58.01 21.34, 71.71 4.04 M11.62 97.55 C33.39 73.53, 53.4 49.59, 92.97 3.97 M11.62 97.55 C42.69 62.37, 70.75 28.36, 92.97 3.97 M28.29 102.77 C52.66 72.15, 81.6 43.1, 114.23 3.9 M28.29 102.77 C47.98 79.83, 67.98 56.53, 114.23 3.9 M49.55 102.7 C73.82 76.17, 96.91 49.42, 135.49 3.83 M49.55 102.7 C70.8 78.06, 91.4 53.88, 135.49 3.83 M70.81 102.63 C90.37 81.62, 108.92 58.77, 156.75 3.76 M70.81 102.63 C103.83 65.32, 137.6 25.77, 156.75 3.76 M92.07 102.56 C116.43 75.09, 140.2 48.99, 178.01 3.69 M92.07 102.56 C113.67 75.27, 136.51 49.59, 178.01 3.69 M113.33 102.49 C144.85 67.56, 173.72 28.83, 199.27 3.62 M113.33 102.49 C135.23 77.87, 154.62 53.89, 199.27 3.62 M134.59 102.42 C155.65 80.16, 174.42 55.03, 219.88 4.31 M134.59 102.42 C167.65 66.03, 198.88 30.94, 219.88 4.31 M155.85 102.35 C187.2 64.01, 224.18 23.8, 241.14 4.24 M155.85 102.35 C185.34 69.74, 212.8 36.6, 241.14 4.24 M177.11 102.28 C203.49 73.45, 227.26 45.57, 262.4 4.17 M177.11 102.28 C210.41 64.59, 243.31 28.5, 262.4 4.17 M198.37 102.22 C222.58 75.89, 243.68 48.54, 283.66 4.1 M198.37 102.22 C218.24 78.66, 237.83 57.09, 283.66 4.1 M218.97 102.9 C248.21 71.33, 275.82 34.95, 304.92 4.03 M218.97 102.9 C239.17 79.92, 258.44 58.11, 304.92 4.03 M240.24 102.83 C271.1 65.99, 307.19 27.26, 326.18 3.97 M240.24 102.83 C261.58 79.2, 283.19 53.02, 326.18 3.97 M261.5 102.76 C282.05 76.32, 303.15 50.22, 347.44 3.9 M261.5 102.76 C287.86 75.54, 312.27 45.3, 347.44 3.9 M282.76 102.69 C300.76 81.37, 318.7 63.53, 368.7 3.83 M282.76 102.69 C310.83 70.45, 337.98 38.08, 368.7 3.83 M304.02 102.63 C320.28 80.09, 342.44 60.17, 380.12 15.08 M304.02 102.63 C326.25 77.86, 348.62 51.98, 380.12 15.08 M325.28 102.56 C342.51 82.81, 360.93 61.89, 390.23 27.84 M325.28 102.56 C349.97 73.62, 374.4 46.7, 390.23 27.84 M346.54 102.49 C360.67 86.09, 371.98 74.23, 390.49 51.92 M346.54 102.49 C355.88 91.5, 363.45 81.75, 390.49 51.92 M9.49 95.79 C9.49 95.79, 9.49 95.79, 9.49 95.79 M9.49 95.79 C9.49 95.79, 9.49 95.79, 9.49 95.79 M30.55 92.9 C24.12 86.8, 14.33 79.17, 7.15 72.56 M30.55 92.9 C22.22 86.2, 15.09 80.61, 7.15 72.56 M54.63 92.63 C41.24 82.03, 26.8 70.7, 7.08 51.3 M54.63 92.63 C43.11 83.81, 31.87 74.38, 7.08 51.3 M79.47 93.02 C60.31 76.1, 42.76 60.79, 7.01 30.04 M79.47 93.02 C64.83 79.79, 49.7 66.74, 7.01 30.04 M103.55 92.75 C66.67 63.24, 29.08 28.68, 6.19 8.12 M103.55 92.75 C82.52 73.31, 58.67 52.85, 6.19 8.12 M128.38 93.14 C93.05 64.8, 58.05 33.51, 18.2 -2.64 M128.38 93.14 C92.3 64.11, 58.52 33.92, 18.2 -2.64 M152.47 92.88 C106.55 54.55, 61.23 13.82, 33.98 -10.13 M152.47 92.88 C107.12 53.42, 61.52 14.89, 33.98 -10.13 M176.55 92.61 C137.31 57.34, 95.96 23.08, 58.06 -10.39 M176.55 92.61 C152.13 69.71, 127.65 49.79, 58.06 -10.39 M201.38 93 C162.81 59.23, 120.89 21.75, 82.9 -10 M201.38 93 C160.12 56.8, 118.51 20.31, 82.9 -10 M225.47 92.73 C188.76 62.18, 152.91 29.6, 106.98 -10.27 M225.47 92.73 C187.29 59.91, 150.73 27.44, 106.98 -10.27 M250.3 93.12 C213.33 61.53, 176.72 30.59, 131.06 -10.53 M250.3 93.12 C224.73 70.24, 199.54 47.31, 131.06 -10.53 M274.38 92.86 C234.77 58.27, 197.11 22.1, 155.9 -10.14 M274.38 92.86 C230.31 54.18, 184.99 15.34, 155.9 -10.14 M299.22 93.25 C270.13 68.25, 242.83 45.06, 179.98 -10.41 M299.22 93.25 C271.95 69.83, 246.09 47.4, 179.98 -10.41 M323.3 92.98 C282.46 59.4, 245.64 25.49, 204.81 -10.02 M323.3 92.98 C299.14 70.71, 271.93 48.6, 204.81 -10.02 M354.93 99.27 C315.43 63.33, 275.71 27.55, 228.89 -10.29 M354.93 99.27 C329.21 75.39, 301.68 53.39, 228.89 -10.29 M372.22 93.1 C331.88 57, 291.38 23.68, 252.98 -10.55 M372.22 93.1 C330.75 57.15, 289 21.41, 252.98 -10.55 M382.72 81.03 C357.05 60.65, 336.15 39.15, 277.81 -10.16 M382.72 81.03 C361.57 61.42, 338.67 43.74, 277.81 -10.16 M388.69 65.02 C357.98 37.19, 325.66 8.56, 301.89 -10.43 M388.69 65.02 C357.28 36.54, 324.14 8.97, 301.89 -10.43 M388.62 43.76 C374.32 29.29, 356.3 15.7, 326.73 -10.04 M388.62 43.76 C372.82 29.61, 356.43 17.02, 326.73 -10.04 M378.74 13.97 C375.23 11.08, 369.36 7.01, 358.36 -3.75 M378.74 13.97 C370.62 8.14, 362.78 1.5, 358.36 -3.75" stroke="#868e96" stroke-width="2" fill="none"></path><path d="M24.87 0 M24.87 0 C152.18 1.17, 280.86 2.76, 355.13 0 M24.87 0 C144.34 0.15, 262.78 0.72, 355.13 0 M355.13 0 C373.04 -0.72, 379.55 7.79, 380 24.87 M355.13 0 C372.08 -0.27, 378.44 9.57, 380 24.87 M380 24.87 C381.82 43.08, 379.21 60.66, 380 74.61 M380 24.87 C380.04 35.03, 379.58 46.88, 380 74.61 M380 74.61 C381.41 89.66, 371.52 100.25, 355.13 99.48 M380 74.61 C380.22 93.42, 372.86 98.5, 355.13 99.48 M355.13 99.48 C284.26 100.27, 212.31 98.38, 24.87 99.48 M355.13 99.48 C252.61 100.45, 151.95 100.58, 24.87 99.48 M24.87 99.48 C7.08 100.95, 1.77 91.47, 0 74.61 M24.87 99.48 C7.31 100.63, 1.63 89.23, 0 74.61 M0 74.61 C0.72 61.05, 0.72 52.22, 0 24.87 M0 74.61 C0.89 60.77, 0.75 47.86, 0 24.87 M0 24.87 C-1.08 9.64, 8.32 1.01, 24.87 0 M0 24.87 C-0.21 9.39, 9.96 -1.47, 24.87 0" stroke="transparent" stroke-width="4" fill="none"></path></g><g transform="translate(415.8605320869606 265.1300087039838) rotate(269.02870374817644 46.93333435058594 12)"><text x="0" y="0" font-family="Cascadia, Segoe UI Emoji, monospace" font-size="20px" fill="#1e1e1e" text-anchor="start" style="white-space: pre;" direction="ltr" dominant-baseline="text-before-edge">Lets you</text></g><g transform="translate(290 70.00000000000003) rotate(0 84.16666412353516 12.5)"><text x="15" y="5" font-family="Gill Sans, Gill Sans MT, Inter, sans-serif" font-size="25px" fill="#343a40" text-anchor="start" style="white-space: pre;" direction="ltr" dominant-baseline="text-before-edge">Less noise...</text></g><g transform="translate(430 90.00000000000003) rotate(0 93.63333129882812 25)"><text x="0" y="0" font-family="Virgil, Segoe UI Emoji" font-size="20px" fill="#e03131" text-anchor="start" style="white-space: pre;" direction="ltr" dominant-baseline="text-before-edge">   </text><text x="20" y="45" font-family="Gill Sans, Gill Sans MT, Inter, sans-serif" font-size="25px" fill="#e03131" text-anchor="start" style="white-space: pre;" direction="ltr" dominant-baseline="text-before-edge">stronger signal</text></g></svg>
