<svg version="1.1" xmlns="http://www.w3.org/2000/svg" viewBox="0 0 147.99515260137952 169.3782707381249" width="295.99030520275903" height="338.7565414762498" filter="invert(93%) hue-rotate(180deg)">
  <!-- svg-source:excalidraw -->
  
  <defs>
    <style class="style-fonts">
      @font-face {
        font-family: "Virgil";
        src: url("https://excalidraw.com/Virgil.woff2");
      }
      @font-face {
        font-family: "Cascadia";
        src: url("https://excalidraw.com/Cascadia.woff2");
      }
    </style>
    
  </defs>
  <g stroke-linecap="round"><g transform="translate(11.250633617007452 70.27965370609934) rotate(0 62.746942683682306 14.409481662963117)"><path d="M0 0 C-0.09 -5.32, -0.17 -10.65, -0.35 -21.55 M0 0 C-0.14 -8.39, -0.27 -16.78, -0.35 -21.55 M-0.35 -21.55 C13.2 -34.94, 26.76 -48.32, 38.84 -60.26 M-0.35 -21.55 C8.5 -30.3, 17.36 -39.04, 38.84 -60.26 M38.84 -60.26 C61.05 -60.26, 83.26 -60.27, 126.14 -60.28 M38.84 -60.26 C66.42 -60.26, 94 -60.27, 126.14 -60.28 M126.14 -60.28 C126.31 -19, 126.48 22.29, 126.74 87.22 M126.14 -60.28 C126.3 -22.1, 126.45 16.08, 126.74 87.22 M126.74 87.22 C89.11 87.78, 51.48 88.33, -1.25 89.1 M126.74 87.22 C90.45 87.76, 54.16 88.29, -1.25 89.1 M-1.25 89.1 C-1.15 74.81, -1.06 60.52, -0.85 30.87 M-1.25 89.1 C-1.12 69.54, -0.98 49.99, -0.85 30.87" stroke="#000" stroke-width="4" fill="none"></path></g></g><mask></mask><g stroke-linecap="round"><g transform="translate(50.97874804851614 11.627642658694867) rotate(0 -19.992993657097713 19.018261629922932)"><path d="M0 0 C-0.12 9.81, -0.24 19.62, -0.46 38.04 M0 0 C-0.16 12.97, -0.32 25.94, -0.46 38.04 M-0.46 38.04 C-14.09 37.92, -27.71 37.79, -39.99 37.68 M-0.46 38.04 C-15.65 37.9, -30.85 37.77, -39.99 37.68" stroke="#000" stroke-width="4" fill="none"></path></g></g><mask></mask><g stroke-linecap="round" transform="translate(58.49757630068967 23.767651249560288) rotate(0 33 16.5)"><path d="M0 0 L66 0 L66 33 L0 33" stroke="none" stroke-width="0" fill="#e9ecef"></path><path d="M0 0 C13.29 0, 26.58 0, 66 0 M0 0 C18 0, 35.99 0, 66 0 M66 0 C66 8.08, 66 16.16, 66 33 M66 0 C66 11.71, 66 23.43, 66 33 M66 33 C42.08 33, 18.16 33, 0 33 M66 33 C45.75 33, 25.49 33, 0 33 M0 33 C0 22.05, 0 11.1, 0 0 M0 33 C0 20.73, 0 8.45, 0 0" stroke="#1e1e1e" stroke-width="4" fill="none"></path></g><g transform="translate(61.49757630068967 27.767651249560288) rotate(0 27.144675925925924 11.11516587677724)"><text x="0" y="0" font-family="Cascadia, Segoe UI Emoji" font-size="18.525276461295412px" fill="#e03131" text-anchor="start" style="white-space: pre;" direction="ltr" dominant-baseline="text-before-edge">TL;DR</text></g></svg>