<svg version="1.1" xmlns="http://www.w3.org/2000/svg" viewBox="0 0 924 464" width="1848" height="928">
  <!-- svg-source:excalidraw -->
  
  <defs>
    <style class="style-fonts">
      @font-face {
        font-family: "Virgil";
        src: url("https://excalidraw.com/Virgil.woff2");
      }
      @font-face {
        font-family: "Cascadia";
        src: url("https://excalidraw.com/Cascadia.woff2");
      }
    </style>
    
  </defs>
  <g stroke-linecap="round" transform="translate(10 10) rotate(0 452 222)"><path d="M31.37 -1.27 L872.87 -1.87 L880.63 -1.14 L892.11 3.18 L900.69 11.92 L902.75 18.38 L905.69 33.29 L905.55 412.22 L905.01 417.58 L900.5 432.48 L889.74 440.22 L886.8 443.21 L870.18 442.91 L32.36 445.26 L22.86 442.63 L11.32 440.74 L5.04 430.13 L3.04 425.06 L1.17 411.47 L-0.4 32.41 L3.44 16.47 L8.78 8.73 L19.25 3.22 L30.6 -0.71" stroke="none" stroke-width="0" fill="#ced4da"></path><path d="M32 0 M32 0 C335.97 -1.03, 639.18 -1.8, 872 0 M32 0 C241.8 -3.13, 451.11 -2.78, 872 0 M872 0 C891.99 1.08, 904.36 8.92, 904 32 M872 0 C893.34 -0.2, 903.58 11.84, 904 32 M904 32 C904.02 148.54, 902.63 266.57, 904 412 M904 32 C904.5 165.66, 904.43 298.86, 904 412 M904 412 C904.74 432.59, 894.82 445.18, 872 444 M904 412 C904.76 431.88, 894.13 446.21, 872 444 M872 444 C660.15 442.33, 449.01 441.9, 32 444 M872 444 C697.57 444.91, 523.09 445.21, 32 444 M32 444 C8.82 442.97, -1.4 431.78, 0 412 M32 444 C8.77 444.14, 0.27 435.31, 0 412 M0 412 C0.44 290.72, 1.83 169.99, 0 32 M0 412 C0.25 308.53, 1.17 205.34, 0 32 M0 32 C0.96 10.3, 9.97 -0.19, 32 0 M0 32 C1 11.15, 9.52 2.11, 32 0" stroke="#ced4da" stroke-width="4" fill="none"></path></g><g stroke-linecap="round" transform="translate(202 10) rotate(0 49 49)"><path d="M58.23 0.28 C65.99 1.13, 75.04 7.87, 81.32 13.26 C87.6 18.65, 93.25 24.9, 95.92 32.61 C98.59 40.31, 99.11 51.17, 97.32 59.49 C95.52 67.8, 90.7 76.5, 85.18 82.51 C79.66 88.51, 71.92 93.24, 64.19 95.52 C56.47 97.81, 46.81 97.97, 38.8 96.24 C30.8 94.51, 22.32 90.42, 16.17 85.16 C10.03 79.9, 4.45 72.5, 1.94 64.68 C-0.57 56.85, -0.66 46.38, 1.11 38.21 C2.88 30.04, 7.17 21.77, 12.57 15.67 C17.98 9.57, 24.53 3.82, 33.54 1.61 C42.55 -0.6, 60.18 1.68, 66.63 2.44 C73.08 3.19, 72.73 5.39, 72.24 6.14 M66.27 2.26 C73.74 4.52, 83.52 12.11, 88.84 18.71 C94.15 25.31, 97.16 33.8, 98.13 41.84 C99.1 49.89, 97.76 59.11, 94.66 66.98 C91.55 74.84, 85.76 83.92, 79.49 89.06 C73.21 94.19, 65.38 96.81, 57.02 97.76 C48.65 98.71, 37.25 97.93, 29.3 94.75 C21.35 91.57, 14.26 85.35, 9.33 78.68 C4.39 72.02, 0.74 62.89, -0.31 54.77 C-1.35 46.66, -0.31 37.59, 3.06 30 C6.44 22.41, 13.31 13.94, 19.94 9.23 C26.57 4.51, 34.86 2.84, 42.84 1.69 C50.82 0.55, 63.87 2.12, 67.81 2.36 C71.76 2.6, 66.73 2.25, 66.5 3.11" stroke="none" stroke-width="0" fill="#ffffff"></path><path d="M61.31 1.04 C68.88 2.21, 77.58 8.4, 83.35 14.31 C89.11 20.21, 93.62 28.73, 95.92 36.47 C98.22 44.21, 99.04 52.82, 97.13 60.76 C95.22 68.7, 90.44 78.08, 84.47 84.1 C78.5 90.11, 69.12 94.97, 61.32 96.86 C53.51 98.76, 45.37 97.74, 37.63 95.48 C29.89 93.21, 20.86 88.94, 14.89 83.28 C8.91 77.62, 4.06 69.33, 1.78 61.52 C-0.5 53.71, -0.98 44.24, 1.18 36.42 C3.34 28.59, 9.04 20.46, 14.75 14.58 C20.46 8.71, 26.48 3.02, 35.43 1.15 C44.38 -0.72, 62.22 2.17, 68.45 3.36 C74.68 4.54, 73.37 7.52, 72.8 8.26 M61.99 2 C69.6 3.36, 79.51 8.75, 85.35 14.84 C91.18 20.92, 95.29 30.42, 97.01 38.52 C98.74 46.61, 97.92 55.9, 95.71 63.39 C93.5 70.88, 89.55 77.77, 83.76 83.46 C77.98 89.15, 69.24 95.35, 61.01 97.52 C52.77 99.69, 42.33 99.14, 34.33 96.5 C26.34 93.85, 18.35 87.35, 13.03 81.65 C7.72 75.96, 4.23 69.89, 2.44 62.33 C0.66 54.78, 0.49 44.54, 2.32 36.34 C4.16 28.14, 7.57 18.81, 13.44 13.14 C19.3 7.47, 29.48 4.38, 37.51 2.34 C45.55 0.3, 57.6 0.7, 61.66 0.9 C65.71 1.1, 62.13 2.62, 61.84 3.52" stroke="#1e1e1e" stroke-width="4" fill="none"></path></g><g stroke-linecap="round"><g transform="translate(233 100) rotate(0 -30.382664558067916 34.57584929026663)"><path d="M-0.19 -0.5 C-10.24 11.26, -49.8 59.11, -60.1 70.96 M-1.76 -1.8 C-11.89 9.6, -50.92 57.61, -60.57 69.34" stroke="#1e1e1e" stroke-width="4" fill="none"></path></g></g><mask></mask><g stroke-linecap="round"><g transform="translate(262.882664558068 105.92415070973334) rotate(0 31.84584853239363 43.08051715529524)"><path d="M-0.81 -0.97 C10.03 13.49, 53.55 71.51, 64.5 86.08 M0.96 1.14 C11.65 15.78, 52.77 72.75, 63.3 87.13" stroke="#1e1e1e" stroke-width="4" fill="none"></path></g></g><mask></mask><g stroke-linecap="round" transform="translate(110 164) rotate(0 49 49)"><path d="M53.81 -0.54 C61.5 -0.3, 71.04 4.36, 77.79 9.49 C84.54 14.63, 90.91 22.64, 94.29 30.28 C97.67 37.92, 98.89 47.27, 98.07 55.36 C97.25 63.44, 94.13 72.32, 89.36 78.81 C84.6 85.29, 76.97 91.26, 69.47 94.28 C61.97 97.3, 52.52 98.01, 44.36 96.91 C36.2 95.81, 27.33 92.51, 20.51 87.67 C13.69 82.83, 6.65 75.19, 3.44 67.86 C0.23 60.54, 0.19 51.83, 1.24 43.7 C2.29 35.56, 5.03 25.51, 9.75 19.05 C14.47 12.59, 21.3 7.99, 29.55 4.91 C37.8 1.84, 53.65 0.77, 59.25 0.59 C64.86 0.41, 63.52 2.8, 63.19 3.82 M61.62 0.81 C69.28 2, 79.48 7.29, 85.13 13.41 C90.78 19.53, 93.68 29.58, 95.53 37.51 C97.37 45.45, 98.1 53.42, 96.21 61 C94.33 68.58, 90.09 77.31, 84.2 82.98 C78.31 88.64, 69.18 92.73, 60.9 95 C52.61 97.27, 42.28 98.34, 34.51 96.59 C26.75 94.84, 20.04 90.49, 14.31 84.5 C8.57 78.51, 2.39 68.96, 0.08 60.65 C-2.23 52.33, -1.91 42.23, 0.46 34.6 C2.83 26.98, 8.44 20.39, 14.3 14.9 C20.15 9.41, 27.35 3.82, 35.58 1.65 C43.8 -0.51, 58.97 1.83, 63.63 1.91 C68.29 2, 63.96 1.47, 63.52 2.16" stroke="none" stroke-width="0" fill="#ffffff"></path><path d="M56.47 1 C64.24 1.58, 73.62 6.67, 79.98 11.59 C86.34 16.51, 91.87 22.85, 94.61 30.5 C97.35 38.16, 97.78 49.16, 96.44 57.53 C95.09 65.9, 91.54 74.41, 86.55 80.72 C81.55 87.04, 73.93 92.52, 66.47 95.43 C59 98.34, 49.87 99.59, 41.76 98.18 C33.64 96.77, 24.04 92.38, 17.78 86.96 C11.52 81.53, 7.06 73.39, 4.18 65.63 C1.3 57.87, -0.7 48.24, 0.51 40.4 C1.72 32.56, 6.22 24.65, 11.44 18.59 C16.66 12.53, 22.75 6.4, 31.83 4.02 C40.91 1.64, 58.68 3.41, 65.89 4.3 C73.09 5.19, 75.21 8.91, 75.06 9.38 M39.37 0.58 C47 -1.5, 57.64 0.98, 65.7 3.7 C73.76 6.41, 82.54 10.61, 87.73 16.87 C92.92 23.13, 95.68 33.06, 96.81 41.25 C97.95 49.43, 97.29 58.64, 94.56 65.99 C91.83 73.33, 86.54 80.27, 80.41 85.31 C74.28 90.36, 65.88 94.71, 57.8 96.26 C49.72 97.8, 39.65 97.21, 31.91 94.57 C24.18 91.92, 16.82 86.4, 11.38 80.38 C5.95 74.37, 0.52 66.36, -0.72 58.5 C-1.95 50.63, 0.66 41.27, 3.98 33.2 C7.3 25.13, 13.28 15.25, 19.21 10.06 C25.14 4.86, 35.89 3.21, 39.57 2.02 C43.25 0.83, 41.13 2.5, 41.32 2.93" stroke="#1e1e1e" stroke-width="4" fill="none"></path></g><g stroke-linecap="round"><g transform="translate(145.88266455806797 259.92415070973334) rotate(0 -17.734758474305266 35.988048139140005)"><path d="M0.48 0.9 C-5.66 12.69, -29.88 60.1, -35.95 71.64 M-0.72 0.33 C-6.58 11.68, -28.26 58.07, -33.74 69.86" stroke="#1e1e1e" stroke-width="4" fill="none"></path></g></g><mask></mask><g stroke-linecap="round"><g transform="translate(152.88266455806797 257.92415070973334) rotate(0 15.163486029440548 42.45853730550965)"><path d="M0.6 -0.93 C5.82 13.41, 25.89 70.25, 30.87 84.89 M-0.54 1.2 C4.63 15.75, 25.3 71.87, 30.38 85.85" stroke="#1e1e1e" stroke-width="4" fill="none"></path></g></g><mask></mask><g stroke-linecap="round"><g transform="translate(328 265) rotate(0 12.934686034992353 30.767309369221323)"><path d="M1 0.54 C5.14 10.43, 21.5 50.17, 25.8 60.15 M0.07 -0.23 C3.95 9.81, 20.35 52.02, 24.74 61.76" stroke="#1e1e1e" stroke-width="4" fill="none"></path></g></g><mask></mask><g stroke-linecap="round" transform="translate(25 312) rotate(0 49 49)"><path d="M27.07 5.58 C33.7 1.32, 42.95 -0.96, 50.97 -0.59 C58.99 -0.22, 68.24 3.08, 75.18 7.8 C82.13 12.52, 88.7 20.39, 92.62 27.73 C96.53 35.08, 99.15 43.97, 98.67 51.87 C98.19 59.77, 94.2 68.33, 89.74 75.14 C85.27 81.96, 79.25 89.1, 71.88 92.77 C64.51 96.44, 53.78 97.73, 45.54 97.17 C37.3 96.62, 29.19 93.81, 22.46 89.44 C15.74 85.06, 9.01 78.01, 5.21 70.92 C1.41 63.82, -0.65 54.97, -0.32 46.87 C0.02 38.77, 2.25 29.61, 7.22 22.32 C12.19 15.02, 25.21 6.16, 29.49 3.11 C33.77 0.06, 32.45 3.17, 32.9 4.03 M28 5.46 C34.57 1.2, 45.39 -1.85, 53.42 -1.13 C61.46 -0.4, 69.7 4.75, 76.21 9.83 C82.73 14.91, 88.94 22.31, 92.53 29.37 C96.13 36.43, 98.27 44.51, 97.78 52.19 C97.28 59.87, 94.46 68.56, 89.57 75.45 C84.68 82.34, 75.87 89.92, 68.44 93.52 C61.01 97.12, 52.92 97.95, 44.99 97.06 C37.07 96.16, 27.74 92.82, 20.88 88.16 C14.02 83.5, 7.27 76.52, 3.83 69.08 C0.39 61.65, -0.76 51.43, 0.26 43.55 C1.27 35.67, 5.14 28.11, 9.91 21.8 C14.68 15.49, 25.95 8.52, 28.88 5.69 C31.82 2.86, 27.15 4.49, 27.52 4.82" stroke="none" stroke-width="0" fill="#ffffff"></path><path d="M40.27 0.83 C47.95 -1.15, 59.08 0.79, 66.74 3.53 C74.41 6.26, 81.2 11.12, 86.26 17.22 C91.32 23.32, 95.76 31.93, 97.09 40.13 C98.42 48.33, 97.17 58.59, 94.24 66.43 C91.3 74.26, 85.61 81.85, 79.48 87.13 C73.35 92.42, 65.39 96.84, 57.47 98.14 C49.56 99.43, 39.81 98.02, 31.99 94.91 C24.17 91.8, 15.9 85.71, 10.54 79.47 C5.18 73.22, 1.16 65.48, -0.17 57.44 C-1.49 49.4, -0.44 38.88, 2.59 31.23 C5.63 23.58, 11.1 16.87, 18.06 11.56 C25.03 6.26, 39.4 1.3, 44.37 -0.6 C49.35 -2.51, 47.68 -0.91, 47.91 0.14 M57.95 1.12 C65.71 1.91, 76.65 7.65, 82.66 12.92 C88.68 18.2, 91.65 25.15, 94.05 32.77 C96.44 40.39, 98.63 50.59, 97.02 58.67 C95.42 66.74, 89.61 75.19, 84.42 81.21 C79.24 87.24, 73.24 91.98, 65.93 94.83 C58.62 97.68, 49.05 100.08, 40.56 98.33 C32.08 96.58, 21.43 89.83, 15.03 84.32 C8.64 78.8, 4.66 72.63, 2.22 65.25 C-0.23 57.87, -1.5 48.34, 0.37 40.04 C2.24 31.73, 7.7 21.83, 13.44 15.43 C19.18 9.03, 27.49 4.1, 34.82 1.64 C42.15 -0.83, 53.69 0.71, 57.42 0.63 C61.15 0.55, 57.26 0.48, 57.2 1.17" stroke="#1e1e1e" stroke-width="4" fill="none"></path></g><g stroke-linecap="round" transform="translate(150 330) rotate(0 49 49)"><path d="M31.73 2.77 C38.83 -0.68, 48.47 -1.53, 56.33 -0.1 C64.19 1.33, 72.37 6.21, 78.88 11.34 C85.4 16.47, 92.46 23.11, 95.43 30.69 C98.4 38.27, 98.2 48.67, 96.7 56.81 C95.2 64.94, 91.25 73.2, 86.45 79.52 C81.64 85.83, 75.26 91.58, 67.87 94.72 C60.48 97.86, 50.25 99.68, 42.09 98.35 C33.94 97.01, 25.23 91.94, 18.94 86.71 C12.64 81.49, 7.34 74.48, 4.33 67 C1.31 59.52, -0.08 49.99, 0.83 41.84 C1.74 33.68, 3.37 24.74, 9.8 18.1 C16.23 11.45, 33.11 4.98, 39.43 1.98 C45.74 -1.02, 47.43 -0.66, 47.68 0.09 M31.65 3.59 C38.69 0.22, 49.3 -0.6, 57.23 0.7 C65.17 1.99, 73.06 6.26, 79.23 11.36 C85.41 16.45, 91 23.95, 94.29 31.27 C97.57 38.58, 99.97 47.29, 98.96 55.24 C97.95 63.19, 93.62 72.56, 88.23 78.97 C82.85 85.37, 74.36 90.65, 66.66 93.67 C58.96 96.69, 49.84 98.13, 42.05 97.08 C34.27 96.04, 26.59 92.46, 19.96 87.41 C13.32 82.37, 5.68 74.3, 2.26 66.83 C-1.17 59.36, -2.17 50.41, -0.57 42.6 C1.03 34.79, 6.51 26.71, 11.88 19.97 C17.24 13.24, 28.5 4.67, 31.63 2.17 C34.76 -0.33, 30.48 3.92, 30.67 4.97" stroke="none" stroke-width="0" fill="#ffffff"></path><path d="M34.67 2.07 C42.16 -0.65, 53.08 0.21, 61.1 2.01 C69.13 3.81, 77.09 7.3, 82.8 12.87 C88.51 18.43, 93.01 27.67, 95.35 35.4 C97.69 43.12, 98.72 51.34, 96.83 59.22 C94.94 67.09, 89.72 76.55, 84.01 82.64 C78.3 88.73, 70.32 93.47, 62.57 95.75 C54.83 98.04, 45.32 98.28, 37.55 96.34 C29.77 94.4, 21.84 89.65, 15.93 84.09 C10.03 78.53, 4.69 70.71, 2.11 62.96 C-0.47 55.21, -1.46 45.41, 0.46 37.59 C2.37 29.77, 6.81 22.34, 13.6 16.03 C20.39 9.72, 35.31 2.15, 41.21 -0.29 C47.11 -2.73, 48.85 0.35, 48.99 1.39 M56.06 -0.42 C64.28 -0.07, 73.56 4.71, 79.76 9.81 C85.95 14.91, 90.5 22.88, 93.23 30.17 C95.97 37.45, 96.97 45.45, 96.16 53.51 C95.34 61.57, 93.13 71.81, 88.33 78.54 C83.54 85.27, 75.11 90.87, 67.37 93.92 C59.64 96.96, 50.04 97.73, 41.93 96.78 C33.81 95.84, 25.26 92.8, 18.69 88.22 C12.12 83.64, 5.44 76.72, 2.5 69.32 C-0.43 61.91, -0.3 52.28, 1.09 43.81 C2.49 35.35, 6.2 25.02, 10.87 18.52 C15.54 12.02, 22 7.76, 29.11 4.8 C36.21 1.84, 49.28 1.58, 53.52 0.76 C57.76 -0.07, 54.38 -0.77, 54.52 -0.13" stroke="#1e1e1e" stroke-width="4" fill="none"></path></g><g transform="translate(834 59.5) rotate(0 5 -5.5)" stroke="none"><path fill="#ffffff" d="M -1.87,-0.93 Q -1.87,-0.93 -0.95,-2.64 -0.03,-4.35 1.35,-5.88 2.75,-7.41 5.16,-9.57 7.57,-11.73 7.86,-11.90 8.16,-12.08 8.49,-12.16 8.83,-12.23 9.17,-12.19 9.52,-12.15 9.83,-12.01 10.14,-11.86 10.39,-11.63 10.64,-11.39 10.80,-11.09 10.96,-10.78 11.02,-10.44 11.07,-10.10 11.02,-9.76 10.96,-9.42 10.80,-9.12 10.64,-8.81 10.39,-8.58 10.14,-8.34 9.82,-8.20 9.51,-8.05 9.17,-8.02 8.83,-7.98 8.49,-8.05 8.15,-8.13 7.86,-8.31 7.57,-8.48 7.34,-8.75 7.12,-9.01 6.99,-9.33 6.87,-9.65 6.85,-9.99 6.83,-10.34 6.92,-10.67 7.01,-11.00 7.21,-11.28 7.40,-11.57 7.67,-11.78 7.95,-11.99 8.28,-12.09 8.60,-12.20 8.95,-12.20 9.29,-12.20 9.62,-12.09 9.94,-11.98 10.22,-11.77 10.49,-11.57 10.68,-11.28 10.88,-11.00 10.97,-10.66 11.06,-10.33 11.04,-9.99 11.02,-9.64 10.89,-9.32 10.77,-9.00 10.54,-8.74 10.32,-8.48 10.32,-8.48 10.32,-8.48 7.97,-6.60 5.61,-4.71 4.55,-3.63 3.48,-2.54 2.68,-0.80 1.87,0.93 1.73,1.14 1.59,1.35 1.40,1.52 1.22,1.70 1.00,1.82 0.78,1.94 0.53,2.00 0.29,2.07 0.04,2.07 -0.21,2.08 -0.45,2.02 -0.70,1.97 -0.92,1.85 -1.15,1.74 -1.34,1.58 -1.54,1.41 -1.68,1.21 -1.83,1.00 -1.92,0.77 -2.02,0.54 -2.05,0.29 -2.09,0.04 -2.06,-0.21 -2.04,-0.46 -1.95,-0.69 -1.87,-0.93 -1.87,-0.93 L -1.87,-0.93 Z"></path></g><g stroke-linecap="round" transform="translate(794.5449446470102 54.612280573106204) rotate(50.94517852807172 49 49)"><path d="M62.73 3.02 C70.25 4.86, 79.38 10.56, 85.17 16.48 C90.96 22.4, 95.61 30.67, 97.45 38.53 C99.29 46.38, 98.84 55.7, 96.21 63.6 C93.58 71.49, 87.72 80.26, 81.68 85.9 C75.64 91.55, 67.69 95.97, 59.94 97.46 C52.19 98.96, 43.11 97.39, 35.19 94.87 C27.28 92.36, 18.15 88.36, 12.44 82.38 C6.74 76.39, 2.53 67.09, 0.96 58.99 C-0.61 50.89, 0.46 41.38, 3.03 33.79 C5.59 26.21, 10.45 18.99, 16.36 13.5 C22.26 8.02, 29.4 2.21, 38.45 0.89 C47.49 -0.43, 64.06 3.98, 70.62 5.6 C77.19 7.23, 78.01 9.85, 77.84 10.65 M38.89 2.3 C46.2 0.33, 55.27 0.54, 63.15 2.71 C71.03 4.88, 80.76 9.43, 86.19 15.32 C91.63 21.21, 94.4 29.78, 95.74 38.03 C97.07 46.29, 96.52 56.78, 94.21 64.85 C91.91 72.92, 87.83 80.86, 81.9 86.45 C75.98 92.04, 66.95 96.87, 58.68 98.4 C50.41 99.92, 39.98 98.24, 32.31 95.6 C24.63 92.96, 17.83 88.46, 12.64 82.55 C7.45 76.63, 2.72 68.21, 1.16 60.11 C-0.41 52.01, 0.81 41.99, 3.24 33.95 C5.66 25.91, 9.96 17.13, 15.71 11.85 C21.46 6.56, 34.01 3.87, 37.75 2.26 C41.5 0.65, 37.97 1.4, 38.15 2.17" stroke="none" stroke-width="0" fill="#ffffff"></path><path d="M71.37 4.59 C78.63 7.28, 85.15 14.74, 89.58 21.71 C94.01 28.68, 97.31 38.37, 97.94 46.42 C98.56 54.47, 97.02 62.81, 93.31 70.01 C89.61 77.22, 82.56 84.92, 75.7 89.65 C68.84 94.37, 60.29 97.68, 52.15 98.35 C44.01 99.01, 34.27 97.31, 26.87 93.64 C19.47 89.96, 12.24 83.02, 7.75 76.29 C3.26 69.57, 0.44 61.54, -0.1 53.27 C-0.63 45.01, 0.91 34.35, 4.54 26.7 C8.16 19.05, 14.96 11.96, 21.65 7.38 C28.34 2.79, 35.29 -1.1, 44.67 -0.79 C54.05 -0.49, 71.53 6.44, 77.91 9.21 C84.3 11.98, 83.69 15.32, 83 15.82 M68.25 3.03 C75.44 5.51, 83.19 12.1, 88.13 18.76 C93.08 25.42, 96.79 34.85, 97.91 42.99 C99.02 51.14, 97.97 60.17, 94.84 67.63 C91.71 75.09, 85.94 82.96, 79.13 87.75 C72.31 92.54, 62.28 95.11, 53.95 96.35 C45.62 97.59, 36.33 98.02, 29.16 95.19 C21.99 92.37, 15.5 86, 10.94 79.39 C6.38 72.79, 2.71 63.7, 1.81 55.58 C0.9 47.46, 2.62 38.17, 5.52 30.69 C8.43 23.2, 12.98 15.68, 19.25 10.68 C25.53 5.68, 34.98 1.8, 43.16 0.68 C51.34 -0.45, 64.27 3.17, 68.35 3.94 C72.43 4.71, 67.97 4.57, 67.65 5.28" stroke="#1e1e1e" stroke-width="4" fill="none"></path></g><g stroke-linecap="round"><g transform="translate(800.267800301619 79.85754318626073) rotate(50.94517852807172 -55.870851681157944 27.101234358474613)"><path d="M1.09 0.12 C-17.59 9.12, -93.18 46.09, -112.27 55.06 M0.2 -0.86 C-18.56 8.34, -93.72 44.15, -112.83 53.49" stroke="#1e1e1e" stroke-width="4" fill="none"></path></g></g><mask></mask><g stroke-linecap="round"><g transform="translate(738.59357621361 152.55096745823607) rotate(50.94517852807172 43.30178998824931 66.99508842475711)"><path d="M0.73 1.06 C14.66 8.29, 74.28 21.68, 84.68 43.52 C95.07 65.35, 66.57 117.27, 63.12 132.07 M-0.34 0.57 C13.3 7.99, 73.04 22.88, 83.5 45.03 C93.96 67.17, 65.54 118.66, 62.42 133.42" stroke="#1e1e1e" stroke-width="4" fill="none"></path></g></g><mask></mask><g stroke-linecap="round" transform="translate(585.2092941926139 18.5706077954477) rotate(50.94517852807172 49 49)"><path d="M68.48 4.01 C75.68 6.48, 82.59 13.83, 87.46 20.44 C92.32 27.05, 96.46 35.87, 97.68 43.66 C98.9 51.44, 98.07 59.73, 94.77 67.15 C91.48 74.56, 84.57 83.22, 77.9 88.15 C71.24 93.08, 62.62 95.86, 54.76 96.73 C46.91 97.6, 38.12 96.34, 30.76 93.38 C23.39 90.42, 15.59 85.41, 10.58 78.97 C5.57 72.52, 1.93 62.83, 0.71 54.69 C-0.51 46.56, 0.12 37.63, 3.26 30.18 C6.39 22.73, 12.81 14.84, 19.53 9.99 C26.25 5.14, 34.38 1.53, 43.6 1.09 C52.82 0.65, 68.77 5.34, 74.86 7.33 C80.94 9.32, 80.32 12.43, 80.09 13.02 M50.6 -1.11 C58.1 -1.11, 67.59 3.57, 74.7 8.38 C81.8 13.2, 89.38 20.31, 93.24 27.79 C97.09 35.27, 98.57 45.21, 97.83 53.26 C97.08 61.31, 93.2 69.32, 88.78 76.09 C84.35 82.86, 78.38 90.02, 71.3 93.88 C64.22 97.74, 54.38 99.83, 46.29 99.25 C38.2 98.68, 29.74 95.21, 22.75 90.42 C15.77 85.63, 8.4 77.68, 4.37 70.51 C0.35 63.34, -1.8 55.43, -1.39 47.39 C-0.99 39.35, 2.3 29.12, 6.81 22.27 C11.32 15.42, 18.28 10.04, 25.67 6.29 C33.07 2.53, 46.85 0.4, 51.17 -0.28 C55.48 -0.95, 51.42 1.12, 51.55 2.22" stroke="none" stroke-width="0" fill="#ffffff"></path><path d="M51.78 -0.41 C59.44 -0.85, 68.18 3.3, 74.95 7.89 C81.71 12.49, 88.65 19.81, 92.37 27.17 C96.1 34.54, 97.77 44.05, 97.29 52.11 C96.81 60.17, 93.87 68.64, 89.5 75.54 C85.13 82.44, 78.32 89.9, 71.08 93.5 C63.84 97.1, 54.18 97.85, 46.06 97.12 C37.95 96.39, 29.34 93.58, 22.4 89.13 C15.47 84.67, 8.1 77.47, 4.45 70.38 C0.8 63.29, -0.07 54.46, 0.5 46.58 C1.07 38.7, 3.66 30.12, 7.88 23.1 C12.1 16.08, 17.71 8.11, 25.83 4.45 C33.94 0.8, 51.07 1.56, 56.58 1.16 C62.09 0.76, 59.23 1.39, 58.87 2.06 M33.46 2 C40.65 -1.3, 51.02 -1.17, 58.79 0.23 C66.56 1.62, 74.09 4.79, 80.09 10.39 C86.09 15.98, 91.73 25.71, 94.79 33.82 C97.85 41.93, 99.63 51.07, 98.46 59.05 C97.29 67.04, 93.04 75.52, 87.77 81.73 C82.51 87.94, 74.93 93.57, 66.9 96.32 C58.87 99.06, 47.91 99.82, 39.59 98.2 C31.28 96.59, 23.16 92.13, 17.01 86.64 C10.87 81.16, 5.49 73.01, 2.72 65.32 C-0.05 57.62, -1.09 48.55, 0.39 40.47 C1.87 32.4, 6.16 22.97, 11.58 16.86 C17.01 10.75, 29.23 5.79, 32.94 3.82 C36.64 1.85, 33.75 4.59, 33.82 5.02" stroke="#1e1e1e" stroke-width="4" fill="none"></path></g><g stroke-linecap="round"><g transform="translate(546.8775568852594 66.39767342052812) rotate(50.94517852807172 -4.553801398335793 63.116262845772184)"><path d="M1 0.33 C-0.5 21.26, -7.31 104.7, -8.86 125.68 M0.06 -0.54 C-1.65 20.52, -8.59 105.46, -10.1 126.78" stroke="#1e1e1e" stroke-width="4" fill="none"></path></g></g><mask></mask><g stroke-linecap="round"><g transform="translate(570.4543353158797 215.22430882693004) rotate(50.94517852807172 -34.789417659118726 12.112240614071482)"><path d="M-0.57 -0.84 C-12.4 3.06, -58.5 19.68, -69.98 23.69 M1.34 1.34 C-10.74 5.38, -59.04 21.26, -70.91 25.06" stroke="#1e1e1e" stroke-width="4" fill="none"></path></g></g><mask></mask><g stroke-linecap="round"><g transform="translate(602.665514376467 172.0544539887727) rotate(50.94517852807172 73.6456873486191 24.29390593659153)"><path d="M0.02 -0.31 C8.71 7.28, 26.78 36.8, 51.56 44.72 C76.34 52.65, 132.66 46.75, 148.72 47.25 M-1.43 -1.52 C7.2 6.28, 25.95 37.57, 50.91 45.85 C75.87 54.13, 132.14 47.7, 148.33 48.18" stroke="#1e1e1e" stroke-width="4" fill="none"></path></g></g><mask></mask><g stroke-linecap="round" transform="translate(537.3906707947858 223.3389217402189) rotate(50.94517852807172 49 49)"><path d="M51.2 -0.73 C59.13 -1, 68.47 3.34, 75.34 7.69 C82.21 12.04, 88.77 18.19, 92.44 25.35 C96.11 32.5, 97.64 42.39, 97.37 50.62 C97.09 58.86, 94.88 67.72, 90.81 74.75 C86.74 81.78, 80.21 88.99, 72.95 92.81 C65.69 96.63, 55.67 98.06, 47.24 97.68 C38.82 97.3, 29.12 94.9, 22.38 90.52 C15.64 86.13, 10.49 78.47, 6.78 71.38 C3.07 64.29, 0.19 56.13, 0.14 47.97 C0.08 39.82, 2.33 29.63, 6.45 22.48 C10.58 15.33, 17.19 8.75, 24.88 5.07 C32.57 1.39, 47.6 1.05, 52.59 0.41 C57.58 -0.23, 54.74 0.58, 54.8 1.22 M51.35 1.39 C59.2 0.93, 69.35 4.1, 76.07 8.19 C82.79 12.29, 88.26 18.58, 91.66 25.96 C95.06 33.33, 96.91 44.18, 96.47 52.45 C96.04 60.73, 93.41 68.74, 89.03 75.59 C84.66 82.44, 77.38 89.91, 70.22 93.57 C63.07 97.24, 54.08 97.94, 46.1 97.59 C38.13 97.24, 29.07 95.57, 22.37 91.46 C15.67 87.35, 9.81 80.58, 5.9 72.92 C1.98 65.27, -1.28 53.99, -1.13 45.55 C-0.97 37.11, 2.46 28.86, 6.85 22.28 C11.23 15.71, 17.67 9.96, 25.19 6.12 C32.71 2.28, 47.52 0, 51.98 -0.75 C56.43 -1.49, 52.23 0.45, 51.92 1.64" stroke="none" stroke-width="0" fill="#ffffff"></path><path d="M46.13 -0.75 C53.89 -2.16, 64.21 0.69, 71.4 4.4 C78.58 8.11, 84.75 14.46, 89.24 21.5 C93.74 28.54, 97.81 38.21, 98.38 46.64 C98.94 55.08, 96.56 64.99, 92.61 72.1 C88.67 79.2, 81.43 84.83, 74.71 89.25 C67.98 93.67, 60.42 98.1, 52.26 98.63 C44.1 99.17, 33.28 96.33, 25.77 92.47 C18.25 88.6, 11.57 82.26, 7.18 75.45 C2.78 68.64, -0.28 59.64, -0.62 51.6 C-0.96 43.56, 1.4 34.42, 5.15 27.23 C8.9 20.03, 14.5 13.06, 21.86 8.45 C29.23 3.83, 44.32 0.81, 49.33 -0.45 C54.34 -1.72, 51.73 -0.16, 51.92 0.87 M69.2 4.86 C76.31 7.18, 82.63 13.81, 87.32 20.15 C92.01 26.49, 96.23 35, 97.37 42.91 C98.51 50.82, 97.34 60.07, 94.18 67.62 C91.03 75.17, 84.92 83.27, 78.45 88.2 C71.97 93.13, 63.29 96.04, 55.32 97.22 C47.35 98.4, 38.01 98.13, 30.63 95.28 C23.26 92.43, 16.23 86.95, 11.05 80.13 C5.88 73.31, 0.6 62.59, -0.41 54.35 C-1.43 46.1, 1.52 37.85, 4.98 30.66 C8.44 23.46, 13.97 16.12, 20.33 11.17 C26.7 6.23, 35.25 2.41, 43.19 1.01 C51.12 -0.4, 63.65 2.14, 67.92 2.75 C72.19 3.37, 68.97 3.61, 68.79 4.69" stroke="#1e1e1e" stroke-width="4" fill="none"></path></g><g stroke-linecap="round" transform="translate(810.593509538784 207.7117370218948) rotate(50.94517852807172 49 49)"><path d="M28.35 5.32 C34.95 1.37, 45 -0.78, 52.93 -0.2 C60.86 0.37, 69.22 4.08, 75.93 8.74 C82.64 13.4, 89.42 20.34, 93.18 27.76 C96.94 35.19, 99.17 45.23, 98.5 53.31 C97.82 61.39, 93.98 69.65, 89.12 76.24 C84.27 82.84, 76.51 89.44, 69.37 92.89 C62.23 96.34, 54.25 97.44, 46.29 96.94 C38.32 96.43, 28.61 94.43, 21.57 89.86 C14.54 85.28, 7.78 77.02, 4.08 69.47 C0.37 61.93, -1.43 52.53, -0.67 44.57 C0.1 36.62, 3.23 28.65, 8.68 21.75 C14.13 14.85, 27.35 6.44, 32.02 3.16 C36.69 -0.11, 36.46 1.27, 36.69 2.08 M66.96 3.64 C74.3 5.41, 81.23 11.01, 86.05 17.45 C90.87 23.89, 94.61 34.11, 95.87 42.28 C97.12 50.46, 96.45 58.87, 93.59 66.48 C90.73 74.09, 84.95 82.88, 78.73 87.96 C72.51 93.05, 64.15 95.64, 56.27 96.98 C48.4 98.33, 38.94 98.61, 31.48 96.02 C24.02 93.42, 16.84 88.14, 11.51 81.43 C6.18 74.71, 1.02 64.06, -0.52 55.72 C-2.06 47.38, -0.58 38.73, 2.29 31.4 C5.15 24.06, 10.1 16.99, 16.69 11.73 C23.27 6.47, 33.42 1.19, 41.81 -0.14 C50.2 -1.47, 63.16 2.81, 67.03 3.75 C70.9 4.68, 65.47 4.96, 65.03 5.48" stroke="none" stroke-width="0" fill="#ffffff"></path><path d="M69.56 3.5 C76.82 6.09, 83.32 12.95, 88.09 19.8 C92.87 26.65, 97.33 36.19, 98.23 44.6 C99.13 53.01, 97.15 63, 93.51 70.25 C89.87 77.5, 82.94 83.4, 76.41 88.1 C69.87 92.81, 62.44 97.61, 54.31 98.49 C46.17 99.36, 35.27 96.92, 27.61 93.36 C19.95 89.81, 13.01 83.77, 8.32 77.15 C3.64 70.53, 0.2 61.66, -0.48 53.64 C-1.16 45.63, 0.81 36.41, 4.25 29.07 C7.69 21.73, 13.52 14.48, 20.17 9.59 C26.81 4.71, 35.43 0.32, 44.12 -0.25 C52.82 -0.83, 66.84 4.39, 72.32 6.14 C77.8 7.89, 77.11 9.34, 76.98 10.25 M63.64 3.42 C70.96 5.02, 79.7 10.7, 85.23 16.58 C90.76 22.47, 95.17 30.76, 96.83 38.75 C98.49 46.74, 97.7 56.8, 95.17 64.52 C92.64 72.24, 87.59 79.51, 81.64 85.08 C75.7 90.64, 67.32 95.96, 59.5 97.93 C51.68 99.89, 42.69 99.73, 34.73 96.86 C26.77 93.98, 17.13 86.9, 11.73 80.67 C6.33 74.45, 3.68 67.17, 2.33 59.53 C0.98 51.89, 1.19 42.58, 3.61 34.85 C6.03 27.12, 10.95 18.94, 16.86 13.15 C22.77 7.36, 30.92 1.88, 39.05 0.1 C47.18 -1.67, 61.32 1.78, 65.63 2.48 C69.94 3.18, 65.63 3.7, 64.9 4.31" stroke="#1e1e1e" stroke-width="4" fill="none"></path></g><g stroke-linecap="round"><g transform="translate(650.6317569444309 182.45312803440447) rotate(50.94517852807172 94.73702162630855 -12.399931554123754)"><path d="M-0.14 0.36 C31.7 -3.91, 159.15 -21.23, 191.15 -25.16 M-1.68 -0.5 C30.01 -4.7, 158.08 -20.12, 190.29 -24.23" stroke="#1e1e1e" stroke-width="4" fill="none"></path></g></g><mask></mask><g stroke-linecap="round"><g transform="translate(576.6447954529276 274.62124862376436) rotate(50.94517852807172 81.18967676721513 -123.10552966408432)"><path d="M0.07 0.78 C10.69 -20.11, 35.4 -83.55, 62.68 -124.85 C89.95 -166.14, 146.97 -226.91, 163.74 -246.99 M-1.36 0.15 C9.26 -20.58, 34.72 -82.17, 62.08 -123.23 C89.45 -164.29, 145.99 -225.48, 162.84 -246.2" stroke="#1e1e1e" stroke-width="4" fill="none"></path></g></g><mask></mask><g stroke-linecap="round"><g transform="translate(635.3972365207946 317.22374782138877) rotate(50.94517852807172 20.52313088528814 -19.49668649844827)"><path d="M0.24 0.82 C6.89 -5.66, 33.29 -33.11, 39.97 -39.82 M-1.1 0.21 C5.91 -6.06, 35.43 -32.29, 42.14 -38.71" stroke="#1e1e1e" stroke-width="4" fill="none"></path></g></g><mask></mask><g stroke-linecap="round"><g transform="translate(704.6767925066997 293.01232679461214) rotate(50.94517852807172 15.15709023676817 -102.98770566783847)"><path d="M0.18 1.09 C5.46 -33.16, 26.41 -170.64, 31.5 -205.3 M-1.19 0.61 C3.99 -34, 25.64 -172.62, 30.81 -207.06" stroke="#1e1e1e" stroke-width="4" fill="none"></path></g></g><mask></mask><g stroke-linecap="round"><g transform="translate(556.9498303331193 317.18593838857873) rotate(50.94517852807172 111.6167487666849 -105.57678820081057)"><path d="M0.71 0.99 C38.03 -34.55, 186.61 -176.9, 223.61 -212.14 M-0.37 0.46 C36.87 -34.46, 185.95 -175.71, 222.98 -211.2" stroke="#1e1e1e" stroke-width="4" fill="none"></path></g></g><mask></mask><g stroke-linecap="round"><g transform="translate(595.6138195111444 124.16526496851236) rotate(50.94517852807172 22.685742752188787 52.34013981184924)"><path d="M1.18 -1.18 C8.51 16.14, 37.58 87.08, 45.03 104.9 M0.34 0.82 C7.43 18.16, 36.56 88.17, 44.1 105.86" stroke="#1e1e1e" stroke-width="4" fill="none"></path></g></g><mask></mask><g stroke-linecap="round" transform="translate(417.93302670723256 135.01964395684956) rotate(50.94517852807172 49 49)"><path d="M26.44 4.46 C33.28 0.17, 44.05 -1.33, 52.36 -0.69 C60.67 -0.05, 69.55 3.8, 76.32 8.31 C83.09 12.82, 89.48 19.13, 92.98 26.37 C96.48 33.62, 97.78 43.55, 97.32 51.78 C96.86 60.01, 94.42 68.8, 90.19 75.73 C85.96 82.66, 79.27 89.7, 71.92 93.35 C64.57 97, 54.51 98.21, 46.09 97.64 C37.67 97.06, 28.04 94.44, 21.4 89.9 C14.76 85.35, 9.78 77.54, 6.24 70.36 C2.7 63.18, 0.04 54.96, 0.18 46.82 C0.32 38.68, 1.26 29.15, 7.07 21.51 C12.87 13.86, 28.58 4.32, 35.02 0.97 C41.47 -2.38, 45.3 0.48, 45.74 1.4 M71.11 6.18 C78.59 9.19, 85.39 16.5, 89.97 23.2 C94.56 29.9, 98.26 38.55, 98.61 46.4 C98.96 54.25, 96.07 62.86, 92.08 70.31 C88.08 77.76, 81.53 86.44, 74.66 91.08 C67.78 95.71, 58.96 97.64, 50.83 98.13 C42.7 98.61, 33.09 97.72, 25.87 93.99 C18.65 90.26, 11.82 82.57, 7.48 75.78 C3.14 68.99, 0.16 61.12, -0.17 53.26 C-0.51 45.39, 2 36.29, 5.48 28.57 C8.96 20.85, 14.09 11.73, 20.69 6.93 C27.28 2.12, 36.91 -0.05, 45.05 -0.25 C53.19 -0.46, 65.2 4.79, 69.54 5.7 C73.89 6.61, 71.16 4.45, 71.13 5.18" stroke="none" stroke-width="0" fill="#ffffff"></path><path d="M63.21 3.03 C70.86 4.52, 78.88 9.17, 84.48 14.84 C90.08 20.52, 95.07 29.13, 96.81 37.08 C98.55 45.02, 97.25 54.52, 94.91 62.51 C92.57 70.5, 88.61 79.16, 82.78 84.99 C76.95 90.83, 68.11 95.86, 59.93 97.51 C51.75 99.16, 41.37 97.33, 33.7 94.92 C26.03 92.51, 19.47 88.89, 13.91 83.04 C8.35 77.18, 2.42 67.88, 0.35 59.79 C-1.71 51.69, -0.93 42.2, 1.51 34.44 C3.94 26.69, 8.92 18.69, 14.97 13.25 C21.03 7.81, 29.38 3.4, 37.83 1.81 C46.28 0.23, 60.61 3.25, 65.67 3.73 C70.73 4.21, 68.51 4.06, 68.17 4.68 M69.91 4.96 C77.35 7.38, 85.27 14.33, 89.81 20.9 C94.35 27.46, 96.48 36.36, 97.14 44.34 C97.81 52.32, 96.95 61.46, 93.78 68.77 C90.61 76.09, 84.73 83.35, 78.14 88.23 C71.55 93.1, 62.37 97.12, 54.25 98.02 C46.14 98.92, 36.82 96.76, 29.45 93.63 C22.08 90.5, 14.73 85.52, 10.03 79.24 C5.32 72.96, 2.37 64.4, 1.23 55.94 C0.09 47.48, -0.12 36.13, 3.18 28.48 C6.47 20.84, 14.13 14.58, 21.02 10.05 C27.91 5.53, 36.52 2.26, 44.53 1.35 C52.53 0.44, 65.1 4.16, 69.05 4.6 C73 5.03, 68.43 3.29, 68.25 3.95" stroke="#1e1e1e" stroke-width="4" fill="none"></path></g><g stroke-linecap="round" transform="translate(311 323) rotate(0 49 49)"><path d="M47.86 1 C55.41 0.17, 64.63 2.7, 71.73 6.36 C78.83 10.01, 86.18 16.05, 90.46 22.92 C94.74 29.8, 97.19 39.24, 97.42 47.6 C97.65 55.97, 95.65 66.05, 91.86 73.09 C88.07 80.14, 81.63 85.84, 74.68 89.87 C67.74 93.9, 58.29 96.73, 50.21 97.26 C42.12 97.79, 33.17 96.71, 26.17 93.05 C19.16 89.39, 12.67 82.43, 8.17 75.27 C3.66 68.11, -0.54 58.33, -0.86 50.09 C-1.18 41.85, 2.17 32.92, 6.24 25.81 C10.3 18.71, 15.57 11.66, 23.53 7.44 C31.49 3.22, 47.46 1.21, 54.01 0.51 C60.56 -0.19, 62.79 2.29, 62.85 3.23 M49.59 -0.7 C57.57 -1.29, 67.27 2.44, 74.53 6.6 C81.79 10.75, 89.49 17.11, 93.17 24.23 C96.85 31.34, 96.94 41.06, 96.62 49.29 C96.3 57.52, 95.26 66.51, 91.25 73.62 C87.24 80.72, 79.84 87.63, 72.55 91.91 C65.26 96.18, 55.48 99.62, 47.52 99.27 C39.55 98.92, 31.74 94.55, 24.78 89.83 C17.81 85.11, 9.65 77.91, 5.72 70.95 C1.79 63.99, 0.78 56.19, 1.18 48.07 C1.58 39.95, 4.22 29.14, 8.11 22.22 C12.01 15.29, 17.73 10.34, 24.58 6.53 C31.42 2.72, 45.03 0.26, 49.18 -0.64 C53.33 -1.53, 49.1 0.18, 49.48 1.15" stroke="none" stroke-width="0" fill="#ffffff"></path><path d="M34 2.18 C41.21 -0.64, 52.28 -0.93, 60.36 0.81 C68.45 2.56, 76.69 7.04, 82.52 12.65 C88.36 18.25, 93.02 26.64, 95.38 34.43 C97.75 42.22, 98.39 51.29, 96.73 59.4 C95.07 67.52, 90.93 76.93, 85.4 83.14 C79.87 89.34, 71.61 94.45, 63.55 96.62 C55.48 98.79, 44.94 98.33, 37.01 96.17 C29.07 94.01, 21.74 89.21, 15.95 83.65 C10.17 78.09, 4.91 70.47, 2.31 62.8 C-0.29 55.14, -1.43 45.58, 0.35 37.66 C2.13 29.75, 5.99 21.61, 12.97 15.31 C19.96 9, 36.56 2.39, 42.26 -0.15 C47.96 -2.7, 47.09 -0.8, 47.19 0.03 M52.92 1.36 C60.78 1.06, 68.65 2.87, 75.45 6.92 C82.24 10.96, 89.93 17.93, 93.68 25.64 C97.44 33.35, 98.56 44.72, 97.97 53.18 C97.38 61.64, 94.43 69.68, 90.15 76.39 C85.87 83.09, 79.81 89.6, 72.31 93.41 C64.81 97.23, 53.53 99.78, 45.16 99.27 C36.79 98.77, 28.73 95.3, 22.08 90.38 C15.44 85.46, 9.05 77.01, 5.28 69.74 C1.5 62.46, -1.26 54.58, -0.56 46.7 C0.15 38.82, 5.14 29.15, 9.5 22.46 C13.87 15.76, 18.42 10.45, 25.65 6.54 C32.87 2.62, 48.37 -0.01, 52.83 -1.06 C57.3 -2.1, 52.51 -0.76, 52.43 0.26" stroke="#1e1e1e" stroke-width="4" fill="none"></path></g><g stroke-linecap="round" transform="translate(267 170) rotate(0 49 49)"><path d="M42.3 1.09 C49.9 -0.48, 59.12 0.82, 66.87 3.85 C74.61 6.87, 83.49 12.85, 88.77 19.25 C94.05 25.65, 97.65 34.2, 98.56 42.23 C99.47 50.26, 97.47 59.94, 94.23 67.44 C90.99 74.93, 85.51 82.34, 79.14 87.22 C72.76 92.11, 64.01 95.67, 55.97 96.72 C47.92 97.78, 38.53 96.7, 30.86 93.56 C23.18 90.41, 14.95 84.07, 9.92 77.84 C4.89 71.61, 1.86 64.18, 0.67 56.2 C-0.53 48.22, -0.22 37.7, 2.77 29.96 C5.76 22.22, 11.86 14.61, 18.6 9.74 C25.35 4.87, 38.85 2.06, 43.26 0.73 C47.67 -0.59, 45 1.01, 45.09 1.81 M66.3 3.42 C74.07 5.72, 83.65 12.17, 88.67 18.75 C93.69 25.32, 95.54 34.73, 96.4 42.88 C97.27 51.03, 96.52 60.38, 93.85 67.65 C91.18 74.92, 86.59 81.68, 80.39 86.48 C74.19 91.28, 64.83 94.92, 56.65 96.45 C48.47 97.97, 38.94 98.69, 31.32 95.63 C23.69 92.58, 16.14 84.62, 10.89 78.13 C5.63 71.63, 1.21 64.37, -0.22 56.64 C-1.64 48.91, -0.7 39.52, 2.33 31.76 C5.35 24, 11.36 15.42, 17.93 10.09 C24.5 4.76, 33.46 0.65, 41.75 -0.22 C50.05 -1.09, 63.51 4.06, 67.69 4.87 C71.87 5.67, 67.22 4.08, 66.84 4.63" stroke="none" stroke-width="0" fill="#ffffff"></path><path d="M52.48 0.96 C60.58 0.43, 70.33 2.81, 76.9 7.3 C83.48 11.8, 88.41 20.36, 91.94 27.93 C95.48 35.51, 98.56 44.84, 98.11 52.74 C97.66 60.64, 93.92 68.6, 89.27 75.32 C84.62 82.05, 77.36 89.28, 70.21 93.1 C63.06 96.93, 54.46 98.9, 46.34 98.27 C38.22 97.64, 28.48 93.92, 21.48 89.33 C14.48 84.74, 7.93 77.86, 4.36 70.72 C0.79 63.59, -0.72 54.58, 0.06 46.53 C0.84 38.48, 4.38 29.15, 9.04 22.41 C13.69 15.67, 19.89 9.58, 28 6.08 C36.11 2.58, 52.02 1.88, 57.68 1.43 C63.34 0.99, 62.37 2.64, 61.97 3.41 M31.06 4.12 C38.14 0.38, 47.16 -2.18, 55.09 -1.05 C63.02 0.08, 72.03 5.9, 78.65 10.91 C85.26 15.93, 91.5 21.54, 94.78 29.06 C98.06 36.57, 99.55 47.56, 98.34 56 C97.14 64.44, 92.42 73.18, 87.56 79.69 C82.7 86.19, 76.56 92.16, 69.18 95.04 C61.8 97.92, 51.69 97.92, 43.27 96.96 C34.85 96, 25.44 94.21, 18.65 89.28 C11.87 84.35, 5.53 75.04, 2.57 67.38 C-0.39 59.72, -0.08 51.09, 0.89 43.32 C1.86 35.54, 3.8 27.3, 8.41 20.72 C13.01 14.14, 25.15 6.68, 28.5 3.84 C31.86 1.01, 27.95 2.88, 28.54 3.72" stroke="#1e1e1e" stroke-width="4" fill="none"></path></g><g stroke-linecap="round" transform="translate(679.0045076586148 262.96872376728936) rotate(50.94517852807172 49 49)"><path d="M58.52 2.04 C66.2 3.05, 75.53 8.11, 81.82 13.26 C88.1 18.4, 93.83 25.23, 96.24 32.89 C98.66 40.55, 98.15 51.22, 96.3 59.22 C94.46 67.21, 90.38 74.93, 85.17 80.87 C79.95 86.8, 72.62 92.09, 65.02 94.84 C57.41 97.59, 47.59 98.99, 39.52 97.37 C31.44 95.74, 22.86 90.59, 16.57 85.1 C10.29 79.61, 4.37 72.13, 1.79 64.44 C-0.78 56.74, -0.77 46.84, 1.13 38.93 C3.03 31.01, 7.81 23.09, 13.2 16.95 C18.58 10.81, 24.29 4.26, 33.43 2.11 C42.57 -0.05, 60.55 2.83, 68.01 4.03 C75.47 5.22, 78.34 8.44, 78.19 9.28 M28.49 4.25 C35.63 0.87, 46.99 -0.05, 55.29 1.1 C63.59 2.26, 72.03 6.38, 78.31 11.18 C84.58 15.97, 89.63 22.42, 92.91 29.88 C96.19 37.34, 98.75 47.62, 97.99 55.93 C97.24 64.24, 93.22 73.29, 88.38 79.73 C83.54 86.17, 76.64 91.65, 68.96 94.56 C61.29 97.47, 50.8 98.04, 42.32 97.19 C33.85 96.35, 24.74 94.27, 18.13 89.48 C11.52 84.7, 5.86 76.02, 2.67 68.48 C-0.52 60.94, -2.08 52.44, -1.01 44.24 C0.05 36.03, 4 25.77, 9.08 19.25 C14.16 12.72, 25.9 7.28, 29.47 5.1 C33.05 2.92, 30.34 5.83, 30.51 6.18" stroke="none" stroke-width="0" fill="#ffffff"></path><path d="M68.09 4.19 C75.38 6.83, 83.46 13.85, 88.29 20.54 C93.12 27.22, 96.25 36.29, 97.07 44.31 C97.89 52.34, 96.43 61.17, 93.21 68.68 C89.98 76.2, 84.28 84.71, 77.72 89.41 C71.16 94.11, 61.93 96.33, 53.86 96.9 C45.78 97.47, 36.82 96.15, 29.26 92.83 C21.71 89.52, 13.29 83.43, 8.54 77.02 C3.78 70.61, 1.45 62.21, 0.72 54.37 C0 46.53, 1.1 37.6, 4.18 29.96 C7.26 22.32, 12.46 13.37, 19.19 8.54 C25.92 3.71, 35.59 1.31, 44.53 0.98 C53.48 0.65, 67.42 4.99, 72.85 6.56 C78.28 8.13, 77.48 9.66, 77.1 10.42 M43.87 -0.21 C51.22 -1.95, 60.09 -0.93, 67.4 2.55 C74.7 6.03, 82.46 13.75, 87.71 20.68 C92.96 27.61, 97.58 36.08, 98.9 44.14 C100.22 52.2, 98.76 61.51, 95.61 69.03 C92.47 76.55, 86.89 84.3, 80.04 89.24 C73.19 94.17, 62.9 97.77, 54.51 98.64 C46.12 99.52, 37.16 97.85, 29.71 94.48 C22.26 91.12, 14.76 84.97, 9.8 78.45 C4.84 71.94, 0.96 63.54, -0.05 55.39 C-1.06 47.24, 0.44 36.97, 3.75 29.56 C7.05 22.14, 13.12 15.55, 19.8 10.9 C26.49 6.25, 40.12 3.41, 43.86 1.64 C47.6 -0.14, 42.08 -0.41, 42.25 0.25" stroke="#1e1e1e" stroke-width="4" fill="none"></path></g></svg>