<svg version="1.1" xmlns="http://www.w3.org/2000/svg" viewBox="0 0 765.7894736842104 454.1578947368415" width="1531.5789473684208" height="908.315789473683">
  <!-- svg-source:excalidraw -->
  
  <defs>
    <style class="style-fonts">
      @font-face {
        font-family: "Virgil";
        src: url("https://excalidraw.com/Virgil.woff2");
      }
      @font-face {
        font-family: "Cascadia";
        src: url("https://excalidraw.com/Cascadia.woff2");
      }
    </style>
    
  </defs>
  <g stroke-linecap="round" transform="translate(10 10) rotate(0 372.8947368421052 216.05263157894717)"><path d="M0 0 L745.79 0 L745.79 432.11 L0 432.11" stroke="none" stroke-width="0" fill="#1e1e1e"></path><path d="M0 0 C271.86 0, 543.72 0, 745.79 0 M0 0 C217.94 0, 435.87 0, 745.79 0 M745.79 0 C745.79 114.34, 745.79 228.69, 745.79 432.11 M745.79 0 C745.79 119.2, 745.79 238.4, 745.79 432.11 M745.79 432.11 C502.32 432.11, 258.84 432.11, 0 432.11 M745.79 432.11 C463.17 432.11, 180.56 432.11, 0 432.11 M0 432.11 C0 323.41, 0 214.71, 0 0 M0 432.11 C0 299.12, 0 166.13, 0 0" stroke="#1e1e1e" stroke-width="1" fill="none"></path></g><g stroke-linecap="round" transform="translate(119.52631578947376 344.15789473684174) rotate(0 248.6842105263156 49.736842105263236)"><path d="M25.13 -1.84 L480.33 0.48 L488.94 4.92 L489.55 6.42 L494.63 15.25 L499.09 23.69 L495.37 81.43 L494.54 90.15 L487.02 94.62 L473.23 100.5 L19.89 100.04 L7.86 94.57 L3.25 91.15 L3.54 84.15 L0.76 72.74 L0.05 25.4 L-0.13 14.09 L7.17 5.43 L12.68 2.45 L24.95 -0.57" stroke="none" stroke-width="0" fill="#e9ecef"></path><path d="M24.87 0 M24.87 0 C202.51 -1.87, 379.09 -1.52, 472.5 0 M24.87 0 C159.54 -1.32, 294.39 -1.9, 472.5 0 M472.5 0 C488.99 -1.5, 499.34 6.78, 497.37 24.87 M472.5 0 C487.13 1.78, 495.19 6.69, 497.37 24.87 M497.37 24.87 C498.06 44.64, 495.49 62.94, 497.37 74.61 M497.37 24.87 C498.05 43.17, 498.6 60.51, 497.37 74.61 M497.37 74.61 C495.9 90.69, 488.37 99.59, 472.5 99.47 M497.37 74.61 C499.03 88.98, 488.87 98.44, 472.5 99.47 M472.5 99.47 C313.76 99.03, 156.18 100.51, 24.87 99.47 M472.5 99.47 C355.14 100.14, 236.99 99.88, 24.87 99.47 M24.87 99.47 C7.52 99.58, -0.81 91.61, 0 74.61 M24.87 99.47 C8.26 98.2, 1.06 91.19, 0 74.61 M0 74.61 C-1.64 58.46, -1.2 44.47, 0 24.87 M0 74.61 C0.42 60.67, 0.11 48.92, 0 24.87 M0 24.87 C-0.12 6.29, 6.53 -1.96, 24.87 0 M0 24.87 C-0.65 6.22, 8.61 -0.18, 24.87 0" stroke="#1e1e1e" stroke-width="1" fill="none"></path></g><g stroke-linecap="round" transform="translate(119.00000000000023 344.68421052631527) rotate(0 123.94736842105249 49.73684210526312)"><path d="M5.96 6.51 C5.96 6.51, 5.96 6.51, 5.96 6.51 M5.96 6.51 C5.96 6.51, 5.96 6.51, 5.96 6.51 M6.36 12.15 C9.96 7.55, 12.48 5.55, 14.89 2.34 M6.36 12.15 C9.43 7.99, 12.67 4.62, 14.89 2.34 M3.47 21.57 C8.47 15.7, 15.55 10.66, 21.19 1.19 M3.47 21.57 C8.16 15.3, 13.79 9.01, 21.19 1.19 M3.21 27.97 C11.1 19.56, 16.46 12.03, 26.17 1.55 M3.21 27.97 C10.91 19.01, 19.05 8.61, 26.17 1.55 M3.61 33.61 C15.63 21.41, 25.1 9.94, 31.82 1.16 M3.61 33.61 C9.77 25.88, 16.8 17.76, 31.82 1.16 M3.34 40.01 C14.06 24.59, 28.6 11.45, 36.8 1.52 M3.34 40.01 C11.76 32.46, 18.52 24.01, 36.8 1.52 M3.08 46.41 C10.87 36.76, 23.72 24.69, 42.45 1.12 M3.08 46.41 C17.6 27.88, 34.06 10.28, 42.45 1.12 M3.48 52.05 C14.24 40.77, 22.08 28.51, 47.43 1.48 M3.48 52.05 C19.95 33.79, 36.27 15.76, 47.43 1.48 M3.22 58.45 C16.11 44, 24.48 31.35, 53.08 1.09 M3.22 58.45 C16.49 44.43, 29.76 27.92, 53.08 1.09 M3.61 64.09 C15.79 46.84, 30.85 31.96, 58.06 1.45 M3.61 64.09 C25.97 39.22, 47.12 14.55, 58.06 1.45 M3.35 70.49 C25.36 47.64, 42.16 22.91, 63.71 1.05 M3.35 70.49 C21.58 50.08, 40.71 27.62, 63.71 1.05 M3.09 76.88 C30.48 46.1, 54.9 18.85, 68.69 1.41 M3.09 76.88 C28.75 48.36, 54.86 17.66, 68.69 1.41 M3.48 82.53 C16.43 63.99, 34.34 49.66, 74.34 1.02 M3.48 82.53 C18.62 65.61, 32.68 49.47, 74.34 1.02 M4.53 87.42 C36.32 53.91, 65.08 20.76, 79.32 1.38 M4.53 87.42 C22.68 66.18, 38.56 45.98, 79.32 1.38 M6.24 91.55 C30.44 65.19, 49.92 42.02, 84.97 0.98 M6.24 91.55 C23.58 72.61, 39.31 54.19, 84.97 0.98 M8.6 94.93 C27.47 73.39, 43.83 51.44, 89.95 1.34 M8.6 94.93 C31.9 67.49, 53.85 41.83, 89.95 1.34 M11.62 97.55 C38.64 63.73, 67.33 33.62, 95.6 0.95 M11.62 97.55 C41.05 62.81, 72.16 28.27, 95.6 0.95 M15.3 99.42 C42.57 72.17, 66.96 38.82, 100.58 1.31 M15.3 99.42 C39.06 73.23, 62.32 44.79, 100.58 1.31 M20.28 99.78 C55.89 63.02, 88.41 23.03, 105.57 1.67 M20.28 99.78 C44.53 73.47, 67.86 47.79, 105.57 1.67 M25.27 100.14 C50.44 72.62, 76.26 42.38, 111.21 1.28 M25.27 100.14 C47.14 75.14, 67.5 50.66, 111.21 1.28 M30.91 99.75 C48.61 77.09, 70.95 54.07, 116.2 1.64 M30.91 99.75 C64.02 62, 95.87 25.99, 116.2 1.64 M35.9 100.11 C57.85 75.41, 80.58 46.01, 121.84 1.24 M35.9 100.11 C53.52 80.39, 71.02 60.89, 121.84 1.24 M41.54 99.71 C61.81 78.07, 82.78 53.12, 126.83 1.6 M41.54 99.71 C63.14 75.3, 83.65 50.23, 126.83 1.6 M46.53 100.07 C79.36 63.03, 112.9 21.92, 132.47 1.21 M46.53 100.07 C67.87 73.57, 91.15 47.02, 132.47 1.21 M52.17 99.68 C84.63 64.46, 113.07 29.59, 137.46 1.57 M52.17 99.68 C77.7 70.81, 103.15 41.47, 137.46 1.57 M57.16 100.04 C74.82 79.6, 95.83 59.54, 143.1 1.17 M57.16 100.04 C83.46 69.07, 110.68 38.23, 143.1 1.17 M62.8 99.64 C93.32 60.83, 129.4 25.81, 148.09 1.53 M62.8 99.64 C86.51 74.52, 108.18 48.84, 148.09 1.53 M67.79 100 C98.05 62.71, 128.52 29.14, 153.73 1.14 M67.79 100 C94.46 68.58, 120.16 37.02, 153.73 1.14 M73.43 99.61 C93.77 77.55, 113.87 55.23, 158.72 1.5 M73.43 99.61 C101.06 69.1, 127.92 35.89, 158.72 1.5 M78.42 99.97 C102.11 70.81, 126.31 44.56, 164.36 1.1 M78.42 99.97 C99.26 76.33, 118.7 54.32, 164.36 1.1 M83.41 100.33 C103.83 76.81, 127.1 50.86, 169.35 1.46 M83.41 100.33 C117.28 60.93, 151.25 21.99, 169.35 1.46 M89.05 99.94 C114.87 71.09, 136.74 43.47, 174.99 1.07 M89.05 99.94 C118.42 68.08, 145.6 36.82, 174.99 1.07 M94.04 100.3 C121.34 68.23, 151.01 33.86, 179.98 1.43 M94.04 100.3 C113.85 76.99, 132.37 54.73, 179.98 1.43 M99.68 99.9 C122.29 72.48, 143.12 48.93, 185.62 1.03 M99.68 99.9 C117.2 80.02, 133.62 58.86, 185.62 1.03 M104.67 100.26 C123.56 74.11, 146.42 52.59, 190.61 1.39 M104.67 100.26 C132.79 69.78, 160.3 38.17, 190.61 1.39 M110.31 99.87 C130.23 81.44, 145.33 59.7, 196.25 1 M110.31 99.87 C127.23 79.23, 146.32 58.34, 196.25 1 M115.3 100.23 C134.45 78.89, 156.06 55.4, 201.24 1.36 M115.3 100.23 C148.49 61.99, 182.02 24.86, 201.24 1.36 M120.94 99.83 C146.26 67.46, 174.21 37.89, 206.88 0.97 M120.94 99.83 C140.14 76.26, 161.22 54.05, 206.88 0.97 M125.93 100.19 C143.83 76.99, 166.46 55.32, 211.87 1.33 M125.93 100.19 C150.46 72.24, 172.81 44.33, 211.87 1.33 M131.57 99.8 C152.15 73.05, 175.71 48.35, 216.86 1.69 M131.57 99.8 C152.29 75.47, 175.23 50.83, 216.86 1.69 M136.56 100.16 C161.48 70.01, 185.29 41.62, 223.16 0.54 M136.56 100.16 C163.39 69, 190.31 39.14, 223.16 0.54 M142.2 99.76 C166.4 68.55, 192.82 39.71, 228.14 0.9 M142.2 99.76 C164.93 73.28, 187.12 48.67, 228.14 0.9 M147.19 100.12 C171.29 71.46, 196.53 43.45, 232.48 2.01 M147.19 100.12 C170.62 70.25, 197.43 42.86, 232.48 2.01 M152.83 99.73 C185.06 60.86, 218.32 25.27, 236.15 3.88 M152.83 99.73 C178.42 69.22, 205.86 38.8, 236.15 3.88 M157.82 100.09 C180 72.53, 204.93 47.78, 240.48 5 M157.82 100.09 C184.14 69.87, 208.47 41.07, 240.48 5 M163.46 99.69 C184.53 76.51, 203.29 54.25, 242.84 8.37 M163.46 99.69 C184.45 74.64, 205.06 51.34, 242.84 8.37 M168.45 100.05 C195.31 69.71, 219.58 43.16, 245.86 11 M168.45 100.05 C197.09 69.21, 223.93 38.67, 245.86 11 M174.09 99.66 C197.19 71.3, 223.27 44.33, 247.57 15.13 M174.09 99.66 C191.53 79.57, 210.05 58.71, 247.57 15.13 M179.08 100.02 C193.56 79.02, 211.42 63.41, 248.62 20.02 M179.08 100.02 C198.63 78.71, 216.32 57.49, 248.62 20.02 M184.72 99.63 C199.73 83.62, 214.72 64.87, 248.36 26.42 M184.72 99.63 C208.94 73.04, 231.98 45.91, 248.36 26.42 M189.71 99.99 C204.18 80.53, 222.5 63.44, 248.75 32.06 M189.71 99.99 C201.83 84.28, 215.62 69.24, 248.75 32.06 M195.35 99.59 C210.72 83.45, 225.06 67.88, 248.49 38.46 M195.35 99.59 C207.41 83.85, 221.53 68.37, 248.49 38.46 M200.34 99.95 C221.18 79.14, 238.55 55.2, 248.89 44.1 M200.34 99.95 C213.48 86.33, 225.03 72.81, 248.89 44.1 M205.33 100.31 C220.96 82.1, 236.31 64.96, 248.63 50.5 M205.33 100.31 C217.86 87.71, 228.58 74.01, 248.63 50.5 M210.97 99.92 C218.89 88.88, 232.46 79.01, 249.02 56.14 M210.97 99.92 C220.74 87.68, 231.8 76.37, 249.02 56.14 M215.96 100.28 C223.93 90.56, 230.01 82.54, 248.76 62.54 M215.96 100.28 C225.43 89.05, 235.09 76.6, 248.76 62.54 M221.6 99.88 C225.8 93.2, 232.28 86.23, 249.15 68.18 M221.6 99.88 C228.39 91.05, 235.52 82.79, 249.15 68.18 M225.27 101.75 C233.87 93.88, 240.42 85.73, 248.24 75.34 M225.27 101.75 C229.69 96.29, 236.34 90.24, 248.24 75.34 M232.23 99.85 C237.16 96.4, 239.71 89.49, 247.32 82.49 M232.23 99.85 C237.54 93.86, 243.89 87.52, 247.32 82.49 M6.31 93.34 C6.31 93.34, 6.31 93.34, 6.31 93.34 M6.31 93.34 C6.31 93.34, 6.31 93.34, 6.31 93.34 M15.73 96.22 C13.24 93.6, 11.34 93.71, 5.92 87.7 M15.73 96.22 C11.95 93.53, 8.65 89.66, 5.92 87.7 M25.15 99.11 C19.4 93.85, 9.54 88.2, 1.75 78.77 M25.15 99.11 C18.18 92.3, 9.59 85.41, 1.75 78.77 M31.54 99.37 C21.05 88.9, 8.96 80.41, 2.11 73.79 M31.54 99.37 C24.05 92.02, 16.43 85.63, 2.11 73.79 M37.19 98.98 C24.31 87.97, 8.81 73.72, 1.72 68.14 M37.19 98.98 C28.72 91.55, 20.79 84.44, 1.72 68.14 M43.58 99.24 C33.23 90.28, 20.1 81.38, 2.08 63.16 M43.58 99.24 C33.61 89.78, 22.89 79.59, 2.08 63.16 M49.23 98.84 C39.38 90.58, 25.83 78.58, 1.68 57.51 M49.23 98.84 C32.85 84.15, 17.08 69.85, 1.68 57.51 M55.62 99.11 C41.86 85.67, 22.8 71.23, 2.04 52.53 M55.62 99.11 C34.07 81.1, 13.69 61.74, 2.04 52.53 M62.02 99.37 C42.33 83.79, 23.7 65.73, 1.65 46.88 M62.02 99.37 C41.22 82.01, 18.64 63.29, 1.65 46.88 M67.67 98.97 C47.12 82.31, 26.45 62.36, 2.01 41.9 M67.67 98.97 C43.93 78.77, 20.47 58.25, 2.01 41.9 M74.06 99.23 C46.28 75.18, 22.13 51.65, 1.61 36.25 M74.06 99.23 C50.41 77.72, 27.09 57.16, 1.61 36.25 M79.71 98.84 C51.84 78.44, 25.78 54.64, 1.97 31.27 M79.71 98.84 C64.57 85.94, 47.71 72.07, 1.97 31.27 M86.1 99.1 C57.33 75.17, 28.08 47.75, 1.58 25.62 M86.1 99.1 C67.85 82.33, 49.32 65.12, 1.58 25.62 M92.5 99.36 C56.15 71.34, 24.01 41.39, 1.94 20.64 M92.5 99.36 C58.36 70.32, 23.31 39.52, 1.94 20.64 M98.15 98.97 C69.38 74.28, 44.65 49.5, 3.05 16.3 M98.15 98.97 C77.81 81.59, 58.9 64.4, 3.05 16.3 M104.54 99.23 C68.5 66.86, 27.89 31.91, 4.17 11.97 M104.54 99.23 C73.76 72.3, 42.03 43.99, 4.17 11.97 M110.19 98.83 C88.95 79.39, 67.45 61.79, 5.28 7.64 M110.19 98.83 C77.29 68.52, 42.66 40.38, 5.28 7.64 M116.58 99.1 C72.11 62.59, 30.16 22.28, 7.91 4.62 M116.58 99.1 C90.43 77.33, 66.39 54.47, 7.91 4.62 M122.98 99.36 C96.56 75.83, 67.24 53.63, 11.28 2.26 M122.98 99.36 C80.51 63.16, 38.7 27.29, 11.28 2.26 M128.62 98.96 C91.19 67.91, 55.45 34.86, 15.42 0.55 M128.62 98.96 C91.72 68.11, 55.64 37.31, 15.42 0.55 M135.02 99.22 C102.83 73.01, 74.05 45.14, 20.31 -0.5 M135.02 99.22 C101.87 71.92, 71.43 43.57, 20.31 -0.5 M140.67 98.83 C118.24 77.68, 93.47 58.44, 25.95 -0.89 M140.67 98.83 C96.5 61.54, 51.65 21.99, 25.95 -0.89 M147.06 99.09 C108.32 66.79, 73.05 32.65, 31.59 -1.29 M147.06 99.09 C109.17 64.56, 71.96 33.36, 31.59 -1.29 M153.46 99.35 C118.32 69.04, 82.61 38, 37.99 -1.02 M153.46 99.35 C107.62 61.29, 61.61 20.93, 37.99 -1.02 M159.1 98.96 C121.91 67.08, 87.46 32.59, 44.39 -0.76 M159.1 98.96 C123.59 70.69, 88.87 40.07, 44.39 -0.76 M165.5 99.22 C139.1 75.61, 109.91 52.93, 50.03 -1.16 M165.5 99.22 C129.49 68.21, 94.08 37.06, 50.03 -1.16 M171.15 98.83 C125.43 59.65, 80.06 16.82, 56.43 -0.9 M171.15 98.83 C129.16 61.15, 86.5 24.08, 56.43 -0.9 M177.54 99.09 C145.69 73.86, 115.15 48.44, 62.07 -1.29 M177.54 99.09 C146.07 70.99, 114.54 43.59, 62.07 -1.29 M183.94 99.35 C142.19 62.81, 100.46 24.3, 68.47 -1.03 M183.94 99.35 C138.91 59.99, 92.38 21.38, 68.47 -1.03 M189.58 98.95 C148.9 63.39, 107.37 26.42, 74.87 -0.77 M189.58 98.95 C163.56 77.5, 137.59 54.27, 74.87 -0.77 M195.98 99.21 C169.6 79.72, 148.38 55.64, 80.51 -1.16 M195.98 99.21 C150.38 61.7, 105.38 20.9, 80.51 -1.16 M201.62 98.82 C160.13 60.23, 114.98 23.63, 86.91 -0.9 M201.62 98.82 C169.44 72.51, 138.45 44.22, 86.91 -0.9 M208.02 99.08 C183.35 75.58, 156.48 50.58, 92.55 -1.3 M208.02 99.08 C173.17 68.47, 140.18 38.47, 92.55 -1.3 M214.42 99.34 C181.88 71.61, 150.92 41.54, 98.95 -1.03 M214.42 99.34 C174.59 65.37, 134.38 30.25, 98.95 -1.03 M220.06 98.95 C183.72 68.64, 150.98 38.67, 105.35 -0.77 M220.06 98.95 C194.6 77.82, 169.68 55.44, 105.35 -0.77 M224.95 97.9 C195.11 72.46, 165.02 45.17, 110.99 -1.17 M224.95 97.9 C190.03 69.33, 156.7 38.91, 110.99 -1.17 M229.09 96.19 C184.6 57.06, 143 19.91, 117.39 -0.91 M229.09 96.19 C189.22 60.47, 150.23 24.88, 117.39 -0.91 M233.97 95.14 C201.44 67.93, 169.74 41.98, 123.03 -1.3 M233.97 95.14 C207.46 72.1, 178.28 48.82, 123.03 -1.3 M239.62 94.75 C209.95 72.03, 183.87 44.68, 129.43 -1.04 M239.62 94.75 C206.7 67.25, 174.91 39.56, 129.43 -1.04 M242.24 91.73 C205.22 62.43, 169.27 30.18, 135.83 -0.78 M242.24 91.73 C219.87 72.7, 196.65 53.23, 135.83 -0.78 M244.87 88.71 C211.65 59.45, 180.83 29.63, 141.47 -1.17 M244.87 88.71 C214.52 62.65, 183.63 35.75, 141.47 -1.17 M246.73 85.03 C213.67 56.68, 182.33 25.11, 147.87 -0.91 M246.73 85.03 C217.71 60.83, 189.89 34.49, 147.87 -0.91 M247.09 80.05 C222.02 60.43, 200.19 40.04, 153.51 -1.31 M247.09 80.05 C228.66 61.93, 208.66 43.8, 153.51 -1.31 M248.21 75.72 C226.12 55.65, 202.25 35.72, 159.91 -1.04 M248.21 75.72 C225.17 54.85, 201.75 35.12, 159.91 -1.04 M250.08 72.04 C221.86 50.05, 195.04 24.71, 166.31 -0.78 M250.08 72.04 C217.12 44.23, 185.86 16.48, 166.31 -0.78 M250.44 67.05 C217.54 38.58, 189.41 14.46, 171.95 -1.18 M250.44 67.05 C219.37 40.63, 189.8 12.54, 171.95 -1.18 M250.04 61.41 C229.46 42.39, 208.23 21.99, 178.35 -0.92 M250.04 61.41 C225.58 39.46, 201.47 19.22, 178.35 -0.92 M249.65 55.77 C228.33 39.58, 209.26 21.62, 183.99 -1.31 M249.65 55.77 C232.95 40.07, 215.84 26.49, 183.99 -1.31 M250.01 50.78 C230.45 31.68, 207.14 15.25, 190.39 -1.05 M250.01 50.78 C231.41 34.55, 214.51 19.01, 190.39 -1.05 M249.62 45.14 C237.41 33.78, 222.97 22.03, 196.79 -0.79 M249.62 45.14 C233.96 31.91, 219.25 19.48, 196.79 -0.79 M249.98 40.15 C234.95 30.49, 222.39 15.09, 202.43 -1.18 M249.98 40.15 C238.11 29.58, 226.57 20.63, 202.43 -1.18 M249.58 34.51 C234.2 20.5, 220.66 6.36, 208.83 -0.92 M249.58 34.51 C242.17 27.48, 233.24 19.4, 208.83 -0.92 M249.94 29.52 C237.77 17.69, 222.77 5.45, 214.47 -1.31 M249.94 29.52 C239.7 21.8, 230.04 13.78, 214.47 -1.31 M249.55 23.88 C241.3 17.38, 230 7.45, 220.87 -1.05 M249.55 23.88 C243.6 17.91, 236.54 13.36, 220.87 -1.05 M248.4 17.58 C242.04 13.91, 238.14 7.23, 225 -2.76 M248.4 17.58 C243.02 12.54, 236.71 8.62, 225 -2.76" stroke="#a5d8ff" stroke-width="0.5" fill="none"></path><path d="M24.87 0 M24.87 0 C103.65 0.4, 179.69 1.51, 223.03 0 M24.87 0 C75.54 -0.28, 126.77 -0.39, 223.03 0 M223.03 0 C240.08 -1.06, 246.96 10.01, 247.89 24.87 M223.03 0 C241.25 -2.29, 248.3 8.53, 247.89 24.87 M247.89 24.87 C248.4 44.33, 247.26 61.68, 247.89 74.61 M247.89 24.87 C247.77 42.02, 247.52 59.21, 247.89 74.61 M247.89 74.61 C247.85 89.99, 239.43 97.75, 223.03 99.47 M247.89 74.61 C247.67 90.46, 239.89 98.56, 223.03 99.47 M223.03 99.47 C168.62 101.88, 114.53 99.68, 24.87 99.47 M223.03 99.47 C178.2 98.01, 134.6 97.98, 24.87 99.47 M24.87 99.47 C9.58 100.19, -1.98 93.09, 0 74.61 M24.87 99.47 C9.97 100.98, -1.71 92.2, 0 74.61 M0 74.61 C0.38 56.93, 0.46 42.73, 0 24.87 M0 74.61 C0.37 59.09, -0.93 44.43, 0 24.87 M0 24.87 C-1.95 9.96, 8.18 0.52, 24.87 0 M0 24.87 C-0.42 9.87, 7.91 1.21, 24.87 0" stroke="#1e1e1e" stroke-width="1" fill="none"></path></g><g stroke-linecap="round" transform="translate(369.7894736842104 344.4210526315786) rotate(0 123.94736842105249 49.73684210526312)"><path d="M5.96 6.51 C5.96 6.51, 5.96 6.51, 5.96 6.51 M5.96 6.51 C5.96 6.51, 5.96 6.51, 5.96 6.51 M6.36 12.15 C9.27 9.98, 9.41 7.43, 14.89 2.34 M6.36 12.15 C8.24 10.51, 10 7.85, 14.89 2.34 M3.47 21.57 C8.94 15.18, 14.56 7.31, 21.19 1.19 M3.47 21.57 C8.82 15.89, 13.3 10.18, 21.19 1.19 M3.21 27.97 C11.37 21.76, 18.67 11.55, 26.17 1.55 M3.21 27.97 C12.82 17.3, 20.65 8.44, 26.17 1.55 M3.61 33.61 C9.63 26.98, 18.85 15.74, 31.82 1.16 M3.61 33.61 C14.84 22.65, 24 9.19, 31.82 1.16 M3.34 40.01 C10.73 28.93, 19.55 21.01, 36.8 1.52 M3.34 40.01 C15.34 26.02, 29.16 9.98, 36.8 1.52 M3.08 46.41 C20.45 29.49, 32.68 8.32, 42.45 1.12 M3.08 46.41 C11.19 35.94, 21.65 26.61, 42.45 1.12 M3.48 52.05 C17.87 37.74, 29.53 23.51, 47.43 1.48 M3.48 52.05 C16.45 35.36, 31.54 20.12, 47.43 1.48 M3.22 58.45 C13.77 46.27, 24.45 33.83, 53.08 1.09 M3.22 58.45 C21.72 36.84, 41.75 14.01, 53.08 1.09 M3.61 64.09 C16.85 50.2, 25.9 39.16, 58.06 1.45 M3.61 64.09 C17.5 48.94, 30.95 33.55, 58.06 1.45 M3.35 70.49 C24.5 46.15, 45.4 22.93, 63.71 1.05 M3.35 70.49 C26.24 44.97, 46.78 20.08, 63.71 1.05 M3.09 76.88 C21.28 58.1, 35.02 39.61, 68.69 1.41 M3.09 76.88 C26.98 48.98, 52.64 18.54, 68.69 1.41 M3.48 82.53 C15.66 63.52, 31.35 47.85, 74.34 1.02 M3.48 82.53 C22.52 61.66, 38.7 42.89, 74.34 1.02 M4.53 87.42 C25.27 61.11, 49.81 36.47, 79.32 1.38 M4.53 87.42 C21.1 69.22, 37.04 52.38, 79.32 1.38 M6.24 91.55 C22.42 69.68, 44.2 51.82, 84.97 0.98 M6.24 91.55 C30.7 62.22, 56.65 32.58, 84.97 0.98 M8.6 94.93 C32.45 68.48, 57.58 42.79, 89.95 1.34 M8.6 94.93 C27.34 73.32, 46.06 52.28, 89.95 1.34 M11.62 97.55 C31.96 75.85, 48.56 52.5, 95.6 0.95 M11.62 97.55 C31.66 74.12, 51.24 51.62, 95.6 0.95 M15.3 99.42 C48.29 60.51, 83.32 23.32, 100.58 1.31 M15.3 99.42 C49.59 61, 82.24 24.03, 100.58 1.31 M20.28 99.78 C51.68 61.47, 83.03 26.23, 105.57 1.67 M20.28 99.78 C43.11 71.83, 67.3 45.04, 105.57 1.67 M25.27 100.14 C57.8 60.05, 94.81 23.19, 111.21 1.28 M25.27 100.14 C47.46 73.61, 72.29 46.48, 111.21 1.28 M30.91 99.75 C57.4 68.85, 80.97 40.91, 116.2 1.64 M30.91 99.75 C51.49 75.63, 71.31 52.15, 116.2 1.64 M35.9 100.11 C66.55 65.37, 98.64 28.96, 121.84 1.24 M35.9 100.11 C61.01 68.74, 87.24 39.39, 121.84 1.24 M41.54 99.71 C68.87 68.9, 99.41 35.9, 126.83 1.6 M41.54 99.71 C74.52 62.03, 104.85 25.23, 126.83 1.6 M46.53 100.07 C78.2 65.37, 111.26 26.17, 132.47 1.21 M46.53 100.07 C75.02 68.16, 101.5 37.9, 132.47 1.21 M52.17 99.68 C76.54 72.53, 98.92 44.91, 137.46 1.57 M52.17 99.68 C74.31 72.98, 98.47 46.01, 137.46 1.57 M57.16 100.04 C85.62 66.29, 113.51 32.04, 143.1 1.17 M57.16 100.04 C77.55 78.2, 97.45 54.03, 143.1 1.17 M62.8 99.64 C83.69 71.11, 106.81 47.86, 148.09 1.53 M62.8 99.64 C93.83 65.31, 122.34 29.61, 148.09 1.53 M67.79 100 C88.04 79.51, 108.66 56.96, 153.73 1.14 M67.79 100 C97.28 65.31, 126.73 32.25, 153.73 1.14 M73.43 99.61 C94.6 76.38, 114.7 51.83, 158.72 1.5 M73.43 99.61 C104.92 64.64, 136.37 27.56, 158.72 1.5 M78.42 99.97 C98 75.83, 119.16 53.19, 164.36 1.1 M78.42 99.97 C99.08 74.67, 121.31 50.86, 164.36 1.1 M83.41 100.33 C114.96 65.84, 144.68 30.74, 169.35 1.46 M83.41 100.33 C110.57 67.71, 137.48 37.65, 169.35 1.46 M89.05 99.94 C107.99 78.7, 125.05 61.24, 174.99 1.07 M89.05 99.94 C114.85 70.31, 139.22 39.8, 174.99 1.07 M94.04 100.3 C119.73 70.93, 149.62 39.7, 179.98 1.43 M94.04 100.3 C122.22 67.73, 151.46 35.99, 179.98 1.43 M99.68 99.9 C117.75 78.99, 139.5 55.49, 185.62 1.03 M99.68 99.9 C131.78 63.76, 165.12 25.85, 185.62 1.03 M104.67 100.26 C123.45 77.62, 140.59 57.25, 190.61 1.39 M104.67 100.26 C133.51 64.42, 164.49 31.1, 190.61 1.39 M110.31 99.87 C143.41 60.13, 180.11 18.94, 196.25 1 M110.31 99.87 C135.4 70.5, 162.3 39.62, 196.25 1 M115.3 100.23 C150.46 60.23, 183.86 21.88, 201.24 1.36 M115.3 100.23 C140.43 70.16, 166.83 39.24, 201.24 1.36 M120.94 99.83 C145.58 68.06, 174.04 38.63, 206.88 0.97 M120.94 99.83 C139.26 78.16, 160.14 54.08, 206.88 0.97 M125.93 100.19 C151.05 70.26, 178.62 41.32, 211.87 1.33 M125.93 100.19 C152.76 70.02, 180.3 38.57, 211.87 1.33 M131.57 99.8 C155.84 70.96, 180.07 41.05, 216.86 1.69 M131.57 99.8 C153.08 74.49, 176.29 48.46, 216.86 1.69 M136.56 100.16 C158.6 74.9, 180.47 50.9, 223.16 0.54 M136.56 100.16 C157.32 76.08, 178.74 50.63, 223.16 0.54 M142.2 99.76 C162.96 76.35, 184.01 52.65, 228.14 0.9 M142.2 99.76 C159.72 77.91, 176.76 57.38, 228.14 0.9 M147.19 100.12 C171.1 74.41, 195.33 44.72, 232.48 2.01 M147.19 100.12 C165.85 78.01, 183.88 56.71, 232.48 2.01 M152.83 99.73 C169.7 81.33, 185.21 59.71, 236.15 3.88 M152.83 99.73 C173.1 76.91, 193.61 51.82, 236.15 3.88 M157.82 100.09 C178.5 74.32, 201.13 52.11, 240.48 5 M157.82 100.09 C180.65 73.6, 204.68 48.22, 240.48 5 M163.46 99.69 C187.56 72.67, 213.31 43.36, 242.84 8.37 M163.46 99.69 C185.1 74.55, 204.9 51.06, 242.84 8.37 M168.45 100.05 C186.15 78.62, 199.92 62.37, 245.86 11 M168.45 100.05 C191.29 74.23, 214.34 47.42, 245.86 11 M174.09 99.66 C193.55 76.36, 214.28 50.31, 247.57 15.13 M174.09 99.66 C196.27 73.87, 219.84 45.73, 247.57 15.13 M179.08 100.02 C193.5 81.05, 207.9 65.99, 248.62 20.02 M179.08 100.02 C198.7 76.86, 219.25 54.44, 248.62 20.02 M184.72 99.63 C208.79 71.93, 229.61 47.55, 248.36 26.42 M184.72 99.63 C206.51 74.9, 228.83 48.95, 248.36 26.42 M189.71 99.99 C202.41 84.97, 218.96 64.72, 248.75 32.06 M189.71 99.99 C207.88 79.7, 225.43 58.79, 248.75 32.06 M195.35 99.59 C210.85 80.2, 230.3 58.53, 248.49 38.46 M195.35 99.59 C211.15 83.34, 224.19 66.67, 248.49 38.46 M200.34 99.95 C216.56 79.25, 236.04 62.26, 248.89 44.1 M200.34 99.95 C217.14 81.36, 233.32 61.94, 248.89 44.1 M205.33 100.31 C215.85 86.93, 226.74 75.86, 248.63 50.5 M205.33 100.31 C219.91 83.29, 234.75 64.86, 248.63 50.5 M210.97 99.92 C221.77 84.71, 233.13 71.09, 249.02 56.14 M210.97 99.92 C218.47 90.28, 228.08 81.11, 249.02 56.14 M215.96 100.28 C225.75 91.27, 235.15 78.24, 248.76 62.54 M215.96 100.28 C226.82 87.4, 239.86 73.33, 248.76 62.54 M221.6 99.88 C230.44 89.69, 241.33 77.5, 249.15 68.18 M221.6 99.88 C230.11 90.34, 238.79 81.98, 249.15 68.18 M225.27 101.75 C231.8 92.57, 240.86 81.57, 248.24 75.34 M225.27 101.75 C233.53 91.92, 241.32 82.41, 248.24 75.34 M232.23 99.85 C239.56 93.49, 243.13 86.12, 247.32 82.49 M232.23 99.85 C237.16 94.25, 243.47 86.77, 247.32 82.49 M6.31 93.34 C6.31 93.34, 6.31 93.34, 6.31 93.34 M6.31 93.34 C6.31 93.34, 6.31 93.34, 6.31 93.34 M15.73 96.22 C14.17 94.69, 10.77 91.77, 5.92 87.7 M15.73 96.22 C12.33 93.65, 9.52 90.64, 5.92 87.7 M25.15 99.11 C17.95 94.24, 9.61 87.14, 1.75 78.77 M25.15 99.11 C19.47 94.21, 13.14 88.03, 1.75 78.77 M31.54 99.37 C24.5 94.84, 19.38 88.82, 2.11 73.79 M31.54 99.37 C25.39 92.58, 17.68 87.68, 2.11 73.79 M37.19 98.98 C23.85 88.96, 14.21 77.48, 1.72 68.14 M37.19 98.98 C27.49 90.93, 18.04 83.15, 1.72 68.14 M43.58 99.24 C29.18 88.28, 14.96 77.15, 2.08 63.16 M43.58 99.24 C29.82 87.66, 18.25 77.48, 2.08 63.16 M49.23 98.84 C31.95 82.72, 11.98 67.45, 1.68 57.51 M49.23 98.84 C34.99 87.66, 22.02 75.89, 1.68 57.51 M55.62 99.11 C43.15 84.3, 26.44 71.09, 2.04 52.53 M55.62 99.11 C38.55 83.63, 20.15 67.95, 2.04 52.53 M62.02 99.37 C41.54 80.74, 19.55 62.31, 1.65 46.88 M62.02 99.37 C39.91 79.17, 17.17 60.2, 1.65 46.88 M67.67 98.97 C42.68 76.83, 15.42 54.28, 2.01 41.9 M67.67 98.97 C45.67 78.7, 21.8 59.15, 2.01 41.9 M74.06 99.23 C53.37 82.48, 30.47 63.23, 1.61 36.25 M74.06 99.23 C57.29 84, 40.75 67.92, 1.61 36.25 M79.71 98.84 C49.33 73.9, 24.29 49.5, 1.97 31.27 M79.71 98.84 C58.3 79.06, 35.29 59.49, 1.97 31.27 M86.1 99.1 C55.18 70.66, 25.07 46.72, 1.58 25.62 M86.1 99.1 C56.78 73.87, 27.24 46.6, 1.58 25.62 M92.5 99.36 C62.5 72.96, 29.61 46.45, 1.94 20.64 M92.5 99.36 C56.38 68.29, 20.86 36.55, 1.94 20.64 M98.15 98.97 C72.23 76.17, 50.79 55.68, 3.05 16.3 M98.15 98.97 C69.78 74.04, 39.61 50.53, 3.05 16.3 M104.54 99.23 C66.87 65.41, 27.9 33.28, 4.17 11.97 M104.54 99.23 C68.23 67.15, 33.9 36.7, 4.17 11.97 M110.19 98.83 C85.11 76.62, 58 55.85, 5.28 7.64 M110.19 98.83 C85.09 77.58, 57.59 53.94, 5.28 7.64 M116.58 99.1 C73.56 64.56, 32.34 26.53, 7.91 4.62 M116.58 99.1 C73.8 62.4, 33.25 27.32, 7.91 4.62 M122.98 99.36 C90.78 70.71, 56.13 39.33, 11.28 2.26 M122.98 99.36 C96.89 75.51, 68.86 51.67, 11.28 2.26 M128.62 98.96 C84.4 63.08, 40.34 23.1, 15.42 0.55 M128.62 98.96 C90.87 67.96, 53.02 34.72, 15.42 0.55 M135.02 99.22 C89.77 62.59, 46.28 21.44, 20.31 -0.5 M135.02 99.22 C96.66 66.65, 60.21 35.09, 20.31 -0.5 M140.67 98.83 C108.85 70.08, 74.32 41.61, 25.95 -0.89 M140.67 98.83 C95.69 60.8, 49.78 20.15, 25.95 -0.89 M147.06 99.09 C110.62 64.48, 71.88 32.08, 31.59 -1.29 M147.06 99.09 C124.08 78.83, 100.51 58.77, 31.59 -1.29 M153.46 99.35 C119.56 69.09, 81.61 35.92, 37.99 -1.02 M153.46 99.35 C108.89 58.49, 62.31 19.03, 37.99 -1.02 M159.1 98.96 C119.56 64.36, 82.08 28.85, 44.39 -0.76 M159.1 98.96 C113.58 59.48, 68.9 21.11, 44.39 -0.76 M165.5 99.22 C129.82 67.23, 93.22 35.02, 50.03 -1.16 M165.5 99.22 C132.03 68.19, 95.54 38.4, 50.03 -1.16 M171.15 98.83 C130.31 60.34, 85.66 25.03, 56.43 -0.9 M171.15 98.83 C136.73 70.75, 104.74 40.64, 56.43 -0.9 M177.54 99.09 C143.02 70.54, 107.17 39.88, 62.07 -1.29 M177.54 99.09 C142.8 68.95, 106.28 37.67, 62.07 -1.29 M183.94 99.35 C148.69 68.31, 110.5 36.38, 68.47 -1.03 M183.94 99.35 C154.63 72.71, 123.74 46.38, 68.47 -1.03 M189.58 98.95 C152.57 68.12, 120.49 37.99, 74.87 -0.77 M189.58 98.95 C148.64 64.69, 109.73 28.56, 74.87 -0.77 M195.98 99.21 C153.89 61.98, 110.07 23.06, 80.51 -1.16 M195.98 99.21 C152 57.94, 105.1 19.95, 80.51 -1.16 M201.62 98.82 C166.09 68.41, 131.74 36.69, 86.91 -0.9 M201.62 98.82 C155.62 59.09, 110.23 20.84, 86.91 -0.9 M208.02 99.08 C169.29 66.58, 129.7 32.25, 92.55 -1.3 M208.02 99.08 C170.58 67.92, 133.79 35.48, 92.55 -1.3 M214.42 99.34 C176.76 64.7, 137.99 31.69, 98.95 -1.03 M214.42 99.34 C173.84 63.48, 133.48 27.14, 98.95 -1.03 M220.06 98.95 C188.99 74.33, 161.47 48.48, 105.35 -0.77 M220.06 98.95 C176.15 61.57, 133.61 24.58, 105.35 -0.77 M224.95 97.9 C187.86 65.03, 151.41 31.34, 110.99 -1.17 M224.95 97.9 C183.16 61.66, 140.48 24.56, 110.99 -1.17 M229.09 96.19 C204.77 73.07, 177.49 52.08, 117.39 -0.91 M229.09 96.19 C195.84 68.09, 164.09 39.26, 117.39 -0.91 M233.97 95.14 C199.47 67.28, 168.13 39.8, 123.03 -1.3 M233.97 95.14 C199.44 65.91, 164.49 34.14, 123.03 -1.3 M239.62 94.75 C197.77 56.32, 157.76 18.97, 129.43 -1.04 M239.62 94.75 C210.4 69.3, 180.49 42.8, 129.43 -1.04 M242.24 91.73 C200.6 56.13, 163.38 22.13, 135.83 -0.78 M242.24 91.73 C209.68 63.54, 176.9 35.39, 135.83 -0.78 M244.87 88.71 C215.49 64.04, 187.72 39.41, 141.47 -1.17 M244.87 88.71 C213.08 59.99, 180.3 32.45, 141.47 -1.17 M246.73 85.03 C211.52 54.77, 176.43 23.46, 147.87 -0.91 M246.73 85.03 C207.47 50.94, 168.29 15.38, 147.87 -0.91 M247.09 80.05 C214.51 51.22, 183.18 27.03, 153.51 -1.31 M247.09 80.05 C218.73 54.57, 191.13 31.42, 153.51 -1.31 M248.21 75.72 C221.07 53.99, 194.11 30.48, 159.91 -1.04 M248.21 75.72 C224.73 55.96, 201.7 35.16, 159.91 -1.04 M250.08 72.04 C219.53 44.87, 187.14 15.88, 166.31 -0.78 M250.08 72.04 C226.76 51.84, 202.38 30.22, 166.31 -0.78 M250.44 67.05 C235.11 51.04, 216.56 36.67, 171.95 -1.18 M250.44 67.05 C223.58 43.24, 196.2 20.85, 171.95 -1.18 M250.04 61.41 C227.1 39.74, 203.67 20.54, 178.35 -0.92 M250.04 61.41 C232.99 48.43, 215.75 32.44, 178.35 -0.92 M249.65 55.77 C225.02 35.28, 199.99 15.06, 183.99 -1.31 M249.65 55.77 C232.08 40.15, 213.86 25.94, 183.99 -1.31 M250.01 50.78 C234.35 37.41, 217.03 22.31, 190.39 -1.05 M250.01 50.78 C232.78 35.69, 217.36 22.17, 190.39 -1.05 M249.62 45.14 C234.05 33.27, 218.84 17.27, 196.79 -0.79 M249.62 45.14 C235.81 32.47, 222.77 20.01, 196.79 -0.79 M249.98 40.15 C230.65 24.76, 214.01 7.87, 202.43 -1.18 M249.98 40.15 C238.79 29.32, 226.38 19.73, 202.43 -1.18 M249.58 34.51 C237.13 25.5, 227.27 17.86, 208.83 -0.92 M249.58 34.51 C236.29 22.6, 221.51 10.56, 208.83 -0.92 M249.94 29.52 C239.97 22.79, 231.75 11.82, 214.47 -1.31 M249.94 29.52 C237.9 19.18, 225.53 8.79, 214.47 -1.31 M249.55 23.88 C237.48 16.56, 227.22 6.5, 220.87 -1.05 M249.55 23.88 C241.51 17.83, 233.95 10.59, 220.87 -1.05 M248.4 17.58 C238.11 11.61, 230.98 2.94, 225 -2.76 M248.4 17.58 C242.92 13.01, 235.13 6.68, 225 -2.76" stroke="#ffec99" stroke-width="0.5" fill="none"></path><path d="M24.87 0 M24.87 0 C80.45 -0.52, 137.55 -0.6, 223.03 0 M24.87 0 C73.74 0.75, 121.67 2.14, 223.03 0 M223.03 0 C241.04 -1.99, 248.25 8.5, 247.89 24.87 M223.03 0 C241.49 0.78, 246.29 8.67, 247.89 24.87 M247.89 24.87 C248.66 40.95, 247.25 56.73, 247.89 74.61 M247.89 24.87 C247.68 38.41, 247.62 52.28, 247.89 74.61 M247.89 74.61 C247.7 90.55, 239.86 98.68, 223.03 99.47 M247.89 74.61 C247.2 90.15, 241.65 98.42, 223.03 99.47 M223.03 99.47 C155.67 99.16, 90.04 97.01, 24.87 99.47 M223.03 99.47 C167.33 99.46, 109.36 100.05, 24.87 99.47 M24.87 99.47 C9.75 100.79, -1.49 92.07, 0 74.61 M24.87 99.47 C9.16 100.52, -1.29 91.89, 0 74.61 M0 74.61 C-0.3 63.16, 1.35 50.51, 0 24.87 M0 74.61 C-0.67 65.12, 0.25 54.22, 0 24.87 M0 24.87 C-0.36 9.66, 7.96 1.05, 24.87 0 M0 24.87 C-0.16 7.02, 10.58 -0.71, 24.87 0" stroke="#1e1e1e" stroke-width="1" fill="none"></path></g><g transform="translate(155.3157894736844 364.8157894736837) rotate(0 99.94999694824219 37.5)"><text x="0" y="0" font-family="Virgil, Segoe UI Emoji" font-size="20px" fill="#343a40" text-anchor="start" style="white-space: pre;" direction="ltr" dominant-baseline="text-before-edge">Fix links, edit pages,</text><text x="0" y="25" font-family="Virgil, Segoe UI Emoji" font-size="20px" fill="#343a40" text-anchor="start" style="white-space: pre;" direction="ltr" dominant-baseline="text-before-edge">write intros</text><text x="0" y="50" font-family="Virgil, Segoe UI Emoji" font-size="20px" fill="#343a40" text-anchor="start" style="white-space: pre;" direction="ltr" dominant-baseline="text-before-edge"></text></g><g transform="translate(396.6052631578947 363.3684210526312) rotate(0 102.28333282470697 25)"><text x="0" y="0" font-family="Virgil, Segoe UI Emoji" font-size="20px" fill="#343a40" text-anchor="start" style="white-space: pre;" direction="ltr" dominant-baseline="text-before-edge">Read chapter one;</text><text x="0" y="25" font-family="Virgil, Segoe UI Emoji" font-size="20px" fill="#343a40" text-anchor="start" style="white-space: pre;" direction="ltr" dominant-baseline="text-before-edge">Try your first tests</text></g><g stroke-linecap="round" transform="translate(189.57894736842093 248.0394736842103) rotate(0 187.6315789473682 49.736842105263236)"><path d="M26.85 0.83 L350.87 1.18 L360.9 3.29 L367.94 7.33 L373.25 14.55 L374.04 17.5 L375.55 73.35 L374.65 86.8 L370.92 88.28 L365.16 97.53 L348.53 100.38 L25.16 100.28 L15.93 97.6 L9.52 96.51 L3.51 89.2 L1.07 80.37 L0.88 20.56 L2.75 12 L6.47 4.28 L15.32 1.09 L23.76 1.98" stroke="none" stroke-width="0" fill="#e9ecef"></path><path d="M24.87 0 M24.87 0 C135.8 -0.15, 246.02 -0.29, 350.39 0 M24.87 0 C114.66 -1.12, 205.92 -0.75, 350.39 0 M350.39 0 C368.14 1.17, 375.12 7.04, 375.26 24.87 M350.39 0 C366.05 -1.04, 377.02 9.48, 375.26 24.87 M375.26 24.87 C372.92 35.06, 376.06 49.86, 375.26 74.61 M375.26 24.87 C374.57 42.21, 375.27 59.97, 375.26 74.61 M375.26 74.61 C373.46 92.13, 368.19 99.04, 350.39 99.47 M375.26 74.61 C373.43 90.17, 366.99 97.93, 350.39 99.47 M350.39 99.47 C252.55 100.05, 153.55 100.82, 24.87 99.47 M350.39 99.47 C253.8 101.38, 157.76 100.74, 24.87 99.47 M24.87 99.47 C8.63 100.44, 1.45 90.16, 0 74.61 M24.87 99.47 C8.03 100.92, -0.47 88.91, 0 74.61 M0 74.61 C-0.42 55.79, 0.82 39.42, 0 24.87 M0 74.61 C0.64 57.46, -0.46 41.33, 0 24.87 M0 24.87 C0.94 7.86, 6.76 -0.37, 24.87 0 M0 24.87 C-1.68 6.87, 7.68 -0.81, 24.87 0" stroke="#1e1e1e" stroke-width="1" fill="none"></path></g><g stroke-linecap="round" transform="translate(189.57894736842104 249.42105263157873) rotate(0 89.99999999999989 49.73684210526312)"><path d="M5.96 6.51 C5.96 6.51, 5.96 6.51, 5.96 6.51 M5.96 6.51 C5.96 6.51, 5.96 6.51, 5.96 6.51 M6.36 12.15 C9.23 8.95, 12.38 4.64, 14.89 2.34 M6.36 12.15 C8.72 9.71, 10.65 6.39, 14.89 2.34 M3.47 21.57 C7.84 14.61, 11.21 12.1, 21.19 1.19 M3.47 21.57 C10.1 13.83, 15.44 7.13, 21.19 1.19 M3.21 27.97 C9.44 21.84, 13.87 16.5, 26.17 1.55 M3.21 27.97 C9.08 20.88, 13.51 15.54, 26.17 1.55 M3.61 33.61 C13.38 24.11, 20.42 13.08, 31.82 1.16 M3.61 33.61 C15.27 21.31, 25.19 9.65, 31.82 1.16 M3.34 40.01 C13.78 26.74, 29.06 10.58, 36.8 1.52 M3.34 40.01 C14.64 28.72, 24.65 15.58, 36.8 1.52 M3.08 46.41 C11.7 37.78, 21.33 27.05, 42.45 1.12 M3.08 46.41 C18.38 27.53, 33.48 10.87, 42.45 1.12 M3.48 52.05 C17.62 35.07, 30.44 20.18, 47.43 1.48 M3.48 52.05 C20 33.64, 36.36 15.76, 47.43 1.48 M3.22 58.45 C17.1 42.34, 28.09 29.43, 53.08 1.09 M3.22 58.45 C13.04 46.2, 25.52 33.29, 53.08 1.09 M3.61 64.09 C17.63 49.31, 34.41 29.16, 58.06 1.45 M3.61 64.09 C17.81 46.16, 33.26 29.08, 58.06 1.45 M3.35 70.49 C23.08 51.39, 39.17 30.84, 63.71 1.05 M3.35 70.49 C23.54 47.6, 42.15 24.5, 63.71 1.05 M3.09 76.88 C31.33 47.5, 57.03 16.92, 68.69 1.41 M3.09 76.88 C24.29 53.44, 44.1 31.27, 68.69 1.41 M3.48 82.53 C17.83 66.9, 34.11 49.24, 74.34 1.02 M3.48 82.53 C21.21 63.58, 37.84 43.98, 74.34 1.02 M4.53 87.42 C33.1 53.71, 62.07 22.85, 79.32 1.38 M4.53 87.42 C26.15 63.46, 46.64 37.93, 79.32 1.38 M6.24 91.55 C28.47 66.64, 46.61 42.85, 84.97 0.98 M6.24 91.55 C29.67 64.18, 51.83 38.28, 84.97 0.98 M8.6 94.93 C31.78 66.38, 55.52 41.87, 89.95 1.34 M8.6 94.93 C29.28 70.43, 50.06 46.62, 89.95 1.34 M11.62 97.55 C33.78 71.12, 58.7 44.59, 95.6 0.95 M11.62 97.55 C35.03 68.13, 59.91 41.45, 95.6 0.95 M15.95 98.67 C39.76 75.17, 60.42 49.03, 100.58 1.31 M15.95 98.67 C36.81 74.5, 55.91 52.2, 100.58 1.31 M20.28 99.78 C46.16 71.89, 72.85 41.19, 105.57 1.67 M20.28 99.78 C42.28 75.6, 65.17 50.81, 105.57 1.67 M25.27 100.14 C43.98 78.45, 61.41 59.4, 111.21 1.28 M25.27 100.14 C46.56 74.43, 68.72 47.32, 111.21 1.28 M30.91 99.75 C57.41 67.89, 86.14 36.1, 116.2 1.64 M30.91 99.75 C54.45 73.94, 76.64 45.48, 116.2 1.64 M35.9 100.11 C69.38 63.44, 99.75 22.82, 121.84 1.24 M35.9 100.11 C61.78 70.58, 87.43 42.01, 121.84 1.24 M41.54 99.71 C71.88 63.33, 106.01 27.85, 126.83 1.6 M41.54 99.71 C61.92 77.21, 80.92 55.91, 126.83 1.6 M46.53 100.07 C78.47 63.65, 112.42 25.08, 132.47 1.21 M46.53 100.07 C77.07 65.27, 108.3 29.83, 132.47 1.21 M52.17 99.68 C70.36 77.59, 88.47 57.44, 137.46 1.57 M52.17 99.68 C77.95 71.43, 102.2 42.08, 137.46 1.57 M57.16 100.04 C78.45 71.66, 105.6 44.43, 143.1 1.17 M57.16 100.04 C74.04 79.38, 92.31 58.58, 143.1 1.17 M62.8 99.64 C82.34 79.35, 103.45 53.79, 148.09 1.53 M62.8 99.64 C83.19 77.76, 101.54 56.92, 148.09 1.53 M67.79 100 C101.26 63.13, 129.16 28.74, 153.73 1.14 M67.79 100 C87.78 77.83, 107.39 54.4, 153.73 1.14 M73.43 99.61 C100.92 65.65, 131.69 32.95, 158.06 2.25 M73.43 99.61 C96.33 71.73, 120.07 45.48, 158.06 2.25 M78.42 99.97 C111.94 62.17, 144.15 27.1, 162.4 3.37 M78.42 99.97 C109.48 63.58, 141.67 29.37, 162.4 3.37 M83.41 100.33 C112.99 68.67, 140.97 34.96, 166.73 4.48 M83.41 100.33 C106.98 72.57, 131.44 46.12, 166.73 4.48 M89.05 99.94 C114.28 71.42, 139.34 43.36, 171.71 4.84 M89.05 99.94 C120.7 62.76, 154.03 26.31, 171.71 4.84 M94.04 100.3 C117.66 71.38, 142.82 42.83, 174.73 7.47 M94.04 100.3 C125.21 64.05, 156.31 29.61, 174.73 7.47 M99.68 99.9 C125.29 68.77, 152.81 37.44, 177.1 10.85 M99.68 99.9 C130.01 65.01, 161.27 28.55, 177.1 10.85 M104.67 100.26 C118.39 82.22, 134.45 65.72, 178.8 14.98 M104.67 100.26 C126.09 76.04, 148.97 49.24, 178.8 14.98 M110.31 99.87 C132.21 72.15, 155.69 47.28, 179.85 19.87 M110.31 99.87 C135.51 71.94, 159.5 43.25, 179.85 19.87 M115.3 100.23 C134.51 76.15, 153.67 54.75, 180.25 25.51 M115.3 100.23 C129.43 84.36, 142.83 69.6, 180.25 25.51 M120.94 99.83 C144.29 76.48, 166.02 47.61, 179.99 31.91 M120.94 99.83 C140.36 76.43, 160.39 54.91, 179.99 31.91 M125.93 100.19 C140.95 82.6, 155.15 64.53, 180.38 37.55 M125.93 100.19 C144.17 78.93, 161.75 57.17, 180.38 37.55 M131.57 99.8 C147.29 80.3, 167.87 61.32, 180.12 43.95 M131.57 99.8 C144.29 85.04, 158.23 69.1, 180.12 43.95 M136.56 100.16 C148.03 87.67, 158.28 77.01, 180.51 49.59 M136.56 100.16 C152.07 81.67, 169.67 63.78, 180.51 49.59 M142.2 99.76 C151.21 90.19, 163.44 76.39, 180.25 55.99 M142.2 99.76 C150.94 89.16, 161.03 77.43, 180.25 55.99 M147.19 100.12 C152.91 93.42, 159.26 84.33, 180.65 61.63 M147.19 100.12 C159.41 87.78, 171.51 74.3, 180.65 61.63 M152.83 99.73 C159.04 93.75, 164.97 83.85, 180.39 68.03 M152.83 99.73 C163.49 88.41, 171.11 77.19, 180.39 68.03 M157.16 100.84 C163.3 94.69, 167.08 85.89, 180.78 73.67 M157.16 100.84 C163.11 93.14, 169.76 86.04, 180.78 73.67 M163.46 99.69 C171.73 91.43, 177.85 81.6, 183.14 77.05 M163.46 99.69 C168.21 94.07, 172.6 90.35, 183.14 77.05 M9.49 95.78 C9.49 95.78, 9.49 95.78, 9.49 95.78 M9.49 95.78 C9.49 95.78, 9.49 95.78, 9.49 95.78 M18.15 98.01 C16.04 96.14, 11.58 94.04, 6.08 87.51 M18.15 98.01 C13.43 94.17, 9.71 91.06, 6.08 87.51 M25.3 98.93 C20.57 94.93, 15.68 89.42, 1.91 78.59 M25.3 98.93 C15.41 90.89, 7.73 82.34, 1.91 78.59 M31.7 99.19 C26.34 95.37, 19.61 88.98, 2.27 73.6 M31.7 99.19 C20.18 89.31, 9.59 80.73, 2.27 73.6 M37.34 98.8 C25.08 85.9, 9.56 76.66, 1.87 67.96 M37.34 98.8 C28.03 90.16, 18.27 81.57, 1.87 67.96 M43.74 99.06 C28.47 87.34, 10.39 71.03, 2.23 62.97 M43.74 99.06 C30.95 85.92, 17.14 75.64, 2.23 62.97 M49.39 98.66 C39.54 89.86, 28.82 81.41, 1.84 57.33 M49.39 98.66 C38.29 90.12, 29.28 80.19, 1.84 57.33 M55.78 98.92 C39 82.83, 18.84 67.31, 2.2 52.34 M55.78 98.92 C42.66 88.51, 29 76.14, 2.2 52.34 M62.18 99.19 C40.53 81.97, 18.17 62.43, 1.8 46.7 M62.18 99.19 C41.19 80.21, 20.2 62.9, 1.8 46.7 M67.82 98.79 C50.9 85.56, 34.09 71.5, 2.16 41.71 M67.82 98.79 C44.82 79.47, 22.84 59.71, 2.16 41.71 M74.22 99.05 C54.14 82.41, 31.06 62.47, 1.77 36.07 M74.22 99.05 C56.67 82.11, 38.14 66.15, 1.77 36.07 M79.87 98.66 C62.3 85.3, 49.66 72.57, 2.13 31.08 M79.87 98.66 C63.37 84.52, 49.05 71.22, 2.13 31.08 M86.26 98.92 C65.7 82.31, 47.5 64.67, 1.74 25.44 M86.26 98.92 C58.23 76.19, 30.6 51.19, 1.74 25.44 M92.66 99.18 C68.71 79.83, 49.07 62.39, 0.59 19.14 M92.66 99.18 C70.13 80.14, 48.78 59.47, 0.59 19.14 M98.3 98.79 C71.95 75.93, 44.1 50.72, 1.7 14.81 M98.3 98.79 C76.67 79.15, 53.03 58.63, 1.7 14.81 M104.7 99.05 C74.3 74.08, 46.79 46.82, 2.82 10.48 M104.7 99.05 C80.04 78.92, 56.21 57.83, 2.82 10.48 M110.34 98.65 C72.93 67.37, 37.74 33.32, 5.44 7.46 M110.34 98.65 C85.1 75.52, 58.34 53.27, 5.44 7.46 M116.74 98.91 C87.34 70.96, 55.35 45.25, 8.06 4.44 M116.74 98.91 C78.96 66.18, 39.15 31.28, 8.06 4.44 M123.14 99.18 C83.23 63.8, 47.23 32.5, 11.44 2.08 M123.14 99.18 C86.46 68.37, 51.62 36.73, 11.44 2.08 M128.78 98.78 C101.25 76.83, 75.39 54.56, 15.58 0.37 M128.78 98.78 C86.13 63.18, 45.14 25.88, 15.58 0.37 M135.18 99.04 C91.93 61.2, 49.51 25.82, 20.47 -0.68 M135.18 99.04 C88.96 60.67, 44.62 20.21, 20.47 -0.68 M140.82 98.65 C102.08 67.4, 65.31 34.93, 26.11 -1.07 M140.82 98.65 C117.31 79.12, 91.76 57.13, 26.11 -1.07 M147.22 98.91 C113.39 72.62, 85.38 44.83, 31.75 -1.47 M147.22 98.91 C112.44 69.18, 77.99 39.35, 31.75 -1.47 M153.62 99.17 C126.43 76.43, 98.74 51.76, 38.15 -1.21 M153.62 99.17 C126.41 76.16, 101.71 54.88, 38.15 -1.21 M157 96.81 C116.29 62.68, 79.78 30.98, 44.55 -0.95 M157 96.81 C129.6 71.32, 99.14 47.16, 44.55 -0.95 M161.89 95.76 C134.31 70.77, 106.26 47.64, 50.19 -1.34 M161.89 95.76 C122.85 62.75, 82.89 28.32, 50.19 -1.34 M166.78 94.71 C144.94 77.2, 122.11 56.03, 56.59 -1.08 M166.78 94.71 C123.96 57.26, 84.54 23.11, 56.59 -1.08 M171.66 93.66 C138.81 64.7, 108.52 35.11, 62.23 -1.47 M171.66 93.66 C140.52 67.3, 108.85 39.3, 62.23 -1.47 M175.04 91.29 C140.76 64.19, 110.36 35.39, 68.63 -1.21 M175.04 91.29 C137.27 59.39, 99.08 25.84, 68.63 -1.21 M177.67 88.27 C143.15 60.12, 111.69 31.17, 75.03 -0.95 M177.67 88.27 C140.73 56.73, 103.11 24.62, 75.03 -0.95 M178.78 83.94 C154.19 62.49, 129.78 43.12, 80.67 -1.34 M178.78 83.94 C140.64 51.94, 103.6 18.48, 80.67 -1.34 M179.9 79.61 C144.07 48.58, 111.07 21.58, 87.07 -1.08 M179.9 79.61 C156.72 59.26, 133.98 39.27, 87.07 -1.08 M180.26 74.63 C157.75 53.64, 136.7 36.1, 92.71 -1.48 M180.26 74.63 C158.34 56.95, 138.24 37.92, 92.71 -1.48 M179.86 68.98 C163.06 54.88, 143.97 38.16, 99.11 -1.22 M179.86 68.98 C160.39 52.82, 141.72 34.8, 99.11 -1.22 M180.22 64 C155.43 44.46, 131.71 23.41, 105.51 -0.95 M180.22 64 C152.26 39.77, 121.85 14.46, 105.51 -0.95 M179.83 58.35 C153.91 34.76, 125.95 11.16, 111.15 -1.35 M179.83 58.35 C151.59 33.37, 124.8 9.88, 111.15 -1.35 M180.19 53.37 C157.28 32, 131.99 9.42, 117.55 -1.09 M180.19 53.37 C163 37.27, 145.63 21.48, 117.55 -1.09 M179.79 47.72 C159.74 29.44, 139.01 12.62, 123.19 -1.48 M179.79 47.72 C167.23 37.56, 156.14 27.72, 123.19 -1.48 M180.15 42.73 C168.33 32.14, 155.1 18.93, 129.59 -1.22 M180.15 42.73 C165.73 30.76, 153.68 19.23, 129.59 -1.22 M179.76 37.09 C166.16 24.54, 155.28 15.9, 135.99 -0.96 M179.76 37.09 C166.12 25.57, 153.8 13.09, 135.99 -0.96 M180.12 32.1 C169.92 21.91, 160.55 14.35, 141.63 -1.35 M180.12 32.1 C168.61 23.37, 157.77 13.34, 141.63 -1.35 M179.72 26.46 C168.25 16.37, 159.33 8.97, 148.03 -1.09 M179.72 26.46 C168.73 16.93, 158.76 8.49, 148.03 -1.09 M180.08 21.47 C172.18 15.41, 162.44 6.96, 155.18 -0.18 M180.08 21.47 C171.29 14.7, 162.63 6.95, 155.18 -0.18 M181.2 17.14 C175.72 11.33, 168.46 8, 163.84 2.05 M181.2 17.14 C176.1 13, 169.31 6.79, 163.84 2.05" stroke="#a5d8ff" stroke-width="0.5" fill="none"></path><path d="M24.87 0 M24.87 0 C75.64 -0.8, 125.98 0.41, 155.13 0 M24.87 0 C58.37 1.68, 91.37 1.07, 155.13 0 M155.13 0 C171.66 -0.63, 178.34 7.24, 180 24.87 M155.13 0 C172.57 1.82, 178.11 8.17, 180 24.87 M180 24.87 C179.42 39.56, 180.31 58.79, 180 74.61 M180 24.87 C178.6 38.85, 179.12 51.26, 180 74.61 M180 74.61 C178.7 90.07, 172.72 100.1, 155.13 99.47 M180 74.61 C179.38 93.32, 173.35 98.53, 155.13 99.47 M155.13 99.47 C123.87 98.43, 91.96 98.24, 24.87 99.47 M155.13 99.47 C111.99 100.4, 69.3 100.48, 24.87 99.47 M24.87 99.47 C7.54 97.5, 1.77 90.56, 0 74.61 M24.87 99.47 C9.29 98.4, -2.12 91.86, 0 74.61 M0 74.61 C-1.77 58.63, -1.6 45.96, 0 24.87 M0 74.61 C0.72 62.9, -0.78 49.57, 0 24.87 M0 24.87 C-1.88 10.13, 8.27 -1.71, 24.87 0 M0 24.87 C-0.16 9.04, 10.2 0.29, 24.87 0" stroke="#1e1e1e" stroke-width="1" fill="none"></path></g><g transform="translate(200.60526315789457 256.39473684210463) rotate(0 79.88333129882812 37.5)"><text x="0" y="0" font-family="Virgil, Segoe UI Emoji" font-size="20px" fill="#343a40" text-anchor="start" style="white-space: pre;" direction="ltr" dominant-baseline="text-before-edge">Templates,</text><text x="0" y="25" font-family="Virgil, Segoe UI Emoji" font-size="20px" fill="#343a40" text-anchor="start" style="white-space: pre;" direction="ltr" dominant-baseline="text-before-edge">types,</text><text x="0" y="50" font-family="Virgil, Segoe UI Emoji" font-size="20px" fill="#343a40" text-anchor="start" style="white-space: pre;" direction="ltr" dominant-baseline="text-before-edge">and new content</text></g><g stroke-linecap="round" transform="translate(369.5789473684209 246.26315789473642) rotate(0 96.57894736842098 49.73684210526312)"><path d="M5.96 6.51 C5.96 6.51, 5.96 6.51, 5.96 6.51 M5.96 6.51 C5.96 6.51, 5.96 6.51, 5.96 6.51 M6.36 12.15 C9.44 9.16, 11.13 4.18, 14.89 2.34 M6.36 12.15 C9.07 8.8, 12.17 5.99, 14.89 2.34 M3.47 21.57 C10.84 17.02, 12.81 9.67, 21.19 1.19 M3.47 21.57 C8.93 14.38, 15.79 8.77, 21.19 1.19 M3.21 27.97 C10.78 20.42, 16.7 11.4, 26.17 1.55 M3.21 27.97 C7.24 21.98, 12.56 15.75, 26.17 1.55 M3.61 33.61 C13.46 21.98, 26.46 10.28, 31.82 1.16 M3.61 33.61 C11.39 25.96, 16.39 18.56, 31.82 1.16 M3.34 40.01 C15.59 25.68, 31.39 8.86, 36.8 1.52 M3.34 40.01 C15.35 25.7, 27.03 13.55, 36.8 1.52 M3.08 46.41 C18.82 27.46, 33.04 12.92, 42.45 1.12 M3.08 46.41 C18.14 30.59, 33.46 12.37, 42.45 1.12 M3.48 52.05 C16.29 38.23, 26.98 24.23, 47.43 1.48 M3.48 52.05 C13.57 40.23, 24.65 28.11, 47.43 1.48 M3.22 58.45 C13.99 48.06, 25.73 32.94, 53.08 1.09 M3.22 58.45 C20.45 40.41, 35.77 20.02, 53.08 1.09 M3.61 64.09 C16.62 49.8, 27.31 33.28, 58.06 1.45 M3.61 64.09 C23.17 41.49, 41.8 20.74, 58.06 1.45 M3.35 70.49 C19.31 55.84, 32.96 37.79, 63.71 1.05 M3.35 70.49 C20.41 50.99, 35.82 33.11, 63.71 1.05 M3.09 76.88 C16.79 57.62, 30.81 41.06, 68.69 1.41 M3.09 76.88 C28.07 46.85, 52.33 17.8, 68.69 1.41 M3.48 82.53 C22.32 60.07, 42.25 39.05, 74.34 1.02 M3.48 82.53 C22.37 60.92, 40.04 38.7, 74.34 1.02 M4.53 87.42 C20.67 67.66, 40.81 47.78, 79.32 1.38 M4.53 87.42 C33.36 54.49, 61.54 20.43, 79.32 1.38 M6.24 91.55 C26.64 65.39, 49.09 40.3, 84.97 0.98 M6.24 91.55 C33.2 59.55, 60.55 29.34, 84.97 0.98 M8.6 94.93 C29.43 71, 52.14 44.71, 89.95 1.34 M8.6 94.93 C28.15 72.86, 46.71 51.7, 89.95 1.34 M11.62 97.55 C34.76 73.65, 56.17 44.52, 95.6 0.95 M11.62 97.55 C35.26 72.32, 56.56 47.82, 95.6 0.95 M15.95 98.67 C46.97 62.58, 80.05 28.28, 100.58 1.31 M15.95 98.67 C44.81 63.49, 75.45 29.9, 100.58 1.31 M20.28 99.78 C48.29 66.71, 76.26 35.25, 105.57 1.67 M20.28 99.78 C49.51 65.81, 76.69 34.27, 105.57 1.67 M25.27 100.14 C43.23 78.67, 66.01 53.3, 111.21 1.28 M25.27 100.14 C59.26 61.54, 92.86 22.19, 111.21 1.28 M30.91 99.75 C56.67 72.83, 79.55 43.96, 116.2 1.64 M30.91 99.75 C62.53 60.84, 95.33 23.01, 116.2 1.64 M35.9 100.11 C68.09 62.19, 97.79 27.49, 121.84 1.24 M35.9 100.11 C67.18 64.67, 96.66 31.4, 121.84 1.24 M41.54 99.71 C73.94 61.89, 108.62 22.47, 126.83 1.6 M41.54 99.71 C61.09 78.2, 79.72 57.93, 126.83 1.6 M46.53 100.07 C75.21 66.18, 103.57 33.14, 132.47 1.21 M46.53 100.07 C70.17 72.35, 93.1 44.89, 132.47 1.21 M52.17 99.68 C70.48 78.74, 88.41 56.12, 137.46 1.57 M52.17 99.68 C80.88 69.37, 108.96 35.89, 137.46 1.57 M57.16 100.04 C86 67.18, 116.73 29.75, 143.1 1.17 M57.16 100.04 C85.09 68.08, 113.73 34.38, 143.1 1.17 M62.8 99.64 C97.47 61.14, 128 22.54, 148.09 1.53 M62.8 99.64 C94.9 62.51, 128.8 23.5, 148.09 1.53 M67.79 100 C87.13 81.79, 103.3 58.82, 153.73 1.14 M67.79 100 C98.34 65.39, 127.03 30.77, 153.73 1.14 M73.43 99.61 C99.55 71.74, 121.13 45.22, 158.72 1.5 M73.43 99.61 C107.24 62.95, 139.2 23.67, 158.72 1.5 M78.42 99.97 C112.15 61.35, 146.16 21.78, 164.36 1.1 M78.42 99.97 C102.76 74.82, 124.45 47.74, 164.36 1.1 M83.41 100.33 C107.77 73.48, 131.45 47.15, 169.35 1.46 M83.41 100.33 C105.19 73.09, 129.12 46.76, 169.35 1.46 M89.05 99.94 C106.96 80.51, 123.1 60.56, 174.34 1.82 M89.05 99.94 C112.06 73.56, 137.14 45.67, 174.34 1.82 M94.04 100.3 C117.98 72.74, 141.99 42.29, 178.67 2.94 M94.04 100.3 C120.15 70.98, 145.82 42.96, 178.67 2.94 M99.68 99.9 C132.88 63.49, 161.75 28.98, 183.66 3.3 M99.68 99.9 C128.04 67.82, 156.5 37.21, 183.66 3.3 M104.67 100.26 C132.03 70.27, 156.33 39.86, 186.02 6.68 M104.67 100.26 C131.66 70.83, 156.81 41.71, 186.02 6.68 M110.31 99.87 C132.94 74.48, 153.2 49.4, 189.04 9.3 M110.31 99.87 C141.21 66.6, 171.23 30.85, 189.04 9.3 M115.3 100.23 C135.42 75.49, 156.27 51.84, 192.06 11.93 M115.3 100.23 C133.23 79.22, 150.69 58.4, 192.06 11.93 M120.94 99.83 C142.76 75.04, 169.15 47.5, 193.76 16.06 M120.94 99.83 C146.5 71.08, 173.01 41.02, 193.76 16.06 M125.93 100.19 C144.15 77.28, 163.39 57.64, 194.81 20.95 M125.93 100.19 C152.73 69.32, 179.37 39.81, 194.81 20.95 M131.57 99.8 C154.74 75.3, 176.54 46.97, 195.21 26.59 M131.57 99.8 C155.93 71.52, 179.36 44.02, 195.21 26.59 M136.56 100.16 C156.69 77.75, 181.48 51.28, 194.95 32.99 M136.56 100.16 C158.7 76.28, 179.32 50.64, 194.95 32.99 M142.2 99.76 C156.45 84.78, 168.19 70.45, 194.69 39.39 M142.2 99.76 C163 78.26, 182.01 56.2, 194.69 39.39 M147.19 100.12 C161.8 82.23, 175.08 66.59, 195.08 45.03 M147.19 100.12 C166.51 79.94, 184.9 58.65, 195.08 45.03 M152.83 99.73 C165.82 83.7, 179.2 68.18, 194.82 51.43 M152.83 99.73 C162.82 88.28, 173.51 78.27, 194.82 51.43 M157.82 100.09 C169.46 86.86, 180.39 73.07, 195.21 57.07 M157.82 100.09 C169.09 86.52, 182 72.97, 195.21 57.07 M163.46 99.69 C173.62 85.84, 182.97 74.96, 194.95 63.47 M163.46 99.69 C171.08 91.82, 179.98 81.39, 194.95 63.47 M168.45 100.05 C176.89 90.73, 183.74 79.31, 195.35 69.11 M168.45 100.05 C174.89 92.48, 180.5 85.06, 195.35 69.11 M175.4 98.15 C181.2 92.31, 183.46 86.98, 194.43 76.26 M175.4 98.15 C181.76 90.53, 187.21 85.65, 194.43 76.26 M181.7 97 C185.54 92.33, 188.39 91.31, 192.86 84.17 M181.7 97 C185.15 92.92, 188.36 90.06, 192.86 84.17 M9.49 95.78 C9.49 95.78, 9.49 95.78, 9.49 95.78 M9.49 95.78 C9.49 95.78, 9.49 95.78, 9.49 95.78 M18.15 98.01 C14.15 96.34, 10.18 93.08, 6.08 87.51 M18.15 98.01 C14.11 94.69, 10.98 91.5, 6.08 87.51 M25.3 98.93 C20.06 93.96, 15.71 88.24, 1.91 78.59 M25.3 98.93 C20.68 94.81, 14.62 89.91, 1.91 78.59 M31.7 99.19 C22.25 92.76, 13.97 83.04, 2.27 73.6 M31.7 99.19 C19.19 89.01, 8.53 78.85, 2.27 73.6 M37.34 98.8 C29.77 92.01, 19.53 83.27, 1.87 67.96 M37.34 98.8 C23.62 87.94, 11.24 76.04, 1.87 67.96 M43.74 99.06 C28.42 84.17, 11.33 71.81, 2.23 62.97 M43.74 99.06 C30.8 88.25, 19.5 78.28, 2.23 62.97 M49.39 98.66 C36.26 88.49, 25.68 77.56, 1.84 57.33 M49.39 98.66 C31.6 82.3, 12.69 67.48, 1.84 57.33 M55.78 98.92 C42.49 84.67, 26.99 73.56, 2.2 52.34 M55.78 98.92 C40.66 85.12, 26.51 73.27, 2.2 52.34 M62.18 99.19 C46.13 82.3, 25.35 69.95, 1.8 46.7 M62.18 99.19 C45.5 84.63, 29.9 70.51, 1.8 46.7 M67.82 98.79 C44.53 77.39, 18.32 55.51, 2.16 41.71 M67.82 98.79 C51.05 83.92, 32.23 67.75, 2.16 41.71 M74.22 99.05 C49.15 76.94, 25.92 58.64, 1.77 36.07 M74.22 99.05 C54.77 83.61, 36.28 66.46, 1.77 36.07 M79.87 98.66 C62.6 82.64, 45.57 68.72, 2.13 31.08 M79.87 98.66 C60.34 81.09, 39.4 63.15, 2.13 31.08 M86.26 98.92 C67.73 81.35, 48.42 65.03, 1.74 25.44 M86.26 98.92 C58.33 72.48, 28.77 47.03, 1.74 25.44 M92.66 99.18 C74.54 82.19, 52.72 64.63, 0.59 19.14 M92.66 99.18 C70.87 80.12, 49.83 61.91, 0.59 19.14 M98.3 98.79 C77.74 78.43, 51.83 58.86, 1.7 14.81 M98.3 98.79 C65.57 70.51, 34.15 42.09, 1.7 14.81 M104.7 99.05 C84.54 81.52, 64.38 62.52, 2.82 10.48 M104.7 99.05 C76.56 74.35, 49.11 50.42, 2.82 10.48 M110.34 98.65 C79.61 73.31, 49.76 45.24, 5.44 7.46 M110.34 98.65 C69.57 64.33, 30.73 29.23, 5.44 7.46 M116.74 98.91 C74.95 63.81, 35.1 28.21, 8.06 4.44 M116.74 98.91 C91.53 77.98, 65.98 55.42, 8.06 4.44 M123.14 99.18 C90.74 70.42, 55.04 40.34, 11.44 2.08 M123.14 99.18 C88.57 70.33, 55.34 41.84, 11.44 2.08 M128.78 98.78 C86.9 64.15, 43.72 24.37, 15.58 0.37 M128.78 98.78 C95.91 71.02, 64.57 43.63, 15.58 0.37 M135.18 99.04 C99.11 69.52, 67.26 38.79, 20.47 -0.68 M135.18 99.04 C110.55 79.4, 87.54 58.21, 20.47 -0.68 M140.82 98.65 C103.17 63.88, 61.03 30, 26.11 -1.07 M140.82 98.65 C100.74 63.53, 62.74 28.77, 26.11 -1.07 M147.22 98.91 C116.04 71.7, 84.38 41.54, 31.75 -1.47 M147.22 98.91 C114.31 69.91, 79.8 42.25, 31.75 -1.47 M153.62 99.17 C116.99 65.64, 79.5 34.12, 38.15 -1.21 M153.62 99.17 C123.29 71.89, 91.98 45.57, 38.15 -1.21 M159.26 98.78 C124.04 71.19, 88.63 39.06, 44.55 -0.95 M159.26 98.78 C132.18 74.39, 102.54 48.46, 44.55 -0.95 M165.66 99.04 C122.2 58.84, 75.71 22.46, 50.19 -1.34 M165.66 99.04 C136.7 73.91, 105.87 47.18, 50.19 -1.34 M169.79 97.33 C141.56 70.66, 113.79 48.65, 56.59 -1.08 M169.79 97.33 C141.1 73.23, 112.94 48.87, 56.59 -1.08 M174.68 96.28 C132.71 59.47, 88.75 23.69, 62.23 -1.47 M174.68 96.28 C148.11 72.26, 120.65 48.58, 62.23 -1.47 M179.57 95.23 C150.81 71.26, 119.9 42.86, 68.63 -1.21 M179.57 95.23 C138.56 60.66, 96.95 23.62, 68.63 -1.21 M184.46 94.18 C147.37 61.21, 112.15 31.5, 75.03 -0.95 M184.46 94.18 C152.47 66.46, 120.27 37.43, 75.03 -0.95 M187.84 91.82 C156.19 65.19, 125 35.85, 80.67 -1.34 M187.84 91.82 C149.52 58.16, 111.04 24.79, 80.67 -1.34 M190.46 88.8 C161.4 64.99, 136.1 39.9, 87.07 -1.08 M190.46 88.8 C166.94 68.98, 143.17 46.96, 87.07 -1.08 M191.58 84.47 C158.82 51.22, 122.34 21.93, 92.71 -1.48 M191.58 84.47 C163.02 59.42, 135.83 34.84, 92.71 -1.48 M192.69 80.14 C158.84 48.74, 118.79 16.2, 99.11 -1.22 M192.69 80.14 C171.86 63.55, 153.96 47.3, 99.11 -1.22 M193.81 75.8 C172.1 55.11, 146.96 35.51, 105.51 -0.95 M193.81 75.8 C173 58.16, 152.48 39.48, 105.51 -0.95 M195.68 72.13 C171.73 49.89, 148.7 31.24, 111.15 -1.35 M195.68 72.13 C170.6 50, 144.79 28.4, 111.15 -1.35 M195.28 66.49 C172.32 45.56, 145.81 22.97, 117.55 -1.09 M195.28 66.49 C174.38 45.92, 151.1 27.94, 117.55 -1.09 M195.64 61.5 C173.32 41.78, 146.31 18.49, 123.19 -1.48 M195.64 61.5 C168.37 39.29, 142.93 14.91, 123.19 -1.48 M195.25 55.86 C168.66 33.08, 143.25 13.6, 129.59 -1.22 M195.25 55.86 C174.29 37.78, 154.6 20.83, 129.59 -1.22 M195.61 50.87 C179.11 37.11, 161.67 20.8, 135.99 -0.96 M195.61 50.87 C175.08 32.58, 155.45 15.48, 135.99 -0.96 M195.21 45.23 C183.7 34.07, 167.96 23.46, 141.63 -1.35 M195.21 45.23 C177.88 30.63, 160.92 16.26, 141.63 -1.35 M195.57 40.24 C180.22 28.27, 166.34 12.86, 148.03 -1.09 M195.57 40.24 C178.67 25.24, 159.95 10.08, 148.03 -1.09 M195.18 34.6 C185.36 24.91, 173.82 15.12, 153.67 -1.49 M195.18 34.6 C179.14 20.83, 161.35 5.38, 153.67 -1.49 M195.54 29.61 C184.16 18.65, 169.76 9.46, 160.07 -1.23 M195.54 29.61 C185.59 22.19, 177.42 13.7, 160.07 -1.23 M195.14 23.97 C187.44 16.72, 179.99 11.02, 166.46 -0.96 M195.14 23.97 C184.96 15.55, 175.69 7.27, 166.46 -0.96 M193.99 17.67 C188.79 11.08, 181.25 5.09, 170.6 -2.67 M193.99 17.67 C189.04 11.89, 184.12 8.73, 170.6 -2.67" stroke="#ffec99" stroke-width="0.5" fill="none"></path><path d="M24.87 0 M24.87 0 C61.68 -1.63, 93.96 -2.17, 168.29 0 M24.87 0 C55.72 0.65, 87.82 1.7, 168.29 0 M168.29 0 C183.75 0.85, 191.84 7.75, 193.16 24.87 M168.29 0 C184.99 -0.9, 195.14 10.15, 193.16 24.87 M193.16 24.87 C192.54 40.77, 192.52 57.59, 193.16 74.61 M193.16 24.87 C192.3 35.51, 192.89 47.65, 193.16 74.61 M193.16 74.61 C195.06 91, 183.54 97.96, 168.29 99.47 M193.16 74.61 C194.18 90.17, 185.58 98.19, 168.29 99.47 M168.29 99.47 C121.99 98.3, 75.38 99.53, 24.87 99.47 M168.29 99.47 C128.85 99.82, 87.51 100.72, 24.87 99.47 M24.87 99.47 C6.97 100.36, -0.32 89.3, 0 74.61 M24.87 99.47 C6.81 98.42, 1.6 93, 0 74.61 M0 74.61 C-1.08 56.83, 1.42 35.1, 0 24.87 M0 74.61 C0.01 60.46, -0.28 47.72, 0 24.87 M0 24.87 C0.65 7.82, 7.11 -1.96, 24.87 0 M0 24.87 C-1.11 7.56, 6.6 0.95, 24.87 0" stroke="#1e1e1e" stroke-width="1" fill="none"></path></g><g transform="translate(383.76929875424037 268.3684210526312) rotate(0 84.63333129882812 25)"><text x="0" y="0" font-family="Virgil, Segoe UI Emoji" font-size="20px" fill="#343a40" text-anchor="start" style="white-space: pre;" direction="ltr" dominant-baseline="text-before-edge">Learn your tools,</text><text x="0" y="25" font-family="Virgil, Segoe UI Emoji" font-size="20px" fill="#343a40" text-anchor="start" style="white-space: pre;" direction="ltr" dominant-baseline="text-before-edge">study the field</text></g><g transform="translate(356.3966165413532 442.1278195488718) rotate(0 9.464285714285722 -7.321428571428555)" stroke="none"><path fill="#1e1e1e" d="M 0,-2.59 Q 0,-2.59 1.12,-2.61 2.25,-2.64 3.34,-2.75 4.42,-2.86 6.03,-3.14 7.64,-3.41 8.96,-3.54 10.28,-3.67 11.54,-3.94 12.81,-4.21 13.95,-4.27 15.09,-4.34 16.16,-4.40 17.23,-4.45 17.95,-4.48 18.66,-4.51 19.07,-4.46 19.48,-4.41 19.87,-4.26 20.26,-4.11 20.60,-3.88 20.94,-3.64 21.21,-3.33 21.49,-3.02 21.68,-2.65 21.87,-2.29 21.97,-1.88 22.07,-1.48 22.07,-1.07 22.07,-0.65 21.97,-0.25 21.87,0.14 21.68,0.51 21.49,0.88 21.21,1.19 20.94,1.50 20.60,1.73 20.26,1.97 19.87,2.12 19.48,2.26 19.07,2.31 18.66,2.36 17.29,2.10 15.93,1.84 14.39,0.74 12.85,-0.35 11.73,-0.31 10.62,-0.28 8.60,-1.73 6.58,-3.18 6.55,-4.54 6.53,-5.90 7.21,-6.83 7.89,-7.76 8.16,-8.94 8.42,-10.12 8.24,-12.29 8.07,-14.47 8.13,-15.06 8.20,-15.66 8.46,-16.20 8.72,-16.75 9.14,-17.18 9.55,-17.62 10.09,-17.89 10.62,-18.17 11.22,-18.26 11.81,-18.36 12.40,-18.26 13.00,-18.15 13.53,-17.87 14.05,-17.58 14.47,-17.14 14.88,-16.70 15.12,-16.15 15.37,-15.60 15.43,-15.01 15.49,-14.41 15.36,-13.82 15.23,-13.23 14.91,-12.72 14.60,-12.21 14.13,-11.82 13.67,-11.44 13.11,-11.22 12.55,-11.00 11.95,-10.97 11.35,-10.94 10.77,-11.11 10.19,-11.27 9.70,-11.62 9.20,-11.96 8.84,-12.44 8.48,-12.92 8.29,-13.49 8.11,-14.07 8.11,-14.67 8.11,-15.27 8.31,-15.84 8.51,-16.41 8.88,-16.88 9.24,-17.36 9.75,-17.69 10.25,-18.03 10.83,-18.18 11.41,-18.34 12.01,-18.30 12.61,-18.26 13.17,-18.04 13.72,-17.81 14.18,-17.42 14.63,-17.02 14.94,-16.50 15.25,-15.99 15.37,-15.40 15.50,-14.81 15.50,-14.81 15.50,-14.81 15.66,-11.97 15.82,-9.14 15.61,-7.94 15.40,-6.74 14.75,-5.43 14.10,-4.13 13.47,-3.23 12.83,-2.33 12.88,-3.70 12.92,-5.08 12.33,-6.31 11.73,-7.54 12.95,-7.47 14.17,-7.40 15.63,-6.74 17.10,-6.08 17.88,-5.29 18.66,-4.51 19.07,-4.46 19.48,-4.41 19.87,-4.26 20.26,-4.11 20.60,-3.88 20.94,-3.64 21.21,-3.33 21.49,-3.02 21.68,-2.65 21.87,-2.29 21.97,-1.88 22.07,-1.48 22.07,-1.07 22.07,-0.65 21.97,-0.25 21.87,0.14 21.68,0.51 21.49,0.88 21.21,1.19 20.94,1.50 20.60,1.73 20.26,1.97 19.87,2.12 19.48,2.26 19.07,2.31 18.66,2.36 18.12,2.34 17.59,2.32 16.52,2.27 15.45,2.22 14.40,1.99 13.36,1.77 11.87,2.01 10.39,2.25 9.26,2.21 8.14,2.17 6.51,2.31 4.88,2.45 3.57,2.54 2.25,2.64 1.12,2.61 0,2.59 -0.31,2.55 -0.62,2.52 -0.91,2.40 -1.20,2.29 -1.46,2.12 -1.72,1.94 -1.92,1.70 -2.13,1.47 -2.28,1.19 -2.42,0.92 -2.50,0.61 -2.57,0.31 -2.57,-0.00 -2.57,-0.31 -2.50,-0.61 -2.42,-0.92 -2.28,-1.19 -2.13,-1.47 -1.92,-1.70 -1.72,-1.94 -1.46,-2.12 -1.20,-2.29 -0.91,-2.40 -0.62,-2.52 -0.31,-2.55 0.00,-2.59 0.00,-2.59 L 0,-2.59 Z"></path></g><g stroke-opacity="0.8" fill-opacity="0.8" transform="translate(369.6823308270675 333.55639097744324) rotate(0 0.00004999999998744897 0.00004999999998744897)" stroke="none"><path fill="#1e1e1e" d="M 3.14,-3.14 Q 3.14,-3.14 3.55,-2.55 3.97,-1.97 4.18,-1.28 4.40,-0.59 4.38,0.11 4.36,0.83 4.11,1.51 3.86,2.18 3.41,2.74 2.96,3.30 2.36,3.69 1.75,4.08 1.05,4.25 0.36,4.42 -0.35,4.36 -1.07,4.31 -1.73,4.02 -2.39,3.74 -2.92,3.26 -3.46,2.78 -3.81,2.15 -4.16,1.53 -4.30,0.82 -4.43,0.11 -4.34,-0.59 -4.24,-1.30 -3.92,-1.94 -3.60,-2.59 -3.09,-3.09 -2.59,-3.60 -1.94,-3.92 -1.30,-4.24 -0.59,-4.34 0.12,-4.43 0.82,-4.30 1.53,-4.16 2.15,-3.81 2.78,-3.46 3.26,-2.92 3.74,-2.39 4.02,-1.73 4.31,-1.07 4.36,-0.35 4.42,0.36 4.25,1.05 4.07,1.75 3.69,2.36 3.30,2.96 2.74,3.41 2.18,3.86 1.51,4.11 0.83,4.36 0.11,4.38 -0.60,4.40 -1.28,4.18 -1.97,3.97 -2.55,3.55 -3.14,3.13 -3.14,3.14 -3.14,3.14 -3.47,2.71 -3.80,2.29 -4.02,1.80 -4.24,1.32 -4.33,0.79 -4.43,0.26 -4.40,-0.26 -4.36,-0.80 -4.20,-1.31 -4.04,-1.82 -3.77,-2.28 -3.49,-2.73 -3.11,-3.11 -2.73,-3.49 -2.28,-3.77 -1.82,-4.05 -1.31,-4.20 -0.80,-4.36 -0.26,-4.40 0.26,-4.43 0.79,-4.33 1.32,-4.24 1.80,-4.02 2.29,-3.80 2.71,-3.47 3.14,-3.14 3.14,-3.14 L 3.14,-3.14 Z"></path></g><g transform="translate(367.2894736842104 356.8421052631576) rotate(0 2 -2.5)" stroke="none"><path fill="#1e1e1e" d="M -1.57,-4.73 Q -1.57,-4.73 -1.62,-4.10 -1.66,-3.47 -1.81,-1.33 -1.96,0.81 -4.65,0.80 -7.34,0.79 -7.70,-2.29 -8.07,-5.38 -5.91,-7.53 -3.75,-9.68 -1.57,-10.39 0.60,-11.10 4.29,-11.25 7.99,-11.41 9.01,-11.24 10.03,-11.07 10.95,-10.59 11.87,-10.10 12.58,-9.35 13.30,-8.60 13.73,-7.66 14.17,-6.72 14.28,-5.69 14.40,-4.66 14.17,-3.64 13.95,-2.63 13.42,-1.74 12.89,-0.85 12.10,-0.18 11.31,0.48 10.34,0.87 9.38,1.25 8.35,1.31 7.31,1.37 6.31,1.09 5.31,0.82 4.45,0.24 3.59,-0.34 2.96,-1.16 2.34,-1.98 2.00,-2.97 1.67,-3.95 1.67,-4.99 1.67,-6.02 2.00,-7.01 2.33,-7.99 2.95,-8.82 3.58,-9.64 4.44,-10.23 5.30,-10.81 6.30,-11.09 7.29,-11.37 8.33,-11.31 9.37,-11.26 10.33,-10.87 11.29,-10.49 12.08,-9.82 12.88,-9.15 13.41,-8.26 13.95,-7.37 14.17,-6.36 14.40,-5.35 14.28,-4.32 14.17,-3.29 13.74,-2.35 13.30,-1.40 12.59,-0.65 11.88,0.09 10.96,0.58 10.05,1.07 9.03,1.24 8.00,1.41 8.00,1.41 8.00,1.41 4.59,0.00 1.18,-1.40 1.37,-4.30 1.57,-7.20 3.65,-5.40 5.73,-3.60 5.42,-0.63 5.11,2.32 3.34,3.53 1.57,4.73 0.98,4.85 0.39,4.97 -0.20,4.95 -0.80,4.92 -1.38,4.76 -1.95,4.59 -2.48,4.29 -3.00,3.99 -3.43,3.57 -3.87,3.15 -4.19,2.64 -4.51,2.13 -4.70,1.56 -4.89,0.99 -4.94,0.39 -4.99,-0.20 -4.89,-0.79 -4.79,-1.39 -4.56,-1.94 -4.32,-2.49 -3.96,-2.98 -3.59,-3.46 -3.13,-3.84 -2.66,-4.22 -2.12,-4.48 -1.57,-4.73 -1.57,-4.73 L -1.57,-4.73 Z"></path></g><g transform="translate(369.2894736842104 355.8421052631576) rotate(0 1.5 -7)" stroke="none"><path fill="#1e1e1e" d="M -5.02,0.83 Q -5.02,0.83 -5.38,-0.82 -5.73,-2.48 -7.62,-4.35 -9.51,-6.22 -9.04,-9.19 -8.56,-12.17 -6.36,-14.19 -4.16,-16.22 -1.22,-16.74 1.71,-17.25 4.81,-16.13 7.91,-15.01 8.52,-14.78 9.13,-14.55 9.58,-13.92 10.04,-13.30 10.33,-12.58 10.62,-11.86 10.73,-11.09 10.84,-10.32 10.77,-9.55 10.69,-8.77 10.43,-8.04 10.17,-7.31 9.75,-6.66 9.32,-6.01 8.75,-5.48 8.18,-4.96 7.50,-4.58 6.82,-4.20 6.07,-4.00 5.32,-3.80 4.55,-3.78 3.77,-3.76 3.01,-3.93 2.26,-4.10 1.56,-4.45 0.87,-4.79 0.27,-5.29 -0.31,-5.79 4.28,-10.11 8.87,-14.43 9.32,-13.80 9.78,-13.18 10.07,-12.46 10.36,-11.75 10.47,-10.98 10.58,-10.22 10.50,-9.45 10.43,-8.68 10.17,-7.95 9.91,-7.22 9.49,-6.57 9.06,-5.93 8.50,-5.40 7.93,-4.88 7.25,-4.50 6.58,-4.13 5.83,-3.93 5.09,-3.72 4.31,-3.71 3.54,-3.69 2.79,-3.86 2.03,-4.03 1.34,-4.37 0.65,-4.71 0.06,-5.21 -0.52,-5.71 -1.56,-7.28 -2.59,-8.84 -3.05,-9.48 -3.51,-10.13 -3.80,-10.87 -4.10,-11.60 -4.21,-12.39 -4.31,-13.18 -4.23,-13.97 -4.15,-14.76 -3.88,-15.50 -3.61,-16.25 -3.17,-16.91 -2.73,-17.57 -2.14,-18.10 -1.56,-18.64 -0.86,-19.02 -0.16,-19.40 0.59,-19.60 1.36,-19.80 2.15,-19.82 2.95,-19.83 3.72,-19.65 4.49,-19.47 5.20,-19.12 5.91,-18.76 6.51,-18.24 7.12,-17.73 8.70,-15.79 10.28,-13.85 11.13,-13.18 11.98,-12.50 12.57,-11.58 13.16,-10.67 13.42,-9.62 13.69,-8.56 13.60,-7.48 13.52,-6.40 13.09,-5.40 12.67,-4.40 11.94,-3.58 11.22,-2.77 10.28,-2.24 9.33,-1.70 8.27,-1.49 7.20,-1.28 6.12,-1.42 5.04,-1.57 4.07,-2.05 3.09,-2.53 2.32,-3.29 1.55,-4.06 1.07,-5.03 0.58,-6.00 0.43,-7.08 0.28,-8.16 0.48,-9.22 0.68,-10.29 1.21,-11.24 1.75,-12.19 2.55,-12.91 3.36,-13.64 4.36,-14.08 5.35,-14.51 6.44,-14.60 7.52,-14.69 8.57,-14.43 9.63,-14.17 10.55,-13.59 11.46,-13.01 12.15,-12.16 12.83,-11.32 13.21,-10.30 13.59,-9.28 13.62,-8.20 13.65,-7.11 13.34,-6.07 13.02,-5.03 12.39,-4.14 11.76,-3.26 10.88,-2.62 10.00,-1.99 8.96,-1.66 7.92,-1.34 6.84,-1.37 5.75,-1.39 4.73,-1.77 3.71,-2.14 3.71,-2.14 3.71,-2.14 0.55,-5.49 -2.59,-8.84 -3.05,-9.48 -3.51,-10.13 -3.80,-10.87 -4.10,-11.60 -4.21,-12.39 -4.31,-13.18 -4.23,-13.97 -4.15,-14.76 -3.88,-15.50 -3.61,-16.25 -3.17,-16.91 -2.73,-17.57 -2.14,-18.10 -1.56,-18.64 -0.86,-19.02 -0.16,-19.40 0.59,-19.60 1.36,-19.80 2.15,-19.82 2.95,-19.83 3.72,-19.65 4.49,-19.47 5.20,-19.12 5.91,-18.76 6.51,-18.24 7.12,-17.73 7.99,-16.08 8.87,-14.43 9.32,-13.81 9.78,-13.18 10.07,-12.46 10.36,-11.75 10.47,-10.98 10.58,-10.22 10.50,-9.45 10.43,-8.68 10.17,-7.95 9.91,-7.22 9.49,-6.57 9.06,-5.93 8.50,-5.40 7.93,-4.88 7.25,-4.50 6.58,-4.13 5.83,-3.93 5.09,-3.72 4.31,-3.71 3.54,-3.69 2.79,-3.86 2.03,-4.03 1.34,-4.37 0.65,-4.71 0.06,-5.21 -0.52,-5.71 4.30,-10.13 9.13,-14.55 9.58,-13.93 10.04,-13.30 10.33,-12.58 10.62,-11.86 10.73,-11.09 10.84,-10.32 10.77,-9.55 10.69,-8.77 10.43,-8.04 10.17,-7.31 9.75,-6.66 9.32,-6.01 8.75,-5.48 8.18,-4.96 7.50,-4.58 6.82,-4.20 6.08,-4.00 5.33,-3.80 4.55,-3.78 3.77,-3.76 3.01,-3.93 2.26,-4.10 1.56,-4.45 0.87,-4.79 0.27,-5.29 -0.31,-5.79 0.24,-5.47 0.81,-5.15 0.74,-7.65 0.68,-10.15 2.63,-7.28 4.58,-4.41 4.80,-2.62 5.02,-0.83 5.05,-0.22 5.08,0.38 4.96,0.99 4.84,1.59 4.57,2.15 4.31,2.70 3.93,3.18 3.54,3.66 3.05,4.03 2.56,4.40 2.00,4.64 1.43,4.88 0.83,4.99 0.22,5.09 -0.38,5.04 -0.99,4.99 -1.58,4.80 -2.16,4.61 -2.68,4.28 -3.20,3.96 -3.63,3.51 -4.06,3.07 -4.37,2.54 -4.68,2.01 -4.85,1.42 -5.02,0.83 -5.02,0.83 L -5.02,0.83 Z"></path></g></svg>