<svg version="1.1" xmlns="http://www.w3.org/2000/svg" viewBox="0 0 765.7894736842104 454.1578947368415" width="1531.5789473684208" height="908.315789473683">
  <!-- svg-source:excalidraw -->
  
  <defs>
    <style class="style-fonts">
      @font-face {
        font-family: "Virgil";
        src: url("https://excalidraw.com/Virgil.woff2");
      }
      @font-face {
        font-family: "Cascadia";
        src: url("https://excalidraw.com/Cascadia.woff2");
      }
    </style>
    
  </defs>
  <g stroke-linecap="round" transform="translate(10 10) rotate(0 372.8947368421052 216.05263157894717)"><path d="M0 0 L745.79 0 L745.79 432.11 L0 432.11" stroke="none" stroke-width="0" fill="#1e1e1e"></path><path d="M0 0 C271.86 0, 543.72 0, 745.79 0 M0 0 C217.94 0, 435.87 0, 745.79 0 M745.79 0 C745.79 114.34, 745.79 228.69, 745.79 432.11 M745.79 0 C745.79 119.2, 745.79 238.4, 745.79 432.11 M745.79 432.11 C502.32 432.11, 258.84 432.11, 0 432.11 M745.79 432.11 C463.17 432.11, 180.56 432.11, 0 432.11 M0 432.11 C0 323.41, 0 214.71, 0 0 M0 432.11 C0 299.12, 0 166.13, 0 0" stroke="#1e1e1e" stroke-width="1" fill="none"></path></g><g stroke-linecap="round" transform="translate(119.52631578947376 344.15789473684174) rotate(0 248.6842105263156 49.736842105263236)"><path d="M25.13 -1.84 L480.33 0.48 L488.94 4.92 L489.55 6.42 L494.63 15.25 L499.09 23.69 L495.37 81.43 L494.54 90.15 L487.02 94.62 L473.23 100.5 L19.89 100.04 L7.86 94.57 L3.25 91.15 L3.54 84.15 L0.76 72.74 L0.05 25.4 L-0.13 14.09 L7.17 5.43 L12.68 2.45 L24.95 -0.57" stroke="none" stroke-width="0" fill="#e9ecef"></path><path d="M24.87 0 M24.87 0 C202.51 -1.87, 379.09 -1.52, 472.5 0 M24.87 0 C159.54 -1.32, 294.39 -1.9, 472.5 0 M472.5 0 C488.99 -1.5, 499.34 6.78, 497.37 24.87 M472.5 0 C487.13 1.78, 495.19 6.69, 497.37 24.87 M497.37 24.87 C498.06 44.64, 495.49 62.94, 497.37 74.61 M497.37 24.87 C498.05 43.17, 498.6 60.51, 497.37 74.61 M497.37 74.61 C495.9 90.69, 488.37 99.59, 472.5 99.47 M497.37 74.61 C499.03 88.98, 488.87 98.44, 472.5 99.47 M472.5 99.47 C313.76 99.03, 156.18 100.51, 24.87 99.47 M472.5 99.47 C355.14 100.14, 236.99 99.88, 24.87 99.47 M24.87 99.47 C7.52 99.58, -0.81 91.61, 0 74.61 M24.87 99.47 C8.26 98.2, 1.06 91.19, 0 74.61 M0 74.61 C-1.64 58.46, -1.2 44.47, 0 24.87 M0 74.61 C0.42 60.67, 0.11 48.92, 0 24.87 M0 24.87 C-0.12 6.29, 6.53 -1.96, 24.87 0 M0 24.87 C-0.65 6.22, 8.61 -0.18, 24.87 0" stroke="#1e1e1e" stroke-width="1" fill="none"></path></g><g stroke-linecap="round" transform="translate(119.00000000000023 344.68421052631527) rotate(0 123.94736842105249 49.73684210526312)"><path d="M5.96 6.51 C5.96 6.51, 5.96 6.51, 5.96 6.51 M5.96 6.51 C5.96 6.51, 5.96 6.51, 5.96 6.51 M6.36 12.15 C9.96 7.55, 12.48 5.55, 14.89 2.34 M6.36 12.15 C9.43 7.99, 12.67 4.62, 14.89 2.34 M3.47 21.57 C8.47 15.7, 15.55 10.66, 21.19 1.19 M3.47 21.57 C8.16 15.3, 13.79 9.01, 21.19 1.19 M3.21 27.97 C11.1 19.56, 16.46 12.03, 26.17 1.55 M3.21 27.97 C10.91 19.01, 19.05 8.61, 26.17 1.55 M3.61 33.61 C15.63 21.41, 25.1 9.94, 31.82 1.16 M3.61 33.61 C9.77 25.88, 16.8 17.76, 31.82 1.16 M3.34 40.01 C14.06 24.59, 28.6 11.45, 36.8 1.52 M3.34 40.01 C11.76 32.46, 18.52 24.01, 36.8 1.52 M3.08 46.41 C10.87 36.76, 23.72 24.69, 42.45 1.12 M3.08 46.41 C17.6 27.88, 34.06 10.28, 42.45 1.12 M3.48 52.05 C14.24 40.77, 22.08 28.51, 47.43 1.48 M3.48 52.05 C19.95 33.79, 36.27 15.76, 47.43 1.48 M3.22 58.45 C16.11 44, 24.48 31.35, 53.08 1.09 M3.22 58.45 C16.49 44.43, 29.76 27.92, 53.08 1.09 M3.61 64.09 C15.79 46.84, 30.85 31.96, 58.06 1.45 M3.61 64.09 C25.97 39.22, 47.12 14.55, 58.06 1.45 M3.35 70.49 C25.36 47.64, 42.16 22.91, 63.71 1.05 M3.35 70.49 C21.58 50.08, 40.71 27.62, 63.71 1.05 M3.09 76.88 C30.48 46.1, 54.9 18.85, 68.69 1.41 M3.09 76.88 C28.75 48.36, 54.86 17.66, 68.69 1.41 M3.48 82.53 C16.43 63.99, 34.34 49.66, 74.34 1.02 M3.48 82.53 C18.62 65.61, 32.68 49.47, 74.34 1.02 M4.53 87.42 C36.32 53.91, 65.08 20.76, 79.32 1.38 M4.53 87.42 C22.68 66.18, 38.56 45.98, 79.32 1.38 M6.24 91.55 C30.44 65.19, 49.92 42.02, 84.97 0.98 M6.24 91.55 C23.58 72.61, 39.31 54.19, 84.97 0.98 M8.6 94.93 C27.47 73.39, 43.83 51.44, 89.95 1.34 M8.6 94.93 C31.9 67.49, 53.85 41.83, 89.95 1.34 M11.62 97.55 C38.64 63.73, 67.33 33.62, 95.6 0.95 M11.62 97.55 C41.05 62.81, 72.16 28.27, 95.6 0.95 M15.3 99.42 C42.57 72.17, 66.96 38.82, 100.58 1.31 M15.3 99.42 C39.06 73.23, 62.32 44.79, 100.58 1.31 M20.28 99.78 C55.89 63.02, 88.41 23.03, 105.57 1.67 M20.28 99.78 C44.53 73.47, 67.86 47.79, 105.57 1.67 M25.27 100.14 C50.44 72.62, 76.26 42.38, 111.21 1.28 M25.27 100.14 C47.14 75.14, 67.5 50.66, 111.21 1.28 M30.91 99.75 C48.61 77.09, 70.95 54.07, 116.2 1.64 M30.91 99.75 C64.02 62, 95.87 25.99, 116.2 1.64 M35.9 100.11 C57.85 75.41, 80.58 46.01, 121.84 1.24 M35.9 100.11 C53.52 80.39, 71.02 60.89, 121.84 1.24 M41.54 99.71 C61.81 78.07, 82.78 53.12, 126.83 1.6 M41.54 99.71 C63.14 75.3, 83.65 50.23, 126.83 1.6 M46.53 100.07 C79.36 63.03, 112.9 21.92, 132.47 1.21 M46.53 100.07 C67.87 73.57, 91.15 47.02, 132.47 1.21 M52.17 99.68 C84.63 64.46, 113.07 29.59, 137.46 1.57 M52.17 99.68 C77.7 70.81, 103.15 41.47, 137.46 1.57 M57.16 100.04 C74.82 79.6, 95.83 59.54, 143.1 1.17 M57.16 100.04 C83.46 69.07, 110.68 38.23, 143.1 1.17 M62.8 99.64 C93.32 60.83, 129.4 25.81, 148.09 1.53 M62.8 99.64 C86.51 74.52, 108.18 48.84, 148.09 1.53 M67.79 100 C98.05 62.71, 128.52 29.14, 153.73 1.14 M67.79 100 C94.46 68.58, 120.16 37.02, 153.73 1.14 M73.43 99.61 C93.77 77.55, 113.87 55.23, 158.72 1.5 M73.43 99.61 C101.06 69.1, 127.92 35.89, 158.72 1.5 M78.42 99.97 C102.11 70.81, 126.31 44.56, 164.36 1.1 M78.42 99.97 C99.26 76.33, 118.7 54.32, 164.36 1.1 M83.41 100.33 C103.83 76.81, 127.1 50.86, 169.35 1.46 M83.41 100.33 C117.28 60.93, 151.25 21.99, 169.35 1.46 M89.05 99.94 C114.87 71.09, 136.74 43.47, 174.99 1.07 M89.05 99.94 C118.42 68.08, 145.6 36.82, 174.99 1.07 M94.04 100.3 C121.34 68.23, 151.01 33.86, 179.98 1.43 M94.04 100.3 C113.85 76.99, 132.37 54.73, 179.98 1.43 M99.68 99.9 C122.29 72.48, 143.12 48.93, 185.62 1.03 M99.68 99.9 C117.2 80.02, 133.62 58.86, 185.62 1.03 M104.67 100.26 C123.56 74.11, 146.42 52.59, 190.61 1.39 M104.67 100.26 C132.79 69.78, 160.3 38.17, 190.61 1.39 M110.31 99.87 C130.23 81.44, 145.33 59.7, 196.25 1 M110.31 99.87 C127.23 79.23, 146.32 58.34, 196.25 1 M115.3 100.23 C134.45 78.89, 156.06 55.4, 201.24 1.36 M115.3 100.23 C148.49 61.99, 182.02 24.86, 201.24 1.36 M120.94 99.83 C146.26 67.46, 174.21 37.89, 206.88 0.97 M120.94 99.83 C140.14 76.26, 161.22 54.05, 206.88 0.97 M125.93 100.19 C143.83 76.99, 166.46 55.32, 211.87 1.33 M125.93 100.19 C150.46 72.24, 172.81 44.33, 211.87 1.33 M131.57 99.8 C152.15 73.05, 175.71 48.35, 216.86 1.69 M131.57 99.8 C152.29 75.47, 175.23 50.83, 216.86 1.69 M136.56 100.16 C161.48 70.01, 185.29 41.62, 223.16 0.54 M136.56 100.16 C163.39 69, 190.31 39.14, 223.16 0.54 M142.2 99.76 C166.4 68.55, 192.82 39.71, 228.14 0.9 M142.2 99.76 C164.93 73.28, 187.12 48.67, 228.14 0.9 M147.19 100.12 C171.29 71.46, 196.53 43.45, 232.48 2.01 M147.19 100.12 C170.62 70.25, 197.43 42.86, 232.48 2.01 M152.83 99.73 C185.06 60.86, 218.32 25.27, 236.15 3.88 M152.83 99.73 C178.42 69.22, 205.86 38.8, 236.15 3.88 M157.82 100.09 C180 72.53, 204.93 47.78, 240.48 5 M157.82 100.09 C184.14 69.87, 208.47 41.07, 240.48 5 M163.46 99.69 C184.53 76.51, 203.29 54.25, 242.84 8.37 M163.46 99.69 C184.45 74.64, 205.06 51.34, 242.84 8.37 M168.45 100.05 C195.31 69.71, 219.58 43.16, 245.86 11 M168.45 100.05 C197.09 69.21, 223.93 38.67, 245.86 11 M174.09 99.66 C197.19 71.3, 223.27 44.33, 247.57 15.13 M174.09 99.66 C191.53 79.57, 210.05 58.71, 247.57 15.13 M179.08 100.02 C193.56 79.02, 211.42 63.41, 248.62 20.02 M179.08 100.02 C198.63 78.71, 216.32 57.49, 248.62 20.02 M184.72 99.63 C199.73 83.62, 214.72 64.87, 248.36 26.42 M184.72 99.63 C208.94 73.04, 231.98 45.91, 248.36 26.42 M189.71 99.99 C204.18 80.53, 222.5 63.44, 248.75 32.06 M189.71 99.99 C201.83 84.28, 215.62 69.24, 248.75 32.06 M195.35 99.59 C210.72 83.45, 225.06 67.88, 248.49 38.46 M195.35 99.59 C207.41 83.85, 221.53 68.37, 248.49 38.46 M200.34 99.95 C221.18 79.14, 238.55 55.2, 248.89 44.1 M200.34 99.95 C213.48 86.33, 225.03 72.81, 248.89 44.1 M205.33 100.31 C220.96 82.1, 236.31 64.96, 248.63 50.5 M205.33 100.31 C217.86 87.71, 228.58 74.01, 248.63 50.5 M210.97 99.92 C218.89 88.88, 232.46 79.01, 249.02 56.14 M210.97 99.92 C220.74 87.68, 231.8 76.37, 249.02 56.14 M215.96 100.28 C223.93 90.56, 230.01 82.54, 248.76 62.54 M215.96 100.28 C225.43 89.05, 235.09 76.6, 248.76 62.54 M221.6 99.88 C225.8 93.2, 232.28 86.23, 249.15 68.18 M221.6 99.88 C228.39 91.05, 235.52 82.79, 249.15 68.18 M225.27 101.75 C233.87 93.88, 240.42 85.73, 248.24 75.34 M225.27 101.75 C229.69 96.29, 236.34 90.24, 248.24 75.34 M232.23 99.85 C237.16 96.4, 239.71 89.49, 247.32 82.49 M232.23 99.85 C237.54 93.86, 243.89 87.52, 247.32 82.49 M6.31 93.34 C6.31 93.34, 6.31 93.34, 6.31 93.34 M6.31 93.34 C6.31 93.34, 6.31 93.34, 6.31 93.34 M15.73 96.22 C13.24 93.6, 11.34 93.71, 5.92 87.7 M15.73 96.22 C11.95 93.53, 8.65 89.66, 5.92 87.7 M25.15 99.11 C19.4 93.85, 9.54 88.2, 1.75 78.77 M25.15 99.11 C18.18 92.3, 9.59 85.41, 1.75 78.77 M31.54 99.37 C21.05 88.9, 8.96 80.41, 2.11 73.79 M31.54 99.37 C24.05 92.02, 16.43 85.63, 2.11 73.79 M37.19 98.98 C24.31 87.97, 8.81 73.72, 1.72 68.14 M37.19 98.98 C28.72 91.55, 20.79 84.44, 1.72 68.14 M43.58 99.24 C33.23 90.28, 20.1 81.38, 2.08 63.16 M43.58 99.24 C33.61 89.78, 22.89 79.59, 2.08 63.16 M49.23 98.84 C39.38 90.58, 25.83 78.58, 1.68 57.51 M49.23 98.84 C32.85 84.15, 17.08 69.85, 1.68 57.51 M55.62 99.11 C41.86 85.67, 22.8 71.23, 2.04 52.53 M55.62 99.11 C34.07 81.1, 13.69 61.74, 2.04 52.53 M62.02 99.37 C42.33 83.79, 23.7 65.73, 1.65 46.88 M62.02 99.37 C41.22 82.01, 18.64 63.29, 1.65 46.88 M67.67 98.97 C47.12 82.31, 26.45 62.36, 2.01 41.9 M67.67 98.97 C43.93 78.77, 20.47 58.25, 2.01 41.9 M74.06 99.23 C46.28 75.18, 22.13 51.65, 1.61 36.25 M74.06 99.23 C50.41 77.72, 27.09 57.16, 1.61 36.25 M79.71 98.84 C51.84 78.44, 25.78 54.64, 1.97 31.27 M79.71 98.84 C64.57 85.94, 47.71 72.07, 1.97 31.27 M86.1 99.1 C57.33 75.17, 28.08 47.75, 1.58 25.62 M86.1 99.1 C67.85 82.33, 49.32 65.12, 1.58 25.62 M92.5 99.36 C56.15 71.34, 24.01 41.39, 1.94 20.64 M92.5 99.36 C58.36 70.32, 23.31 39.52, 1.94 20.64 M98.15 98.97 C69.38 74.28, 44.65 49.5, 3.05 16.3 M98.15 98.97 C77.81 81.59, 58.9 64.4, 3.05 16.3 M104.54 99.23 C68.5 66.86, 27.89 31.91, 4.17 11.97 M104.54 99.23 C73.76 72.3, 42.03 43.99, 4.17 11.97 M110.19 98.83 C88.95 79.39, 67.45 61.79, 5.28 7.64 M110.19 98.83 C77.29 68.52, 42.66 40.38, 5.28 7.64 M116.58 99.1 C72.11 62.59, 30.16 22.28, 7.91 4.62 M116.58 99.1 C90.43 77.33, 66.39 54.47, 7.91 4.62 M122.98 99.36 C96.56 75.83, 67.24 53.63, 11.28 2.26 M122.98 99.36 C80.51 63.16, 38.7 27.29, 11.28 2.26 M128.62 98.96 C91.19 67.91, 55.45 34.86, 15.42 0.55 M128.62 98.96 C91.72 68.11, 55.64 37.31, 15.42 0.55 M135.02 99.22 C102.83 73.01, 74.05 45.14, 20.31 -0.5 M135.02 99.22 C101.87 71.92, 71.43 43.57, 20.31 -0.5 M140.67 98.83 C118.24 77.68, 93.47 58.44, 25.95 -0.89 M140.67 98.83 C96.5 61.54, 51.65 21.99, 25.95 -0.89 M147.06 99.09 C108.32 66.79, 73.05 32.65, 31.59 -1.29 M147.06 99.09 C109.17 64.56, 71.96 33.36, 31.59 -1.29 M153.46 99.35 C118.32 69.04, 82.61 38, 37.99 -1.02 M153.46 99.35 C107.62 61.29, 61.61 20.93, 37.99 -1.02 M159.1 98.96 C121.91 67.08, 87.46 32.59, 44.39 -0.76 M159.1 98.96 C123.59 70.69, 88.87 40.07, 44.39 -0.76 M165.5 99.22 C139.1 75.61, 109.91 52.93, 50.03 -1.16 M165.5 99.22 C129.49 68.21, 94.08 37.06, 50.03 -1.16 M171.15 98.83 C125.43 59.65, 80.06 16.82, 56.43 -0.9 M171.15 98.83 C129.16 61.15, 86.5 24.08, 56.43 -0.9 M177.54 99.09 C145.69 73.86, 115.15 48.44, 62.07 -1.29 M177.54 99.09 C146.07 70.99, 114.54 43.59, 62.07 -1.29 M183.94 99.35 C142.19 62.81, 100.46 24.3, 68.47 -1.03 M183.94 99.35 C138.91 59.99, 92.38 21.38, 68.47 -1.03 M189.58 98.95 C148.9 63.39, 107.37 26.42, 74.87 -0.77 M189.58 98.95 C163.56 77.5, 137.59 54.27, 74.87 -0.77 M195.98 99.21 C169.6 79.72, 148.38 55.64, 80.51 -1.16 M195.98 99.21 C150.38 61.7, 105.38 20.9, 80.51 -1.16 M201.62 98.82 C160.13 60.23, 114.98 23.63, 86.91 -0.9 M201.62 98.82 C169.44 72.51, 138.45 44.22, 86.91 -0.9 M208.02 99.08 C183.35 75.58, 156.48 50.58, 92.55 -1.3 M208.02 99.08 C173.17 68.47, 140.18 38.47, 92.55 -1.3 M214.42 99.34 C181.88 71.61, 150.92 41.54, 98.95 -1.03 M214.42 99.34 C174.59 65.37, 134.38 30.25, 98.95 -1.03 M220.06 98.95 C183.72 68.64, 150.98 38.67, 105.35 -0.77 M220.06 98.95 C194.6 77.82, 169.68 55.44, 105.35 -0.77 M224.95 97.9 C195.11 72.46, 165.02 45.17, 110.99 -1.17 M224.95 97.9 C190.03 69.33, 156.7 38.91, 110.99 -1.17 M229.09 96.19 C184.6 57.06, 143 19.91, 117.39 -0.91 M229.09 96.19 C189.22 60.47, 150.23 24.88, 117.39 -0.91 M233.97 95.14 C201.44 67.93, 169.74 41.98, 123.03 -1.3 M233.97 95.14 C207.46 72.1, 178.28 48.82, 123.03 -1.3 M239.62 94.75 C209.95 72.03, 183.87 44.68, 129.43 -1.04 M239.62 94.75 C206.7 67.25, 174.91 39.56, 129.43 -1.04 M242.24 91.73 C205.22 62.43, 169.27 30.18, 135.83 -0.78 M242.24 91.73 C219.87 72.7, 196.65 53.23, 135.83 -0.78 M244.87 88.71 C211.65 59.45, 180.83 29.63, 141.47 -1.17 M244.87 88.71 C214.52 62.65, 183.63 35.75, 141.47 -1.17 M246.73 85.03 C213.67 56.68, 182.33 25.11, 147.87 -0.91 M246.73 85.03 C217.71 60.83, 189.89 34.49, 147.87 -0.91 M247.09 80.05 C222.02 60.43, 200.19 40.04, 153.51 -1.31 M247.09 80.05 C228.66 61.93, 208.66 43.8, 153.51 -1.31 M248.21 75.72 C226.12 55.65, 202.25 35.72, 159.91 -1.04 M248.21 75.72 C225.17 54.85, 201.75 35.12, 159.91 -1.04 M250.08 72.04 C221.86 50.05, 195.04 24.71, 166.31 -0.78 M250.08 72.04 C217.12 44.23, 185.86 16.48, 166.31 -0.78 M250.44 67.05 C217.54 38.58, 189.41 14.46, 171.95 -1.18 M250.44 67.05 C219.37 40.63, 189.8 12.54, 171.95 -1.18 M250.04 61.41 C229.46 42.39, 208.23 21.99, 178.35 -0.92 M250.04 61.41 C225.58 39.46, 201.47 19.22, 178.35 -0.92 M249.65 55.77 C228.33 39.58, 209.26 21.62, 183.99 -1.31 M249.65 55.77 C232.95 40.07, 215.84 26.49, 183.99 -1.31 M250.01 50.78 C230.45 31.68, 207.14 15.25, 190.39 -1.05 M250.01 50.78 C231.41 34.55, 214.51 19.01, 190.39 -1.05 M249.62 45.14 C237.41 33.78, 222.97 22.03, 196.79 -0.79 M249.62 45.14 C233.96 31.91, 219.25 19.48, 196.79 -0.79 M249.98 40.15 C234.95 30.49, 222.39 15.09, 202.43 -1.18 M249.98 40.15 C238.11 29.58, 226.57 20.63, 202.43 -1.18 M249.58 34.51 C234.2 20.5, 220.66 6.36, 208.83 -0.92 M249.58 34.51 C242.17 27.48, 233.24 19.4, 208.83 -0.92 M249.94 29.52 C237.77 17.69, 222.77 5.45, 214.47 -1.31 M249.94 29.52 C239.7 21.8, 230.04 13.78, 214.47 -1.31 M249.55 23.88 C241.3 17.38, 230 7.45, 220.87 -1.05 M249.55 23.88 C243.6 17.91, 236.54 13.36, 220.87 -1.05 M248.4 17.58 C242.04 13.91, 238.14 7.23, 225 -2.76 M248.4 17.58 C243.02 12.54, 236.71 8.62, 225 -2.76" stroke="#a5d8ff" stroke-width="0.5" fill="none"></path><path d="M24.87 0 M24.87 0 C103.65 0.4, 179.69 1.51, 223.03 0 M24.87 0 C75.54 -0.28, 126.77 -0.39, 223.03 0 M223.03 0 C240.08 -1.06, 246.96 10.01, 247.89 24.87 M223.03 0 C241.25 -2.29, 248.3 8.53, 247.89 24.87 M247.89 24.87 C248.4 44.33, 247.26 61.68, 247.89 74.61 M247.89 24.87 C247.77 42.02, 247.52 59.21, 247.89 74.61 M247.89 74.61 C247.85 89.99, 239.43 97.75, 223.03 99.47 M247.89 74.61 C247.67 90.46, 239.89 98.56, 223.03 99.47 M223.03 99.47 C168.62 101.88, 114.53 99.68, 24.87 99.47 M223.03 99.47 C178.2 98.01, 134.6 97.98, 24.87 99.47 M24.87 99.47 C9.58 100.19, -1.98 93.09, 0 74.61 M24.87 99.47 C9.97 100.98, -1.71 92.2, 0 74.61 M0 74.61 C0.38 56.93, 0.46 42.73, 0 24.87 M0 74.61 C0.37 59.09, -0.93 44.43, 0 24.87 M0 24.87 C-1.95 9.96, 8.18 0.52, 24.87 0 M0 24.87 C-0.42 9.87, 7.91 1.21, 24.87 0" stroke="#1e1e1e" stroke-width="1" fill="none"></path></g><g stroke-linecap="round" transform="translate(369.7894736842104 344.4210526315786) rotate(0 123.94736842105249 49.73684210526312)"><path d="M5.96 6.51 C5.96 6.51, 5.96 6.51, 5.96 6.51 M5.96 6.51 C5.96 6.51, 5.96 6.51, 5.96 6.51 M6.36 12.15 C9.27 9.98, 9.41 7.43, 14.89 2.34 M6.36 12.15 C8.24 10.51, 10 7.85, 14.89 2.34 M3.47 21.57 C8.94 15.18, 14.56 7.31, 21.19 1.19 M3.47 21.57 C8.82 15.89, 13.3 10.18, 21.19 1.19 M3.21 27.97 C11.37 21.76, 18.67 11.55, 26.17 1.55 M3.21 27.97 C12.82 17.3, 20.65 8.44, 26.17 1.55 M3.61 33.61 C9.63 26.98, 18.85 15.74, 31.82 1.16 M3.61 33.61 C14.84 22.65, 24 9.19, 31.82 1.16 M3.34 40.01 C10.73 28.93, 19.55 21.01, 36.8 1.52 M3.34 40.01 C15.34 26.02, 29.16 9.98, 36.8 1.52 M3.08 46.41 C20.45 29.49, 32.68 8.32, 42.45 1.12 M3.08 46.41 C11.19 35.94, 21.65 26.61, 42.45 1.12 M3.48 52.05 C17.87 37.74, 29.53 23.51, 47.43 1.48 M3.48 52.05 C16.45 35.36, 31.54 20.12, 47.43 1.48 M3.22 58.45 C13.77 46.27, 24.45 33.83, 53.08 1.09 M3.22 58.45 C21.72 36.84, 41.75 14.01, 53.08 1.09 M3.61 64.09 C16.85 50.2, 25.9 39.16, 58.06 1.45 M3.61 64.09 C17.5 48.94, 30.95 33.55, 58.06 1.45 M3.35 70.49 C24.5 46.15, 45.4 22.93, 63.71 1.05 M3.35 70.49 C26.24 44.97, 46.78 20.08, 63.71 1.05 M3.09 76.88 C21.28 58.1, 35.02 39.61, 68.69 1.41 M3.09 76.88 C26.98 48.98, 52.64 18.54, 68.69 1.41 M3.48 82.53 C15.66 63.52, 31.35 47.85, 74.34 1.02 M3.48 82.53 C22.52 61.66, 38.7 42.89, 74.34 1.02 M4.53 87.42 C25.27 61.11, 49.81 36.47, 79.32 1.38 M4.53 87.42 C21.1 69.22, 37.04 52.38, 79.32 1.38 M6.24 91.55 C22.42 69.68, 44.2 51.82, 84.97 0.98 M6.24 91.55 C30.7 62.22, 56.65 32.58, 84.97 0.98 M8.6 94.93 C32.45 68.48, 57.58 42.79, 89.95 1.34 M8.6 94.93 C27.34 73.32, 46.06 52.28, 89.95 1.34 M11.62 97.55 C31.96 75.85, 48.56 52.5, 95.6 0.95 M11.62 97.55 C31.66 74.12, 51.24 51.62, 95.6 0.95 M15.3 99.42 C48.29 60.51, 83.32 23.32, 100.58 1.31 M15.3 99.42 C49.59 61, 82.24 24.03, 100.58 1.31 M20.28 99.78 C51.68 61.47, 83.03 26.23, 105.57 1.67 M20.28 99.78 C43.11 71.83, 67.3 45.04, 105.57 1.67 M25.27 100.14 C57.8 60.05, 94.81 23.19, 111.21 1.28 M25.27 100.14 C47.46 73.61, 72.29 46.48, 111.21 1.28 M30.91 99.75 C57.4 68.85, 80.97 40.91, 116.2 1.64 M30.91 99.75 C51.49 75.63, 71.31 52.15, 116.2 1.64 M35.9 100.11 C66.55 65.37, 98.64 28.96, 121.84 1.24 M35.9 100.11 C61.01 68.74, 87.24 39.39, 121.84 1.24 M41.54 99.71 C68.87 68.9, 99.41 35.9, 126.83 1.6 M41.54 99.71 C74.52 62.03, 104.85 25.23, 126.83 1.6 M46.53 100.07 C78.2 65.37, 111.26 26.17, 132.47 1.21 M46.53 100.07 C75.02 68.16, 101.5 37.9, 132.47 1.21 M52.17 99.68 C76.54 72.53, 98.92 44.91, 137.46 1.57 M52.17 99.68 C74.31 72.98, 98.47 46.01, 137.46 1.57 M57.16 100.04 C85.62 66.29, 113.51 32.04, 143.1 1.17 M57.16 100.04 C77.55 78.2, 97.45 54.03, 143.1 1.17 M62.8 99.64 C83.69 71.11, 106.81 47.86, 148.09 1.53 M62.8 99.64 C93.83 65.31, 122.34 29.61, 148.09 1.53 M67.79 100 C88.04 79.51, 108.66 56.96, 153.73 1.14 M67.79 100 C97.28 65.31, 126.73 32.25, 153.73 1.14 M73.43 99.61 C94.6 76.38, 114.7 51.83, 158.72 1.5 M73.43 99.61 C104.92 64.64, 136.37 27.56, 158.72 1.5 M78.42 99.97 C98 75.83, 119.16 53.19, 164.36 1.1 M78.42 99.97 C99.08 74.67, 121.31 50.86, 164.36 1.1 M83.41 100.33 C114.96 65.84, 144.68 30.74, 169.35 1.46 M83.41 100.33 C110.57 67.71, 137.48 37.65, 169.35 1.46 M89.05 99.94 C107.99 78.7, 125.05 61.24, 174.99 1.07 M89.05 99.94 C114.85 70.31, 139.22 39.8, 174.99 1.07 M94.04 100.3 C119.73 70.93, 149.62 39.7, 179.98 1.43 M94.04 100.3 C122.22 67.73, 151.46 35.99, 179.98 1.43 M99.68 99.9 C117.75 78.99, 139.5 55.49, 185.62 1.03 M99.68 99.9 C131.78 63.76, 165.12 25.85, 185.62 1.03 M104.67 100.26 C123.45 77.62, 140.59 57.25, 190.61 1.39 M104.67 100.26 C133.51 64.42, 164.49 31.1, 190.61 1.39 M110.31 99.87 C143.41 60.13, 180.11 18.94, 196.25 1 M110.31 99.87 C135.4 70.5, 162.3 39.62, 196.25 1 M115.3 100.23 C150.46 60.23, 183.86 21.88, 201.24 1.36 M115.3 100.23 C140.43 70.16, 166.83 39.24, 201.24 1.36 M120.94 99.83 C145.58 68.06, 174.04 38.63, 206.88 0.97 M120.94 99.83 C139.26 78.16, 160.14 54.08, 206.88 0.97 M125.93 100.19 C151.05 70.26, 178.62 41.32, 211.87 1.33 M125.93 100.19 C152.76 70.02, 180.3 38.57, 211.87 1.33 M131.57 99.8 C155.84 70.96, 180.07 41.05, 216.86 1.69 M131.57 99.8 C153.08 74.49, 176.29 48.46, 216.86 1.69 M136.56 100.16 C158.6 74.9, 180.47 50.9, 223.16 0.54 M136.56 100.16 C157.32 76.08, 178.74 50.63, 223.16 0.54 M142.2 99.76 C162.96 76.35, 184.01 52.65, 228.14 0.9 M142.2 99.76 C159.72 77.91, 176.76 57.38, 228.14 0.9 M147.19 100.12 C171.1 74.41, 195.33 44.72, 232.48 2.01 M147.19 100.12 C165.85 78.01, 183.88 56.71, 232.48 2.01 M152.83 99.73 C169.7 81.33, 185.21 59.71, 236.15 3.88 M152.83 99.73 C173.1 76.91, 193.61 51.82, 236.15 3.88 M157.82 100.09 C178.5 74.32, 201.13 52.11, 240.48 5 M157.82 100.09 C180.65 73.6, 204.68 48.22, 240.48 5 M163.46 99.69 C187.56 72.67, 213.31 43.36, 242.84 8.37 M163.46 99.69 C185.1 74.55, 204.9 51.06, 242.84 8.37 M168.45 100.05 C186.15 78.62, 199.92 62.37, 245.86 11 M168.45 100.05 C191.29 74.23, 214.34 47.42, 245.86 11 M174.09 99.66 C193.55 76.36, 214.28 50.31, 247.57 15.13 M174.09 99.66 C196.27 73.87, 219.84 45.73, 247.57 15.13 M179.08 100.02 C193.5 81.05, 207.9 65.99, 248.62 20.02 M179.08 100.02 C198.7 76.86, 219.25 54.44, 248.62 20.02 M184.72 99.63 C208.79 71.93, 229.61 47.55, 248.36 26.42 M184.72 99.63 C206.51 74.9, 228.83 48.95, 248.36 26.42 M189.71 99.99 C202.41 84.97, 218.96 64.72, 248.75 32.06 M189.71 99.99 C207.88 79.7, 225.43 58.79, 248.75 32.06 M195.35 99.59 C210.85 80.2, 230.3 58.53, 248.49 38.46 M195.35 99.59 C211.15 83.34, 224.19 66.67, 248.49 38.46 M200.34 99.95 C216.56 79.25, 236.04 62.26, 248.89 44.1 M200.34 99.95 C217.14 81.36, 233.32 61.94, 248.89 44.1 M205.33 100.31 C215.85 86.93, 226.74 75.86, 248.63 50.5 M205.33 100.31 C219.91 83.29, 234.75 64.86, 248.63 50.5 M210.97 99.92 C221.77 84.71, 233.13 71.09, 249.02 56.14 M210.97 99.92 C218.47 90.28, 228.08 81.11, 249.02 56.14 M215.96 100.28 C225.75 91.27, 235.15 78.24, 248.76 62.54 M215.96 100.28 C226.82 87.4, 239.86 73.33, 248.76 62.54 M221.6 99.88 C230.44 89.69, 241.33 77.5, 249.15 68.18 M221.6 99.88 C230.11 90.34, 238.79 81.98, 249.15 68.18 M225.27 101.75 C231.8 92.57, 240.86 81.57, 248.24 75.34 M225.27 101.75 C233.53 91.92, 241.32 82.41, 248.24 75.34 M232.23 99.85 C239.56 93.49, 243.13 86.12, 247.32 82.49 M232.23 99.85 C237.16 94.25, 243.47 86.77, 247.32 82.49 M6.31 93.34 C6.31 93.34, 6.31 93.34, 6.31 93.34 M6.31 93.34 C6.31 93.34, 6.31 93.34, 6.31 93.34 M15.73 96.22 C14.17 94.69, 10.77 91.77, 5.92 87.7 M15.73 96.22 C12.33 93.65, 9.52 90.64, 5.92 87.7 M25.15 99.11 C17.95 94.24, 9.61 87.14, 1.75 78.77 M25.15 99.11 C19.47 94.21, 13.14 88.03, 1.75 78.77 M31.54 99.37 C24.5 94.84, 19.38 88.82, 2.11 73.79 M31.54 99.37 C25.39 92.58, 17.68 87.68, 2.11 73.79 M37.19 98.98 C23.85 88.96, 14.21 77.48, 1.72 68.14 M37.19 98.98 C27.49 90.93, 18.04 83.15, 1.72 68.14 M43.58 99.24 C29.18 88.28, 14.96 77.15, 2.08 63.16 M43.58 99.24 C29.82 87.66, 18.25 77.48, 2.08 63.16 M49.23 98.84 C31.95 82.72, 11.98 67.45, 1.68 57.51 M49.23 98.84 C34.99 87.66, 22.02 75.89, 1.68 57.51 M55.62 99.11 C43.15 84.3, 26.44 71.09, 2.04 52.53 M55.62 99.11 C38.55 83.63, 20.15 67.95, 2.04 52.53 M62.02 99.37 C41.54 80.74, 19.55 62.31, 1.65 46.88 M62.02 99.37 C39.91 79.17, 17.17 60.2, 1.65 46.88 M67.67 98.97 C42.68 76.83, 15.42 54.28, 2.01 41.9 M67.67 98.97 C45.67 78.7, 21.8 59.15, 2.01 41.9 M74.06 99.23 C53.37 82.48, 30.47 63.23, 1.61 36.25 M74.06 99.23 C57.29 84, 40.75 67.92, 1.61 36.25 M79.71 98.84 C49.33 73.9, 24.29 49.5, 1.97 31.27 M79.71 98.84 C58.3 79.06, 35.29 59.49, 1.97 31.27 M86.1 99.1 C55.18 70.66, 25.07 46.72, 1.58 25.62 M86.1 99.1 C56.78 73.87, 27.24 46.6, 1.58 25.62 M92.5 99.36 C62.5 72.96, 29.61 46.45, 1.94 20.64 M92.5 99.36 C56.38 68.29, 20.86 36.55, 1.94 20.64 M98.15 98.97 C72.23 76.17, 50.79 55.68, 3.05 16.3 M98.15 98.97 C69.78 74.04, 39.61 50.53, 3.05 16.3 M104.54 99.23 C66.87 65.41, 27.9 33.28, 4.17 11.97 M104.54 99.23 C68.23 67.15, 33.9 36.7, 4.17 11.97 M110.19 98.83 C85.11 76.62, 58 55.85, 5.28 7.64 M110.19 98.83 C85.09 77.58, 57.59 53.94, 5.28 7.64 M116.58 99.1 C73.56 64.56, 32.34 26.53, 7.91 4.62 M116.58 99.1 C73.8 62.4, 33.25 27.32, 7.91 4.62 M122.98 99.36 C90.78 70.71, 56.13 39.33, 11.28 2.26 M122.98 99.36 C96.89 75.51, 68.86 51.67, 11.28 2.26 M128.62 98.96 C84.4 63.08, 40.34 23.1, 15.42 0.55 M128.62 98.96 C90.87 67.96, 53.02 34.72, 15.42 0.55 M135.02 99.22 C89.77 62.59, 46.28 21.44, 20.31 -0.5 M135.02 99.22 C96.66 66.65, 60.21 35.09, 20.31 -0.5 M140.67 98.83 C108.85 70.08, 74.32 41.61, 25.95 -0.89 M140.67 98.83 C95.69 60.8, 49.78 20.15, 25.95 -0.89 M147.06 99.09 C110.62 64.48, 71.88 32.08, 31.59 -1.29 M147.06 99.09 C124.08 78.83, 100.51 58.77, 31.59 -1.29 M153.46 99.35 C119.56 69.09, 81.61 35.92, 37.99 -1.02 M153.46 99.35 C108.89 58.49, 62.31 19.03, 37.99 -1.02 M159.1 98.96 C119.56 64.36, 82.08 28.85, 44.39 -0.76 M159.1 98.96 C113.58 59.48, 68.9 21.11, 44.39 -0.76 M165.5 99.22 C129.82 67.23, 93.22 35.02, 50.03 -1.16 M165.5 99.22 C132.03 68.19, 95.54 38.4, 50.03 -1.16 M171.15 98.83 C130.31 60.34, 85.66 25.03, 56.43 -0.9 M171.15 98.83 C136.73 70.75, 104.74 40.64, 56.43 -0.9 M177.54 99.09 C143.02 70.54, 107.17 39.88, 62.07 -1.29 M177.54 99.09 C142.8 68.95, 106.28 37.67, 62.07 -1.29 M183.94 99.35 C148.69 68.31, 110.5 36.38, 68.47 -1.03 M183.94 99.35 C154.63 72.71, 123.74 46.38, 68.47 -1.03 M189.58 98.95 C152.57 68.12, 120.49 37.99, 74.87 -0.77 M189.58 98.95 C148.64 64.69, 109.73 28.56, 74.87 -0.77 M195.98 99.21 C153.89 61.98, 110.07 23.06, 80.51 -1.16 M195.98 99.21 C152 57.94, 105.1 19.95, 80.51 -1.16 M201.62 98.82 C166.09 68.41, 131.74 36.69, 86.91 -0.9 M201.62 98.82 C155.62 59.09, 110.23 20.84, 86.91 -0.9 M208.02 99.08 C169.29 66.58, 129.7 32.25, 92.55 -1.3 M208.02 99.08 C170.58 67.92, 133.79 35.48, 92.55 -1.3 M214.42 99.34 C176.76 64.7, 137.99 31.69, 98.95 -1.03 M214.42 99.34 C173.84 63.48, 133.48 27.14, 98.95 -1.03 M220.06 98.95 C188.99 74.33, 161.47 48.48, 105.35 -0.77 M220.06 98.95 C176.15 61.57, 133.61 24.58, 105.35 -0.77 M224.95 97.9 C187.86 65.03, 151.41 31.34, 110.99 -1.17 M224.95 97.9 C183.16 61.66, 140.48 24.56, 110.99 -1.17 M229.09 96.19 C204.77 73.07, 177.49 52.08, 117.39 -0.91 M229.09 96.19 C195.84 68.09, 164.09 39.26, 117.39 -0.91 M233.97 95.14 C199.47 67.28, 168.13 39.8, 123.03 -1.3 M233.97 95.14 C199.44 65.91, 164.49 34.14, 123.03 -1.3 M239.62 94.75 C197.77 56.32, 157.76 18.97, 129.43 -1.04 M239.62 94.75 C210.4 69.3, 180.49 42.8, 129.43 -1.04 M242.24 91.73 C200.6 56.13, 163.38 22.13, 135.83 -0.78 M242.24 91.73 C209.68 63.54, 176.9 35.39, 135.83 -0.78 M244.87 88.71 C215.49 64.04, 187.72 39.41, 141.47 -1.17 M244.87 88.71 C213.08 59.99, 180.3 32.45, 141.47 -1.17 M246.73 85.03 C211.52 54.77, 176.43 23.46, 147.87 -0.91 M246.73 85.03 C207.47 50.94, 168.29 15.38, 147.87 -0.91 M247.09 80.05 C214.51 51.22, 183.18 27.03, 153.51 -1.31 M247.09 80.05 C218.73 54.57, 191.13 31.42, 153.51 -1.31 M248.21 75.72 C221.07 53.99, 194.11 30.48, 159.91 -1.04 M248.21 75.72 C224.73 55.96, 201.7 35.16, 159.91 -1.04 M250.08 72.04 C219.53 44.87, 187.14 15.88, 166.31 -0.78 M250.08 72.04 C226.76 51.84, 202.38 30.22, 166.31 -0.78 M250.44 67.05 C235.11 51.04, 216.56 36.67, 171.95 -1.18 M250.44 67.05 C223.58 43.24, 196.2 20.85, 171.95 -1.18 M250.04 61.41 C227.1 39.74, 203.67 20.54, 178.35 -0.92 M250.04 61.41 C232.99 48.43, 215.75 32.44, 178.35 -0.92 M249.65 55.77 C225.02 35.28, 199.99 15.06, 183.99 -1.31 M249.65 55.77 C232.08 40.15, 213.86 25.94, 183.99 -1.31 M250.01 50.78 C234.35 37.41, 217.03 22.31, 190.39 -1.05 M250.01 50.78 C232.78 35.69, 217.36 22.17, 190.39 -1.05 M249.62 45.14 C234.05 33.27, 218.84 17.27, 196.79 -0.79 M249.62 45.14 C235.81 32.47, 222.77 20.01, 196.79 -0.79 M249.98 40.15 C230.65 24.76, 214.01 7.87, 202.43 -1.18 M249.98 40.15 C238.79 29.32, 226.38 19.73, 202.43 -1.18 M249.58 34.51 C237.13 25.5, 227.27 17.86, 208.83 -0.92 M249.58 34.51 C236.29 22.6, 221.51 10.56, 208.83 -0.92 M249.94 29.52 C239.97 22.79, 231.75 11.82, 214.47 -1.31 M249.94 29.52 C237.9 19.18, 225.53 8.79, 214.47 -1.31 M249.55 23.88 C237.48 16.56, 227.22 6.5, 220.87 -1.05 M249.55 23.88 C241.51 17.83, 233.95 10.59, 220.87 -1.05 M248.4 17.58 C238.11 11.61, 230.98 2.94, 225 -2.76 M248.4 17.58 C242.92 13.01, 235.13 6.68, 225 -2.76" stroke="#ffec99" stroke-width="0.5" fill="none"></path><path d="M24.87 0 M24.87 0 C80.45 -0.52, 137.55 -0.6, 223.03 0 M24.87 0 C73.74 0.75, 121.67 2.14, 223.03 0 M223.03 0 C241.04 -1.99, 248.25 8.5, 247.89 24.87 M223.03 0 C241.49 0.78, 246.29 8.67, 247.89 24.87 M247.89 24.87 C248.66 40.95, 247.25 56.73, 247.89 74.61 M247.89 24.87 C247.68 38.41, 247.62 52.28, 247.89 74.61 M247.89 74.61 C247.7 90.55, 239.86 98.68, 223.03 99.47 M247.89 74.61 C247.2 90.15, 241.65 98.42, 223.03 99.47 M223.03 99.47 C155.67 99.16, 90.04 97.01, 24.87 99.47 M223.03 99.47 C167.33 99.46, 109.36 100.05, 24.87 99.47 M24.87 99.47 C9.75 100.79, -1.49 92.07, 0 74.61 M24.87 99.47 C9.16 100.52, -1.29 91.89, 0 74.61 M0 74.61 C-0.3 63.16, 1.35 50.51, 0 24.87 M0 74.61 C-0.67 65.12, 0.25 54.22, 0 24.87 M0 24.87 C-0.36 9.66, 7.96 1.05, 24.87 0 M0 24.87 C-0.16 7.02, 10.58 -0.71, 24.87 0" stroke="#1e1e1e" stroke-width="1" fill="none"></path></g><g transform="translate(155.3157894736844 364.8157894736837) rotate(0 99.94999694824219 37.5)"><text x="0" y="0" font-family="Virgil, Segoe UI Emoji" font-size="20px" fill="#343a40" text-anchor="start" style="white-space: pre;" direction="ltr" dominant-baseline="text-before-edge">Fix links, edit pages,</text><text x="0" y="25" font-family="Virgil, Segoe UI Emoji" font-size="20px" fill="#343a40" text-anchor="start" style="white-space: pre;" direction="ltr" dominant-baseline="text-before-edge">write intros</text><text x="0" y="50" font-family="Virgil, Segoe UI Emoji" font-size="20px" fill="#343a40" text-anchor="start" style="white-space: pre;" direction="ltr" dominant-baseline="text-before-edge"></text></g><g transform="translate(396.6052631578947 363.3684210526312) rotate(0 102.28333282470697 25)"><text x="0" y="0" font-family="Virgil, Segoe UI Emoji" font-size="20px" fill="#343a40" text-anchor="start" style="white-space: pre;" direction="ltr" dominant-baseline="text-before-edge">Read chapter one;</text><text x="0" y="25" font-family="Virgil, Segoe UI Emoji" font-size="20px" fill="#343a40" text-anchor="start" style="white-space: pre;" direction="ltr" dominant-baseline="text-before-edge">Try your first tests</text></g><g transform="translate(356.3966165413532 442.1278195488718) rotate(0 9.464285714285722 -7.321428571428555)" stroke="none"><path fill="#1e1e1e" d="M 0,-2.59 Q 0,-2.59 1.12,-2.61 2.25,-2.64 3.34,-2.75 4.42,-2.86 6.03,-3.14 7.64,-3.41 8.96,-3.54 10.28,-3.67 11.54,-3.94 12.81,-4.21 13.95,-4.27 15.09,-4.34 16.16,-4.40 17.23,-4.45 17.95,-4.48 18.66,-4.51 19.07,-4.46 19.48,-4.41 19.87,-4.26 20.26,-4.11 20.60,-3.88 20.94,-3.64 21.21,-3.33 21.49,-3.02 21.68,-2.65 21.87,-2.29 21.97,-1.88 22.07,-1.48 22.07,-1.07 22.07,-0.65 21.97,-0.25 21.87,0.14 21.68,0.51 21.49,0.88 21.21,1.19 20.94,1.50 20.60,1.73 20.26,1.97 19.87,2.12 19.48,2.26 19.07,2.31 18.66,2.36 17.29,2.10 15.93,1.84 14.39,0.74 12.85,-0.35 11.73,-0.31 10.62,-0.28 8.60,-1.73 6.58,-3.18 6.55,-4.54 6.53,-5.90 7.21,-6.83 7.89,-7.76 8.16,-8.94 8.42,-10.12 8.24,-12.29 8.07,-14.47 8.13,-15.06 8.20,-15.66 8.46,-16.20 8.72,-16.75 9.14,-17.18 9.55,-17.62 10.09,-17.89 10.62,-18.17 11.22,-18.26 11.81,-18.36 12.40,-18.26 13.00,-18.15 13.53,-17.87 14.05,-17.58 14.47,-17.14 14.88,-16.70 15.12,-16.15 15.37,-15.60 15.43,-15.01 15.49,-14.41 15.36,-13.82 15.23,-13.23 14.91,-12.72 14.60,-12.21 14.13,-11.82 13.67,-11.44 13.11,-11.22 12.55,-11.00 11.95,-10.97 11.35,-10.94 10.77,-11.11 10.19,-11.27 9.70,-11.62 9.20,-11.96 8.84,-12.44 8.48,-12.92 8.29,-13.49 8.11,-14.07 8.11,-14.67 8.11,-15.27 8.31,-15.84 8.51,-16.41 8.88,-16.88 9.24,-17.36 9.75,-17.69 10.25,-18.03 10.83,-18.18 11.41,-18.34 12.01,-18.30 12.61,-18.26 13.17,-18.04 13.72,-17.81 14.18,-17.42 14.63,-17.02 14.94,-16.50 15.25,-15.99 15.37,-15.40 15.50,-14.81 15.50,-14.81 15.50,-14.81 15.66,-11.97 15.82,-9.14 15.61,-7.94 15.40,-6.74 14.75,-5.43 14.10,-4.13 13.47,-3.23 12.83,-2.33 12.88,-3.70 12.92,-5.08 12.33,-6.31 11.73,-7.54 12.95,-7.47 14.17,-7.40 15.63,-6.74 17.10,-6.08 17.88,-5.29 18.66,-4.51 19.07,-4.46 19.48,-4.41 19.87,-4.26 20.26,-4.11 20.60,-3.88 20.94,-3.64 21.21,-3.33 21.49,-3.02 21.68,-2.65 21.87,-2.29 21.97,-1.88 22.07,-1.48 22.07,-1.07 22.07,-0.65 21.97,-0.25 21.87,0.14 21.68,0.51 21.49,0.88 21.21,1.19 20.94,1.50 20.60,1.73 20.26,1.97 19.87,2.12 19.48,2.26 19.07,2.31 18.66,2.36 18.12,2.34 17.59,2.32 16.52,2.27 15.45,2.22 14.40,1.99 13.36,1.77 11.87,2.01 10.39,2.25 9.26,2.21 8.14,2.17 6.51,2.31 4.88,2.45 3.57,2.54 2.25,2.64 1.12,2.61 0,2.59 -0.31,2.55 -0.62,2.52 -0.91,2.40 -1.20,2.29 -1.46,2.12 -1.72,1.94 -1.92,1.70 -2.13,1.47 -2.28,1.19 -2.42,0.92 -2.50,0.61 -2.57,0.31 -2.57,-0.00 -2.57,-0.31 -2.50,-0.61 -2.42,-0.92 -2.28,-1.19 -2.13,-1.47 -1.92,-1.70 -1.72,-1.94 -1.46,-2.12 -1.20,-2.29 -0.91,-2.40 -0.62,-2.52 -0.31,-2.55 0.00,-2.59 0.00,-2.59 L 0,-2.59 Z"></path></g><g transform="translate(369.2894736842104 355.8421052631576) rotate(0 0 -5)" stroke="none"><path fill="#1e1e1e" d="M -4.36,2.61 Q -4.36,2.61 -5.28,1.24 -6.20,-0.12 -8.83,-1.24 -11.46,-2.37 -12.15,-4.59 -12.84,-6.81 -12.06,-9.73 -11.28,-12.65 -8.57,-14.30 -5.85,-15.95 -3.61,-16.09 -1.37,-16.24 1.00,-15.94 3.38,-15.63 5.19,-15.64 7.00,-15.65 8.07,-15.48 9.13,-15.30 10.08,-14.80 11.03,-14.29 11.77,-13.51 12.51,-12.72 12.96,-11.75 13.41,-10.77 13.53,-9.70 13.64,-8.62 13.41,-7.57 13.18,-6.52 12.62,-5.60 12.06,-4.68 11.24,-3.98 10.42,-3.28 9.42,-2.89 8.42,-2.49 7.34,-2.43 6.26,-2.38 5.23,-2.67 4.19,-2.96 3.30,-3.56 2.41,-4.17 1.76,-5.03 1.11,-5.88 0.76,-6.91 0.42,-7.93 0.42,-9.01 0.43,-10.08 0.77,-11.10 1.12,-12.12 1.77,-12.98 2.42,-13.84 3.32,-14.44 4.21,-15.04 5.25,-15.33 6.29,-15.62 7.36,-15.56 8.44,-15.50 9.44,-15.10 10.44,-14.70 11.26,-14.00 12.08,-13.30 12.63,-12.37 13.19,-11.45 13.42,-10.40 13.65,-9.34 13.53,-8.27 13.41,-7.20 12.95,-6.23 12.50,-5.25 11.76,-4.47 11.02,-3.69 10.06,-3.18 9.11,-2.68 8.05,-2.51 6.98,-2.34 6.98,-2.34 6.99,-2.34 4.48,-2.40 1.97,-2.46 -0.44,-3.33 -2.85,-4.21 -2.37,-6.93 -1.88,-9.64 0.43,-7.63 2.75,-5.62 3.55,-4.12 4.36,-2.61 4.61,-2.05 4.86,-1.49 4.97,-0.89 5.08,-0.29 5.04,0.32 5.00,0.93 4.81,1.51 4.63,2.10 4.31,2.62 3.99,3.15 3.56,3.58 3.12,4.01 2.59,4.33 2.07,4.64 1.48,4.82 0.90,5.00 0.28,5.04 -0.32,5.07 -0.92,4.96 -1.53,4.85 -2.08,4.59 -2.64,4.34 -3.12,3.96 -3.61,3.58 -3.98,3.10 -4.36,2.61 -4.36,2.61 L -4.36,2.61 Z"></path></g></svg>